<svg width="100%" height="100%" viewBox="0 0 165 120" preserveAspectRatio="xMidYMid meet" fill="none" xmlns="http://www.w3.org/2000/svg">
<path d="M158.779 2.09598C157.622 2.09598 156.684 1.15798 156.684 0.000976562H153.584C153.584 1.15798 152.646 2.09598 151.489 2.09598C150.332 2.09598 149.394 1.15798 149.394 0.000976562H146.294C146.294 1.15798 145.356 2.09598 144.199 2.09598C143.042 2.09598 142.104 1.15798 142.104 0.000976562H139.004C139.004 1.15798 138.066 2.09598 136.909 2.09598C135.752 2.09598 134.814 1.15798 134.814 0.000976562H131.714C131.714 1.15798 130.776 2.09598 129.619 2.09598C128.462 2.09598 127.524 1.15798 127.524 0.000976562H124.424C124.424 1.15798 123.486 2.09598 122.329 2.09598C121.172 2.09598 120.234 1.15798 120.234 0.000976562H117.134C117.134 1.15798 116.196 2.09598 115.039 2.09598C113.882 2.09598 112.944 1.15798 112.944 0.000976562H109.844C109.844 1.15798 108.906 2.09598 107.749 2.09598C106.592 2.09598 105.654 1.15798 105.654 0.000976562H102.554C102.554 1.15798 101.616 2.09598 100.459 2.09598C99.302 2.09598 98.364 1.15798 98.364 0.000976562H95.263C95.263 1.15798 94.325 2.09598 93.168 2.09598C92.011 2.09598 91.073 1.15798 91.073 0.000976562H87.9729C87.9729 1.15798 87.035 2.09598 85.878 2.09598C84.721 2.09598 83.783 1.15798 83.783 0.000976562H80.683C80.683 1.15798 79.745 2.09598 78.588 2.09598C77.431 2.09598 76.493 1.15798 76.493 0.000976562H73.393C73.393 1.15798 72.455 2.09598 71.298 2.09598C70.141 2.09598 69.2029 1.15798 69.2029 0.000976562H66.103C66.103 1.15798 65.1649 2.09598 64.0079 2.09598C62.8509 2.09598 61.913 1.15798 61.913 0.000976562H58.813C58.813 1.15798 57.875 2.09598 56.718 2.09598C55.561 2.09598 54.623 1.15798 54.623 0.000976562H51.5229C51.5229 1.15798 50.585 2.09598 49.428 2.09598C48.271 2.09598 47.333 1.15798 47.333 0.000976562H44.233C44.233 1.15798 43.295 2.09598 42.138 2.09598C40.981 2.09598 40.043 1.15798 40.043 0.000976562H36.943C36.943 1.15798 36.005 2.09598 34.848 2.09598C33.691 2.09598 32.753 1.15798 32.753 0.000976562H29.653C29.653 1.15798 28.715 2.09598 27.558 2.09598C26.401 2.09598 25.463 1.15798 25.463 0.000976562H22.363C22.363 1.15798 21.425 2.09598 20.268 2.09598C19.111 2.09598 18.173 1.15798 18.173 0.000976562H15.073C15.073 1.15798 14.135 2.09598 12.978 2.09598C11.821 2.09598 10.883 1.15798 10.883 0.000976562H7.78295C7.78295 1.15798 6.84495 2.09598 5.68795 2.09598C4.53095 2.09598 3.59295 1.15798 3.59295 0.000976562H0.00195312V4.36496C1.15895 4.36496 2.09695 5.30296 2.09695 6.45996C2.09695 7.61696 1.15895 8.55496 0.00195312 8.55496V11.891C1.15895 11.891 2.09695 12.829 2.09695 13.986C2.09695 15.143 1.15895 16.081 0.00195312 16.081V19.418C1.15895 19.418 2.09695 20.356 2.09695 21.513C2.09695 22.67 1.15895 23.608 0.00195312 23.608V26.944C1.15895 26.944 2.09695 27.882 2.09695 29.039C2.09695 30.196 1.15895 31.134 0.00195312 31.134V34.471C1.15895 34.471 2.09695 35.409 2.09695 36.566C2.09695 37.723 1.15895 38.6609 0.00195312 38.6609V41.998C1.15895 41.998 2.09695 42.936 2.09695 44.093C2.09695 45.25 1.15895 46.188 0.00195312 46.188V49.524C1.15895 49.524 2.09695 50.462 2.09695 51.619C2.09695 52.776 1.15895 53.714 0.00195312 53.714V57.051C1.15895 57.051 2.09695 57.989 2.09695 59.146C2.09695 60.303 1.15895 61.241 0.00195312 61.241V64.577C1.15895 64.577 2.09695 65.515 2.09695 66.672C2.09695 67.829 1.15895 68.767 0.00195312 68.767V72.104C1.15895 72.104 2.09695 73.042 2.09695 74.199C2.09695 75.356 1.15895 76.294 0.00195312 76.294V79.63C1.15895 79.63 2.09695 80.568 2.09695 81.725C2.09695 82.882 1.15895 83.82 0.00195312 83.82V87.157C1.15895 87.157 2.09695 88.095 2.09695 89.252C2.09695 90.409 1.15895 91.347 0.00195312 91.347V94.683C1.15895 94.683 2.09695 95.621 2.09695 96.778C2.09695 97.935 1.15895 98.873 0.00195312 98.873V102.209C1.15895 102.209 2.09695 103.147 2.09695 104.304C2.09695 105.461 1.15895 106.399 0.00195312 106.399V109.736C1.15895 109.736 2.09695 110.674 2.09695 111.831C2.09695 112.988 1.15895 113.926 0.00195312 113.926V119.426H3.63995C3.60995 119.285 3.59295 119.139 3.59295 118.989C3.59295 117.832 4.53095 116.894 5.68795 116.894C6.84495 116.894 7.78295 117.832 7.78295 118.989C7.78295 119.139 7.76595 119.285 7.73595 119.426H10.931C10.901 119.285 10.884 119.139 10.884 118.989C10.884 117.832 11.822 116.894 12.979 116.894C14.136 116.894 15.074 117.832 15.074 118.989C15.074 119.139 15.057 119.285 15.027 119.426H18.222C18.192 119.285 18.175 119.139 18.175 118.989C18.175 117.832 19.113 116.894 20.27 116.894C21.427 116.894 22.365 117.832 22.365 118.989C22.365 119.139 22.348 119.285 22.318 119.426H25.513C25.483 119.285 25.466 119.139 25.466 118.989C25.466 117.832 26.404 116.894 27.561 116.894C28.718 116.894 29.656 117.832 29.656 118.989C29.656 119.139 29.639 119.285 29.609 119.426H32.804C32.774 119.285 32.757 119.139 32.757 118.989C32.757 117.832 33.695 116.894 34.852 116.894C36.009 116.894 36.947 117.832 36.947 118.989C36.947 119.139 36.93 119.285 36.9 119.426H40.095C40.065 119.285 40.048 119.139 40.048 118.989C40.048 117.832 40.986 116.894 42.143 116.894C43.3 116.894 44.238 117.832 44.238 118.989C44.238 119.139 44.221 119.285 44.191 119.426H47.386C47.356 119.285 47.339 119.139 47.339 118.989C47.339 117.832 48.277 116.894 49.434 116.894C50.591 116.894 51.529 117.832 51.529 118.989C51.529 119.139 51.512 119.285 51.482 119.426H54.677C54.647 119.285 54.63 119.139 54.63 118.989C54.63 117.832 55.568 116.894 56.725 116.894C57.882 116.894 58.82 117.832 58.82 118.989C58.82 119.139 58.8029 119.285 58.7729 119.426H61.968C61.938 119.285 61.921 119.139 61.921 118.989C61.921 117.832 62.859 116.894 64.016 116.894C65.173 116.894 66.111 117.832 66.111 118.989C66.111 119.139 66.0939 119.285 66.0639 119.426H69.2589C69.2289 119.285 69.212 119.139 69.212 118.989C69.212 117.832 70.15 116.894 71.307 116.894C72.464 116.894 73.402 117.832 73.402 118.989C73.402 119.139 73.3849 119.285 73.3549 119.426H76.5499C76.5199 119.285 76.503 119.139 76.503 118.989C76.503 117.832 77.441 116.894 78.598 116.894C79.755 116.894 80.693 117.832 80.693 118.989C80.693 119.139 80.676 119.285 80.646 119.426H83.841C83.811 119.285 83.794 119.139 83.794 118.989C83.794 117.832 84.732 116.894 85.889 116.894C87.046 116.894 87.9839 117.832 87.9839 118.989C87.9839 119.139 87.967 119.285 87.937 119.426H91.132C91.102 119.285 91.0849 119.139 91.0849 118.989C91.0849 117.832 92.0229 116.894 93.1799 116.894C94.3369 116.894 95.2749 117.832 95.2749 118.989C95.2749 119.139 95.258 119.285 95.228 119.426H98.423C98.393 119.285 98.3759 119.139 98.3759 118.989C98.3759 117.832 99.3139 116.894 100.471 116.894C101.628 116.894 102.566 117.832 102.566 118.989C102.566 119.139 102.549 119.285 102.519 119.426H105.714C105.684 119.285 105.667 119.139 105.667 118.989C105.667 117.832 106.605 116.894 107.762 116.894C108.919 116.894 109.857 117.832 109.857 118.989C109.857 119.139 109.84 119.285 109.81 119.426H113.005C112.975 119.285 112.958 119.139 112.958 118.989C112.958 117.832 113.896 116.894 115.053 116.894C116.21 116.894 117.148 117.832 117.148 118.989C117.148 119.139 117.131 119.285 117.101 119.426H120.296C120.266 119.285 120.249 119.139 120.249 118.989C120.249 117.832 121.187 116.894 122.344 116.894C123.501 116.894 124.439 117.832 124.439 118.989C124.439 119.139 124.422 119.285 124.392 119.426H127.587C127.557 119.285 127.54 119.139 127.54 118.989C127.54 117.832 128.478 116.894 129.635 116.894C130.792 116.894 131.73 117.832 131.73 118.989C131.73 119.139 131.713 119.285 131.683 119.426H134.878C134.848 119.285 134.831 119.139 134.831 118.989C134.831 117.832 135.769 116.894 136.926 116.894C138.083 116.894 139.021 117.832 139.021 118.989C139.021 119.139 139.004 119.285 138.974 119.426H142.169C142.139 119.285 142.122 119.139 142.122 118.989C142.122 117.832 143.06 116.894 144.217 116.894C145.374 116.894 146.312 117.832 146.312 118.989C146.312 119.139 146.295 119.285 146.265 119.426H149.46C149.43 119.285 149.413 119.139 149.413 118.989C149.413 117.832 150.351 116.894 151.508 116.894C152.665 116.894 153.603 117.832 153.603 118.989C153.603 119.139 153.586 119.285 153.556 119.426H156.751C156.721 119.285 156.704 119.139 156.704 118.989C156.704 117.832 157.642 116.894 158.799 116.894C159.956 116.894 160.894 117.832 160.894 118.989C160.894 119.139 160.877 119.285 160.847 119.426H164.485V113.811C164.278 113.88 164.06 113.926 163.83 113.926C162.673 113.926 161.735 112.988 161.735 111.831C161.735 110.674 162.673 109.736 163.83 109.736C164.06 109.736 164.278 109.782 164.485 109.851V106.285C164.278 106.354 164.06 106.4 163.83 106.4C162.673 106.4 161.735 105.462 161.735 104.305C161.735 103.148 162.673 102.21 163.83 102.21C164.06 102.21 164.278 102.256 164.485 102.325V98.759C164.278 98.828 164.06 98.874 163.83 98.874C162.673 98.874 161.735 97.936 161.735 96.779C161.735 95.622 162.673 94.684 163.83 94.684C164.06 94.684 164.278 94.73 164.485 94.799V91.233C164.278 91.302 164.06 91.348 163.83 91.348C162.673 91.348 161.735 90.41 161.735 89.253C161.735 88.096 162.673 87.158 163.83 87.158C164.06 87.158 164.278 87.2039 164.485 87.2729V83.707C164.278 83.776 164.06 83.822 163.83 83.822C162.673 83.822 161.735 82.884 161.735 81.727C161.735 80.57 162.673 79.632 163.83 79.632C164.06 79.632 164.278 79.678 164.485 79.747V76.181C164.278 76.25 164.06 76.296 163.83 76.296C162.673 76.296 161.735 75.358 161.735 74.201C161.735 73.044 162.673 72.106 163.83 72.106C164.06 72.106 164.278 72.152 164.485 72.221V68.655C164.278 68.724 164.06 68.77 163.83 68.77C162.673 68.77 161.735 67.832 161.735 66.675C161.735 65.518 162.673 64.58 163.83 64.58C164.06 64.58 164.278 64.626 164.485 64.695V61.129C164.278 61.198 164.06 61.244 163.83 61.244C162.673 61.244 161.735 60.306 161.735 59.149C161.735 57.992 162.673 57.054 163.83 57.054C164.06 57.054 164.278 57.1 164.485 57.169V53.603C164.278 53.671 164.06 53.718 163.83 53.718C162.673 53.718 161.735 52.78 161.735 51.623C161.735 50.466 162.673 49.528 163.83 49.528C164.06 49.528 164.278 49.574 164.485 49.643V46.077C164.278 46.145 164.06 46.192 163.83 46.192C162.673 46.192 161.735 45.254 161.735 44.097C161.735 42.94 162.673 42.002 163.83 42.002C164.06 42.002 164.278 42.048 164.485 42.117V38.551C164.278 38.62 164.06 38.666 163.83 38.666C162.673 38.666 161.735 37.728 161.735 36.571C161.735 35.414 162.673 34.476 163.83 34.476C164.06 34.476 164.278 34.522 164.485 34.591V31.025C164.278 31.094 164.06 31.14 163.83 31.14C162.673 31.14 161.735 30.202 161.735 29.045C161.735 27.888 162.673 26.95 163.83 26.95C164.06 26.95 164.278 26.996 164.485 27.065V23.499C164.278 23.568 164.06 23.614 163.83 23.614C162.673 23.614 161.735 22.676 161.735 21.519C161.735 20.362 162.673 19.424 163.83 19.424C164.06 19.424 164.278 19.47 164.485 19.539V15.973C164.278 16.042 164.06 16.088 163.83 16.088C162.673 16.088 161.735 15.15 161.735 13.993C161.735 12.836 162.673 11.8979 163.83 11.8979C164.06 11.8979 164.278 11.944 164.485 12.013V8.44696C164.278 8.51596 164.06 8.56195 163.83 8.56195C162.673 8.56195 161.735 7.62395 161.735 6.46695C161.735 5.30995 162.673 4.37198 163.83 4.37198C164.06 4.37198 164.278 4.41797 164.485 4.48697V0.00796509H160.894C160.874 1.15697 159.936 2.09598 158.779 2.09598ZM151.893 12.573V106.865H12.55V12.573H151.893Z" fill="#F5EDD5"/>
<path d="M153.702 12.072H10.7402V107.364H153.702V12.072Z" fill="#603E41"/>
<path d="M153.202 12.573V106.865H11.2402V12.573H153.202ZM154.202 11.573H153.202H11.2402H10.2402V12.573V106.865V107.865H11.2402H153.202H154.202V106.865V12.573V11.573Z" fill="#603E41"/>
<path d="M151.632 14.1439H12.8125V105.293H151.632V14.1439Z" fill="#E6C7B9" stroke="#603E41" stroke-width="0.75" stroke-miterlimit="10"/>
<g opacity="0.5">
<path d="M13.002 13.95C30.323 13.95 30.323 15.396 47.644 15.396C64.964 15.396 64.964 13.95 82.285 13.95C99.608 13.95 99.608 15.396 116.93 15.396C134.253 15.396 134.253 13.95 151.575 13.95" stroke="#603E41" stroke-width="0.25" stroke-miterlimit="10"/>
<path d="M13.002 16.1849C30.323 16.1849 30.323 17.6309 47.644 17.6309C64.964 17.6309 64.964 16.1849 82.285 16.1849C99.608 16.1849 99.608 17.6309 116.93 17.6309C134.253 17.6309 134.253 16.1849 151.575 16.1849" stroke="#603E41" stroke-width="0.25" stroke-miterlimit="10"/>
<path d="M13.002 18.354C30.323 18.354 30.323 19.8 47.644 19.8C64.964 19.8 64.964 18.354 82.285 18.354C99.608 18.354 99.608 19.8 116.93 19.8C134.253 19.8 134.253 18.354 151.575 18.354" stroke="#603E41" stroke-width="0.25" stroke-miterlimit="10"/>
<path d="M13.002 20.5229C30.323 20.5229 30.323 21.969 47.644 21.969C64.964 21.969 64.964 20.5229 82.285 20.5229C99.608 20.5229 99.608 21.969 116.93 21.969C134.253 21.969 134.253 20.5229 151.575 20.5229" stroke="#603E41" stroke-width="0.25" stroke-miterlimit="10"/>
<path d="M13.002 22.6919C30.323 22.6919 30.323 24.1379 47.644 24.1379C64.964 24.1379 64.964 22.6919 82.285 22.6919C99.608 22.6919 99.608 24.1379 116.93 24.1379C134.253 24.1379 134.253 22.6919 151.575 22.6919" stroke="#603E41" stroke-width="0.25" stroke-miterlimit="10"/>
<path d="M13.002 24.861C30.323 24.861 30.323 26.307 47.644 26.307C64.964 26.307 64.964 24.861 82.285 24.861C99.608 24.861 99.608 26.307 116.93 26.307C134.253 26.307 134.253 24.861 151.575 24.861" stroke="#603E41" stroke-width="0.25" stroke-miterlimit="10"/>
<path d="M13.002 26.9619C30.323 26.9619 30.323 28.4079 47.644 28.4079C64.964 28.4079 64.964 26.9619 82.285 26.9619C99.608 26.9619 99.608 28.4079 116.93 28.4079C134.253 28.4079 134.253 26.9619 151.575 26.9619" stroke="#603E41" stroke-width="0.25" stroke-miterlimit="10"/>
<path d="M13.002 29.131C30.323 29.131 30.323 30.577 47.644 30.577C64.964 30.577 64.964 29.131 82.285 29.131C99.608 29.131 99.608 30.577 116.93 30.577C134.253 30.577 134.253 29.131 151.575 29.131" stroke="#603E41" stroke-width="0.25" stroke-miterlimit="10"/>
<path d="M13.002 31.299C30.323 31.299 30.323 32.745 47.644 32.745C64.964 32.745 64.964 31.299 82.285 31.299C99.608 31.299 99.608 32.745 116.93 32.745C134.253 32.745 134.253 31.299 151.575 31.299" stroke="#603E41" stroke-width="0.25" stroke-miterlimit="10"/>
<path d="M13.002 33.468C30.323 33.468 30.323 34.914 47.644 34.914C64.964 34.914 64.964 33.468 82.285 33.468C99.608 33.468 99.608 34.914 116.93 34.914C134.253 34.914 134.253 33.468 151.575 33.468" stroke="#603E41" stroke-width="0.25" stroke-miterlimit="10"/>
<path d="M13.002 35.637C30.323 35.637 30.323 37.083 47.644 37.083C64.964 37.083 64.964 35.637 82.285 35.637C99.608 35.637 99.608 37.083 116.93 37.083C134.253 37.083 134.253 35.637 151.575 35.637" stroke="#603E41" stroke-width="0.25" stroke-miterlimit="10"/>
<path d="M13.002 37.8729C30.323 37.8729 30.323 39.3189 47.644 39.3189C64.964 39.3189 64.964 37.8729 82.285 37.8729C99.608 37.8729 99.608 39.3189 116.93 39.3189C134.253 39.3189 134.253 37.8729 151.575 37.8729" stroke="#603E41" stroke-width="0.25" stroke-miterlimit="10"/>
<path d="M13.002 40.042C30.323 40.042 30.323 41.488 47.644 41.488C64.964 41.488 64.964 40.042 82.285 40.042C99.608 40.042 99.608 41.488 116.93 41.488C134.253 41.488 134.253 40.042 151.575 40.042" stroke="#603E41" stroke-width="0.25" stroke-miterlimit="10"/>
<path d="M13.002 42.21C30.323 42.21 30.323 43.656 47.644 43.656C64.964 43.656 64.964 42.21 82.285 42.21C99.608 42.21 99.608 43.656 116.93 43.656C134.253 43.656 134.253 42.21 151.575 42.21" stroke="#603E41" stroke-width="0.25" stroke-miterlimit="10"/>
<path d="M13.002 44.3789C30.323 44.3789 30.323 45.8249 47.644 45.8249C64.964 45.8249 64.964 44.3789 82.285 44.3789C99.608 44.3789 99.608 45.8249 116.93 45.8249C134.253 45.8249 134.253 44.3789 151.575 44.3789" stroke="#603E41" stroke-width="0.25" stroke-miterlimit="10"/>
<path d="M13.002 46.548C30.323 46.548 30.323 47.994 47.644 47.994C64.964 47.994 64.964 46.548 82.285 46.548C99.608 46.548 99.608 47.994 116.93 47.994C134.253 47.994 134.253 46.548 151.575 46.548" stroke="#603E41" stroke-width="0.25" stroke-miterlimit="10"/>
<path d="M13.002 48.797C30.323 48.797 30.323 50.243 47.644 50.243C64.964 50.243 64.964 48.797 82.285 48.797C99.608 48.797 99.608 50.243 116.93 50.243C134.253 50.243 134.253 48.797 151.575 48.797" stroke="#603E41" stroke-width="0.25" stroke-miterlimit="10"/>
<path d="M13.002 50.9659C30.323 50.9659 30.323 52.4119 47.644 52.4119C64.964 52.4119 64.964 50.9659 82.285 50.9659C99.608 50.9659 99.608 52.4119 116.93 52.4119C134.253 52.4119 134.253 50.9659 151.575 50.9659" stroke="#603E41" stroke-width="0.25" stroke-miterlimit="10"/>
<path d="M13.002 53.135C30.323 53.135 30.323 54.581 47.644 54.581C64.964 54.581 64.964 53.135 82.285 53.135C99.608 53.135 99.608 54.581 116.93 54.581C134.253 54.581 134.253 53.135 151.575 53.135" stroke="#603E41" stroke-width="0.25" stroke-miterlimit="10"/>
<path d="M13.002 55.37C30.323 55.37 30.323 56.816 47.644 56.816C64.964 56.816 64.964 55.37 82.285 55.37C99.608 55.37 99.608 56.816 116.93 56.816C134.253 56.816 134.253 55.37 151.575 55.37" stroke="#603E41" stroke-width="0.25" stroke-miterlimit="10"/>
<path d="M13.002 57.5389C30.323 57.5389 30.323 58.9849 47.644 58.9849C64.964 58.9849 64.964 57.5389 82.285 57.5389C99.608 57.5389 99.608 58.9849 116.93 58.9849C134.253 58.9849 134.253 57.5389 151.575 57.5389" stroke="#603E41" stroke-width="0.25" stroke-miterlimit="10"/>
<path d="M13.002 59.708C30.323 59.708 30.323 61.154 47.644 61.154C64.964 61.154 64.964 59.708 82.285 59.708C99.608 59.708 99.608 61.154 116.93 61.154C134.253 61.154 134.253 59.708 151.575 59.708" stroke="#603E41" stroke-width="0.25" stroke-miterlimit="10"/>
<path d="M13.002 61.877C30.323 61.877 30.323 63.323 47.644 63.323C64.964 63.323 64.964 61.877 82.285 61.877C99.608 61.877 99.608 63.323 116.93 63.323C134.253 63.323 134.253 61.877 151.575 61.877" stroke="#603E41" stroke-width="0.25" stroke-miterlimit="10"/>
</g>
<path d="M151.389 63.778H13.002V91.255H151.389V63.778Z" fill="#F5EDD5" stroke="#603E41" stroke-width="0.75" stroke-miterlimit="10" stroke-linecap="round" stroke-linejoin="round"/>
<path d="M145.425 77.383L84 77.491L114.668 51.703L145.425 77.383Z" fill="#F5EDD5" stroke="#603E41" stroke-width="0.75" stroke-miterlimit="10" stroke-linecap="round" stroke-linejoin="round"/>
<path d="M114.669 51.703L106.639 77.451" stroke="#603E41" stroke-width="0.75" stroke-miterlimit="10" stroke-linecap="round" stroke-linejoin="round"/>
<path d="M135.743 80.261L32.0918 80.442L83.8418 36.927L135.743 80.261Z" fill="#F5EDD5" stroke="#603E41" stroke-width="0.75" stroke-miterlimit="10" stroke-linecap="round" stroke-linejoin="round"/>
<path d="M83.8421 36.927L64.0371 80.386" stroke="#603E41" stroke-width="0.75" stroke-miterlimit="10" stroke-linecap="round" stroke-linejoin="round"/>
<path d="M69.5234 48.9669L79.7114 45.991L94.2134 50.155C94.8204 50.329 95.4734 50.133 95.8844 49.654L97.2184 48.097" stroke="#603E41" stroke-width="0.75" stroke-miterlimit="10" stroke-linecap="round" stroke-linejoin="round"/>
<path d="M107.366 82.04L20.7148 82.191L63.9768 45.813L107.366 82.04Z" fill="#F5EDD5" stroke="#603E41" stroke-width="0.75" stroke-miterlimit="10" stroke-linecap="round" stroke-linejoin="round"/>
<path d="M63.977 45.813L44.125 82.15" stroke="#603E41" stroke-width="0.75" stroke-miterlimit="10" stroke-linecap="round" stroke-linejoin="round"/>
<path d="M67.793 67.439H89.88" stroke="#603E41" stroke-width="0.25" stroke-miterlimit="10"/>
<path d="M58.1387 56.783H68.8557" stroke="#603E41" stroke-width="0.25" stroke-miterlimit="10"/>
<path d="M63.0059 68.531H90.9709" stroke="#603E41" stroke-width="0.25" stroke-miterlimit="10"/>
<path d="M65.1895 70.715H93.7415" stroke="#603E41" stroke-width="0.25" stroke-miterlimit="10"/>
<path d="M52.4668 71.807H95.1098" stroke="#603E41" stroke-width="0.25" stroke-miterlimit="10"/>
<path d="M48.1191 78.062H102.591" stroke="#603E41" stroke-width="0.25" stroke-miterlimit="10"/>
<path d="M97.3262 63.3059H115.437" stroke="#603E41" stroke-width="0.25" stroke-miterlimit="10"/>
<path d="M100.383 62.214H114.344" stroke="#603E41" stroke-width="0.25" stroke-miterlimit="10"/>
<path d="M91.1836 54.137H97.9466" stroke="#603E41" stroke-width="0.25" stroke-miterlimit="10"/>
<path d="M109.977 72.614H126.586" stroke="#603E41" stroke-width="0.25" stroke-miterlimit="10"/>
<path d="M35.0935 14.1439H12.8125V36.4249H35.0935V14.1439Z" fill="#603E41"/>
<path d="M14.9793 26.2889V25.3049L18.6748 21.2595C19.1085 20.7857 19.4657 20.3739 19.7463 20.024C20.0269 19.6705 20.2347 19.3388 20.3695 19.029C20.508 18.7156 20.5773 18.3876 20.5773 18.045C20.5773 17.6514 20.4825 17.3106 20.293 17.0227C20.1071 16.7348 19.852 16.5125 19.5276 16.3558C19.2033 16.1991 18.8388 16.1207 18.4343 16.1207C18.0042 16.1207 17.6288 16.21 17.3081 16.3886C16.9911 16.5635 16.745 16.8095 16.5701 17.1266C16.3988 17.4437 16.3132 17.8154 16.3132 18.2418H15.023C15.023 17.5858 15.1743 17.01 15.4768 16.5143C15.7792 16.0187 16.1911 15.6323 16.7122 15.3553C17.2371 15.0784 17.8257 14.9399 18.478 14.9399C19.134 14.9399 19.7153 15.0784 20.2219 15.3553C20.7285 15.6323 21.1258 16.0059 21.4137 16.476C21.7016 16.9462 21.8456 17.4692 21.8456 18.045C21.8456 18.4568 21.7709 18.8596 21.6214 19.2532C21.4757 19.6431 21.2205 20.0787 20.8561 20.5597C20.4953 21.0372 19.9941 21.6203 19.3527 22.3091L16.838 24.9988V25.0862H22.0424V26.2889H14.9793ZM27.7989 26.442C27.1575 26.442 26.5798 26.3145 26.0659 26.0593C25.5521 25.8042 25.1402 25.4543 24.8304 25.0097C24.5207 24.5651 24.3512 24.0585 24.322 23.4899H25.6341C25.6851 23.9965 25.9147 24.4157 26.3229 24.7473C26.7347 25.0753 27.2267 25.2393 27.7989 25.2393C28.2581 25.2393 28.6663 25.1318 29.0235 24.9168C29.3843 24.7017 29.6667 24.4065 29.8708 24.0312C30.0786 23.6521 30.1824 23.2239 30.1824 22.7465C30.1824 22.2581 30.0749 21.8226 29.8599 21.4399C29.6485 21.0536 29.3569 20.7493 28.9852 20.5269C28.6135 20.3046 28.1889 20.1916 27.7114 20.188C27.3689 20.1844 27.0172 20.2372 26.6564 20.3465C26.2955 20.4522 25.9985 20.5889 25.7653 20.7565L24.497 20.6035L25.1748 15.0929H30.9915V16.2956H26.3119L25.9183 19.5976H25.9839C26.2135 19.4154 26.5015 19.2641 26.8477 19.1438C27.1939 19.0236 27.5547 18.9634 27.9301 18.9634C28.6153 18.9634 29.2257 19.1274 29.7615 19.4554C30.3009 19.7798 30.7236 20.2244 31.0298 20.7893C31.3396 21.3542 31.4945 21.9993 31.4945 22.7246C31.4945 23.4389 31.3341 24.0767 31.0134 24.638C30.6963 25.1956 30.259 25.6366 29.7014 25.9609C29.1437 26.2817 28.5096 26.442 27.7989 26.442Z" fill="#F5EDD5"/>
<path d="M14.9066 28.8471H15.5248L16.9784 32.3976H17.0286L18.4822 28.8471H19.1004V33.1244H18.6159V29.8746H18.5741L17.2374 33.1244H16.7696L15.4329 29.8746H15.3912V33.1244H14.9066V28.8471ZM20.6569 28.8471V33.1244H20.1389V28.8471H20.6569ZM21.6954 33.1244V28.8471H22.2133V32.6649H24.2016V33.1244H21.6954ZM25.0036 33.1244V28.8471H25.5216V32.6649H27.5099V33.1244H25.0036ZM30.651 29.9164C30.6259 29.7048 30.5243 29.5405 30.3461 29.4235C30.1679 29.3066 29.9493 29.2481 29.6903 29.2481C29.5009 29.2481 29.3352 29.2787 29.1932 29.34C29.0526 29.4012 28.9426 29.4855 28.8632 29.5927C28.7853 29.6999 28.7463 29.8217 28.7463 29.9582C28.7463 30.0724 28.7734 30.1705 28.8277 30.2527C28.8834 30.3334 28.9544 30.4009 29.0408 30.4552C29.1271 30.5082 29.2176 30.552 29.3123 30.5868C29.4069 30.6202 29.494 30.6474 29.5733 30.6683L30.0077 30.7852C30.1191 30.8145 30.243 30.8549 30.3795 30.9064C30.5173 30.9579 30.6489 31.0282 30.7742 31.1173C30.9009 31.205 31.0054 31.3178 31.0875 31.4557C31.1697 31.5935 31.2107 31.7627 31.2107 31.9632C31.2107 32.1943 31.1502 32.4032 31.029 32.5897C30.9093 32.7763 30.7339 32.9246 30.5027 33.0346C30.273 33.1446 29.9938 33.1996 29.6652 33.1996C29.3589 33.1996 29.0937 33.1501 28.8695 33.0513C28.6467 32.9524 28.4713 32.8146 28.3432 32.6378C28.2165 32.4609 28.1448 32.2556 28.1281 32.0216H28.6627C28.6767 32.1832 28.731 32.3168 28.8256 32.4226C28.9217 32.5271 29.0428 32.605 29.189 32.6566C29.3366 32.7067 29.4954 32.7317 29.6652 32.7317C29.8629 32.7317 30.0405 32.6997 30.1978 32.6357C30.3551 32.5702 30.4797 32.4797 30.5716 32.3642C30.6635 32.2472 30.7095 32.1108 30.7095 31.9548C30.7095 31.8128 30.6698 31.6972 30.5904 31.6081C30.5111 31.519 30.4067 31.4466 30.2772 31.3909C30.1477 31.3352 30.0077 31.2865 29.8574 31.2447L29.3311 31.0943C28.9969 30.9983 28.7323 30.8611 28.5374 30.6829C28.3425 30.5047 28.245 30.2715 28.245 29.9832C28.245 29.7438 28.3098 29.5349 28.4393 29.3567C28.5701 29.1771 28.7456 29.0378 28.9656 28.939C29.1869 28.8387 29.4341 28.7886 29.707 28.7886C29.9827 28.7886 30.2277 28.838 30.4422 28.9369C30.6566 29.0344 30.8264 29.168 30.9518 29.3379C31.0785 29.5078 31.1453 29.7006 31.1523 29.9164H30.651Z" fill="#F5EDD5"/>
<path d="M151.632 91.2549H12.832V105.293H151.632V91.2549Z" fill="#603E41" stroke="#603E41" stroke-width="0.5" stroke-miterlimit="10"/>
<path d="M15.968 103.039V94.8354H20.9191V95.7166H16.9614V98.4886H20.6627V99.3698H16.9614V102.158H20.9832V103.039H15.968ZM28.3177 97.399C28.2295 97.1293 28.1134 96.8876 27.9692 96.674C27.8276 96.4577 27.658 96.2734 27.4604 96.1212C27.2655 95.969 27.0438 95.8528 26.7955 95.7727C26.5471 95.6926 26.2747 95.6525 25.9783 95.6525C25.4923 95.6525 25.0503 95.778 24.6524 96.0291C24.2545 96.2801 23.9381 96.6499 23.7031 97.1386C23.4681 97.6273 23.3506 98.2269 23.3506 98.9372C23.3506 99.6476 23.4694 100.247 23.7071 100.736C23.9447 101.224 24.2665 101.594 24.6725 101.845C25.0784 102.096 25.535 102.222 26.0424 102.222C26.5124 102.222 26.9263 102.122 27.2842 101.921C27.6447 101.719 27.9251 101.433 28.1254 101.064C28.3283 100.693 28.4298 100.256 28.4298 99.7544L28.7342 99.8185H26.2667V98.9372H29.3912V99.8185C29.3912 100.494 29.247 101.082 28.9586 101.581C28.6728 102.08 28.2776 102.468 27.7729 102.743C27.2708 103.015 26.694 103.151 26.0424 103.151C25.316 103.151 24.6778 102.98 24.1277 102.638C23.5802 102.297 23.1529 101.811 22.8458 101.18C22.5414 100.55 22.3892 99.8024 22.3892 98.9372C22.3892 98.2883 22.476 97.7048 22.6496 97.1867C22.8258 96.666 23.0742 96.2227 23.3946 95.8568C23.7151 95.491 24.0943 95.2106 24.5323 95.0156C24.9702 94.8207 25.4522 94.7232 25.9783 94.7232C26.4109 94.7232 26.8142 94.7886 27.188 94.9195C27.5646 95.0477 27.8997 95.2306 28.1935 95.4683C28.4899 95.7033 28.7369 95.985 28.9345 96.3135C29.1321 96.6393 29.2683 97.0011 29.3431 97.399H28.3177ZM30.1342 94.8354H31.2719L33.5471 98.6648H33.6433L35.9185 94.8354H37.0561L34.0919 99.6582V103.039H33.0985V99.6582L30.1342 94.8354ZM38.341 103.039V94.8354H41.1129C41.7565 94.8354 42.2826 94.9515 42.6912 95.1839C43.1024 95.4135 43.4069 95.7246 43.6045 96.1172C43.8021 96.5097 43.9009 96.9477 43.9009 97.4311C43.9009 97.9144 43.8021 98.3537 43.6045 98.7489C43.4095 99.1442 43.1078 99.4593 42.6992 99.6943C42.2906 99.9266 41.7672 100.043 41.1289 100.043H39.1421V99.1615H41.0969C41.5375 99.1615 41.8914 99.0854 42.1584 98.9332C42.4255 98.781 42.6191 98.5754 42.7392 98.3163C42.8621 98.0546 42.9235 97.7595 42.9235 97.4311C42.9235 97.1026 42.8621 96.8088 42.7392 96.5498C42.6191 96.2908 42.4241 96.0878 42.1544 95.9409C41.8847 95.7914 41.5268 95.7166 41.0809 95.7166H39.3344V103.039H38.341ZM45.0525 95.7166V94.8354H51.2053V95.7166H48.6256V103.039H47.6322V95.7166H45.0525ZM52.7385 103.039V94.8354H57.6896V95.7166H53.7319V98.4886H57.4332V99.3698H53.7319V102.158H57.7537V103.039H52.7385Z" fill="#F5EDD5"/>
<path d="M68.4632 102.89V96.0324H70.7803C71.3183 96.0324 71.7581 96.1295 72.0996 96.3237C72.4434 96.5157 72.6979 96.7758 72.8631 97.1039C73.0283 97.4321 73.1109 97.7982 73.1109 98.2022C73.1109 98.6062 73.0283 98.9735 72.8631 99.3038C72.7001 99.6342 72.4479 99.8976 72.1063 100.094C71.7648 100.288 71.3273 100.385 70.7937 100.385H69.1329V99.6487H70.767C71.1353 99.6487 71.4311 99.5851 71.6543 99.4579C71.8775 99.3306 72.0394 99.1587 72.1398 98.9422C72.2425 98.7234 72.2938 98.4768 72.2938 98.2022C72.2938 97.9276 72.2425 97.6821 72.1398 97.4655C72.0394 97.249 71.8764 97.0794 71.6509 96.9566C71.4255 96.8316 71.1263 96.7691 70.7536 96.7691H69.2936V102.89H68.4632ZM80.2347 99.4612C80.2347 100.184 80.1041 100.81 79.8429 101.336C79.5817 101.863 79.2234 102.269 78.768 102.555C78.3127 102.841 77.7925 102.984 77.2077 102.984C76.6228 102.984 76.1027 102.841 75.6473 102.555C75.1919 102.269 74.8336 101.863 74.5724 101.336C74.3113 100.81 74.1807 100.184 74.1807 99.4612C74.1807 98.738 74.3113 98.1129 74.5724 97.5861C74.8336 97.0593 75.1919 96.653 75.6473 96.3673C76.1027 96.0815 76.6228 95.9387 77.2077 95.9387C77.7925 95.9387 78.3127 96.0815 78.768 96.3673C79.2234 96.653 79.5817 97.0593 79.8429 97.5861C80.1041 98.1129 80.2347 98.738 80.2347 99.4612ZM79.431 99.4612C79.431 98.8674 79.3317 98.3663 79.133 97.9578C78.9366 97.5493 78.6698 97.2401 78.3327 97.0302C77.9979 96.8204 77.6229 96.7155 77.2077 96.7155C76.7925 96.7155 76.4163 96.8204 76.0792 97.0302C75.7444 97.2401 75.4776 97.5493 75.279 97.9578C75.0825 98.3663 74.9843 98.8674 74.9843 99.4612C74.9843 100.055 75.0825 100.556 75.279 100.965C75.4776 101.373 75.7444 101.682 76.0792 101.892C76.4163 102.102 76.7925 102.207 77.2077 102.207C77.6229 102.207 77.9979 102.102 78.3327 101.892C78.6698 101.682 78.9366 101.373 79.133 100.965C79.3317 100.556 79.431 100.055 79.431 99.4612ZM85.3812 97.7468C85.341 97.4075 85.1781 97.1441 84.8923 96.9566C84.6066 96.7691 84.2561 96.6753 83.8409 96.6753C83.5373 96.6753 83.2717 96.7244 83.044 96.8226C82.8185 96.9209 82.6422 97.0559 82.5149 97.2278C82.3899 97.3997 82.3274 97.595 82.3274 97.8138C82.3274 97.9968 82.371 98.1542 82.458 98.2859C82.5473 98.4154 82.6612 98.5237 82.7996 98.6107C82.938 98.6955 83.0831 98.7659 83.2349 98.8217C83.3867 98.8752 83.5262 98.9188 83.6534 98.9523L84.3499 99.1398C84.5285 99.1866 84.7271 99.2514 84.9459 99.334C85.1669 99.4166 85.3779 99.5293 85.5788 99.6722C85.7819 99.8128 85.9493 99.9936 86.081 100.215C86.2127 100.436 86.2786 100.707 86.2786 101.028C86.2786 101.399 86.1815 101.734 85.9873 102.033C85.7953 102.332 85.514 102.57 85.1435 102.746C84.7751 102.922 84.3276 103.011 83.8007 103.011C83.3096 103.011 82.8844 102.931 82.525 102.773C82.1678 102.614 81.8866 102.393 81.6812 102.11C81.478 101.826 81.3631 101.497 81.3363 101.122H82.1935C82.2158 101.381 82.3029 101.595 82.4547 101.765C82.6087 101.932 82.8029 102.057 83.0373 102.14C83.2739 102.22 83.5284 102.261 83.8007 102.261C84.1177 102.261 84.4023 102.209 84.6546 102.106C84.9068 102.002 85.1066 101.856 85.254 101.671C85.4013 101.484 85.475 101.265 85.475 101.015C85.475 100.787 85.4113 100.602 85.2841 100.459C85.1569 100.316 84.9894 100.2 84.7818 100.111C84.5742 100.022 84.3499 99.9434 84.1088 99.8764L83.265 99.6353C82.7292 99.4813 82.3051 99.2614 81.9926 98.9757C81.6801 98.69 81.5238 98.316 81.5238 97.854C81.5238 97.47 81.6276 97.1352 81.8352 96.8494C82.045 96.5615 82.3263 96.3382 82.679 96.1797C83.034 96.019 83.4302 95.9387 83.8677 95.9387C84.3097 95.9387 84.7026 96.0179 85.0464 96.1764C85.3901 96.3327 85.6625 96.547 85.8634 96.8193C86.0665 97.0916 86.1737 97.4008 86.1848 97.7468H85.3812ZM87.2689 96.7691V96.0324H92.4121V96.7691H90.2557V102.89H89.4253V96.7691H87.2689ZM93.6937 102.89V96.0324H97.8324V96.7691H94.5241V99.0862H97.6181V99.8228H94.5241V102.153H97.8859V102.89H93.6937ZM102.262 102.89H101.392L103.91 96.0324H104.767L107.285 102.89H106.414L104.365 97.1173H104.312L102.262 102.89ZM102.584 100.211H106.093V100.948H102.584V100.211ZM108.353 102.89V96.0324H112.492V96.7691H109.184V99.0862H112.278V99.8228H109.184V102.153H112.545V102.89H108.353ZM113.989 102.89V96.0324H116.306C116.841 96.0324 117.281 96.1239 117.625 96.307C117.969 96.4878 118.223 96.7367 118.388 97.0537C118.554 97.3707 118.636 97.7312 118.636 98.1352C118.636 98.5393 118.554 98.8976 118.388 99.2101C118.223 99.5226 117.97 99.7682 117.628 99.9467C117.287 100.123 116.85 100.211 116.319 100.211H114.444V99.4612H116.292C116.658 99.4612 116.953 99.4076 117.176 99.3005C117.402 99.1933 117.565 99.0415 117.665 98.8451C117.768 98.6464 117.819 98.4098 117.819 98.1352C117.819 97.8607 117.768 97.6207 117.665 97.4153C117.562 97.2099 117.398 97.0515 117.173 96.9398C116.947 96.826 116.649 96.7691 116.279 96.7691H114.819V102.89H113.989ZM117.216 99.8095L118.904 102.89H117.94L116.279 99.8095H117.216ZM120.85 96.0324V102.89H120.02V96.0324H120.85ZM122.515 102.89V96.0324H126.654V96.7691H123.346V99.0862H126.44V99.8228H123.346V102.153H126.708V102.89H122.515ZM133.589 96.0324V102.89H132.785L129.048 97.5057H128.981V102.89H128.151V96.0324H128.954L132.705 101.43H132.772V96.0324H133.589ZM140.688 96.0324V102.89H139.885L136.148 97.5057H136.081V102.89H135.25V96.0324H136.054L139.804 101.43H139.871V96.0324H140.688ZM142.35 102.89V96.0324H146.489V96.7691H143.18V99.0862H146.274V99.8228H143.18V102.153H146.542V102.89H142.35Z" fill="#F5EDD5"/>
<path d="M62.77 100.325C63.3786 100.325 63.872 99.8315 63.872 99.2228C63.872 98.6142 63.3786 98.1208 62.77 98.1208C62.1613 98.1208 61.668 98.6142 61.668 99.2228C61.668 99.8315 62.1613 100.325 62.77 100.325Z" fill="#F5EDD5"/>
<mask id="mask0_134_691" style="mask-type:luminance" maskUnits="userSpaceOnUse" x="0" y="0" width="165" height="120">
<path d="M163.81 4.36398C164.04 4.36398 164.258 4.41 164.465 4.479V0H160.874C160.874 1.157 159.936 2.095 158.779 2.095C157.622 2.095 156.684 1.157 156.684 0H153.584C153.584 1.157 152.646 2.095 151.489 2.095C150.332 2.095 149.394 1.157 149.394 0H146.294C146.294 1.157 145.356 2.095 144.199 2.095C143.042 2.095 142.104 1.157 142.104 0H139.004C139.004 1.157 138.066 2.095 136.909 2.095C135.752 2.095 134.814 1.157 134.814 0H131.714C131.714 1.157 130.776 2.095 129.619 2.095C128.462 2.095 127.524 1.157 127.524 0H124.424C124.424 1.157 123.486 2.095 122.329 2.095C121.172 2.095 120.234 1.157 120.234 0H117.134C117.134 1.157 116.196 2.095 115.039 2.095C113.882 2.095 112.944 1.157 112.944 0H109.843C109.843 1.157 108.905 2.095 107.748 2.095C106.591 2.095 105.653 1.157 105.653 0H102.553C102.553 1.157 101.615 2.095 100.458 2.095C99.301 2.095 98.363 1.157 98.363 0H95.262C95.262 1.157 94.324 2.095 93.167 2.095C92.01 2.095 91.072 1.157 91.072 0H87.972C87.972 1.157 87.034 2.095 85.877 2.095C84.72 2.095 83.782 1.157 83.782 0H80.682C80.682 1.157 79.744 2.095 78.587 2.095C77.43 2.095 76.492 1.157 76.492 0H73.392C73.392 1.157 72.454 2.095 71.297 2.095C70.14 2.095 69.202 1.157 69.202 0H66.102C66.102 1.157 65.164 2.095 64.007 2.095C62.85 2.095 61.912 1.157 61.912 0H58.812C58.812 1.157 57.874 2.095 56.717 2.095C55.56 2.095 54.622 1.157 54.622 0H51.522C51.522 1.157 50.584 2.095 49.427 2.095C48.27 2.095 47.332 1.157 47.332 0H44.232C44.232 1.157 43.294 2.095 42.137 2.095C40.98 2.095 40.042 1.157 40.042 0H36.941C36.941 1.157 36.003 2.095 34.846 2.095C33.689 2.095 32.751 1.157 32.751 0H29.651C29.651 1.157 28.713 2.095 27.556 2.095C26.399 2.095 25.461 1.157 25.461 0H22.361C22.361 1.157 21.423 2.095 20.266 2.095C19.109 2.095 18.171 1.157 18.171 0H15.071C15.071 1.157 14.133 2.095 12.976 2.095C11.819 2.095 10.881 1.157 10.881 0H7.781C7.781 1.157 6.843 2.095 5.686 2.095C4.529 2.095 3.591 1.157 3.591 0H0V4.36398C1.157 4.36398 2.095 5.30198 2.095 6.45898C2.095 7.61598 1.157 8.55399 0 8.55399V11.89C1.157 11.89 2.095 12.828 2.095 13.985C2.095 15.142 1.157 16.08 0 16.08V19.417C1.157 19.417 2.095 20.355 2.095 21.512C2.095 22.669 1.157 23.607 0 23.607V26.943C1.157 26.943 2.095 27.881 2.095 29.038C2.095 30.195 1.157 31.133 0 31.133V34.469C1.157 34.469 2.095 35.407 2.095 36.564C2.095 37.721 1.157 38.659 0 38.659V41.996C1.157 41.996 2.095 42.934 2.095 44.091C2.095 45.248 1.157 46.186 0 46.186V49.522C1.157 49.522 2.095 50.46 2.095 51.617C2.095 52.774 1.157 53.712 0 53.712V57.049C1.157 57.049 2.095 57.987 2.095 59.144C2.095 60.301 1.157 61.239 0 61.239V64.575C1.157 64.575 2.095 65.513 2.095 66.67C2.095 67.827 1.157 68.765 0 68.765V72.102C1.157 72.102 2.095 73.04 2.095 74.197C2.095 75.354 1.157 76.292 0 76.292V79.628C1.157 79.628 2.095 80.566 2.095 81.723C2.095 82.88 1.157 83.818 0 83.818V87.154C1.157 87.154 2.095 88.092 2.095 89.249C2.095 90.406 1.157 91.344 0 91.344V94.68C1.157 94.68 2.095 95.618 2.095 96.775C2.095 97.932 1.157 98.87 0 98.87V102.206C1.157 102.206 2.095 103.144 2.095 104.301C2.095 105.458 1.157 106.396 0 106.396V109.733C1.157 109.733 2.095 110.671 2.095 111.828C2.095 112.985 1.157 113.923 0 113.923V119.423H3.638C3.608 119.282 3.591 119.136 3.591 118.986C3.591 117.829 4.529 116.891 5.686 116.891C6.843 116.891 7.781 117.829 7.781 118.986C7.781 119.136 7.764 119.282 7.734 119.423H10.929C10.899 119.282 10.882 119.136 10.882 118.986C10.882 117.829 11.82 116.891 12.977 116.891C14.134 116.891 15.072 117.829 15.072 118.986C15.072 119.136 15.055 119.282 15.025 119.423H18.22C18.19 119.282 18.173 119.136 18.173 118.986C18.173 117.829 19.111 116.891 20.268 116.891C21.425 116.891 22.363 117.829 22.363 118.986C22.363 119.136 22.346 119.282 22.316 119.423H25.511C25.481 119.282 25.464 119.136 25.464 118.986C25.464 117.829 26.402 116.891 27.559 116.891C28.716 116.891 29.654 117.829 29.654 118.986C29.654 119.136 29.637 119.282 29.607 119.423H32.802C32.772 119.282 32.755 119.136 32.755 118.986C32.755 117.829 33.693 116.891 34.85 116.891C36.007 116.891 36.945 117.829 36.945 118.986C36.945 119.136 36.928 119.282 36.898 119.423H40.093C40.063 119.282 40.046 119.136 40.046 118.986C40.046 117.829 40.984 116.891 42.141 116.891C43.298 116.891 44.236 117.829 44.236 118.986C44.236 119.136 44.219 119.282 44.189 119.423H47.384C47.354 119.282 47.337 119.136 47.337 118.986C47.337 117.829 48.275 116.891 49.432 116.891C50.589 116.891 51.527 117.829 51.527 118.986C51.527 119.136 51.51 119.282 51.48 119.423H54.675C54.645 119.282 54.628 119.136 54.628 118.986C54.628 117.829 55.566 116.891 56.723 116.891C57.88 116.891 58.818 117.829 58.818 118.986C58.818 119.136 58.801 119.282 58.771 119.423H61.966C61.936 119.282 61.919 119.136 61.919 118.986C61.919 117.829 62.857 116.891 64.014 116.891C65.171 116.891 66.109 117.829 66.109 118.986C66.109 119.136 66.092 119.282 66.062 119.423H69.257C69.227 119.282 69.21 119.136 69.21 118.986C69.21 117.829 70.148 116.891 71.305 116.891C72.462 116.891 73.4 117.829 73.4 118.986C73.4 119.136 73.383 119.282 73.353 119.423H76.548C76.518 119.282 76.501 119.136 76.501 118.986C76.501 117.829 77.439 116.891 78.596 116.891C79.753 116.891 80.691 117.829 80.691 118.986C80.691 119.136 80.674 119.282 80.644 119.423H83.839C83.809 119.282 83.792 119.136 83.792 118.986C83.792 117.829 84.73 116.891 85.887 116.891C87.044 116.891 87.982 117.829 87.982 118.986C87.982 119.136 87.965 119.282 87.935 119.423H91.13C91.1 119.282 91.083 119.136 91.083 118.986C91.083 117.829 92.021 116.891 93.178 116.891C94.335 116.891 95.273 117.829 95.273 118.986C95.273 119.136 95.256 119.282 95.226 119.423H98.421C98.391 119.282 98.374 119.136 98.374 118.986C98.374 117.829 99.312 116.891 100.469 116.891C101.626 116.891 102.564 117.829 102.564 118.986C102.564 119.136 102.547 119.282 102.517 119.423H105.712C105.682 119.282 105.665 119.136 105.665 118.986C105.665 117.829 106.603 116.891 107.76 116.891C108.917 116.891 109.855 117.829 109.855 118.986C109.855 119.136 109.838 119.282 109.808 119.423H113.003C112.973 119.282 112.956 119.136 112.956 118.986C112.956 117.829 113.894 116.891 115.051 116.891C116.208 116.891 117.146 117.829 117.146 118.986C117.146 119.136 117.129 119.282 117.099 119.423H120.294C120.264 119.282 120.247 119.136 120.247 118.986C120.247 117.829 121.185 116.891 122.342 116.891C123.499 116.891 124.437 117.829 124.437 118.986C124.437 119.136 124.42 119.282 124.39 119.423H127.585C127.555 119.282 127.538 119.136 127.538 118.986C127.538 117.829 128.476 116.891 129.633 116.891C130.79 116.891 131.728 117.829 131.728 118.986C131.728 119.136 131.711 119.282 131.681 119.423H134.876C134.846 119.282 134.829 119.136 134.829 118.986C134.829 117.829 135.767 116.891 136.924 116.891C138.081 116.891 139.019 117.829 139.019 118.986C139.019 119.136 139.002 119.282 138.972 119.423H142.167C142.137 119.282 142.12 119.136 142.12 118.986C142.12 117.829 143.058 116.891 144.215 116.891C145.372 116.891 146.31 117.829 146.31 118.986C146.31 119.136 146.293 119.282 146.263 119.423H149.458C149.428 119.282 149.411 119.136 149.411 118.986C149.411 117.829 150.349 116.891 151.506 116.891C152.663 116.891 153.601 117.829 153.601 118.986C153.601 119.136 153.584 119.282 153.554 119.423H156.749C156.719 119.282 156.702 119.136 156.702 118.986C156.702 117.829 157.64 116.891 158.797 116.891C159.954 116.891 160.892 117.829 160.892 118.986C160.892 119.136 160.875 119.282 160.845 119.423H164.483V113.808C164.276 113.877 164.058 113.923 163.828 113.923C162.671 113.923 161.733 112.985 161.733 111.828C161.733 110.671 162.671 109.733 163.828 109.733C164.058 109.733 164.276 109.779 164.483 109.848V106.282C164.276 106.351 164.058 106.397 163.828 106.397C162.671 106.397 161.733 105.459 161.733 104.302C161.733 103.145 162.671 102.207 163.828 102.207C164.058 102.207 164.276 102.253 164.483 102.322V98.756C164.276 98.825 164.058 98.871 163.828 98.871C162.671 98.871 161.733 97.933 161.733 96.776C161.733 95.619 162.671 94.681 163.828 94.681C164.058 94.681 164.276 94.727 164.483 94.796V91.23C164.276 91.299 164.058 91.345 163.828 91.345C162.671 91.345 161.733 90.407 161.733 89.25C161.733 88.093 162.671 87.155 163.828 87.155C164.058 87.155 164.276 87.201 164.483 87.27V83.704C164.276 83.773 164.058 83.819 163.828 83.819C162.671 83.819 161.733 82.881 161.733 81.724C161.733 80.567 162.671 79.629 163.828 79.629C164.058 79.629 164.276 79.675 164.483 79.744V76.178C164.276 76.247 164.058 76.293 163.828 76.293C162.671 76.293 161.733 75.355 161.733 74.198C161.733 73.041 162.671 72.103 163.828 72.103C164.058 72.103 164.276 72.149 164.483 72.218V68.652C164.276 68.72 164.058 68.767 163.828 68.767C162.671 68.767 161.733 67.829 161.733 66.672C161.733 65.515 162.671 64.577 163.828 64.577C164.058 64.577 164.276 64.623 164.483 64.692V61.126C164.276 61.195 164.058 61.241 163.828 61.241C162.671 61.241 161.733 60.303 161.733 59.146C161.733 57.989 162.671 57.051 163.828 57.051C164.058 57.051 164.276 57.097 164.483 57.166V53.6C164.276 53.669 164.058 53.715 163.828 53.715C162.671 53.715 161.733 52.777 161.733 51.62C161.733 50.463 162.671 49.525 163.828 49.525C164.058 49.525 164.276 49.571 164.483 49.64V46.074C164.276 46.143 164.058 46.189 163.828 46.189C162.671 46.189 161.733 45.251 161.733 44.094C161.733 42.937 162.671 41.999 163.828 41.999C164.058 41.999 164.276 42.045 164.483 42.114V38.548C164.276 38.617 164.058 38.663 163.828 38.663C162.671 38.663 161.733 37.725 161.733 36.568C161.733 35.411 162.671 34.473 163.828 34.473C164.058 34.473 164.276 34.519 164.483 34.588V31.022C164.276 31.091 164.058 31.137 163.828 31.137C162.671 31.137 161.733 30.199 161.733 29.042C161.733 27.885 162.671 26.947 163.828 26.947C164.058 26.947 164.276 26.993 164.483 27.062V23.496C164.276 23.565 164.058 23.611 163.828 23.611C162.671 23.611 161.733 22.673 161.733 21.516C161.733 20.359 162.671 19.421 163.828 19.421C164.058 19.421 164.276 19.467 164.483 19.536V15.97C164.276 16.038 164.058 16.085 163.828 16.085C162.671 16.085 161.733 15.147 161.733 13.99C161.733 12.833 162.671 11.895 163.828 11.895C164.058 11.895 164.276 11.941 164.483 12.01V8.444C164.276 8.513 164.058 8.55899 163.828 8.55899C162.671 8.55899 161.733 7.62099 161.733 6.46399C161.715 5.30199 162.653 4.36398 163.81 4.36398Z" fill="white"/>
</mask>
<g mask="url(#mask0_134_691)">
<path d="M151.422 57.865C152.648 58.448 153.923 58.964 155.242 59.407C156.293 59.76 157.35 60.059 158.408 60.305" stroke="#333333" stroke-miterlimit="10"/>
<path d="M184 62.8121C204.127 52.5885 212.155 27.9849 201.931 7.85831C191.708 -12.2683 167.104 -20.2962 146.978 -10.0727C126.851 0.150892 118.823 24.7545 129.047 44.8811C139.27 65.0076 163.874 73.0356 184 62.8121Z" stroke="#333333" stroke-miterlimit="10"/>
</g>
</svg>
