<svg width="129" height="165" viewBox="0 0 129 165" fill="none" xmlns="http://www.w3.org/2000/svg">
<path d="M70.3825 161.733C69.2255 161.733 68.2875 162.671 68.2875 163.828C68.2875 164.058 68.3335 164.276 68.4025 164.483H64.8365C64.9055 164.276 64.9515 164.058 64.9515 163.828C64.9515 162.671 64.0135 161.733 62.8565 161.733C61.6995 161.733 60.7615 162.671 60.7615 163.828C60.7615 164.058 60.8075 164.276 60.8765 164.483H57.3105C57.3785 164.276 57.4255 164.058 57.4255 163.828C57.4255 162.671 56.4875 161.733 55.3305 161.733C54.1735 161.733 53.2355 162.671 53.2355 163.828C53.2355 164.058 53.2815 164.276 53.3505 164.483H49.7845C49.8535 164.276 49.8995 164.058 49.8995 163.828C49.8995 162.671 48.9615 161.733 47.8045 161.733C46.6475 161.733 45.7095 162.671 45.7095 163.828C45.7095 164.058 45.7555 164.276 45.8245 164.483H42.2585C42.3275 164.276 42.3735 164.058 42.3735 163.828C42.3735 162.671 41.4355 161.733 40.2785 161.733C39.1215 161.733 38.1835 162.671 38.1835 163.828C38.1835 164.058 38.2295 164.276 38.2985 164.483H34.7325C34.8015 164.276 34.8475 164.058 34.8475 163.828C34.8475 162.671 33.9095 161.733 32.7525 161.733C31.5955 161.733 30.6575 162.671 30.6575 163.828C30.6575 164.058 30.7035 164.276 30.7725 164.483H27.2065C27.2755 164.276 27.3215 164.058 27.3215 163.828C27.3215 162.671 26.3835 161.733 25.2265 161.733C24.0695 161.733 23.1315 162.671 23.1315 163.828C23.1315 164.058 23.1775 164.276 23.2465 164.483H19.6805C19.7495 164.276 19.7955 164.058 19.7955 163.828C19.7955 162.671 18.8575 161.733 17.7005 161.733C16.5435 161.733 15.6055 162.671 15.6055 163.828C15.6055 164.058 15.6515 164.276 15.7205 164.483H10.1055V160.845C10.2465 160.875 10.3925 160.892 10.5425 160.892C11.6995 160.892 12.6375 159.954 12.6375 158.797C12.6375 157.64 11.6995 156.702 10.5425 156.702C10.3925 156.702 10.2465 156.719 10.1055 156.749V153.554C10.2465 153.584 10.3925 153.601 10.5425 153.601C11.6995 153.601 12.6375 152.663 12.6375 151.506C12.6375 150.349 11.6995 149.411 10.5425 149.411C10.3925 149.411 10.2465 149.428 10.1055 149.458V146.263C10.2465 146.293 10.3925 146.31 10.5425 146.31C11.6995 146.31 12.6375 145.372 12.6375 144.215C12.6375 143.058 11.6995 142.12 10.5425 142.12C10.3925 142.12 10.2465 142.137 10.1055 142.167V138.972C10.2465 139.002 10.3925 139.019 10.5425 139.019C11.6995 139.019 12.6375 138.081 12.6375 136.924C12.6375 135.767 11.6995 134.829 10.5425 134.829C10.3925 134.829 10.2465 134.846 10.1055 134.876V131.681C10.2465 131.711 10.3925 131.728 10.5425 131.728C11.6995 131.728 12.6375 130.79 12.6375 129.633C12.6375 128.476 11.6995 127.538 10.5425 127.538C10.3925 127.538 10.2465 127.555 10.1055 127.585V124.39C10.2465 124.42 10.3925 124.437 10.5425 124.437C11.6995 124.437 12.6375 123.499 12.6375 122.342C12.6375 121.185 11.6995 120.247 10.5425 120.247C10.3925 120.247 10.2465 120.264 10.1055 120.294V117.099C10.2465 117.129 10.3925 117.146 10.5425 117.146C11.6995 117.146 12.6375 116.208 12.6375 115.051C12.6375 113.894 11.6995 112.956 10.5425 112.956C10.3925 112.956 10.2465 112.973 10.1055 113.003V109.808C10.2465 109.838 10.3925 109.855 10.5425 109.855C11.6995 109.855 12.6375 108.917 12.6375 107.76C12.6375 106.603 11.6995 105.665 10.5425 105.665C10.3925 105.665 10.2465 105.682 10.1055 105.712V102.517C10.2465 102.547 10.3925 102.564 10.5425 102.564C11.6995 102.564 12.6375 101.626 12.6375 100.469C12.6375 99.312 11.6995 98.374 10.5425 98.374C10.3925 98.374 10.2465 98.391 10.1055 98.421V95.226C10.2465 95.256 10.3925 95.273 10.5425 95.273C11.6995 95.273 12.6375 94.335 12.6375 93.178C12.6375 92.021 11.6995 91.083 10.5425 91.083C10.3925 91.083 10.2465 91.1 10.1055 91.13V87.935C10.2465 87.965 10.3925 87.982 10.5425 87.982C11.6995 87.982 12.6375 87.044 12.6375 85.887C12.6375 84.73 11.6995 83.792 10.5425 83.792C10.3925 83.792 10.2465 83.809 10.1055 83.839V80.644C10.2465 80.674 10.3925 80.691 10.5425 80.691C11.6995 80.691 12.6375 79.753 12.6375 78.596C12.6375 77.439 11.6995 76.501 10.5425 76.501C10.3925 76.501 10.2465 76.518 10.1055 76.548V73.353C10.2465 73.383 10.3925 73.4 10.5425 73.4C11.6995 73.4 12.6375 72.462 12.6375 71.305C12.6375 70.148 11.6995 69.21 10.5425 69.21C10.3925 69.21 10.2465 69.227 10.1055 69.257V66.062C10.2465 66.092 10.3925 66.109 10.5425 66.109C11.6995 66.109 12.6375 65.171 12.6375 64.014C12.6375 62.857 11.6995 61.919 10.5425 61.919C10.3925 61.919 10.2465 61.936 10.1055 61.966V58.771C10.2465 58.801 10.3925 58.818 10.5425 58.818C11.6995 58.818 12.6375 57.88 12.6375 56.723C12.6375 55.566 11.6995 54.628 10.5425 54.628C10.3925 54.628 10.2465 54.645 10.1055 54.675V51.48C10.2465 51.51 10.3925 51.527 10.5425 51.527C11.6995 51.527 12.6375 50.589 12.6375 49.432C12.6375 48.275 11.6995 47.337 10.5425 47.337C10.3925 47.337 10.2465 47.354 10.1055 47.384V44.189C10.2465 44.219 10.3925 44.236 10.5425 44.236C11.6995 44.236 12.6375 43.298 12.6375 42.141C12.6375 40.984 11.6995 40.046 10.5425 40.046C10.3925 40.046 10.2465 40.063 10.1055 40.093V36.898C10.2465 36.928 10.3925 36.945 10.5425 36.945C11.6995 36.945 12.6375 36.007 12.6375 34.85C12.6375 33.693 11.6995 32.755 10.5425 32.755C10.3925 32.755 10.2465 32.772 10.1055 32.802V29.607C10.2465 29.637 10.3925 29.654 10.5425 29.654C11.6995 29.654 12.6375 28.716 12.6375 27.559C12.6375 26.402 11.6995 25.464 10.5425 25.464C10.3925 25.464 10.2465 25.481 10.1055 25.511V22.316C10.2465 22.346 10.3925 22.363 10.5425 22.363C11.6995 22.363 12.6375 21.425 12.6375 20.268C12.6375 19.111 11.6995 18.173 10.5425 18.173C10.3925 18.173 10.2465 18.19 10.1055 18.22V15.025C10.2465 15.055 10.3925 15.072 10.5425 15.072C11.6995 15.072 12.6375 14.134 12.6375 12.977C12.6375 11.82 11.6995 10.882 10.5425 10.882C10.3925 10.882 10.2465 10.899 10.1055 10.929V7.73399C10.2465 7.76399 10.3925 7.78099 10.5425 7.78099C11.6995 7.78099 12.6375 6.84299 12.6375 5.68599C12.6375 4.52899 11.6995 3.59099 10.5425 3.59099C10.3925 3.59099 10.2465 3.608 10.1055 3.638V0H15.6055C15.6055 1.157 16.5435 2.09499 17.7005 2.09499C18.8575 2.09499 19.7955 1.157 19.7955 0H23.1315C23.1315 1.157 24.0695 2.09499 25.2265 2.09499C26.3835 2.09499 27.3215 1.157 27.3215 0H30.6575C30.6575 1.157 31.5955 2.09499 32.7525 2.09499C33.9095 2.09499 34.8475 1.157 34.8475 0H38.1835C38.1835 1.157 39.1215 2.09499 40.2785 2.09499C41.4355 2.09499 42.3735 1.157 42.3735 0H45.7105C45.7105 1.157 46.6485 2.09499 47.8055 2.09499C48.9625 2.09499 49.9005 1.157 49.9005 0H53.2365C53.2365 1.157 54.1745 2.09499 55.3315 2.09499C56.4885 2.09499 57.4265 1.157 57.4265 0H60.7635C60.7635 1.157 61.7015 2.09499 62.8585 2.09499C64.0155 2.09499 64.9535 1.157 64.9535 0H68.2895C68.2895 1.157 69.2275 2.09499 70.3845 2.09499C71.5415 2.09499 72.4795 1.157 72.4795 0H75.8165C75.8165 1.157 76.7545 2.09499 77.9115 2.09499C79.0685 2.09499 80.0065 1.157 80.0065 0H83.3425C83.3425 1.157 84.2805 2.09499 85.4375 2.09499C86.5945 2.09499 87.5325 1.157 87.5325 0H90.8695C90.8695 1.157 91.8075 2.09499 92.9645 2.09499C94.1215 2.09499 95.0595 1.157 95.0595 0H98.3955C98.3955 1.157 99.3335 2.09499 100.49 2.09499C101.647 2.09499 102.585 1.157 102.585 0H106.949V3.59099C105.792 3.59099 104.854 4.52899 104.854 5.68599C104.854 6.84299 105.792 7.78099 106.949 7.78099V10.881C105.792 10.881 104.854 11.819 104.854 12.976C104.854 14.133 105.792 15.071 106.949 15.071V18.171C105.792 18.171 104.854 19.109 104.854 20.266C104.854 21.423 105.792 22.361 106.949 22.361V25.461C105.792 25.461 104.854 26.399 104.854 27.556C104.854 28.713 105.792 29.651 106.949 29.651V32.751C105.792 32.751 104.854 33.689 104.854 34.846C104.854 36.003 105.792 36.941 106.949 36.941V40.041C105.792 40.041 104.854 40.979 104.854 42.136C104.854 43.293 105.792 44.231 106.949 44.231V47.331C105.792 47.331 104.854 48.269 104.854 49.426C104.854 50.583 105.792 51.521 106.949 51.521V54.621C105.792 54.621 104.854 55.559 104.854 56.716C104.854 57.873 105.792 58.811 106.949 58.811V61.911C105.792 61.911 104.854 62.849 104.854 64.006C104.854 65.163 105.792 66.101 106.949 66.101V69.201C105.792 69.201 104.854 70.139 104.854 71.296C104.854 72.453 105.792 73.391 106.949 73.391V76.491C105.792 76.491 104.854 77.429 104.854 78.586C104.854 79.743 105.792 80.681 106.949 80.681V83.781C105.792 83.781 104.854 84.719 104.854 85.876C104.854 87.033 105.792 87.971 106.949 87.971V91.071C105.792 91.071 104.854 92.009 104.854 93.166C104.854 94.323 105.792 95.261 106.949 95.261V98.361C105.792 98.361 104.854 99.299 104.854 100.456C104.854 101.613 105.792 102.551 106.949 102.551V105.651C105.792 105.651 104.854 106.589 104.854 107.746C104.854 108.903 105.792 109.841 106.949 109.841V112.941C105.792 112.941 104.854 113.879 104.854 115.036C104.854 116.193 105.792 117.131 106.949 117.131V120.231C105.792 120.231 104.854 121.169 104.854 122.326C104.854 123.483 105.792 124.421 106.949 124.421V127.521C105.792 127.521 104.854 128.459 104.854 129.616C104.854 130.773 105.792 131.711 106.949 131.711V134.811C105.792 134.811 104.854 135.749 104.854 136.906C104.854 138.063 105.792 139.001 106.949 139.001V142.101C105.792 142.101 104.854 143.039 104.854 144.196C104.854 145.353 105.792 146.291 106.949 146.291V149.391C105.792 149.391 104.854 150.329 104.854 151.486C104.854 152.643 105.792 153.581 106.949 153.581V156.681C105.792 156.681 104.854 157.619 104.854 158.776C104.854 159.933 105.792 160.871 106.949 160.871V164.462H102.47C102.538 164.255 102.585 164.037 102.585 163.807C102.585 162.65 101.647 161.712 100.49 161.712C99.3335 161.712 98.3955 162.65 98.3955 163.807C98.3955 164.037 98.4415 164.255 98.5105 164.462H94.9445C95.0135 164.255 95.0595 164.037 95.0595 163.807C95.0595 162.65 94.1215 161.712 92.9645 161.712C91.8075 161.712 90.8695 162.65 90.8695 163.807C90.8695 164.037 90.9155 164.255 90.9845 164.462H87.4185C87.4875 164.255 87.5335 164.037 87.5335 163.807C87.5335 162.65 86.5955 161.712 85.4385 161.712C84.2815 161.712 83.3435 162.65 83.3435 163.807C83.3435 164.037 83.3895 164.255 83.4585 164.462H79.8925C79.9615 164.255 80.0075 164.037 80.0075 163.807C80.0075 162.65 79.0695 161.712 77.9125 161.712C76.7555 161.712 75.8175 162.65 75.8175 163.807C75.8175 164.037 75.8635 164.255 75.9325 164.462H72.3665C72.4355 164.255 72.4815 164.037 72.4815 163.807C72.4785 162.671 71.5405 161.733 70.3825 161.733Z" fill="#F5EDD5"/>
<path d="M21.1289 11.0171L21.1289 153.034H96.4549L96.4549 11.0171H21.1289Z" fill="#E6C7B9" stroke="#603E41" stroke-width="0.75" stroke-miterlimit="10"/>
<path d="M80.8447 53.204V53.135C80.8447 52.839 80.6377 52.593 80.3607 52.53V52.133C80.3607 52.133 80.2077 52.155 79.9807 52.157L79.4717 48.228L78.9497 51.98C78.4747 51.784 78.0627 51.383 78.0617 50.578C78.0617 48.677 77.9217 46.362 77.9217 46.362H78.3127C78.6187 46.362 78.8657 46.1141 78.8657 45.8091C78.8657 45.5041 78.6177 45.256 78.3127 45.256L75.4607 45.257C75.1037 44.271 74.9997 42.709 74.9777 42.267H75.1037L75.1017 35.509C75.2577 35.464 75.3737 35.306 75.3737 35.117C75.3737 34.922 75.2507 34.76 75.0867 34.721C74.8197 34.163 70.7167 25.514 69.9457 18.092C69.9457 18.092 69.1537 26.1111 64.4547 34.7531H64.4887C64.3647 34.8171 64.2777 34.957 64.2777 35.12C64.2777 35.345 64.4407 35.526 64.6417 35.526H64.7147L64.7177 42.2701H65.0237C65.0007 42.7121 64.8987 44.274 64.5417 45.26L61.3767 45.261C61.0707 45.261 60.8237 45.509 60.8237 45.814C60.8237 46.119 61.0717 46.367 61.3767 46.367L61.9707 46.366C61.9707 46.366 61.8337 48.682 61.8347 50.582C61.8347 51.411 61.3977 51.8121 60.9047 52.0031L60.4157 48.233L59.8697 52.162C59.6687 52.158 59.5357 52.139 59.5357 52.139V52.541C59.2687 52.611 59.0697 52.8521 59.0697 53.1411V53.2101C59.0697 53.5541 59.3477 53.832 59.6917 53.832H59.5357L59.5407 70.008C59.2257 70.008 58.9707 70.264 58.9707 70.578C58.9707 70.893 59.2257 71.148 59.5407 71.148H60.2617C59.9687 71.148 59.7317 71.3211 59.7317 71.5331C59.7317 71.7461 59.9697 71.918 60.2627 71.918H60.9417L60.9427 76.369H60.9217L60.9467 90.237L60.9487 96.344H60.9577L60.9587 96.759H60.9487L60.9527 108.89H60.9807L60.9817 109.305H60.9537L60.9577 121.386H61.0037L61.0047 121.8H60.9577L60.9597 133.526H61.0257L79.0007 133.494L78.9987 121.795H78.9797L78.9787 121.381H78.9997L78.9957 109.301H78.9577L78.9567 108.885H78.9947L78.9907 96.754H78.9337L78.9327 96.3391H78.9897L78.9867 84.105H78.9107L78.9097 83.69H78.9857L78.9817 71.915H79.4537C79.7467 71.914 79.9847 71.7421 79.9837 71.5291C79.9837 71.3161 79.7467 71.144 79.4537 71.144H80.1737C80.4887 71.144 80.7437 70.888 80.7427 70.573C80.7427 70.259 80.4877 70.003 80.1727 70.004L80.3627 70.0031L80.3587 53.828H80.2197C80.5667 53.826 80.8457 53.548 80.8447 53.204Z" fill="#603E41"/>
<path d="M75.3753 35.117C75.3753 34.922 75.2523 34.76 75.0883 34.721C74.8213 34.163 70.7183 25.514 69.9473 18.092C69.9473 18.092 69.1553 26.1111 64.4563 34.7531H64.4903C64.3663 34.8171 64.2793 34.957 64.2793 35.12C64.2793 35.345 64.4423 35.526 64.6433 35.526L75.1053 35.507C75.2603 35.461 75.3753 35.304 75.3753 35.117Z" fill="#603E41" stroke="#603E41" stroke-width="0.25" stroke-miterlimit="10" stroke-linecap="round" stroke-linejoin="round"/>
<path d="M60.962 133.499L79.004 133.493L79.001 121.393L60.959 121.399L60.962 133.499ZM74.356 122.911C74.356 122.638 74.587 122.418 74.873 122.418C75.158 122.417 75.39 122.638 75.39 122.91L75.394 133.486L74.359 133.487L74.356 122.911ZM72.396 122.911C72.396 122.638 72.628 122.417 72.913 122.418C73.199 122.418 73.43 122.638 73.431 122.911L73.434 133.488H72.4L72.396 122.911ZM70.435 122.912C70.435 122.639 70.667 122.419 70.953 122.419C71.239 122.419 71.471 122.64 71.47 122.912L71.474 133.488H70.439L70.435 122.912ZM68.475 122.912C68.475 122.64 68.707 122.42 68.992 122.419C69.277 122.419 69.509 122.64 69.509 122.912L69.512 133.488H68.478L68.475 122.912ZM66.515 122.914C66.515 122.641 66.746 122.42 67.032 122.42C67.317 122.42 67.549 122.64 67.549 122.912L67.553 133.489H66.518L66.515 122.914ZM64.554 122.915C64.555 122.642 64.786 122.421 65.072 122.422C65.357 122.421 65.589 122.642 65.589 122.915L65.592 133.492H64.558L64.554 122.915Z" fill="#E6C7B9" stroke="#603E41" stroke-width="0.25" stroke-miterlimit="10"/>
<path d="M80.8456 53.2041V53.1351C80.8456 52.8391 80.6386 52.5931 80.3616 52.5301V52.1331C80.3616 52.1331 80.2087 52.1551 79.9817 52.1571L79.4727 48.2281L78.9507 51.9801C78.4757 51.7841 78.0637 51.3831 78.0627 50.5781C78.0627 48.6771 77.9226 46.3621 77.9226 46.3621H78.3136C78.6196 46.3621 78.8666 46.1141 78.8666 45.8091C78.8666 45.5041 78.6186 45.2561 78.3136 45.2561L75.4616 45.2571C75.1046 44.2711 75.0006 42.7091 74.9786 42.2671H75.1046L75.1026 35.5091L75.1057 35.5081L64.6436 35.5271H64.7166L64.7196 42.2711H65.0256C65.0026 42.7131 64.9006 44.2751 64.5436 45.2611L61.3786 45.2621C61.0726 45.2621 60.8257 45.5101 60.8257 45.8151C60.8257 46.1201 61.0736 46.3681 61.3786 46.3681L61.9727 46.3671C61.9727 46.3671 61.8356 48.6831 61.8366 50.5831C61.8366 51.4121 61.3996 51.8131 60.9066 52.0041L60.4176 48.2341L59.8716 52.1631C59.6706 52.1591 59.5377 52.1401 59.5377 52.1401V52.5421C59.2707 52.6121 59.0717 52.8531 59.0717 53.1421V53.2111C59.0717 53.5551 59.3496 53.8331 59.6936 53.8331H59.5377L59.5426 70.0091C59.2276 70.0091 58.9727 70.2651 58.9727 70.5791C58.9727 70.8941 59.2276 71.1491 59.5426 71.1491H60.2636C59.9706 71.1491 59.7336 71.3221 59.7336 71.5341C59.7336 71.7471 59.9716 71.9191 60.2646 71.9191H60.9436L60.9467 83.6951L78.9886 83.6891L78.9846 71.9141H79.4566C79.7496 71.9131 79.9876 71.7411 79.9866 71.5281C79.9866 71.3151 79.7496 71.1431 79.4566 71.1431H80.1766C80.4916 71.1431 80.7466 70.8871 80.7456 70.5721C80.7456 70.2581 80.4907 70.0021 80.1757 70.0031L80.3656 70.0021L80.3616 53.8271H80.2227C80.5677 53.8261 80.8466 53.5481 80.8456 53.2041ZM72.6516 36.4241C72.6516 36.0571 72.9366 35.7611 73.2886 35.7601H73.6426C73.9946 35.7601 74.2796 36.0561 74.2796 36.4231L74.2806 40.7711L72.6537 40.7721L72.6516 36.4241ZM74.3836 47.8141L74.3846 51.8931L72.8177 51.8941L72.8167 47.8151C72.8167 47.4711 73.0907 47.1931 73.4297 47.1931H73.7706C74.1086 47.1921 74.3836 47.4711 74.3836 47.8141ZM70.2816 36.4251C70.2816 36.0591 70.5666 35.7621 70.9186 35.7621H71.2726C71.6246 35.7621 71.9096 36.0591 71.9096 36.4251L71.9117 40.7741H70.2836L70.2816 36.4251ZM71.9316 47.8151L71.9326 51.8941L70.3666 51.8951L70.3656 47.8161C70.3656 47.4731 70.6396 47.1941 70.9786 47.1941H71.3186C71.6576 47.1931 71.9326 47.4711 71.9316 47.8151ZM67.9117 36.4261C67.9117 36.0591 68.1966 35.7621 68.5486 35.7621H68.9026C69.2536 35.7621 69.5386 36.0591 69.5396 36.4251L69.5417 40.7731L67.9136 40.7741L67.9117 36.4261ZM67.9146 47.8161C67.9146 47.4721 68.1886 47.1941 68.5276 47.1941H68.8676C69.2056 47.1941 69.4817 47.4721 69.4807 47.8161L69.4826 51.8951H67.9167L67.9146 47.8161ZM65.5426 36.4261C65.5426 36.0601 65.8266 35.7631 66.1786 35.7631H66.5327C66.8847 35.7631 67.1696 36.0601 67.1696 36.4261L67.1707 40.7751H65.5436L65.5426 36.4261ZM65.4626 47.8171C65.4616 47.4731 65.7366 47.1951 66.0746 47.1951H66.4156C66.7546 47.1951 67.0276 47.4731 67.0276 47.8171L67.0287 51.8961H65.4626V47.8171ZM63.0107 47.8171C63.0107 47.4741 63.2847 47.1951 63.6237 47.1951H63.9637C64.3027 47.1941 64.5766 47.4731 64.5776 47.8161L64.5786 51.8951L63.0117 51.8961L63.0107 47.8171ZM65.5766 83.4091H64.5426L64.5386 72.8321C64.5386 72.5601 64.7696 72.3391 65.0556 72.3391C65.3416 72.3391 65.5736 72.5591 65.5736 72.8311L65.5766 83.4091ZM67.5367 83.4081L66.5016 83.4071L66.4977 72.8311C66.4987 72.5591 66.7307 72.3391 67.0157 72.3381C67.3007 72.3381 67.5327 72.5581 67.5327 72.8301L67.5367 83.4081ZM69.4977 83.4081H68.4626L68.4597 72.8311C68.4597 72.5591 68.6916 72.3391 68.9776 72.3391C69.2626 72.3391 69.4947 72.5591 69.4947 72.8311L69.4977 83.4081ZM71.4576 83.4071H70.4226L70.4196 72.8301C70.4196 72.5581 70.6517 72.3371 70.9377 72.3371C71.2227 72.3371 71.4547 72.5571 71.4547 72.8291L71.4576 83.4071ZM73.4176 83.4061H72.3836L72.3806 72.8301C72.3806 72.5581 72.6126 72.3371 72.8976 72.3371C73.1836 72.3371 73.4146 72.5571 73.4146 72.8291L73.4176 83.4061ZM75.3777 83.4051L74.3427 83.4061L74.3396 72.8291C74.3396 72.5571 74.5707 72.3371 74.8567 72.3361C75.1417 72.3361 75.3736 72.5561 75.3746 72.8281L75.3777 83.4051ZM76.8366 51.8921L75.2706 51.8931L75.2697 47.8141C75.2697 47.4711 75.5436 47.1921 75.8826 47.1921H76.2227C76.5617 47.1921 76.8356 47.4701 76.8356 47.8141L76.8366 51.8921Z" fill="#E6C7B9" stroke="#603E41" stroke-width="0.25" stroke-miterlimit="10" stroke-linecap="round" stroke-linejoin="round"/>
<path d="M60.9552 108.891L78.9972 108.885L78.9932 96.3521L60.9512 96.358L60.9552 108.891ZM74.3472 97.87C74.3472 97.598 74.5792 97.377 74.8642 97.377C75.1502 97.377 75.3812 97.598 75.3812 97.87L75.3852 108.446H74.3512L74.3472 97.87ZM72.3872 97.87C72.3872 97.599 72.6182 97.3781 72.9042 97.3781C73.1902 97.3781 73.4212 97.599 73.4222 97.87L73.4252 108.446H72.3912L72.3872 97.87ZM70.4262 97.87C70.4262 97.599 70.6582 97.3781 70.9442 97.3781C71.2302 97.3781 71.4612 97.598 71.4612 97.87L71.4652 108.447H70.4302L70.4262 97.87ZM68.4662 97.871C68.4662 97.6 68.6982 97.3791 68.9832 97.3781C69.2692 97.3781 69.5002 97.599 69.5002 97.871L69.5032 108.448H68.4692L68.4662 97.871ZM66.5062 97.872C66.5052 97.6 66.7382 97.379 67.0232 97.379C67.3092 97.379 67.5402 97.6 67.5412 97.872L67.5442 108.447L66.5102 108.448L66.5062 97.872ZM64.5462 97.872C64.5462 97.601 64.7782 97.38 65.0632 97.38C65.3492 97.38 65.5812 97.6 65.5802 97.872L65.5832 108.449L64.5482 108.448L64.5462 97.872Z" fill="#E6C7B9" stroke="#603E41" stroke-width="0.25" stroke-miterlimit="10"/>
<path d="M60.9513 96.3451L78.9933 96.3391L78.9893 83.7041L60.9473 83.7091L60.9513 96.3451ZM74.3433 85.2721C74.3433 85.0001 74.5753 84.7801 74.8613 84.7801C75.1463 84.7801 75.3773 84.9991 75.3773 85.2721L75.3803 95.8481H74.3463L74.3433 85.2721ZM72.3833 85.2731C72.3833 85.0011 72.6143 84.7801 72.9003 84.7811C73.1863 84.7811 73.4173 85.0001 73.4183 85.2721L73.4223 95.8491H72.3873L72.3833 85.2731ZM70.4223 85.2731C70.4223 85.0001 70.6543 84.7811 70.9403 84.7801C71.2263 84.7801 71.4573 85.0011 71.4573 85.2721L71.4603 95.8481H70.4253L70.4223 85.2731ZM68.4623 85.2731C68.4623 85.0011 68.6943 84.7811 68.9803 84.7801C69.2653 84.7811 69.4973 85.0011 69.4973 85.2731L69.5003 95.8481L68.4653 95.8491L68.4623 85.2731ZM66.5023 85.2741C66.5023 85.0021 66.7343 84.7831 67.0203 84.7821C67.3063 84.7821 67.5373 85.0021 67.5383 85.2741L67.5413 95.8501H66.5063L66.5023 85.2741ZM64.5423 85.2751C64.5423 85.0031 64.7743 84.7821 65.0593 84.7821C65.3453 84.7821 65.5773 85.0021 65.5763 85.2751L65.5793 95.8511L64.5453 95.8521L64.5423 85.2751Z" fill="#E6C7B9" stroke="#603E41" stroke-width="0.25" stroke-miterlimit="10"/>
<path d="M60.9601 121.386L79.0021 121.38L78.9971 108.898L60.9551 108.903L60.9601 121.386ZM74.3521 110.417C74.3521 110.144 74.5831 109.923 74.8691 109.924C75.1541 109.923 75.3861 110.144 75.3861 110.416L75.3891 120.993H74.3551L74.3521 110.417ZM72.3921 110.417C72.3921 110.144 72.6241 109.924 72.9091 109.924C73.1951 109.924 73.4261 110.145 73.4271 110.417L73.4291 120.994H72.3951L72.3921 110.417ZM70.4311 110.417C70.4311 110.145 70.6631 109.925 70.9491 109.925C71.2351 109.925 71.4661 110.145 71.4661 110.417L71.4701 120.994H70.4351L70.4311 110.417ZM68.4711 110.418C68.4711 110.146 68.7031 109.926 68.9881 109.925C69.2731 109.925 69.5051 110.145 69.5061 110.418L69.5091 120.995H68.4751L68.4711 110.418ZM66.5111 110.419C66.5101 110.147 66.7421 109.926 67.0281 109.926C67.3131 109.926 67.5451 110.146 67.5451 110.419L67.5491 120.996L66.5141 120.995L66.5111 110.419ZM64.5511 110.42C64.5511 110.147 64.7821 109.926 65.0681 109.926C65.3531 109.925 65.5851 110.146 65.5861 110.419L65.5891 120.995L64.5541 120.996L64.5511 110.42Z" fill="#E6C7B9" stroke="#603E41" stroke-width="0.25" stroke-miterlimit="10"/>
<path d="M78.9865 83.3863L60.8984 83.4188L60.9009 84.7908L78.9889 84.7583L78.9865 83.3863Z" fill="#E6C7B9" stroke="#603E41" stroke-width="0.25" stroke-miterlimit="10"/>
<path d="M79.0099 95.8362L60.9219 95.8688L60.9243 97.2408L79.0124 97.2082L79.0099 95.8362Z" fill="#E6C7B9" stroke="#603E41" stroke-width="0.25" stroke-miterlimit="10"/>
<path d="M79.0313 108.44L60.9434 108.473L60.9458 109.845L79.0338 109.812L79.0313 108.44Z" fill="#E6C7B9" stroke="#603E41" stroke-width="0.25" stroke-miterlimit="10"/>
<path d="M79.0548 120.987L60.9668 121.02L60.9693 122.392L79.0572 122.359L79.0548 120.987Z" fill="#E6C7B9" stroke="#603E41" stroke-width="0.25" stroke-miterlimit="10"/>
<path d="M60.9434 71.9561L78.9844 71.9241" stroke="#603E41" stroke-width="0.25" stroke-miterlimit="10"/>
<path d="M60.1074 71.1671L79.4564 71.1321" stroke="#603E41" stroke-width="0.25" stroke-miterlimit="10"/>
<path d="M59.543 70.0081L80.367 69.9711" stroke="#603E41" stroke-width="0.25" stroke-miterlimit="10"/>
<path d="M59.5137 53.869L80.3377 53.832" stroke="#603E41" stroke-width="0.25" stroke-miterlimit="10"/>
<path d="M59.5117 52.5861L80.3357 52.5491" stroke="#603E41" stroke-width="0.25" stroke-miterlimit="10"/>
<path d="M62 46.3611L77.999 46.332" stroke="#603E41" stroke-width="0.25" stroke-miterlimit="10"/>
<path d="M64.543 45.2571L75.462 45.2371C74.999 43.9891 74.979 42.2521 74.979 42.2521L65.025 42.2701C65.025 42.2701 64.915 44.0071 64.543 45.2571Z" fill="#603E41" stroke="#603E41" stroke-width="0.25" stroke-miterlimit="10" stroke-linecap="round" stroke-linejoin="round"/>
<path d="M62.9431 70.002L62.9141 53.863" stroke="#603E41" stroke-width="0.25" stroke-miterlimit="10" stroke-linecap="round" stroke-linejoin="round"/>
<path d="M61.8005 70.004L61.7715 53.865" stroke="#603E41" stroke-width="0.25" stroke-miterlimit="10" stroke-linecap="round" stroke-linejoin="round"/>
<path d="M60.6579 70.0061L60.6289 53.8671" stroke="#603E41" stroke-width="0.25" stroke-miterlimit="10" stroke-linecap="round" stroke-linejoin="round"/>
<path d="M76.9773 69.977L76.9473 53.838" stroke="#603E41" stroke-width="0.25" stroke-miterlimit="10" stroke-linecap="round" stroke-linejoin="round"/>
<path d="M78.1188 69.9749L78.0898 53.8359" stroke="#603E41" stroke-width="0.25" stroke-miterlimit="10" stroke-linecap="round" stroke-linejoin="round"/>
<path d="M79.2614 69.973L79.2324 53.834" stroke="#603E41" stroke-width="0.25" stroke-miterlimit="10" stroke-linecap="round" stroke-linejoin="round"/>
<path d="M76.949 53.8401L62.916 53.8654L62.9451 70.0044L76.9781 69.9791L76.949 53.8401Z" fill="#603E41" stroke="#603E41" stroke-width="0.25" stroke-miterlimit="10" stroke-linecap="round" stroke-linejoin="round"/>
<path d="M69.9487 67.558C73.1586 67.558 75.7607 64.9558 75.7607 61.7459C75.7607 58.5361 73.1586 55.934 69.9487 55.934C66.7389 55.934 64.1367 58.5361 64.1367 61.7459C64.1367 64.9558 66.7389 67.558 69.9487 67.558Z" fill="#E6C7B9" stroke="#603E41" stroke-width="0.25" stroke-miterlimit="10" stroke-linecap="round" stroke-linejoin="round"/>
<path d="M73.3806 61.74C73.3776 59.844 71.8376 58.31 69.9416 58.314C68.0456 58.317 66.5116 59.857 66.5156 61.753C66.5186 63.649 68.0586 65.183 69.9546 65.179C71.8506 65.175 73.3846 63.636 73.3806 61.74Z" stroke="#603E41" stroke-width="0.25" stroke-miterlimit="10" stroke-linecap="round" stroke-linejoin="round"/>
<path d="M69.9375 55.939L69.9395 56.852" stroke="#603E41" stroke-width="0.25" stroke-miterlimit="10" stroke-linecap="round" stroke-linejoin="round"/>
<path d="M69.957 66.644L69.958 67.558" stroke="#603E41" stroke-width="0.25" stroke-miterlimit="10" stroke-linecap="round" stroke-linejoin="round"/>
<path d="M75.7567 61.738L74.8438 61.739" stroke="#603E41" stroke-width="0.25" stroke-miterlimit="10" stroke-linecap="round" stroke-linejoin="round"/>
<path d="M65.0527 61.7571L64.1387 61.7591" stroke="#603E41" stroke-width="0.25" stroke-miterlimit="10" stroke-linecap="round" stroke-linejoin="round"/>
<path d="M74.8697 58.661L74.0957 59.146" stroke="#603E41" stroke-width="0.25" stroke-miterlimit="10" stroke-linecap="round" stroke-linejoin="round"/>
<path d="M65.8013 64.35L65.0273 64.836" stroke="#603E41" stroke-width="0.25" stroke-miterlimit="10" stroke-linecap="round" stroke-linejoin="round"/>
<path d="M72.9594 56.7791L72.4863 57.56" stroke="#603E41" stroke-width="0.25" stroke-miterlimit="10" stroke-linecap="round" stroke-linejoin="round"/>
<path d="M67.4135 65.936L66.9395 66.718" stroke="#603E41" stroke-width="0.25" stroke-miterlimit="10" stroke-linecap="round" stroke-linejoin="round"/>
<path d="M66.8613 56.8269L67.3473 57.6009" stroke="#603E41" stroke-width="0.25" stroke-miterlimit="10" stroke-linecap="round" stroke-linejoin="round"/>
<path d="M72.5508 65.8959L73.0358 66.6699" stroke="#603E41" stroke-width="0.25" stroke-miterlimit="10" stroke-linecap="round" stroke-linejoin="round"/>
<path d="M64.9785 58.739L65.7605 59.212" stroke="#603E41" stroke-width="0.25" stroke-miterlimit="10" stroke-linecap="round" stroke-linejoin="round"/>
<path d="M74.1367 64.2839L74.9177 64.7579" stroke="#603E41" stroke-width="0.25" stroke-miterlimit="10" stroke-linecap="round" stroke-linejoin="round"/>
<path d="M72.0394 61.7439L69.9494 61.7479L69.9414 57.5659" stroke="#603E41" stroke-width="0.25" stroke-miterlimit="10" stroke-linecap="round" stroke-linejoin="round"/>
<path d="M96.4549 133.526H21.1289V153.034H96.4549V133.526Z" fill="#F5EDD5" stroke="#603E41" stroke-width="0.75" stroke-miterlimit="10"/>
<path d="M24.2404 147.591V138.863H29.5075V139.801H25.2972V142.75H29.2347V143.687H25.2972V146.653H29.5756V147.591H24.2404ZM38.3327 138.863V147.591H37.31L32.5543 140.738H32.4691V147.591H31.4123V138.863H32.435L37.2077 145.733H37.293V138.863H38.3327ZM46.4134 141.591C46.3196 141.304 46.196 141.047 46.0426 140.819C45.892 140.589 45.7116 140.393 45.5014 140.231C45.294 140.069 45.0582 139.946 44.794 139.86C44.5298 139.775 44.2401 139.733 43.9247 139.733C43.4077 139.733 42.9375 139.866 42.5142 140.133C42.0909 140.4 41.7543 140.794 41.5043 141.314C41.2543 141.833 41.1293 142.471 41.1293 143.227C41.1293 143.983 41.2557 144.62 41.5085 145.14C41.7614 145.66 42.1037 146.054 42.5355 146.321C42.9673 146.588 43.4531 146.721 43.9929 146.721C44.4929 146.721 44.9332 146.615 45.3139 146.402C45.6974 146.186 45.9957 145.882 46.2088 145.49C46.4247 145.095 46.5327 144.63 46.5327 144.096L46.8565 144.164H44.2315V143.227H47.5554V144.164C47.5554 144.883 47.402 145.508 47.0952 146.039C46.7912 146.571 46.3707 146.983 45.8338 147.275C45.2997 147.565 44.6861 147.71 43.9929 147.71C43.2202 147.71 42.5412 147.528 41.956 147.164C41.3736 146.801 40.919 146.284 40.5923 145.613C40.2685 144.943 40.1065 144.147 40.1065 143.227C40.1065 142.537 40.1989 141.916 40.3835 141.365C40.571 140.811 40.8352 140.339 41.1761 139.95C41.517 139.561 41.9205 139.262 42.3864 139.055C42.8523 138.848 43.3651 138.744 43.9247 138.744C44.3849 138.744 44.8139 138.814 45.2116 138.953C45.6122 139.089 45.9688 139.284 46.2812 139.537C46.5966 139.787 46.8594 140.086 47.0696 140.436C47.2798 140.782 47.4247 141.167 47.5043 141.591H46.4134ZM49.3654 147.591V138.863H50.4222V146.653H54.479V147.591H49.3654ZM57.0241 147.591H55.9162L59.1207 138.863H60.2116L63.4162 147.591H62.3082L59.7003 140.244H59.6321L57.0241 147.591ZM57.4332 144.181H61.8991V145.119H57.4332V144.181ZM71.696 138.863V147.591H70.6733L65.9176 140.738H65.8324V147.591H64.7756V138.863H65.7983L70.571 145.733H70.6562V138.863H71.696ZM76.5039 147.591H73.8107V138.863H76.6232C77.4698 138.863 78.1942 139.038 78.7965 139.387C79.3988 139.734 79.8604 140.233 80.1815 140.883C80.5025 141.531 80.663 142.306 80.663 143.21C80.663 144.119 80.5011 144.902 80.1772 145.558C79.8533 146.211 79.3817 146.714 78.7624 147.066C78.1431 147.416 77.3903 147.591 76.5039 147.591ZM74.8675 146.653H76.4357C77.1573 146.653 77.7553 146.514 78.2298 146.235C78.7042 145.957 79.0579 145.561 79.2908 145.047C79.5238 144.532 79.6403 143.92 79.6403 143.21C79.6403 142.505 79.5252 141.899 79.2951 141.39C79.065 140.879 78.7212 140.487 78.2638 140.214C77.8065 139.939 77.2369 139.801 76.555 139.801H74.8675V146.653Z" fill="#603E41"/>
<path d="M79.7479 147.709C79.2479 147.709 78.7976 147.61 78.397 147.411C77.9964 147.212 77.6754 146.939 77.4339 146.593C77.1925 146.246 77.0604 145.851 77.0376 145.408H78.0604C78.1001 145.803 78.2791 146.13 78.5973 146.388C78.9183 146.644 79.3018 146.772 79.7479 146.772C80.1058 146.772 80.424 146.688 80.7024 146.52C80.9837 146.353 81.2038 146.123 81.3629 145.83C81.5249 145.534 81.6058 145.201 81.6058 144.828C81.6058 144.448 81.522 144.108 81.3544 143.81C81.1896 143.509 80.9624 143.272 80.6726 143.098C80.3828 142.925 80.0518 142.837 79.6797 142.834C79.4126 142.831 79.1385 142.873 78.8572 142.958C78.576 143.04 78.3445 143.147 78.1626 143.277L77.174 143.158L77.7024 138.863H82.2365V139.8H78.5888L78.282 142.374H78.3331C78.5121 142.232 78.7365 142.114 79.0064 142.02C79.2763 141.926 79.5575 141.88 79.8501 141.88C80.3842 141.88 80.8601 142.007 81.2777 142.263C81.6982 142.516 82.0277 142.863 82.2663 143.303C82.5078 143.743 82.6286 144.246 82.6286 144.811C82.6286 145.368 82.5036 145.865 82.2536 146.303C82.0064 146.738 81.6655 147.081 81.2308 147.334C80.7962 147.584 80.3018 147.709 79.7479 147.709ZM87.168 147.709C86.5259 147.709 85.979 147.534 85.5273 147.185C85.0756 146.833 84.7305 146.323 84.4918 145.655C84.2532 144.985 84.1339 144.175 84.1339 143.226C84.1339 142.283 84.2532 141.478 84.4918 140.81C84.7333 140.14 85.0799 139.628 85.5316 139.276C85.9862 138.921 86.5316 138.743 87.168 138.743C87.8043 138.743 88.3484 138.921 88.8001 139.276C89.2546 139.628 89.6012 140.14 89.8398 140.81C90.0813 141.478 90.2021 142.283 90.2021 143.226C90.2021 144.175 90.0827 144.985 89.8441 145.655C89.6055 146.323 89.2603 146.833 88.8086 147.185C88.3569 147.534 87.81 147.709 87.168 147.709ZM87.168 146.772C87.8043 146.772 88.2987 146.465 88.6509 145.851C89.0032 145.238 89.1793 144.363 89.1793 143.226C89.1793 142.471 89.0984 141.827 88.9364 141.296C88.7773 140.765 88.5472 140.36 88.2461 140.081C87.9478 139.803 87.5884 139.664 87.168 139.664C86.5373 139.664 86.0444 139.975 85.6893 140.597C85.3342 141.216 85.1566 142.093 85.1566 143.226C85.1566 143.982 85.2362 144.624 85.3952 145.152C85.5543 145.681 85.783 146.083 86.0813 146.358C86.3825 146.634 86.7447 146.772 87.168 146.772Z" fill="#603E41"/>
<path d="M87.8446 143.598V138.51H89.5638C89.963 138.51 90.2893 138.582 90.5427 138.726C90.7977 138.868 90.9865 139.061 91.1091 139.305C91.2317 139.548 91.293 139.82 91.293 140.12C91.293 140.419 91.2317 140.692 91.1091 140.937C90.9882 141.182 90.801 141.378 90.5476 141.523C90.2942 141.667 89.9696 141.739 89.5738 141.739H88.3415V141.193H89.5539C89.8272 141.193 90.0466 141.146 90.2123 141.051C90.3779 140.957 90.498 140.829 90.5725 140.669C90.6487 140.506 90.6868 140.323 90.6868 140.12C90.6868 139.916 90.6487 139.734 90.5725 139.573C90.498 139.412 90.377 139.287 90.2098 139.195C90.0425 139.103 89.8205 139.056 89.544 139.056H88.4608V143.598H87.8446Z" fill="#603E41"/>
<path d="M29.6387 125.656H25.067V125.102H29.1476V122.977H29.6387V125.656ZM27.3528 118.441C27.835 118.441 28.2517 118.528 28.6029 118.702C28.9541 118.876 29.225 119.115 29.4154 119.418C29.6059 119.722 29.7012 120.069 29.7012 120.459C29.7012 120.849 29.6059 121.195 29.4154 121.499C29.225 121.803 28.9541 122.041 28.6029 122.215C28.2517 122.39 27.835 122.477 27.3528 122.477C26.8706 122.477 26.454 122.39 26.1027 122.215C25.7515 122.041 25.4807 121.803 25.2902 121.499C25.0997 121.195 25.0045 120.849 25.0045 120.459C25.0045 120.069 25.0997 119.722 25.2902 119.418C25.4807 119.115 25.7515 118.876 26.1027 118.702C26.454 118.528 26.8706 118.441 27.3528 118.441ZM27.3528 118.976C26.957 118.976 26.6229 119.043 26.3505 119.175C26.0782 119.306 25.8721 119.484 25.7322 119.709C25.5923 119.932 25.5223 120.182 25.5223 120.459C25.5223 120.735 25.5923 120.986 25.7322 121.211C25.8721 121.434 26.0782 121.612 26.3505 121.744C26.6229 121.875 26.957 121.941 27.3528 121.941C27.7487 121.941 28.0828 121.875 28.3551 121.744C28.6274 121.612 28.8336 121.434 28.9735 121.211C29.1133 120.986 29.1833 120.735 29.1833 120.459C29.1833 120.182 29.1133 119.932 28.9735 119.709C28.8336 119.484 28.6274 119.306 28.3551 119.175C28.0828 119.043 27.7487 118.976 27.3528 118.976ZM25.067 113.885H29.6387V114.42L26.0492 116.912V116.956H29.6387V117.51H25.067V116.974L28.6654 114.474V114.429H25.067V113.885ZM29.6387 111.366V112.777H25.067V111.304C25.067 110.86 25.1585 110.481 25.3415 110.165C25.5231 109.85 25.7843 109.608 26.1251 109.44C26.4644 109.271 26.8706 109.187 27.3439 109.187C27.8201 109.187 28.2301 109.272 28.5739 109.442C28.9162 109.611 29.1796 109.859 29.3641 110.183C29.5471 110.507 29.6387 110.902 29.6387 111.366ZM29.1476 112.223V111.402C29.1476 111.024 29.0746 110.711 28.9288 110.462C28.783 110.213 28.5754 110.028 28.306 109.906C28.0366 109.784 27.7159 109.723 27.3439 109.723C26.9748 109.723 26.6571 109.783 26.3907 109.904C26.1228 110.024 25.9175 110.205 25.7746 110.444C25.6302 110.684 25.5581 110.982 25.5581 111.339V112.223H29.1476ZM27.3528 104.401C27.835 104.401 28.2517 104.488 28.6029 104.663C28.9541 104.837 29.225 105.075 29.4154 105.379C29.6059 105.683 29.7012 106.029 29.7012 106.419C29.7012 106.809 29.6059 107.156 29.4154 107.46C29.225 107.763 28.9541 108.002 28.6029 108.176C28.2517 108.35 27.835 108.437 27.3528 108.437C26.8706 108.437 26.454 108.35 26.1027 108.176C25.7515 108.002 25.4807 107.763 25.2902 107.46C25.0997 107.156 25.0045 106.809 25.0045 106.419C25.0045 106.029 25.0997 105.683 25.2902 105.379C25.4807 105.075 25.7515 104.837 26.1027 104.663C26.454 104.488 26.8706 104.401 27.3528 104.401ZM27.3528 104.937C26.957 104.937 26.6229 105.003 26.3505 105.136C26.0782 105.267 25.8721 105.445 25.7322 105.669C25.5923 105.893 25.5223 106.143 25.5223 106.419C25.5223 106.696 25.5923 106.947 25.7322 107.172C25.8721 107.395 26.0782 107.573 26.3505 107.705C26.6229 107.836 26.957 107.902 27.3528 107.902C27.7487 107.902 28.0828 107.836 28.3551 107.705C28.6274 107.573 28.8336 107.395 28.9735 107.172C29.1133 106.947 29.1833 106.696 29.1833 106.419C29.1833 106.143 29.1133 105.893 28.9735 105.669C28.8336 105.445 28.6274 105.267 28.3551 105.136C28.0828 105.003 27.7487 104.937 27.3528 104.937ZM25.067 99.8453H29.6387V100.381L26.0492 102.872V102.917H29.6387V103.47H25.067V102.935L28.6654 100.435V100.39H25.067V99.8453ZM27.1073 95.0765H27.5984V97.0767H27.1073V95.0765ZM29.6387 92.3102H25.067V90.7655C25.067 90.4068 25.1317 90.1136 25.2612 89.8859C25.3892 89.6568 25.5625 89.4871 25.7813 89.377C26.0001 89.2669 26.2441 89.2118 26.5135 89.2118C26.7828 89.2118 27.0276 89.2669 27.2479 89.377C27.4682 89.4856 27.6438 89.6538 27.7747 89.8815C27.9042 90.1092 27.9689 90.4009 27.9689 90.7565V91.8637H27.4778V90.7744C27.4778 90.5288 27.4354 90.3317 27.3506 90.1828C27.2658 90.034 27.1512 89.9261 27.0068 89.8592C26.861 89.7907 26.6965 89.7565 26.5135 89.7565C26.3304 89.7565 26.1667 89.7907 26.0224 89.8592C25.878 89.9261 25.7649 90.0348 25.6831 90.1851C25.5997 90.3354 25.5581 90.5348 25.5581 90.7833V91.7566H29.6387V92.3102ZM27.3528 84.4626C27.835 84.4626 28.2517 84.5497 28.6029 84.7238C28.9541 84.8979 29.225 85.1368 29.4154 85.4404C29.6059 85.7439 29.7012 86.0907 29.7012 86.4806C29.7012 86.8705 29.6059 87.2172 29.4154 87.5208C29.225 87.8244 28.9541 88.0633 28.6029 88.2374C28.2517 88.4115 27.835 88.4986 27.3528 88.4986C26.8706 88.4986 26.454 88.4115 26.1027 88.2374C25.7515 88.0633 25.4807 87.8244 25.2902 87.5208C25.0997 87.2172 25.0045 86.8705 25.0045 86.4806C25.0045 86.0907 25.0997 85.7439 25.2902 85.4404C25.4807 85.1368 25.7515 84.8979 26.1027 84.7238C26.454 84.5497 26.8706 84.4626 27.3528 84.4626ZM27.3528 84.9984C26.957 84.9984 26.6229 85.0646 26.3505 85.197C26.0782 85.328 25.8721 85.5058 25.7322 85.7306C25.5923 85.9538 25.5223 86.2038 25.5223 86.4806C25.5223 86.7574 25.5923 87.0082 25.7322 87.2329C25.8721 87.4561 26.0782 87.6339 26.3505 87.7664C26.6229 87.8973 26.957 87.9628 27.3528 87.9628C27.7487 87.9628 28.0828 87.8973 28.3551 87.7664C28.6274 87.6339 28.8336 87.4561 28.9735 87.2329C29.1133 87.0082 29.1833 86.7574 29.1833 86.4806C29.1833 86.2038 29.1133 85.9538 28.9735 85.7306C28.8336 85.5058 28.6274 85.328 28.3551 85.197C28.0828 85.0646 27.7487 84.9984 27.3528 84.9984ZM26.2099 81.0316C25.9837 81.0584 25.8081 81.167 25.6831 81.3575C25.5581 81.548 25.4956 81.7816 25.4956 82.0585C25.4956 82.2608 25.5283 82.4379 25.5938 82.5897C25.6593 82.74 25.7493 82.8576 25.8639 82.9424C25.9785 83.0258 26.1087 83.0674 26.2545 83.0674C26.3766 83.0674 26.4815 83.0384 26.5693 82.9804C26.6556 82.9209 26.7278 82.845 26.7858 82.7527C26.8424 82.6604 26.8892 82.5637 26.9265 82.4625C26.9622 82.3613 26.9912 82.2683 27.0135 82.1835L27.1385 81.7191C27.1698 81.6001 27.2129 81.4676 27.268 81.3218C27.3231 81.1745 27.3982 81.0338 27.4935 80.8999C27.5872 80.7645 27.7077 80.6529 27.8551 80.5651C28.0024 80.4773 28.1832 80.4334 28.3975 80.4334C28.6446 80.4334 28.8678 80.4981 29.0672 80.6276C29.2666 80.7555 29.4251 80.9431 29.5427 81.1901C29.6603 81.4356 29.719 81.734 29.719 82.0852C29.719 82.4126 29.6662 82.6961 29.5605 82.9357C29.4549 83.1738 29.3076 83.3614 29.1186 83.4983C28.9296 83.6337 28.71 83.7103 28.46 83.7282V83.1567C28.6327 83.1419 28.7755 83.0838 28.8886 82.9826C29.0002 82.8799 29.0836 82.7505 29.1386 82.5942C29.1922 82.4365 29.219 82.2668 29.219 82.0852C29.219 81.8739 29.1848 81.6842 29.1163 81.516C29.0464 81.3478 28.9496 81.2146 28.8261 81.1164C28.7011 81.0182 28.5553 80.9691 28.3886 80.9691C28.2368 80.9691 28.1133 81.0115 28.018 81.0963C27.9228 81.1812 27.8454 81.2928 27.7859 81.4312C27.7264 81.5696 27.6743 81.7191 27.6296 81.8799L27.4689 82.4424C27.3662 82.7996 27.2196 83.0823 27.0291 83.2907C26.8386 83.499 26.5894 83.6032 26.2813 83.6032C26.0254 83.6032 25.8021 83.534 25.6116 83.3956C25.4197 83.2557 25.2708 83.0682 25.1652 82.8331C25.058 82.5964 25.0045 82.3323 25.0045 82.0406C25.0045 81.7459 25.0573 81.484 25.163 81.2548C25.2671 81.0256 25.41 80.8441 25.5915 80.7102C25.7731 80.5747 25.9792 80.5033 26.2099 80.4959V81.0316ZM25.5581 79.7732H25.067V76.3444H25.5581V77.782H29.6387V78.3356H25.5581V79.7732ZM29.6387 75.8365V76.4169L25.067 74.7382V74.1668L29.6387 72.4881V73.0685L25.7902 74.4347V74.4704L29.6387 75.8365ZM27.8528 75.6222V73.2828H28.3439V75.6222H27.8528ZM26.4956 68.8657C26.3453 68.9148 26.2106 68.9795 26.0916 69.0599C25.971 69.1388 25.8684 69.2333 25.7835 69.3434C25.6987 69.452 25.634 69.5755 25.5893 69.7139C25.5447 69.8523 25.5223 70.0041 25.5223 70.1693C25.5223 70.4402 25.5923 70.6865 25.7322 70.9082C25.8721 71.13 26.0782 71.3063 26.3505 71.4373C26.6229 71.5682 26.957 71.6337 27.3528 71.6337C27.7487 71.6337 28.0828 71.5675 28.3551 71.435C28.6274 71.3026 28.8336 71.1233 28.9735 70.897C29.1133 70.6708 29.1833 70.4164 29.1833 70.1336C29.1833 69.8717 29.1275 69.641 29.0159 69.4416C28.9028 69.2407 28.7435 69.0844 28.5382 68.9728C28.3313 68.8597 28.088 68.8032 27.8082 68.8032L27.8439 68.6335V70.0086H27.3528V68.2674H27.8439C28.2204 68.2674 28.5478 68.3478 28.8261 68.5085C29.1044 68.6677 29.3202 68.888 29.4735 69.1693C29.6253 69.449 29.7012 69.7705 29.7012 70.1336C29.7012 70.5384 29.6059 70.8941 29.4154 71.2006C29.225 71.5057 28.9541 71.7438 28.6029 71.915C28.2517 72.0846 27.835 72.1694 27.3528 72.1694C26.9912 72.1694 26.666 72.1211 26.3773 72.0244C26.0871 71.9261 25.8401 71.7877 25.6362 71.6091C25.4323 71.4306 25.2761 71.2192 25.1674 70.9752C25.0588 70.7311 25.0045 70.4625 25.0045 70.1693C25.0045 69.9282 25.0409 69.7035 25.1138 69.4952C25.1853 69.2853 25.2872 69.0986 25.4197 68.9349C25.5506 68.7697 25.7076 68.632 25.8907 68.5219C26.0722 68.4118 26.2739 68.3359 26.4956 68.2942V68.8657ZM29.6387 67.3193H25.067V64.5602H25.5581V66.7657H27.1028V64.703H27.5939V66.7657H29.1476V64.5245H29.6387V67.3193ZM29.6387 61.7944H25.067V60.2496C25.067 59.8925 25.128 59.5993 25.25 59.3701C25.3706 59.1409 25.5365 58.9713 25.7478 58.8612C25.9591 58.751 26.1995 58.696 26.4688 58.696C26.7382 58.696 26.9771 58.751 27.1854 58.8612C27.3937 58.9713 27.5574 59.1402 27.6765 59.3679C27.7941 59.5956 27.8528 59.8865 27.8528 60.2407V61.4908H27.3528V60.2586C27.3528 60.0145 27.3171 59.8181 27.2457 59.6692C27.1742 59.5189 27.073 59.4103 26.9421 59.3433C26.8096 59.2749 26.6519 59.2406 26.4688 59.2406C26.2858 59.2406 26.1258 59.2749 25.9889 59.3433C25.852 59.4118 25.7463 59.5212 25.6719 59.6715C25.596 59.8218 25.5581 60.0205 25.5581 60.2675V61.2408H29.6387V61.7944ZM27.585 59.6425L29.6387 58.5174V59.1603L27.585 60.2675V59.6425ZM29.6387 57.7735H25.067V55.0144H25.5581V57.2199H27.1028V55.1572H27.5939V57.2199H29.1476V54.9787H29.6387V57.7735ZM25.067 53.829L28.9154 52.4718V52.4182L25.067 51.061V50.4806L29.6387 52.1593V52.7308L25.067 54.4094V53.829ZM29.6387 49.7685H25.067V47.0094H25.5581V49.2149H27.1028V47.1523H27.5939V49.2149H29.1476V46.9737H29.6387V49.7685ZM25.067 42.3864H29.6387V42.9221L26.0492 45.4133V45.458H29.6387V46.0116H25.067V45.4758L28.6654 42.9757V42.931H25.067V42.3864ZM25.067 38.2784V37.7248H28.0939C28.4065 37.7248 28.6855 37.7985 28.931 37.9458C29.1751 38.0916 29.3678 38.2978 29.5092 38.5641C29.6491 38.8305 29.719 39.1431 29.719 39.5017C29.719 39.8604 29.6491 40.1729 29.5092 40.4393C29.3678 40.7056 29.1751 40.9125 28.931 41.0598C28.6855 41.2057 28.4065 41.2786 28.0939 41.2786H25.067V40.725H28.0493C28.2725 40.725 28.4712 40.6759 28.6453 40.5777C28.8179 40.4794 28.9541 40.3396 29.0538 40.158C29.152 39.9749 29.2011 39.7562 29.2011 39.5017C29.2011 39.2472 29.152 39.0285 29.0538 38.8454C28.9541 38.6624 28.8179 38.5225 28.6453 38.4257C28.4712 38.3275 28.2725 38.2784 28.0493 38.2784H25.067ZM29.6387 36.6193H25.067V33.8602H25.5581V36.0657H27.1028V34.003H27.5939V36.0657H29.1476V33.8245H29.6387V36.6193Z" fill="#603E41"/>
<path d="M27.7882 14.8904V22.1631H26.9075V15.8137H26.8649L25.0893 16.9926V16.0977L26.9075 14.8904H27.7882ZM32.1951 14.7909C32.4934 14.7933 32.7917 14.8501 33.09 14.9614C33.3883 15.0727 33.6606 15.2573 33.9068 15.5154C34.153 15.771 34.3507 16.1202 34.4998 16.5629C34.649 17.0057 34.7235 17.5608 34.7235 18.2284C34.7235 18.8747 34.662 19.4488 34.5389 19.9507C34.4181 20.4503 34.243 20.8717 34.0133 21.2149C33.786 21.5582 33.5091 21.8186 33.1824 21.9962C32.858 22.1737 32.4911 22.2625 32.0815 22.2625C31.6743 22.2625 31.3109 22.182 30.9913 22.021C30.6741 21.8577 30.4136 21.6316 30.21 21.3428C30.0088 21.0516 29.8798 20.7142 29.823 20.3307H30.6895C30.7676 20.6645 30.9226 20.9403 31.1547 21.1581C31.389 21.3735 31.698 21.4813 32.0815 21.4813C32.6426 21.4813 33.0853 21.2362 33.4096 20.7462C33.7363 20.2561 33.8997 19.5637 33.8997 18.6688H33.8429C33.7103 18.8676 33.5529 19.0393 33.3706 19.1837C33.1883 19.3281 32.9859 19.4394 32.7633 19.5175C32.5408 19.5956 32.304 19.6347 32.0531 19.6347C31.6364 19.6347 31.2541 19.5317 30.9061 19.3257C30.5604 19.1174 30.2834 18.8321 30.0751 18.4699C29.8691 18.1053 29.7662 17.6887 29.7662 17.2199C29.7662 16.7748 29.8656 16.3676 30.0645 15.9983C30.2657 15.6266 30.5474 15.3307 30.9096 15.1105C31.2742 14.8904 31.7027 14.7838 32.1951 14.7909ZM32.1951 15.5722C31.8968 15.5722 31.6281 15.6468 31.389 15.7959C31.1523 15.9427 30.9641 16.1415 30.8244 16.3925C30.6871 16.6411 30.6184 16.9169 30.6184 17.2199C30.6184 17.5229 30.6847 17.7987 30.8173 18.0473C30.9522 18.2935 31.1357 18.49 31.3677 18.6368C31.6021 18.7812 31.8684 18.8534 32.1667 18.8534C32.3916 18.8534 32.6011 18.8096 32.7953 18.722C32.9894 18.6321 33.1587 18.5102 33.3031 18.3563C33.4499 18.2 33.5647 18.0236 33.6475 17.8271C33.7304 17.6283 33.7718 17.4211 33.7718 17.2057C33.7718 16.9216 33.7032 16.6553 33.5659 16.4067C33.4309 16.1581 33.2439 15.9569 33.0048 15.803C32.7681 15.6491 32.4982 15.5722 32.1951 15.5722ZM36.152 22.1631L39.4048 15.7284V15.6716H35.6548V14.8904H40.3139V15.7142L37.0753 22.1631H36.152ZM43.8207 22.2625C43.333 22.2625 42.9021 22.1761 42.5281 22.0033C42.1564 21.8281 41.8664 21.5878 41.658 21.2824C41.4497 20.9746 41.3467 20.6243 41.3491 20.2313C41.3467 19.9235 41.4071 19.6394 41.5302 19.379C41.6533 19.1162 41.8214 18.8972 42.0344 18.722C42.2499 18.5445 42.4902 18.432 42.7553 18.3847V18.3421C42.4073 18.2521 42.1303 18.0568 41.9244 17.7561C41.7184 17.4531 41.6166 17.1086 41.619 16.7227C41.6166 16.3534 41.7101 16.0232 41.8995 15.732C42.0889 15.4408 42.3493 15.2111 42.6808 15.0431C43.0146 14.875 43.3945 14.7909 43.8207 14.7909C44.2421 14.7909 44.6185 14.875 44.9499 15.0431C45.2814 15.2111 45.5418 15.4408 45.7312 15.732C45.9229 16.0232 46.02 16.3534 46.0224 16.7227C46.02 17.1086 45.9147 17.4531 45.7063 17.7561C45.5004 18.0568 45.2269 18.2521 44.886 18.3421V18.3847C45.1488 18.432 45.3855 18.5445 45.5962 18.722C45.8069 18.8972 45.975 19.1162 46.1005 19.379C46.226 19.6394 46.2899 19.9235 46.2923 20.2313C46.2899 20.6243 46.1834 20.9746 45.9727 21.2824C45.7643 21.5878 45.4743 21.8281 45.1026 22.0033C44.7333 22.1761 44.306 22.2625 43.8207 22.2625ZM43.8207 21.4813C44.1497 21.4813 44.4338 21.428 44.6729 21.3215C44.9121 21.2149 45.0967 21.0646 45.2269 20.8705C45.3571 20.6763 45.4234 20.4491 45.4258 20.1887C45.4234 19.914 45.3524 19.6714 45.2127 19.4607C45.073 19.25 44.8825 19.0843 44.641 18.9635C44.4019 18.8428 44.1284 18.7824 43.8207 18.7824C43.5105 18.7824 43.2335 18.8428 42.9897 18.9635C42.7482 19.0843 42.5576 19.25 42.418 19.4607C42.2807 19.6714 42.2132 19.914 42.2156 20.1887C42.2132 20.4491 42.2759 20.6763 42.4038 20.8705C42.534 21.0646 42.7198 21.2149 42.9613 21.3215C43.2028 21.428 43.4892 21.4813 43.8207 21.4813ZM43.8207 18.0296C44.0811 18.0296 44.3119 17.9775 44.5131 17.8733C44.7167 17.7691 44.8765 17.6235 44.9925 17.4365C45.1085 17.2495 45.1677 17.0305 45.1701 16.7796C45.1677 16.5334 45.1097 16.3191 44.9961 16.1368C44.8825 15.9521 44.725 15.8101 44.5238 15.7107C44.3226 15.6089 44.0882 15.558 43.8207 15.558C43.5484 15.558 43.3105 15.6089 43.1069 15.7107C42.9033 15.8101 42.7459 15.9521 42.6346 16.1368C42.5233 16.3191 42.4689 16.5334 42.4712 16.7796C42.4689 17.0305 42.5245 17.2495 42.6381 17.4365C42.7541 17.6235 42.9139 17.7691 43.1175 17.8733C43.3211 17.9775 43.5555 18.0296 43.8207 18.0296Z" fill="#603E41"/>
<path d="M0 87.375C12.895 87.375 12.895 92.385 25.791 92.385C38.687 92.385 38.687 87.375 51.583 87.375C64.479 87.375 64.479 92.385 77.374 92.385C90.271 92.385 90.271 87.375 103.169 87.375C116.066 87.375 116.066 92.385 128.964 92.385" stroke="#333333" stroke-miterlimit="10"/>
<path d="M0 95.056C12.895 95.056 12.895 100.066 25.791 100.066C38.687 100.066 38.687 95.056 51.583 95.056C64.479 95.056 64.479 100.066 77.374 100.066C90.271 100.066 90.271 95.056 103.169 95.056C116.066 95.056 116.066 100.066 128.964 100.066" stroke="#333333" stroke-miterlimit="10"/>
<path d="M0 102.736C12.895 102.736 12.895 107.746 25.791 107.746C38.687 107.746 38.687 102.736 51.583 102.736C64.479 102.736 64.479 107.746 77.374 107.746C90.271 107.746 90.271 102.736 103.169 102.736C116.066 102.736 116.066 107.746 128.964 107.746" stroke="#333333" stroke-miterlimit="10"/>
<path d="M0 110.417C12.895 110.417 12.895 115.427 25.791 115.427C38.687 115.427 38.687 110.417 51.583 110.417C64.479 110.417 64.479 115.427 77.374 115.427C90.271 115.427 90.271 110.417 103.169 110.417C116.066 110.417 116.066 115.427 128.964 115.427" stroke="#333333" stroke-miterlimit="10"/>
<path d="M0 118.097C12.895 118.097 12.895 123.107 25.791 123.107C38.687 123.107 38.687 118.097 51.583 118.097C64.479 118.097 64.479 123.107 77.374 123.107C90.271 123.107 90.271 118.097 103.169 118.097C116.066 118.097 116.066 123.107 128.964 123.107" stroke="#333333" stroke-miterlimit="10"/>
</svg>
