<svg width="100%" height="100%" viewBox="0 0 165 120" preserveAspectRatio="xMidYMid meet" fill="none" xmlns="http://www.w3.org/2000/svg">
<path d="M164.483 5.5V0H160.845C160.875 0.141 160.892 0.286996 160.892 0.436996C160.892 1.594 159.954 2.532 158.797 2.532C157.64 2.532 156.702 1.594 156.702 0.436996C156.702 0.286996 156.719 0.141 156.749 0H153.554C153.584 0.141 153.601 0.286996 153.601 0.436996C153.601 1.594 152.663 2.532 151.506 2.532C150.349 2.532 149.411 1.594 149.411 0.436996C149.411 0.286996 149.428 0.141 149.458 0H146.263C146.293 0.141 146.31 0.286996 146.31 0.436996C146.31 1.594 145.372 2.532 144.215 2.532C143.058 2.532 142.12 1.594 142.12 0.436996C142.12 0.286996 142.137 0.141 142.167 0H138.972C139.002 0.141 139.019 0.286996 139.019 0.436996C139.019 1.594 138.081 2.532 136.924 2.532C135.767 2.532 134.829 1.594 134.829 0.436996C134.829 0.286996 134.846 0.141 134.876 0H131.681C131.711 0.141 131.728 0.286996 131.728 0.436996C131.728 1.594 130.79 2.532 129.633 2.532C128.476 2.532 127.538 1.594 127.538 0.436996C127.538 0.286996 127.555 0.141 127.585 0H124.39C124.42 0.141 124.437 0.286996 124.437 0.436996C124.437 1.594 123.499 2.532 122.342 2.532C121.185 2.532 120.247 1.594 120.247 0.436996C120.247 0.286996 120.264 0.141 120.294 0H117.099C117.129 0.141 117.146 0.286996 117.146 0.436996C117.146 1.594 116.208 2.532 115.051 2.532C113.894 2.532 112.956 1.594 112.956 0.436996C112.956 0.286996 112.973 0.141 113.003 0H109.808C109.838 0.141 109.855 0.286996 109.855 0.436996C109.855 1.594 108.917 2.532 107.76 2.532C106.603 2.532 105.665 1.594 105.665 0.436996C105.665 0.286996 105.682 0.141 105.712 0H102.517C102.547 0.141 102.564 0.286996 102.564 0.436996C102.564 1.594 101.626 2.532 100.469 2.532C99.312 2.532 98.374 1.594 98.374 0.436996C98.374 0.286996 98.391 0.141 98.421 0H95.226C95.256 0.141 95.273 0.286996 95.273 0.436996C95.273 1.594 94.335 2.532 93.178 2.532C92.021 2.532 91.083 1.594 91.083 0.436996C91.083 0.286996 91.1 0.141 91.13 0H87.935C87.965 0.141 87.982 0.286996 87.982 0.436996C87.982 1.594 87.044 2.532 85.887 2.532C84.73 2.532 83.792 1.594 83.792 0.436996C83.792 0.286996 83.809 0.141 83.839 0H80.644C80.674 0.141 80.691 0.286996 80.691 0.436996C80.691 1.594 79.753 2.532 78.596 2.532C77.439 2.532 76.501 1.594 76.501 0.436996C76.501 0.286996 76.518 0.141 76.548 0H73.353C73.383 0.141 73.4 0.286996 73.4 0.436996C73.4 1.594 72.462 2.532 71.305 2.532C70.148 2.532 69.21 1.594 69.21 0.436996C69.21 0.286996 69.227 0.141 69.257 0H66.062C66.092 0.141 66.109 0.286996 66.109 0.436996C66.109 1.594 65.171 2.532 64.014 2.532C62.857 2.532 61.919 1.594 61.919 0.436996C61.919 0.286996 61.936 0.141 61.966 0H58.771C58.801 0.141 58.818 0.286996 58.818 0.436996C58.818 1.594 57.88 2.532 56.723 2.532C55.566 2.532 54.628 1.594 54.628 0.436996C54.628 0.286996 54.645 0.141 54.675 0H51.48C51.51 0.141 51.527 0.286996 51.527 0.436996C51.527 1.594 50.589 2.532 49.432 2.532C48.275 2.532 47.337 1.594 47.337 0.436996C47.337 0.286996 47.354 0.141 47.384 0H44.189C44.219 0.141 44.236 0.286996 44.236 0.436996C44.236 1.594 43.298 2.532 42.141 2.532C40.984 2.532 40.046 1.594 40.046 0.436996C40.046 0.286996 40.063 0.141 40.093 0H36.898C36.928 0.141 36.945 0.286996 36.945 0.436996C36.945 1.594 36.007 2.532 34.85 2.532C33.693 2.532 32.755 1.594 32.755 0.436996C32.755 0.286996 32.772 0.141 32.802 0H29.607C29.637 0.141 29.654 0.286996 29.654 0.436996C29.654 1.594 28.716 2.532 27.559 2.532C26.402 2.532 25.464 1.594 25.464 0.436996C25.464 0.286996 25.481 0.141 25.511 0H22.316C22.346 0.141 22.363 0.286996 22.363 0.436996C22.363 1.594 21.425 2.532 20.268 2.532C19.111 2.532 18.173 1.594 18.173 0.436996C18.173 0.286996 18.19 0.141 18.22 0H15.025C15.055 0.141 15.072 0.286996 15.072 0.436996C15.072 1.594 14.134 2.532 12.977 2.532C11.82 2.532 10.882 1.594 10.882 0.436996C10.882 0.286996 10.899 0.141 10.929 0H7.73401C7.76401 0.141 7.78101 0.286996 7.78101 0.436996C7.78101 1.594 6.843 2.532 5.686 2.532C4.529 2.532 3.591 1.594 3.591 0.436996C3.591 0.286996 3.608 0.141 3.638 0H0V5.615C0.207 5.546 0.424999 5.5 0.654999 5.5C1.812 5.5 2.75 6.43799 2.75 7.59499C2.75 8.75199 1.812 9.68999 0.654999 9.68999C0.424999 9.68999 0.207 9.644 0 9.575V13.141C0.207 13.073 0.424999 13.026 0.654999 13.026C1.812 13.026 2.75 13.964 2.75 15.121C2.75 16.278 1.812 17.216 0.654999 17.216C0.424999 17.216 0.207 17.17 0 17.101V20.667C0.207 20.599 0.424999 20.552 0.654999 20.552C1.812 20.552 2.75 21.49 2.75 22.647C2.75 23.804 1.812 24.742 0.654999 24.742C0.424999 24.742 0.207 24.696 0 24.627V28.193C0.207 28.125 0.424999 28.078 0.654999 28.078C1.812 28.078 2.75 29.016 2.75 30.173C2.75 31.33 1.812 32.268 0.654999 32.268C0.424999 32.268 0.207 32.222 0 32.153V35.719C0.207 35.65 0.424999 35.604 0.654999 35.604C1.812 35.604 2.75 36.542 2.75 37.699C2.75 38.856 1.812 39.794 0.654999 39.794C0.424999 39.794 0.207 39.748 0 39.679V43.245C0.207 43.177 0.424999 43.13 0.654999 43.13C1.812 43.13 2.75 44.068 2.75 45.225C2.75 46.382 1.812 47.32 0.654999 47.32C0.424999 47.32 0.207 47.274 0 47.205V50.771C0.207 50.703 0.424999 50.656 0.654999 50.656C1.812 50.656 2.75 51.594 2.75 52.751C2.75 53.908 1.812 54.846 0.654999 54.846C0.424999 54.846 0.207 54.8 0 54.731V58.297C0.207 58.228 0.424999 58.182 0.654999 58.182C1.812 58.182 2.75 59.12 2.75 60.277C2.75 61.434 1.812 62.372 0.654999 62.372C0.424999 62.372 0.207 62.326 0 62.257V65.823C0.207 65.755 0.424999 65.708 0.654999 65.708C1.812 65.708 2.75 66.646 2.75 67.803C2.75 68.96 1.812 69.898 0.654999 69.898C0.424999 69.898 0.207 69.852 0 69.783V73.349C0.207 73.281 0.424999 73.234 0.654999 73.234C1.812 73.234 2.75 74.172 2.75 75.329C2.75 76.486 1.812 77.424 0.654999 77.424C0.424999 77.424 0.207 77.378 0 77.309V80.875C0.207 80.806 0.424999 80.76 0.654999 80.76C1.812 80.76 2.75 81.698 2.75 82.855C2.75 84.012 1.812 84.95 0.654999 84.95C0.424999 84.95 0.207 84.904 0 84.835V88.401C0.207 88.332 0.424999 88.286 0.654999 88.286C1.812 88.286 2.75 89.224 2.75 90.381C2.75 91.538 1.812 92.476 0.654999 92.476C0.424999 92.476 0.207 92.43 0 92.361V95.927C0.207 95.859 0.424999 95.812 0.654999 95.812C1.812 95.812 2.75 96.75 2.75 97.907C2.75 99.064 1.812 100.002 0.654999 100.002C0.424999 100.002 0.207 99.956 0 99.887V103.453C0.207 103.385 0.424999 103.338 0.654999 103.338C1.812 103.338 2.75 104.276 2.75 105.433C2.75 106.59 1.812 107.528 0.654999 107.528C0.424999 107.528 0.207 107.482 0 107.413V110.979C0.207 110.91 0.424999 110.864 0.654999 110.864C1.812 110.864 2.75 111.802 2.75 112.959C2.75 114.116 1.812 115.054 0.654999 115.054C0.424999 115.054 0.207 115.008 0 114.939V119.418H3.591C3.591 118.261 4.529 117.323 5.686 117.323C6.843 117.323 7.78101 118.261 7.78101 119.418H10.881C10.881 118.261 11.819 117.323 12.976 117.323C14.133 117.323 15.071 118.261 15.071 119.418H18.171C18.171 118.261 19.109 117.323 20.266 117.323C21.423 117.323 22.361 118.261 22.361 119.418H25.462C25.462 118.261 26.4 117.323 27.557 117.323C28.714 117.323 29.652 118.261 29.652 119.418H32.752C32.752 118.261 33.69 117.323 34.847 117.323C36.004 117.323 36.942 118.261 36.942 119.418H40.042C40.042 118.261 40.98 117.323 42.137 117.323C43.294 117.323 44.232 118.261 44.232 119.418H47.332C47.332 118.261 48.27 117.323 49.427 117.323C50.584 117.323 51.522 118.261 51.522 119.418H54.622C54.622 118.261 55.56 117.323 56.717 117.323C57.874 117.323 58.812 118.261 58.812 119.418H61.912C61.912 118.261 62.85 117.323 64.007 117.323C65.164 117.323 66.102 118.261 66.102 119.418H69.203C69.203 118.261 70.141 117.323 71.298 117.323C72.455 117.323 73.393 118.261 73.393 119.418H76.493C76.493 118.261 77.431 117.323 78.588 117.323C79.745 117.323 80.683 118.261 80.683 119.418H83.783C83.783 118.261 84.721 117.323 85.878 117.323C87.035 117.323 87.973 118.261 87.973 119.418H91.074C91.074 118.261 92.012 117.323 93.169 117.323C94.326 117.323 95.264 118.261 95.264 119.418H98.364C98.364 118.261 99.302 117.323 100.459 117.323C101.616 117.323 102.554 118.261 102.554 119.418H105.654C105.654 118.261 106.592 117.323 107.749 117.323C108.906 117.323 109.844 118.261 109.844 119.418H112.944C112.944 118.261 113.882 117.323 115.039 117.323C116.196 117.323 117.134 118.261 117.134 119.418H120.234C120.234 118.261 121.172 117.323 122.329 117.323C123.486 117.323 124.424 118.261 124.424 119.418H127.524C127.524 118.261 128.462 117.323 129.619 117.323C130.776 117.323 131.714 118.261 131.714 119.418H134.814C134.814 118.261 135.752 117.323 136.909 117.323C138.066 117.323 139.004 118.261 139.004 119.418H142.105C142.105 118.261 143.043 117.323 144.2 117.323C145.357 117.323 146.295 118.261 146.295 119.418H149.395C149.395 118.261 150.333 117.323 151.49 117.323C152.647 117.323 153.585 118.261 153.585 119.418H156.685C156.685 118.261 157.623 117.323 158.78 117.323C159.937 117.323 160.875 118.261 160.875 119.418H164.466V115.054C163.309 115.054 162.371 114.116 162.371 112.959C162.371 111.802 163.309 110.864 164.466 110.864V107.527C163.309 107.527 162.371 106.589 162.371 105.432C162.371 104.275 163.309 103.337 164.466 103.337V100.001C163.309 100.001 162.371 99.063 162.371 97.906C162.371 96.749 163.309 95.811 164.466 95.811V92.474C163.309 92.474 162.371 91.536 162.371 90.379C162.371 89.222 163.309 88.284 164.466 88.284V84.947C163.309 84.947 162.371 84.009 162.371 82.852C162.371 81.695 163.309 80.757 164.466 80.757V77.42C163.309 77.42 162.371 76.482 162.371 75.325C162.371 74.168 163.309 73.23 164.466 73.23V69.894C163.309 69.894 162.371 68.956 162.371 67.799C162.371 66.642 163.309 65.704 164.466 65.704V62.367C163.309 62.367 162.371 61.429 162.371 60.272C162.371 59.115 163.309 58.177 164.466 58.177V54.84C163.309 54.84 162.371 53.902 162.371 52.745C162.371 51.588 163.309 50.65 164.466 50.65V47.313C163.309 47.313 162.371 46.375 162.371 45.218C162.371 44.061 163.309 43.123 164.466 43.123V39.786C163.309 39.786 162.371 38.848 162.371 37.691C162.371 36.534 163.309 35.596 164.466 35.596V32.26C163.309 32.26 162.371 31.322 162.371 30.165C162.371 29.008 163.309 28.07 164.466 28.07V24.734C163.309 24.734 162.371 23.796 162.371 22.639C162.371 21.482 163.309 20.544 164.466 20.544V17.208C163.309 17.208 162.371 16.27 162.371 15.113C162.371 13.956 163.309 13.018 164.466 13.018V9.681C163.309 9.681 162.371 8.743 162.371 7.586C162.387 6.439 163.326 5.5 164.483 5.5Z" fill="#F5EDD5"/>
<path d="M12.3435 15.5623V6.41876H15.433C16.1474 6.41876 16.7337 6.5408 17.1921 6.78486C17.6505 7.02595 17.9898 7.35782 18.21 7.78047C18.4303 8.20311 18.5404 8.6838 18.5404 9.22253C18.5404 9.76126 18.4303 10.239 18.21 10.6557C17.9898 11.0724 17.652 11.3998 17.1966 11.6379C16.7412 11.873 16.1593 11.9906 15.4509 11.9906H12.9507V10.9905H15.4152C15.9033 10.9905 16.2962 10.9191 16.5938 10.7762C16.8945 10.6333 17.1117 10.4309 17.2457 10.169C17.3826 9.90413 17.451 9.58863 17.451 9.22253C17.451 8.85643 17.3826 8.53647 17.2457 8.26264C17.1088 7.98881 16.89 7.77749 16.5894 7.62867C16.2888 7.47687 15.8914 7.40098 15.3973 7.40098H13.4508V15.5623H12.3435ZM16.6474 11.4548L18.8976 15.5623H17.6118L15.3973 11.4548H16.6474ZM20.3854 15.5623V6.41876H25.9036V7.40098H21.4926V10.4905H25.6179V11.4727H21.4926V14.58H25.9751V15.5623H20.3854ZM27.8993 15.5623V6.41876H30.9888C31.7061 6.41876 32.2925 6.54824 32.7479 6.80718C33.2062 7.06315 33.5455 7.40991 33.7658 7.84744C33.986 8.28497 34.0962 8.77309 34.0962 9.31182C34.0962 9.85055 33.986 10.3402 33.7658 10.7807C33.5485 11.2212 33.2122 11.5724 32.7568 11.8343C32.3014 12.0933 31.718 12.2227 31.0067 12.2227H28.7922V11.2405H30.971C31.4621 11.2405 31.8564 11.1557 32.1541 10.986C32.4517 10.8164 32.6675 10.5872 32.8014 10.2985C32.9384 10.0068 33.0068 9.67792 33.0068 9.31182C33.0068 8.94573 32.9384 8.61832 32.8014 8.32961C32.6675 8.0409 32.4502 7.81469 32.1496 7.65099C31.849 7.48431 31.4502 7.40098 30.9531 7.40098H29.0065V15.5623H27.8993ZM41.8802 6.41876H42.9874V12.4728C42.9874 13.0978 42.8401 13.6559 42.5454 14.147C42.2537 14.6351 41.8415 15.0206 41.3087 15.3033C40.776 15.5831 40.1509 15.723 39.4336 15.723C38.7163 15.723 38.0912 15.5831 37.5585 15.3033C37.0257 15.0206 36.612 14.6351 36.3173 14.147C36.0256 13.6559 35.8798 13.0978 35.8798 12.4728V6.41876H36.987V12.3835C36.987 12.8299 37.0852 13.2273 37.2817 13.5755C37.4781 13.9208 37.7579 14.1931 38.121 14.3925C38.4871 14.589 38.9246 14.6872 39.4336 14.6872C39.9426 14.6872 40.3801 14.589 40.7462 14.3925C41.1123 14.1931 41.3921 13.9208 41.5855 13.5755C41.782 13.2273 41.8802 12.8299 41.8802 12.3835V6.41876ZM45.1985 15.5623V6.41876H48.3952C49.0321 6.41876 49.5574 6.52889 49.9712 6.74915C50.3849 6.96642 50.6929 7.2596 50.8953 7.62867C51.0977 7.99477 51.1989 8.40104 51.1989 8.8475C51.1989 9.24039 51.129 9.56482 50.9891 9.82079C50.8522 10.0768 50.6706 10.2792 50.4444 10.428C50.2212 10.5768 49.9786 10.6869 49.7167 10.7584V10.8476C49.9965 10.8655 50.2777 10.9637 50.5605 11.1423C50.8432 11.3209 51.0799 11.5769 51.2704 11.9102C51.4608 12.2436 51.5561 12.6513 51.5561 13.1335C51.5561 13.5919 51.4519 14.0041 51.2436 14.3702C51.0352 14.7363 50.7063 15.0265 50.2569 15.2408C49.8075 15.4551 49.2226 15.5623 48.5023 15.5623H45.1985ZM46.3057 14.58H48.5023C49.2256 14.58 49.739 14.4402 50.0426 14.1604C50.3492 13.8776 50.5024 13.5353 50.5024 13.1335C50.5024 12.824 50.4236 12.5382 50.2658 12.2763C50.1081 12.0114 49.8834 11.8001 49.5917 11.6423C49.3 11.4816 48.9547 11.4013 48.5559 11.4013H46.3057V14.58ZM46.3057 10.4369H48.3594C48.6928 10.4369 48.9934 10.3714 49.2613 10.2405C49.5321 10.1095 49.7464 9.92496 49.9042 9.68685C50.0649 9.44874 50.1453 9.16896 50.1453 8.8475C50.1453 8.44569 50.0054 8.10489 49.7256 7.82511C49.4458 7.54235 49.0023 7.40098 48.3952 7.40098H46.3057V10.4369ZM53.3754 15.5623V6.41876H54.4826V14.58H58.7329V15.5623H53.3754ZM61.5545 6.41876V15.5623H60.4473V6.41876H61.5545ZM71.1322 9.27611H70.025C69.9595 8.95763 69.8449 8.67785 69.6812 8.43676C69.5205 8.19567 69.3241 7.99328 69.0919 7.82958C68.8627 7.6629 68.6082 7.53789 68.3285 7.45455C68.0487 7.37121 67.757 7.32954 67.4534 7.32954C66.8998 7.32954 66.3983 7.46943 65.9488 7.74921C65.5024 8.029 65.1467 8.44123 64.8818 8.98591C64.6199 9.53059 64.4889 10.1988 64.4889 10.9905C64.4889 11.7822 64.6199 12.4504 64.8818 12.9951C65.1467 13.5398 65.5024 13.952 65.9488 14.2318C66.3983 14.5116 66.8998 14.6515 67.4534 14.6515C67.757 14.6515 68.0487 14.6098 68.3285 14.5265C68.6082 14.4431 68.8627 14.3196 69.0919 14.1559C69.3241 13.9892 69.5205 13.7853 69.6812 13.5443C69.8449 13.3002 69.9595 13.0204 70.025 12.7049H71.1322C71.0489 13.1722 70.8971 13.5904 70.6768 13.9595C70.4566 14.3285 70.1827 14.6425 69.8553 14.9015C69.5279 15.1575 69.1604 15.3524 68.7526 15.4864C68.3478 15.6203 67.9147 15.6873 67.4534 15.6873C66.6736 15.6873 65.9801 15.4968 65.3729 15.1158C64.7657 14.7348 64.288 14.1931 63.9398 13.4907C63.5915 12.7883 63.4174 11.9549 63.4174 10.9905C63.4174 10.0262 63.5915 9.19277 63.9398 8.49034C64.288 7.78791 64.7657 7.2462 65.3729 6.86522C65.9801 6.48425 66.6736 6.29376 67.4534 6.29376C67.9147 6.29376 68.3478 6.36072 68.7526 6.49466C69.1604 6.6286 69.5279 6.82504 69.8553 7.08399C70.1827 7.33996 70.4566 7.65248 70.6768 8.02155C70.8971 8.38765 71.0489 8.80583 71.1322 9.27611ZM84.1722 10.9905C84.1722 11.9549 83.9981 12.7883 83.6498 13.4907C83.3016 14.1931 82.8239 14.7348 82.2167 15.1158C81.6095 15.4968 80.916 15.6873 80.1362 15.6873C79.3564 15.6873 78.6629 15.4968 78.0557 15.1158C77.4485 14.7348 76.9708 14.1931 76.6226 13.4907C76.2743 12.7883 76.1002 11.9549 76.1002 10.9905C76.1002 10.0262 76.2743 9.19277 76.6226 8.49034C76.9708 7.78791 77.4485 7.2462 78.0557 6.86522C78.6629 6.48425 79.3564 6.29376 80.1362 6.29376C80.916 6.29376 81.6095 6.48425 82.2167 6.86522C82.8239 7.2462 83.3016 7.78791 83.6498 8.49034C83.9981 9.19277 84.1722 10.0262 84.1722 10.9905ZM83.1007 10.9905C83.1007 10.1988 82.9682 9.53059 82.7033 8.98591C82.4414 8.44123 82.0857 8.029 81.6363 7.74921C81.1898 7.46943 80.6898 7.32954 80.1362 7.32954C79.5826 7.32954 79.0811 7.46943 78.6316 7.74921C78.1852 8.029 77.8295 8.44123 77.5646 8.98591C77.3027 9.53059 77.1717 10.1988 77.1717 10.9905C77.1717 11.7822 77.3027 12.4504 77.5646 12.9951C77.8295 13.5398 78.1852 13.952 78.6316 14.2318C79.0811 14.5116 79.5826 14.6515 80.1362 14.6515C80.6898 14.6515 81.1898 14.5116 81.6363 14.2318C82.0857 13.952 82.4414 13.5398 82.7033 12.9951C82.9682 12.4504 83.1007 11.7822 83.1007 10.9905ZM86.0339 15.5623V6.41876H91.5164V7.40098H87.1411V10.4905H91.1057V11.4727H87.1411V15.5623H86.0339ZM98.056 6.41876V15.5623H96.9487V6.41876H98.056ZM107.526 6.41876V15.5623H106.455L101.472 8.38319H101.383V15.5623H100.276V6.41876H101.347L106.348 13.6157H106.437V6.41876H107.526ZM112.564 15.5623H109.742V6.41876H112.689C113.576 6.41876 114.335 6.60181 114.966 6.96791C115.597 7.33103 116.08 7.85339 116.417 8.53498C116.753 9.2136 116.921 10.0262 116.921 10.9727C116.921 11.9251 116.751 12.7451 116.412 13.4326C116.073 14.1172 115.579 14.644 114.93 15.0131C114.281 15.3792 113.492 15.5623 112.564 15.5623ZM110.849 14.58H112.492C113.248 14.58 113.875 14.4342 114.372 14.1425C114.869 13.8508 115.239 13.4356 115.484 12.8969C115.728 12.3582 115.85 11.7168 115.85 10.9727C115.85 10.2345 115.729 9.59904 115.488 9.06627C115.247 8.53052 114.887 8.11978 114.408 7.83404C113.928 7.54533 113.332 7.40098 112.617 7.40098H110.849V14.58ZM119.886 6.41876V15.5623H118.778V6.41876H119.886ZM122.481 15.5623H121.32L124.677 6.41876H125.82L129.178 15.5623H128.017L125.284 7.86529H125.213L122.481 15.5623ZM122.909 11.9906H127.588V12.9728H122.909V11.9906Z" fill="#603E41"/>
<path d="M13.5534 105.26V112.117H12.723V105.26H13.5534ZM20.6563 105.26V112.117H19.8527L16.1158 106.733H16.0488V112.117H15.2184V105.26H16.022L19.7723 110.658H19.8393V105.26H20.6563ZM22.5992 112.117H21.7286L24.2466 105.26H25.1038L27.6219 112.117H26.7513L24.702 106.345H24.6485L22.5992 112.117ZM22.9207 109.439H26.4298V110.175H22.9207V109.439ZM33.1903 105.26H34.0207V109.8C34.0207 110.269 33.9102 110.688 33.6892 111.056C33.4705 111.422 33.1613 111.711 32.7617 111.923C32.3621 112.133 31.8934 112.238 31.3554 112.238C30.8174 112.238 30.3486 112.133 29.949 111.923C29.5494 111.711 29.2392 111.422 29.0182 111.056C28.7994 110.688 28.69 110.269 28.69 109.8V105.26H29.5204V109.733C29.5204 110.068 29.5941 110.366 29.7414 110.627C29.8888 110.886 30.0986 111.091 30.3709 111.24C30.6455 111.387 30.9737 111.461 31.3554 111.461C31.7371 111.461 32.0652 111.387 32.3398 111.24C32.6144 111.091 32.8242 110.886 32.9693 110.627C33.1167 110.366 33.1903 110.068 33.1903 109.733V105.26ZM40.3669 107.403C40.2932 107.177 40.1961 106.975 40.0755 106.797C39.9572 106.616 39.8155 106.462 39.6503 106.335C39.4873 106.207 39.3021 106.11 39.0944 106.043C38.8868 105.976 38.6592 105.943 38.4114 105.943C38.0051 105.943 37.6356 106.048 37.303 106.258C36.9704 106.468 36.7059 106.777 36.5095 107.185C36.313 107.594 36.2148 108.095 36.2148 108.689C36.2148 109.282 36.3141 109.784 36.5128 110.192C36.7115 110.601 36.9805 110.91 37.3198 111.12C37.6591 111.329 38.0408 111.434 38.4649 111.434C38.8578 111.434 39.2038 111.351 39.503 111.183C39.8043 111.014 40.0387 110.775 40.2061 110.467C40.3758 110.156 40.4606 109.791 40.4606 109.372L40.7151 109.425H38.6525V108.689H41.2642V109.425C41.2642 109.99 41.1437 110.481 40.9026 110.899C40.6637 111.316 40.3334 111.64 39.9115 111.87C39.4918 112.097 39.0096 112.211 38.4649 112.211C37.8578 112.211 37.3242 112.068 36.8644 111.783C36.4068 111.497 36.0496 111.091 35.7929 110.564C35.5384 110.037 35.4112 109.412 35.4112 108.689C35.4112 108.146 35.4837 107.658 35.6288 107.225C35.7761 106.79 35.9837 106.42 36.2516 106.114C36.5195 105.808 36.8365 105.573 37.2026 105.411C37.5687 105.248 37.9716 105.166 38.4114 105.166C38.773 105.166 39.1101 105.221 39.4226 105.33C39.7373 105.437 40.0175 105.59 40.2631 105.789C40.5108 105.985 40.7173 106.221 40.8825 106.495C41.0477 106.768 41.1616 107.07 41.2241 107.403H40.3669ZM47.1868 105.26H48.0172V109.8C48.0172 110.269 47.9067 110.688 47.6857 111.056C47.4669 111.422 47.1578 111.711 46.7582 111.923C46.3586 112.133 45.8898 112.238 45.3518 112.238C44.8139 112.238 44.3451 112.133 43.9455 111.923C43.5459 111.711 43.2356 111.422 43.0146 111.056C42.7959 110.688 42.6865 110.269 42.6865 109.8V105.26H43.5169V109.733C43.5169 110.068 43.5906 110.366 43.7379 110.627C43.8852 110.886 44.0951 111.091 44.3674 111.24C44.642 111.387 44.9701 111.461 45.3518 111.461C45.7336 111.461 46.0617 111.387 46.3363 111.24C46.6109 111.091 46.8207 110.886 46.9658 110.627C47.1131 110.366 47.1868 110.068 47.1868 109.733V105.26ZM49.6755 112.117V105.26H51.9926C52.5284 105.26 52.9681 105.351 53.3119 105.534C53.6557 105.715 53.9102 105.964 54.0754 106.281C54.2405 106.598 54.3231 106.959 54.3231 107.363C54.3231 107.767 54.2405 108.125 54.0754 108.437C53.9102 108.75 53.6568 108.996 53.3153 109.174C52.9737 109.351 52.5373 109.439 52.006 109.439H50.1309V108.689H51.9792C52.3453 108.689 52.64 108.635 52.8632 108.528C53.0887 108.421 53.2516 108.269 53.3521 108.073C53.4548 107.874 53.5061 107.637 53.5061 107.363C53.5061 107.088 53.4548 106.848 53.3521 106.643C53.2494 106.437 53.0853 106.279 52.8599 106.167C52.6344 106.053 52.3364 105.996 51.9658 105.996H50.5059V112.117H49.6755ZM52.9034 109.037L54.591 112.117H53.6267L51.9658 109.037H52.9034ZM55.9881 112.117H55.1176L57.6356 105.26H58.4928L61.0108 112.117H60.1402L58.091 106.345H58.0374L55.9881 112.117ZM56.3096 109.439H59.8188V110.175H56.3096V109.439ZM60.9028 105.996V105.26H66.046V105.996H63.8896V112.117H63.0592V105.996H60.9028ZM68.158 105.26V112.117H67.3276V105.26H68.158ZM75.6092 108.689C75.6092 109.412 75.4786 110.037 75.2174 110.564C74.9562 111.091 74.5979 111.497 74.1425 111.783C73.6872 112.068 73.167 112.211 72.5822 112.211C71.9973 112.211 71.4772 112.068 71.0218 111.783C70.5664 111.497 70.2081 111.091 69.947 110.564C69.6858 110.037 69.5552 109.412 69.5552 108.689C69.5552 107.965 69.6858 107.34 69.947 106.814C70.2081 106.287 70.5664 105.88 71.0218 105.595C71.4772 105.309 71.9973 105.166 72.5822 105.166C73.167 105.166 73.6872 105.309 74.1425 105.595C74.5979 105.88 74.9562 106.287 75.2174 106.814C75.4786 107.34 75.6092 107.965 75.6092 108.689ZM74.8055 108.689C74.8055 108.095 74.7062 107.594 74.5075 107.185C74.3111 106.777 74.0443 106.468 73.7072 106.258C73.3724 106.048 72.9974 105.943 72.5822 105.943C72.167 105.943 71.7908 106.048 71.4537 106.258C71.1189 106.468 70.8521 106.777 70.6535 107.185C70.457 107.594 70.3588 108.095 70.3588 108.689C70.3588 109.282 70.457 109.784 70.6535 110.192C70.8521 110.601 71.1189 110.91 71.4537 111.12C71.7908 111.329 72.167 111.434 72.5822 111.434C72.9974 111.434 73.3724 111.329 73.7072 111.12C74.0443 110.91 74.3111 110.601 74.5075 110.192C74.7062 109.784 74.8055 109.282 74.8055 108.689ZM82.4433 105.26V112.117H81.6397L77.9028 106.733H77.8359V112.117H77.0055V105.26H77.8091L81.5593 110.658H81.6263V105.26H82.4433ZM89.3821 105.26H90.2125V110.162C90.2125 110.599 90.1322 110.971 89.9714 111.277C89.8107 111.583 89.5841 111.815 89.2917 111.973C88.9993 112.132 88.6544 112.211 88.257 112.211C87.882 112.211 87.5483 112.143 87.2559 112.007C86.9634 111.869 86.7335 111.672 86.5661 111.418C86.3987 111.163 86.3149 110.861 86.3149 110.51H87.132C87.132 110.704 87.18 110.874 87.2759 111.019C87.3742 111.162 87.5081 111.274 87.6778 111.354C87.8474 111.434 88.0405 111.475 88.257 111.475C88.4959 111.475 88.699 111.424 88.8665 111.324C89.0339 111.223 89.1611 111.076 89.2482 110.882C89.3375 110.685 89.3821 110.445 89.3821 110.162V105.26ZM92.158 112.117H91.2874L93.8054 105.26H94.6626L97.1806 112.117H96.31L94.2608 106.345H94.2072L92.158 112.117ZM92.4794 109.439H95.9886V110.175H92.4794V109.439ZM103.687 105.26V112.117H102.883L99.1462 106.733H99.0792V112.117H98.2488V105.26H99.0524L102.803 110.658H102.87V105.26H103.687ZM107.88 112.117V111.515L110.143 109.037C110.409 108.747 110.628 108.494 110.8 108.28C110.971 108.064 111.099 107.86 111.181 107.671C111.266 107.479 111.309 107.278 111.309 107.068C111.309 106.827 111.25 106.618 111.134 106.442C111.021 106.265 110.864 106.129 110.666 106.033C110.467 105.937 110.244 105.889 109.996 105.889C109.733 105.889 109.503 105.944 109.306 106.053C109.112 106.161 108.961 106.311 108.854 106.505C108.749 106.7 108.697 106.927 108.697 107.189H107.907C107.907 106.787 107.999 106.434 108.184 106.13C108.37 105.827 108.622 105.59 108.941 105.421C109.263 105.251 109.623 105.166 110.023 105.166C110.425 105.166 110.781 105.251 111.091 105.421C111.401 105.59 111.644 105.819 111.821 106.107C111.997 106.395 112.085 106.715 112.085 107.068C112.085 107.32 112.04 107.567 111.948 107.808C111.859 108.047 111.703 108.314 111.479 108.608C111.258 108.901 110.951 109.258 110.558 109.68L109.018 111.327V111.381H112.206V112.117H107.88ZM115.866 112.211C115.584 112.207 115.303 112.153 115.022 112.05C114.741 111.948 114.484 111.775 114.252 111.531C114.02 111.286 113.833 110.954 113.693 110.537C113.552 110.117 113.482 109.59 113.482 108.957C113.482 108.349 113.539 107.811 113.652 107.343C113.766 106.872 113.931 106.475 114.148 106.154C114.365 105.83 114.626 105.585 114.932 105.417C115.24 105.25 115.587 105.166 115.973 105.166C116.357 105.166 116.698 105.243 116.998 105.397C117.299 105.549 117.544 105.761 117.734 106.033C117.924 106.306 118.047 106.619 118.103 106.974H117.285C117.21 106.666 117.062 106.411 116.843 106.207C116.625 106.004 116.335 105.903 115.973 105.903C115.442 105.903 115.023 106.134 114.717 106.596C114.414 107.058 114.261 107.706 114.259 108.541H114.312C114.437 108.352 114.586 108.19 114.757 108.056C114.932 107.92 115.124 107.815 115.333 107.741C115.543 107.667 115.765 107.631 116 107.631C116.393 107.631 116.752 107.729 117.078 107.925C117.404 108.119 117.665 108.388 117.861 108.732C118.058 109.074 118.156 109.465 118.156 109.907C118.156 110.332 118.061 110.72 117.871 111.073C117.682 111.423 117.415 111.702 117.071 111.91C116.73 112.115 116.328 112.216 115.866 112.211ZM115.866 111.475C116.147 111.475 116.399 111.404 116.622 111.264C116.848 111.123 117.025 110.934 117.155 110.698C117.287 110.461 117.352 110.198 117.352 109.907C117.352 109.624 117.289 109.366 117.162 109.134C117.037 108.9 116.864 108.713 116.643 108.575C116.424 108.436 116.174 108.367 115.893 108.367C115.68 108.367 115.483 108.41 115.3 108.494C115.117 108.577 114.956 108.691 114.818 108.836C114.682 108.981 114.574 109.147 114.496 109.335C114.418 109.52 114.379 109.715 114.379 109.921C114.379 110.193 114.443 110.448 114.57 110.684C114.699 110.921 114.876 111.112 115.099 111.257C115.324 111.402 115.58 111.475 115.866 111.475ZM119.74 112.171C119.575 112.171 119.433 112.112 119.315 111.994C119.196 111.875 119.137 111.733 119.137 111.568C119.137 111.403 119.196 111.261 119.315 111.143C119.433 111.025 119.575 110.966 119.74 110.966C119.905 110.966 120.047 111.025 120.165 111.143C120.283 111.261 120.343 111.403 120.343 111.568C120.343 111.678 120.315 111.778 120.259 111.87C120.205 111.961 120.133 112.035 120.041 112.091C119.952 112.144 119.852 112.171 119.74 112.171ZM123.339 105.26V112.117H122.508V106.13H122.468L120.794 107.242V106.398L122.508 105.26H123.339ZM127.494 105.166C127.775 105.168 128.057 105.222 128.338 105.327C128.619 105.432 128.876 105.606 129.108 105.849C129.34 106.09 129.527 106.42 129.667 106.837C129.808 107.254 129.878 107.778 129.878 108.407C129.878 109.017 129.82 109.558 129.704 110.031C129.59 110.502 129.425 110.9 129.208 111.223C128.994 111.547 128.733 111.793 128.425 111.96C128.119 112.127 127.773 112.211 127.387 112.211C127.003 112.211 126.66 112.135 126.359 111.983C126.06 111.829 125.814 111.616 125.622 111.344C125.433 111.069 125.311 110.751 125.257 110.39H126.074C126.148 110.704 126.294 110.964 126.513 111.17C126.734 111.373 127.025 111.475 127.387 111.475C127.916 111.475 128.333 111.243 128.639 110.781C128.947 110.319 129.101 109.666 129.101 108.823H129.048C128.923 109.01 128.774 109.172 128.602 109.308C128.43 109.444 128.24 109.549 128.03 109.623C127.82 109.697 127.597 109.733 127.36 109.733C126.967 109.733 126.607 109.636 126.279 109.442C125.953 109.246 125.691 108.977 125.495 108.635C125.301 108.291 125.204 107.898 125.204 107.456C125.204 107.037 125.297 106.653 125.485 106.305C125.675 105.954 125.94 105.675 126.282 105.467C126.626 105.26 127.03 105.159 127.494 105.166ZM127.494 105.903C127.213 105.903 126.959 105.973 126.734 106.114C126.511 106.252 126.333 106.44 126.202 106.676C126.072 106.911 126.007 107.171 126.007 107.456C126.007 107.742 126.07 108.002 126.195 108.237C126.322 108.469 126.495 108.654 126.714 108.792C126.935 108.929 127.186 108.997 127.467 108.997C127.679 108.997 127.877 108.955 128.06 108.873C128.243 108.788 128.403 108.673 128.539 108.528C128.677 108.381 128.785 108.214 128.864 108.029C128.942 107.841 128.981 107.646 128.981 107.443C128.981 107.175 128.916 106.924 128.787 106.69C128.659 106.455 128.483 106.265 128.257 106.12C128.034 105.975 127.78 105.903 127.494 105.903ZM133.338 112.211C132.945 112.211 132.591 112.133 132.276 111.977C131.962 111.821 131.709 111.606 131.52 111.334C131.33 111.062 131.226 110.751 131.208 110.403H132.012C132.043 110.713 132.184 110.97 132.434 111.173C132.686 111.374 132.987 111.475 133.338 111.475C133.619 111.475 133.869 111.409 134.088 111.277C134.309 111.145 134.482 110.964 134.607 110.735C134.734 110.502 134.798 110.24 134.798 109.948C134.798 109.649 134.732 109.382 134.6 109.147C134.471 108.911 134.292 108.724 134.065 108.588C133.837 108.452 133.577 108.383 133.284 108.381C133.074 108.378 132.859 108.411 132.638 108.478C132.417 108.542 132.235 108.626 132.092 108.729L131.315 108.635L131.731 105.26H135.293V105.996H132.427L132.186 108.019H132.226C132.367 107.907 132.543 107.815 132.755 107.741C132.967 107.667 133.188 107.631 133.418 107.631C133.838 107.631 134.212 107.731 134.54 107.932C134.87 108.131 135.129 108.403 135.317 108.749C135.507 109.095 135.601 109.49 135.601 109.934C135.601 110.372 135.503 110.762 135.307 111.106C135.113 111.448 134.845 111.718 134.503 111.917C134.162 112.113 133.773 112.211 133.338 112.211ZM139.168 112.211C138.664 112.211 138.234 112.074 137.879 111.799C137.524 111.523 137.253 111.122 137.066 110.597C136.878 110.07 136.784 109.434 136.784 108.689C136.784 107.948 136.878 107.315 137.066 106.79C137.255 106.263 137.528 105.861 137.883 105.585C138.24 105.306 138.668 105.166 139.168 105.166C139.668 105.166 140.096 105.306 140.451 105.585C140.808 105.861 141.08 106.263 141.268 106.79C141.458 107.315 141.552 107.948 141.552 108.689C141.552 109.434 141.459 110.07 141.271 110.597C141.084 111.122 140.812 111.523 140.458 111.799C140.103 112.074 139.673 112.211 139.168 112.211ZM139.168 111.475C139.668 111.475 140.057 111.233 140.334 110.751C140.61 110.269 140.749 109.582 140.749 108.689C140.749 108.095 140.685 107.589 140.558 107.172C140.433 106.754 140.252 106.436 140.016 106.217C139.781 105.999 139.499 105.889 139.168 105.889C138.673 105.889 138.285 106.134 138.006 106.623C137.727 107.109 137.588 107.798 137.588 108.689C137.588 109.282 137.65 109.787 137.775 110.202C137.9 110.617 138.08 110.933 138.315 111.15C138.551 111.366 138.836 111.475 139.168 111.475Z" fill="#603E41"/>
<path d="M151.911 18.7542H12.5684V103.047H151.911V18.7542Z" fill="#E6C7B9" stroke="#603E41" stroke-width="0.75" stroke-miterlimit="10"/>
<g opacity="0.5">
<path d="M12.8105 39.3761C30.1315 39.3761 30.1316 40.9051 47.4526 40.9051C64.7726 40.9051 64.7726 39.3761 82.0936 39.3761C99.4166 39.3761 99.4165 40.9051 116.739 40.9051C134.062 40.9051 134.062 39.3761 151.384 39.3761" stroke="#603E41" stroke-width="0.25" stroke-miterlimit="10"/>
<path d="M12.8105 37.0822C30.1315 37.0822 30.1316 38.6111 47.4526 38.6111C64.7726 38.6111 64.7726 37.0822 82.0936 37.0822C99.4166 37.0822 99.4165 38.6111 116.739 38.6111C134.062 38.6111 134.062 37.0822 151.384 37.0822" stroke="#603E41" stroke-width="0.25" stroke-miterlimit="10"/>
<path d="M12.8105 34.7881C30.1315 34.7881 30.1316 36.3171 47.4526 36.3171C64.7726 36.3171 64.7726 34.7881 82.0936 34.7881C99.4166 34.7881 99.4165 36.3171 116.739 36.3171C134.062 36.3171 134.062 34.7881 151.384 34.7881" stroke="#603E41" stroke-width="0.25" stroke-miterlimit="10"/>
<path d="M12.8105 41.6581C30.1315 41.6581 30.1316 43.1871 47.4526 43.1871C64.7726 43.1871 64.7726 41.6581 82.0936 41.6581C99.4166 41.6581 99.4165 43.1871 116.739 43.1871C134.062 43.1871 134.062 41.6581 151.384 41.6581" stroke="#603E41" stroke-width="0.25" stroke-miterlimit="10"/>
<path d="M12.8105 43.951C30.1315 43.951 30.1316 45.4801 47.4526 45.4801C64.7726 45.4801 64.7726 43.951 82.0936 43.951C99.4166 43.951 99.4165 45.4801 116.739 45.4801C134.062 45.4801 134.062 43.951 151.384 43.951" stroke="#603E41" stroke-width="0.25" stroke-miterlimit="10"/>
<path d="M12.8105 46.2451C30.1315 46.2451 30.1316 47.7741 47.4526 47.7741C64.7726 47.7741 64.7726 46.2451 82.0936 46.2451C99.4166 46.2451 99.4165 47.7741 116.739 47.7741C134.062 47.7741 134.062 46.2451 151.384 46.2451" stroke="#603E41" stroke-width="0.25" stroke-miterlimit="10"/>
<path d="M12.8105 25.6041C30.1315 25.6041 30.1316 27.1331 47.4526 27.1331C64.7726 27.1331 64.7726 25.6041 82.0936 25.6041C99.4166 25.6041 99.4165 27.1331 116.739 27.1331C134.062 27.1331 134.062 25.6041 151.384 25.6041" stroke="#603E41" stroke-width="0.25" stroke-miterlimit="10"/>
<path d="M12.8105 23.3101C30.1315 23.3101 30.1316 24.8391 47.4526 24.8391C64.7726 24.8391 64.7726 23.3101 82.0936 23.3101C99.4166 23.3101 99.4165 24.8391 116.739 24.8391C134.062 24.8391 134.062 23.3101 151.384 23.3101" stroke="#603E41" stroke-width="0.25" stroke-miterlimit="10"/>
<path d="M12.8105 21.0161C30.1315 21.0161 30.1316 22.5451 47.4526 22.5451C64.7726 22.5451 64.7726 21.0161 82.0936 21.0161C99.4166 21.0161 99.4165 22.5451 116.739 22.5451C134.062 22.5451 134.062 21.0161 151.384 21.0161" stroke="#603E41" stroke-width="0.25" stroke-miterlimit="10"/>
<path d="M12.8105 18.5841C30.1315 18.5841 30.1316 20.1131 47.4526 20.1131C64.7726 20.1131 64.7726 18.5841 82.0936 18.5841C99.4166 18.5841 99.4165 20.1131 116.739 20.1131C134.062 20.1131 134.062 18.5841 151.384 18.5841" stroke="#603E41" stroke-width="0.25" stroke-miterlimit="10"/>
<path d="M12.8105 27.8861C30.1315 27.8861 30.1316 29.4151 47.4526 29.4151C64.7726 29.4151 64.7726 27.8861 82.0936 27.8861C99.4166 27.8861 99.4165 29.4151 116.739 29.4151C134.062 29.4151 134.062 27.8861 151.384 27.8861" stroke="#603E41" stroke-width="0.25" stroke-miterlimit="10"/>
<path d="M12.8105 30.1791C30.1315 30.1791 30.1316 31.7081 47.4526 31.7081C64.7726 31.7081 64.7726 30.1791 82.0936 30.1791C99.4166 30.1791 99.4165 31.7081 116.739 31.7081C134.062 31.7081 134.062 30.1791 151.384 30.1791" stroke="#603E41" stroke-width="0.25" stroke-miterlimit="10"/>
<path d="M12.8105 32.4731C30.1315 32.4731 30.1316 34.0022 47.4526 34.0022C64.7726 34.0022 64.7726 32.4731 82.0936 32.4731C99.4166 32.4731 99.4165 34.0022 116.739 34.0022C134.062 34.0022 134.062 32.4731 151.384 32.4731" stroke="#603E41" stroke-width="0.25" stroke-miterlimit="10"/>
<path d="M12.8105 48.5391C30.1315 48.5391 30.1316 50.0681 47.4526 50.0681C64.7726 50.0681 64.7726 48.5391 82.0936 48.5391C99.4166 48.5391 99.4165 50.0681 116.739 50.0681C134.062 50.0681 134.062 48.5391 151.384 48.5391" stroke="#603E41" stroke-width="0.25" stroke-miterlimit="10"/>
<path d="M12.8105 50.8322C30.1315 50.8322 30.1316 52.3611 47.4526 52.3611C64.7726 52.3611 64.7726 50.8322 82.0936 50.8322C99.4166 50.8322 99.4165 52.3611 116.739 52.3611C134.062 52.3611 134.062 50.8322 151.384 50.8322" stroke="#603E41" stroke-width="0.25" stroke-miterlimit="10"/>
<path d="M12.8105 53.1971C30.1315 53.1971 30.1316 54.7262 47.4526 54.7262C64.7726 54.7262 64.7726 53.1971 82.0936 53.1971C99.4166 53.1971 99.4165 54.7262 116.739 54.7262C134.062 54.7262 134.062 53.1971 151.384 53.1971" stroke="#603E41" stroke-width="0.25" stroke-miterlimit="10"/>
<path d="M12.8105 55.4901C30.1315 55.4901 30.1316 57.0191 47.4526 57.0191C64.7726 57.0191 64.7726 55.4901 82.0936 55.4901C99.4166 55.4901 99.4165 57.0191 116.739 57.0191C134.062 57.0191 134.062 55.4901 151.384 55.4901" stroke="#603E41" stroke-width="0.25" stroke-miterlimit="10"/>
<path d="M12.8105 57.7841C30.1315 57.7841 30.1316 59.3131 47.4526 59.3131C64.7726 59.3131 64.7726 57.7841 82.0936 57.7841C99.4166 57.7841 99.4165 59.3131 116.739 59.3131C134.062 59.3131 134.062 57.7841 151.384 57.7841" stroke="#603E41" stroke-width="0.25" stroke-miterlimit="10"/>
<path d="M12.8105 60.0781C30.1315 60.0781 30.1316 61.6071 47.4526 61.6071C64.7726 61.6071 64.7726 60.0781 82.0936 60.0781C99.4166 60.0781 99.4165 61.6071 116.739 61.6071C134.062 61.6071 134.062 60.0781 151.384 60.0781" stroke="#603E41" stroke-width="0.25" stroke-miterlimit="10"/>
<path d="M12.8105 62.3711C30.1315 62.3711 30.1316 63.9001 47.4526 63.9001C64.7726 63.9001 64.7726 62.3711 82.0936 62.3711C99.4166 62.3711 99.4165 63.9001 116.739 63.9001C134.062 63.9001 134.062 62.3711 151.384 62.3711" stroke="#603E41" stroke-width="0.25" stroke-miterlimit="10"/>
<path d="M12.8105 64.5931C30.1315 64.5931 30.1316 66.1221 47.4526 66.1221C64.7726 66.1221 64.7726 64.5931 82.0936 64.5931C99.4166 64.5931 99.4165 66.1221 116.739 66.1221C134.062 66.1221 134.062 64.5931 151.384 64.5931" stroke="#603E41" stroke-width="0.25" stroke-miterlimit="10"/>
<path d="M12.8105 66.8871C30.1315 66.8871 30.1316 68.4161 47.4526 68.4161C64.7726 68.4161 64.7726 66.8871 82.0936 66.8871C99.4166 66.8871 99.4165 68.4161 116.739 68.4161C134.062 68.4161 134.062 66.8871 151.384 66.8871" stroke="#603E41" stroke-width="0.25" stroke-miterlimit="10"/>
<path d="M12.8105 69.1812C30.1315 69.1812 30.1316 70.7101 47.4526 70.7101C64.7726 70.7101 64.7726 69.1812 82.0936 69.1812C99.4166 69.1812 99.4165 70.7101 116.739 70.7101C134.062 70.7101 134.062 69.1812 151.384 69.1812" stroke="#603E41" stroke-width="0.25" stroke-miterlimit="10"/>
<path d="M12.8105 71.4751C30.1315 71.4751 30.1316 73.0041 47.4526 73.0041C64.7726 73.0041 64.7726 71.4751 82.0936 71.4751C99.4166 71.4751 99.4165 73.0041 116.739 73.0041C134.062 73.0041 134.062 71.4751 151.384 71.4751" stroke="#603E41" stroke-width="0.25" stroke-miterlimit="10"/>
<path d="M12.8105 73.7681C30.1315 73.7681 30.1316 75.2971 47.4526 75.2971C64.7726 75.2971 64.7726 73.7681 82.0936 73.7681C99.4166 73.7681 99.4165 75.2971 116.739 75.2971C134.062 75.2971 134.062 73.7681 151.384 73.7681" stroke="#603E41" stroke-width="0.25" stroke-miterlimit="10"/>
<path d="M12.8105 76.1331C30.1315 76.1331 30.1316 77.6621 47.4526 77.6621C64.7726 77.6621 64.7726 76.1331 82.0936 76.1331C99.4166 76.1331 99.4165 77.6621 116.739 77.6621C134.062 77.6621 134.062 76.1331 151.384 76.1331" stroke="#603E41" stroke-width="0.25" stroke-miterlimit="10"/>
<path d="M12.8105 78.4261C30.1315 78.4261 30.1316 79.9552 47.4526 79.9552C64.7726 79.9552 64.7726 78.4261 82.0936 78.4261C99.4166 78.4261 99.4165 79.9552 116.739 79.9552C134.062 79.9552 134.062 78.4261 151.384 78.4261" stroke="#603E41" stroke-width="0.25" stroke-miterlimit="10"/>
<path d="M12.8105 80.7201C30.1315 80.7201 30.1316 82.2491 47.4526 82.2491C64.7726 82.2491 64.7726 80.7201 82.0936 80.7201C99.4166 80.7201 99.4165 82.2491 116.739 82.2491C134.062 82.2491 134.062 80.7201 151.384 80.7201" stroke="#603E41" stroke-width="0.25" stroke-miterlimit="10"/>
<path d="M12.8105 83.0142C30.1315 83.0142 30.1316 84.5432 47.4526 84.5432C64.7726 84.5432 64.7726 83.0142 82.0936 83.0142C99.4166 83.0142 99.4165 84.5432 116.739 84.5432C134.062 84.5432 134.062 83.0142 151.384 83.0142" stroke="#603E41" stroke-width="0.25" stroke-miterlimit="10"/>
<path d="M12.8105 85.3071C30.1315 85.3071 30.1316 86.8361 47.4526 86.8361C64.7726 86.8361 64.7726 85.3071 82.0936 85.3071C99.4166 85.3071 99.4165 86.8361 116.739 86.8361C134.062 86.8361 134.062 85.3071 151.384 85.3071" stroke="#603E41" stroke-width="0.25" stroke-miterlimit="10"/>
<path d="M12.8105 87.686C30.1315 87.686 30.1316 89.215 47.4526 89.215C64.7726 89.215 64.7726 87.686 82.0936 87.686C99.4166 87.686 99.4165 89.215 116.739 89.215C134.062 89.215 134.062 87.686 151.384 87.686" stroke="#603E41" stroke-width="0.25" stroke-miterlimit="10"/>
<path d="M12.8105 89.9801C30.1315 89.9801 30.1316 91.5091 47.4526 91.5091C64.7726 91.5091 64.7726 89.9801 82.0936 89.9801C99.4166 89.9801 99.4165 91.5091 116.739 91.5091C134.062 91.5091 134.062 89.9801 151.384 89.9801" stroke="#603E41" stroke-width="0.25" stroke-miterlimit="10"/>
<path d="M12.8105 92.2731C30.1315 92.2731 30.1316 93.8021 47.4526 93.8021C64.7726 93.8021 64.7726 92.2731 82.0936 92.2731C99.4166 92.2731 99.4165 93.8021 116.739 93.8021C134.062 93.8021 134.062 92.2731 151.384 92.2731" stroke="#603E41" stroke-width="0.25" stroke-miterlimit="10"/>
<path d="M12.8105 94.6381C30.1315 94.6381 30.1316 96.1671 47.4526 96.1671C64.7726 96.1671 64.7726 94.6381 82.0936 94.6381C99.4166 94.6381 99.4165 96.1671 116.739 96.1671C134.062 96.1671 134.062 94.6381 151.384 94.6381" stroke="#603E41" stroke-width="0.25" stroke-miterlimit="10"/>
<path d="M12.8105 96.9312C30.1315 96.9312 30.1316 98.4601 47.4526 98.4601C64.7726 98.4601 64.7726 96.9312 82.0936 96.9312C99.4166 96.9312 99.4165 98.4601 116.739 98.4601C134.062 98.4601 134.062 96.9312 151.384 96.9312" stroke="#603E41" stroke-width="0.25" stroke-miterlimit="10"/>
<path d="M12.8105 99.2251C30.1315 99.2251 30.1316 100.754 47.4526 100.754C64.7726 100.754 64.7726 99.2251 82.0936 99.2251C99.4166 99.2251 99.4165 100.754 116.739 100.754C134.062 100.754 134.062 99.2251 151.384 99.2251" stroke="#603E41" stroke-width="0.25" stroke-miterlimit="10"/>
<path d="M12.8105 101.519C30.1315 101.519 30.1316 103.048 47.4526 103.048C64.7726 103.048 64.7726 101.519 82.0936 101.519C99.4166 101.519 99.4165 103.048 116.739 103.048C134.062 103.048 134.062 101.519 151.384 101.519" stroke="#603E41" stroke-width="0.25" stroke-miterlimit="10"/>
</g>
<path d="M134.753 62.462H140.323L141.082 97.145H133.994L134.753 62.462Z" fill="#E6C7B9" stroke="#603E41" stroke-width="0.25" stroke-miterlimit="10"/>
<path d="M140.703 61.7021H134.374C134.165 61.7021 133.994 61.8732 133.994 62.0822C133.994 62.2912 134.165 62.4621 134.374 62.4621H140.703C140.912 62.4621 141.083 62.2912 141.083 62.0822C141.083 61.8732 140.912 61.7021 140.703 61.7021Z" fill="#603E41" stroke="#603E41" stroke-width="0.25" stroke-miterlimit="10"/>
<path d="M140.921 76.9081H134.154C133.926 76.9081 133.74 76.7221 133.74 76.4941V76.4201C133.74 76.1921 133.926 76.0061 134.154 76.0061H140.921C141.149 76.0061 141.335 76.1921 141.335 76.4201V76.4941C141.335 76.7221 141.149 76.9081 140.921 76.9081Z" fill="#603E41" stroke="#603E41" stroke-width="0.25" stroke-miterlimit="10"/>
<path d="M141.169 89.7242H133.908C133.673 89.7242 133.48 89.5311 133.48 89.2961V89.2502C133.48 89.0152 133.673 88.8221 133.908 88.8221H141.169C141.404 88.8221 141.597 89.0152 141.597 89.2502V89.2961C141.596 89.5321 141.404 89.7242 141.169 89.7242Z" fill="#603E41" stroke="#603E41" stroke-width="0.25" stroke-miterlimit="10"/>
<path d="M140.387 57.7041H134.691V61.7031H140.387V57.7041Z" fill="#E6C7B9" stroke="#603E41" stroke-width="0.25" stroke-miterlimit="10"/>
<path d="M134.691 57.7041C134.691 56.1311 135.966 54.8561 137.539 54.8561C139.112 54.8561 140.387 56.1311 140.387 57.7041H134.691Z" fill="#E6C7B9" stroke="#603E41" stroke-width="0.25" stroke-miterlimit="10"/>
<path d="M137.539 54.8561V53.0951" stroke="#603E41" stroke-width="0.25" stroke-miterlimit="10" stroke-linecap="round" stroke-linejoin="round"/>
<path d="M136.328 57.7041V61.7021" stroke="#603E41" stroke-width="0.25" stroke-miterlimit="10"/>
<path d="M138.748 57.7041V61.7021" stroke="#603E41" stroke-width="0.25" stroke-miterlimit="10"/>
<path d="M136.858 59.7031C136.858 59.3271 137.163 59.0231 137.538 59.0231C137.914 59.0231 138.218 59.3281 138.218 59.7031V61.7021H136.857V59.7031H136.858Z" fill="#603E41" stroke="#603E41" stroke-width="0.25" stroke-miterlimit="10" stroke-linecap="round" stroke-linejoin="round"/>
<path d="M134.69 61.7021H135.671V59.7031C135.671 59.3271 135.366 59.0231 134.991 59.0231C134.883 59.0231 134.78 59.0481 134.689 59.0931L134.69 61.7021Z" fill="#603E41" stroke="#603E41" stroke-width="0.25" stroke-miterlimit="10" stroke-linecap="round" stroke-linejoin="round"/>
<path d="M140.385 61.7021H139.404V59.7031C139.404 59.3271 139.709 59.0231 140.084 59.0231C140.192 59.0231 140.295 59.0481 140.385 59.0931V61.7021Z" fill="#603E41" stroke="#603E41" stroke-width="0.25" stroke-miterlimit="10" stroke-linecap="round" stroke-linejoin="round"/>
<path d="M135.85 55.4111H139.25" stroke="#603E41" stroke-width="0.25" stroke-miterlimit="10" stroke-linecap="round" stroke-linejoin="round"/>
<path d="M124.654 68.3701H129.274L129.905 97.1451H124.023L124.654 68.3701Z" fill="#E6C7B9" stroke="#603E41" stroke-width="0.25" stroke-miterlimit="10"/>
<path d="M129.589 67.7401H124.338C124.165 67.7401 124.023 67.8821 124.023 68.0551C124.023 68.2281 124.165 68.3701 124.338 68.3701H129.589C129.762 68.3701 129.904 68.2281 129.904 68.0551C129.905 67.8811 129.763 67.7401 129.589 67.7401Z" fill="#603E41" stroke="#603E41" stroke-width="0.25" stroke-miterlimit="10"/>
<path d="M129.771 80.3552H124.155C123.966 80.3552 123.812 80.2012 123.812 80.0122V79.9502C123.812 79.7612 123.967 79.6072 124.155 79.6072H129.771C129.96 79.6072 130.113 79.7622 130.113 79.9502V80.0122C130.114 80.2012 129.96 80.3552 129.771 80.3552Z" fill="#603E41" stroke="#603E41" stroke-width="0.25" stroke-miterlimit="10"/>
<path d="M129.976 90.9882H123.951C123.756 90.9882 123.596 90.8282 123.596 90.6332V90.5952C123.596 90.4002 123.756 90.2402 123.951 90.2402H129.976C130.171 90.2402 130.331 90.4002 130.331 90.5952V90.6332C130.331 90.8282 130.171 90.9882 129.976 90.9882Z" fill="#603E41" stroke="#603E41" stroke-width="0.25" stroke-miterlimit="10"/>
<path d="M129.328 64.4221H124.602V67.7401H129.328V64.4221Z" fill="#E6C7B9" stroke="#603E41" stroke-width="0.25" stroke-miterlimit="10"/>
<path d="M124.602 64.4221C124.602 63.1171 125.66 62.0591 126.965 62.0591C128.27 62.0591 129.328 63.1171 129.328 64.4221H124.602Z" fill="#E6C7B9" stroke="#603E41" stroke-width="0.25" stroke-miterlimit="10"/>
<path d="M126.963 62.0591V60.5981" stroke="#603E41" stroke-width="0.25" stroke-miterlimit="10" stroke-linecap="round" stroke-linejoin="round"/>
<path d="M125.959 64.4221V67.7401" stroke="#603E41" stroke-width="0.25" stroke-miterlimit="10"/>
<path d="M127.967 64.4221V67.7401" stroke="#603E41" stroke-width="0.25" stroke-miterlimit="10"/>
<path d="M126.399 66.0811C126.399 65.7691 126.652 65.5171 126.963 65.5171C127.275 65.5171 127.527 65.7701 127.527 66.0811V67.7401H126.398V66.0811H126.399Z" fill="#603E41" stroke="#603E41" stroke-width="0.25" stroke-miterlimit="10" stroke-linecap="round" stroke-linejoin="round"/>
<path d="M124.601 67.7401H125.415V66.0811C125.415 65.7691 125.162 65.5171 124.85 65.5171C124.76 65.5171 124.675 65.5381 124.6 65.5751L124.601 67.7401Z" fill="#603E41" stroke="#603E41" stroke-width="0.25" stroke-miterlimit="10" stroke-linecap="round" stroke-linejoin="round"/>
<path d="M129.326 67.7401H128.512V66.0811C128.512 65.7691 128.765 65.5171 129.076 65.5171C129.166 65.5171 129.251 65.5381 129.326 65.5751V67.7401Z" fill="#603E41" stroke="#603E41" stroke-width="0.25" stroke-miterlimit="10" stroke-linecap="round" stroke-linejoin="round"/>
<path d="M125.562 62.5192H128.384" stroke="#603E41" stroke-width="0.25" stroke-miterlimit="10" stroke-linecap="round" stroke-linejoin="round"/>
<path d="M28.8583 62.462H23.2883L22.5293 97.145H29.6173L28.8583 62.462Z" fill="#E6C7B9" stroke="#603E41" stroke-width="0.25" stroke-miterlimit="10"/>
<path d="M22.9073 61.7021H29.2363C29.4453 61.7021 29.6163 61.8732 29.6163 62.0822C29.6163 62.2912 29.4453 62.4621 29.2363 62.4621H22.9073C22.6983 62.4621 22.5273 62.2912 22.5273 62.0822C22.5283 61.8732 22.6993 61.7021 22.9073 61.7021Z" fill="#603E41" stroke="#603E41" stroke-width="0.25" stroke-miterlimit="10"/>
<path d="M22.6894 76.9081H29.4564C29.6844 76.9081 29.8704 76.7221 29.8704 76.4941V76.4201C29.8704 76.1921 29.6844 76.0061 29.4564 76.0061H22.6894C22.4614 76.0061 22.2754 76.1921 22.2754 76.4201V76.4941C22.2764 76.7221 22.4624 76.9081 22.6894 76.9081Z" fill="#603E41" stroke="#603E41" stroke-width="0.25" stroke-miterlimit="10"/>
<path d="M22.4417 89.7242H29.7027C29.9377 89.7242 30.1307 89.5311 30.1307 89.2961V89.2502C30.1307 89.0152 29.9387 88.8221 29.7027 88.8221H22.4417C22.2067 88.8221 22.0137 89.0152 22.0137 89.2502V89.2961C22.0137 89.5321 22.2067 89.7242 22.4417 89.7242Z" fill="#603E41" stroke="#603E41" stroke-width="0.25" stroke-miterlimit="10"/>
<path d="M23.2259 61.7021H28.9219V57.7031H23.2259V61.7021Z" fill="#E6C7B9" stroke="#603E41" stroke-width="0.25" stroke-miterlimit="10"/>
<path d="M28.9206 57.7041C28.9206 56.1311 27.6456 54.8561 26.0726 54.8561C24.4996 54.8561 23.2246 56.1311 23.2246 57.7041H28.9206Z" fill="#E6C7B9" stroke="#603E41" stroke-width="0.25" stroke-miterlimit="10"/>
<path d="M26.0742 54.8561V53.0951" stroke="#603E41" stroke-width="0.25" stroke-miterlimit="10" stroke-linecap="round" stroke-linejoin="round"/>
<path d="M27.2832 57.7041V61.7021" stroke="#603E41" stroke-width="0.25" stroke-miterlimit="10"/>
<path d="M24.8633 57.7041V61.7021" stroke="#603E41" stroke-width="0.25" stroke-miterlimit="10"/>
<path d="M26.7526 59.7031C26.7526 59.3271 26.4476 59.0231 26.0726 59.0231C25.6966 59.0231 25.3926 59.3281 25.3926 59.7031V61.7021H26.7536L26.7526 59.7031Z" fill="#603E41" stroke="#603E41" stroke-width="0.25" stroke-miterlimit="10" stroke-linecap="round" stroke-linejoin="round"/>
<path d="M28.9205 61.7021H27.9395V59.7031C27.9395 59.3271 28.2444 59.0231 28.6194 59.0231C28.7274 59.0231 28.8305 59.0481 28.9205 59.0931V61.7021Z" fill="#603E41" stroke="#603E41" stroke-width="0.25" stroke-miterlimit="10" stroke-linecap="round" stroke-linejoin="round"/>
<path d="M23.2246 61.7021H24.2056V59.7031C24.2056 59.3271 23.9006 59.0231 23.5256 59.0231C23.4176 59.0231 23.3146 59.0481 23.2246 59.0931V61.7021Z" fill="#603E41" stroke="#603E41" stroke-width="0.25" stroke-miterlimit="10" stroke-linecap="round" stroke-linejoin="round"/>
<path d="M27.7633 55.4111H24.3633" stroke="#603E41" stroke-width="0.25" stroke-miterlimit="10" stroke-linecap="round" stroke-linejoin="round"/>
<path d="M38.958 68.3701H34.338L33.707 97.1451H39.588L38.958 68.3701Z" fill="#E6C7B9" stroke="#603E41" stroke-width="0.25" stroke-miterlimit="10"/>
<path d="M34.022 67.7401H39.273C39.446 67.7401 39.588 67.8821 39.588 68.0551C39.588 68.2281 39.446 68.3701 39.273 68.3701H34.022C33.849 68.3701 33.707 68.2281 33.707 68.0551C33.707 67.8811 33.849 67.7401 34.022 67.7401Z" fill="#603E41" stroke="#603E41" stroke-width="0.25" stroke-miterlimit="10"/>
<path d="M33.841 80.3552H39.4561C39.6451 80.3552 39.799 80.2012 39.799 80.0122V79.9502C39.799 79.7612 39.6451 79.6072 39.4561 79.6072H33.841C33.652 79.6072 33.4981 79.7622 33.4981 79.9502V80.0122C33.4971 80.2012 33.652 80.3552 33.841 80.3552Z" fill="#603E41" stroke="#603E41" stroke-width="0.25" stroke-miterlimit="10"/>
<path d="M33.6363 90.9882H39.6602C39.8552 90.9882 40.0153 90.8282 40.0153 90.6332V90.5952C40.0153 90.4002 39.8552 90.2402 39.6602 90.2402H33.6363C33.4413 90.2402 33.2812 90.4002 33.2812 90.5952V90.6332C33.2812 90.8282 33.4403 90.9882 33.6363 90.9882Z" fill="#603E41" stroke="#603E41" stroke-width="0.25" stroke-miterlimit="10"/>
<path d="M34.2857 67.7395H39.0117V64.4215H34.2857V67.7395Z" fill="#E6C7B9" stroke="#603E41" stroke-width="0.25" stroke-miterlimit="10"/>
<path d="M39.0112 64.4221C39.0112 63.1171 37.9532 62.0591 36.6482 62.0591C35.3432 62.0591 34.2852 63.1171 34.2852 64.4221H39.0112Z" fill="#E6C7B9" stroke="#603E41" stroke-width="0.25" stroke-miterlimit="10"/>
<path d="M36.6484 62.0591V60.5981" stroke="#603E41" stroke-width="0.25" stroke-miterlimit="10" stroke-linecap="round" stroke-linejoin="round"/>
<path d="M37.6523 64.4221V67.7401" stroke="#603E41" stroke-width="0.25" stroke-miterlimit="10"/>
<path d="M35.6445 64.4221V67.7401" stroke="#603E41" stroke-width="0.25" stroke-miterlimit="10"/>
<path d="M37.213 66.0811C37.213 65.7691 36.96 65.5171 36.648 65.5171C36.336 65.5171 36.084 65.7701 36.084 66.0811V67.7401H37.213V66.0811Z" fill="#603E41" stroke="#603E41" stroke-width="0.25" stroke-miterlimit="10" stroke-linecap="round" stroke-linejoin="round"/>
<path d="M39.0113 67.7401H38.1973V66.0811C38.1973 65.7691 38.4503 65.5171 38.7613 65.5171C38.8513 65.5171 38.9363 65.5381 39.0113 65.5751V67.7401Z" fill="#603E41" stroke="#603E41" stroke-width="0.25" stroke-miterlimit="10" stroke-linecap="round" stroke-linejoin="round"/>
<path d="M34.2861 67.7401H35.1002V66.0811C35.1002 65.7691 34.8472 65.5171 34.5352 65.5171C34.4452 65.5171 34.3602 65.5381 34.2852 65.5751L34.2861 67.7401Z" fill="#603E41" stroke="#603E41" stroke-width="0.25" stroke-miterlimit="10" stroke-linecap="round" stroke-linejoin="round"/>
<path d="M38.0495 62.5192H35.2285" stroke="#603E41" stroke-width="0.25" stroke-miterlimit="10" stroke-linecap="round" stroke-linejoin="round"/>
<path d="M108.502 60.313H97.5078V68.031H108.502V60.313Z" fill="#E6C7B9" stroke="#603E41" stroke-width="0.25" stroke-miterlimit="10"/>
<path d="M97.5078 60.313C97.5078 57.277 99.9688 54.816 103.005 54.816C106.041 54.816 108.502 57.277 108.502 60.313H97.5078Z" fill="#E6C7B9" stroke="#603E41" stroke-width="0.25" stroke-miterlimit="10"/>
<path d="M103.004 54.816V52.177" stroke="#603E41" stroke-width="0.25" stroke-miterlimit="10" stroke-linecap="round" stroke-linejoin="round"/>
<path d="M100.67 60.313V68.031" stroke="#603E41" stroke-width="0.25" stroke-miterlimit="10"/>
<path d="M105.344 60.313V68.031" stroke="#603E41" stroke-width="0.25" stroke-miterlimit="10"/>
<path d="M101.534 64.919C101.534 64.094 102.203 63.426 103.027 63.426C103.852 63.426 104.52 64.095 104.52 64.919V68.031H101.533V64.919H101.534Z" fill="#603E41" stroke="#603E41" stroke-width="0.25" stroke-miterlimit="10" stroke-linecap="round" stroke-linejoin="round"/>
<path d="M105.895 65.23C105.895 64.488 106.334 63.886 106.876 63.886C107.418 63.886 107.857 64.488 107.857 65.23V68.031H105.895V65.23Z" fill="#603E41" stroke="#603E41" stroke-width="0.25" stroke-miterlimit="10" stroke-linecap="round" stroke-linejoin="round"/>
<path d="M98.1406 65.23C98.1406 64.488 98.5796 63.886 99.1216 63.886C99.6636 63.886 100.103 64.488 100.103 65.23V68.031H98.1406V65.23Z" fill="#603E41" stroke="#603E41" stroke-width="0.25" stroke-miterlimit="10" stroke-linecap="round" stroke-linejoin="round"/>
<path d="M99.7441 55.887H106.307" stroke="#603E41" stroke-width="0.25" stroke-miterlimit="10" stroke-linecap="round" stroke-linejoin="round"/>
<path d="M108.424 60.313H97.5078V60.883H108.424V60.313Z" fill="#603E41" stroke="#603E41" stroke-width="0.25" stroke-miterlimit="10" stroke-linecap="round" stroke-linejoin="round"/>
<path d="M66.162 60.313H55.168V68.031H66.162V60.313Z" fill="#E6C7B9" stroke="#603E41" stroke-width="0.25" stroke-miterlimit="10"/>
<path d="M55.168 60.313C55.168 57.277 57.629 54.816 60.665 54.816C63.701 54.816 66.162 57.277 66.162 60.313H55.168Z" fill="#E6C7B9" stroke="#603E41" stroke-width="0.25" stroke-miterlimit="10"/>
<path d="M60.6641 54.816V52.177" stroke="#603E41" stroke-width="0.25" stroke-miterlimit="10" stroke-linecap="round" stroke-linejoin="round"/>
<path d="M58.3281 60.313V68.031" stroke="#603E41" stroke-width="0.25" stroke-miterlimit="10"/>
<path d="M63.002 60.313V68.031" stroke="#603E41" stroke-width="0.25" stroke-miterlimit="10"/>
<path d="M59.1924 64.919C59.1924 64.094 59.8614 63.426 60.6854 63.426C61.5094 63.426 62.1784 64.095 62.1784 64.919V68.031H59.1914V64.919H59.1924Z" fill="#603E41" stroke="#603E41" stroke-width="0.25" stroke-miterlimit="10" stroke-linecap="round" stroke-linejoin="round"/>
<path d="M63.5527 65.23C63.5527 64.488 63.9918 63.886 64.5338 63.886C65.0758 63.886 65.5147 64.488 65.5147 65.23V68.031H63.5527V65.23Z" fill="#603E41" stroke="#603E41" stroke-width="0.25" stroke-miterlimit="10" stroke-linecap="round" stroke-linejoin="round"/>
<path d="M55.7988 65.23C55.7988 64.488 56.2378 63.886 56.7798 63.886C57.3218 63.886 57.7608 64.488 57.7608 65.23V68.031H55.7988V65.23Z" fill="#603E41" stroke="#603E41" stroke-width="0.25" stroke-miterlimit="10" stroke-linecap="round" stroke-linejoin="round"/>
<path d="M57.4043 55.887H63.9673" stroke="#603E41" stroke-width="0.25" stroke-miterlimit="10" stroke-linecap="round" stroke-linejoin="round"/>
<path d="M66.083 60.313H55.168V60.883H66.083V60.313Z" fill="#603E41" stroke="#603E41" stroke-width="0.25" stroke-miterlimit="10" stroke-linecap="round" stroke-linejoin="round"/>
<path d="M119.406 68.031H44.2168V97.145H119.406V68.031Z" fill="#E6C7B9" stroke="#603E41" stroke-width="0.25" stroke-miterlimit="10"/>
<path d="M108.03 83.2692V76.7122C108.03 76.7122 107.922 75.0062 106.107 73.9762C104.292 72.9472 104.13 72.5402 104.13 72.5402C104.13 72.5402 103.967 72.9462 102.153 73.9762C100.338 75.0052 100.23 76.7122 100.23 76.7122V83.2692H108.03Z" fill="#603E41" stroke="#603E41" stroke-width="0.25" stroke-miterlimit="10" stroke-linecap="round" stroke-linejoin="round"/>
<path d="M99.5499 83.9097H108.711V71.4497H99.5499V83.9097Z" stroke="#603E41" stroke-width="0.25" stroke-miterlimit="10" stroke-linecap="round" stroke-linejoin="round"/>
<path d="M108.03 96.5042V90.6442C108.03 90.6442 107.922 88.9382 106.107 87.9082C104.292 86.8792 104.13 86.4722 104.13 86.4722C104.13 86.4722 103.967 86.8782 102.153 87.9082C100.338 88.9372 100.23 90.6442 100.23 90.6442V96.5042H108.03Z" fill="#603E41" stroke="#603E41" stroke-width="0.25" stroke-miterlimit="10" stroke-linecap="round" stroke-linejoin="round"/>
<path d="M99.5499 97.1449H108.711V85.3809H99.5499V97.1449Z" stroke="#603E41" stroke-width="0.25" stroke-miterlimit="10" stroke-linecap="round" stroke-linejoin="round"/>
<path d="M117.191 83.2682V76.7122C117.191 76.7122 117.141 75.0062 116.309 73.9762C115.477 72.9472 115.402 72.5402 115.402 72.5402C115.402 72.5402 115.327 72.9462 114.495 73.9762C113.663 75.0052 113.613 76.7122 113.613 76.7122V83.2682H117.191Z" fill="#603E41" stroke="#603E41" stroke-width="0.25" stroke-miterlimit="10" stroke-linecap="round" stroke-linejoin="round"/>
<path d="M112.997 83.9097H117.871V71.4497H112.997V83.9097Z" stroke="#603E41" stroke-width="0.25" stroke-miterlimit="10" stroke-linecap="round" stroke-linejoin="round"/>
<path d="M117.191 96.5042V90.6442C117.191 90.6442 117.141 88.9382 116.309 87.9082C115.477 86.8792 115.402 86.4722 115.402 86.4722C115.402 86.4722 115.327 86.8782 114.495 87.9082C113.663 88.9372 113.613 90.6442 113.613 90.6442V96.5042H117.191Z" fill="#603E41" stroke="#603E41" stroke-width="0.25" stroke-miterlimit="10" stroke-linecap="round" stroke-linejoin="round"/>
<path d="M112.997 97.145H117.871V85.381H112.997V97.145Z" stroke="#603E41" stroke-width="0.25" stroke-miterlimit="10" stroke-linecap="round" stroke-linejoin="round"/>
<path d="M97.5083 69.9773H119.406V69.1703H97.5083V69.9773Z" fill="#603E41" stroke="#603E41" stroke-width="0.25" stroke-miterlimit="10" stroke-linecap="round" stroke-linejoin="round"/>
<path d="M110.735 97.1449H111.494V61.9549H110.735V97.1449Z" fill="#E6C7B9" stroke="#603E41" stroke-width="0.25" stroke-miterlimit="10" stroke-linecap="round" stroke-linejoin="round"/>
<path d="M111.861 62.082C112.091 62.082 112.236 61.826 112.108 61.635C112.023 61.507 111.895 61.374 111.704 61.265C111.507 61.153 111.376 60.722 111.288 60.656C111.184 60.578 111.045 60.578 110.94 60.656C110.852 60.722 110.72 61.153 110.524 61.265C110.333 61.374 110.205 61.507 110.12 61.635C109.992 61.826 110.138 62.082 110.367 62.082H111.861Z" fill="#603E41" stroke="#603E41" stroke-width="0.25" stroke-miterlimit="10" stroke-linecap="round" stroke-linejoin="round"/>
<path d="M119.339 97.1445H120.098V63.7235H119.339V97.1445Z" fill="#E6C7B9" stroke="#603E41" stroke-width="0.25" stroke-miterlimit="10" stroke-linecap="round" stroke-linejoin="round"/>
<path d="M120.465 63.8511C120.694 63.8511 120.84 63.5951 120.712 63.4041C120.627 63.2761 120.499 63.1431 120.308 63.0341C120.111 62.9221 119.98 62.4911 119.892 62.4251C119.788 62.3471 119.649 62.3471 119.544 62.4251C119.456 62.4911 119.324 62.9221 119.127 63.0341C118.936 63.1421 118.808 63.2761 118.723 63.4041C118.595 63.5951 118.741 63.8511 118.97 63.8511H120.465Z" fill="#603E41" stroke="#603E41" stroke-width="0.25" stroke-miterlimit="10" stroke-linecap="round" stroke-linejoin="round"/>
<path d="M55.5645 83.269V76.712C55.5645 76.712 55.6725 75.006 57.4875 73.976C59.3025 72.947 59.4644 72.54 59.4644 72.54C59.4644 72.54 59.6265 72.946 61.4415 73.976C63.2565 75.005 63.3645 76.712 63.3645 76.712V83.269H55.5645Z" fill="#603E41" stroke="#603E41" stroke-width="0.25" stroke-miterlimit="10" stroke-linecap="round" stroke-linejoin="round"/>
<path d="M64.0458 71.449H54.8848V83.909H64.0458V71.449Z" stroke="#603E41" stroke-width="0.25" stroke-miterlimit="10" stroke-linecap="round" stroke-linejoin="round"/>
<path d="M55.5645 96.5039V90.6439C55.5645 90.6439 55.6725 88.9379 57.4875 87.9079C59.3025 86.8789 59.4644 86.4719 59.4644 86.4719C59.4644 86.4719 59.6265 86.8779 61.4415 87.9079C63.2565 88.9369 63.3645 90.6439 63.3645 90.6439V96.5039H55.5645Z" fill="#603E41" stroke="#603E41" stroke-width="0.25" stroke-miterlimit="10" stroke-linecap="round" stroke-linejoin="round"/>
<path d="M64.0458 85.381H54.8848V97.145H64.0458V85.381Z" stroke="#603E41" stroke-width="0.25" stroke-miterlimit="10" stroke-linecap="round" stroke-linejoin="round"/>
<path d="M46.4043 83.268V76.712C46.4043 76.712 46.4543 75.006 47.2863 73.976C48.1183 72.947 48.1923 72.54 48.1923 72.54C48.1923 72.54 48.2663 72.946 49.0993 73.976C49.9313 75.005 49.9813 76.712 49.9813 76.712V83.268H46.4043Z" fill="#603E41" stroke="#603E41" stroke-width="0.25" stroke-miterlimit="10" stroke-linecap="round" stroke-linejoin="round"/>
<path d="M50.5986 71.449H45.7246V83.909H50.5986V71.449Z" stroke="#603E41" stroke-width="0.25" stroke-miterlimit="10" stroke-linecap="round" stroke-linejoin="round"/>
<path d="M46.4043 96.5039V90.6439C46.4043 90.6439 46.4543 88.9379 47.2863 87.9079C48.1183 86.8789 48.1923 86.4719 48.1923 86.4719C48.1923 86.4719 48.2663 86.8779 49.0993 87.9079C49.9313 88.9369 49.9813 90.6439 49.9813 90.6439V96.5039H46.4043Z" fill="#603E41" stroke="#603E41" stroke-width="0.25" stroke-miterlimit="10" stroke-linecap="round" stroke-linejoin="round"/>
<path d="M50.5986 85.381H45.7246V97.145H50.5986V85.381Z" stroke="#603E41" stroke-width="0.25" stroke-miterlimit="10" stroke-linecap="round" stroke-linejoin="round"/>
<path d="M66.0875 69.171H44.1895V69.978H66.0875V69.171Z" fill="#603E41" stroke="#603E41" stroke-width="0.25" stroke-miterlimit="10" stroke-linecap="round" stroke-linejoin="round"/>
<path d="M52.8606 61.9551H52.1016V97.1451H52.8606V61.9551Z" fill="#E6C7B9" stroke="#603E41" stroke-width="0.25" stroke-miterlimit="10" stroke-linecap="round" stroke-linejoin="round"/>
<path d="M51.7342 62.082C51.5042 62.082 51.3592 61.826 51.4872 61.635C51.5722 61.507 51.7003 61.374 51.8913 61.265C52.0883 61.153 52.2203 60.722 52.3083 60.656C52.4123 60.578 52.5512 60.578 52.6562 60.656C52.7442 60.722 52.8762 61.153 53.0732 61.265C53.2642 61.374 53.3923 61.507 53.4773 61.635C53.6053 61.826 53.4592 62.082 53.2302 62.082H51.7342Z" fill="#603E41" stroke="#603E41" stroke-width="0.25" stroke-miterlimit="10" stroke-linecap="round" stroke-linejoin="round"/>
<path d="M44.2551 63.724H43.4961V97.145H44.2551V63.724Z" fill="#E6C7B9" stroke="#603E41" stroke-width="0.25" stroke-miterlimit="10" stroke-linecap="round" stroke-linejoin="round"/>
<path d="M43.1288 63.8511C42.8988 63.8511 42.7538 63.5951 42.8818 63.4041C42.9668 63.2761 43.0948 63.1431 43.2858 63.0341C43.4828 62.9221 43.6137 62.4911 43.7017 62.4251C43.8057 62.3471 43.9448 62.3471 44.0498 62.4251C44.1378 62.4911 44.2698 62.9221 44.4658 63.0341C44.6568 63.1421 44.7847 63.2761 44.8697 63.4041C44.9977 63.5951 44.8518 63.8511 44.6228 63.8511H43.1288Z" fill="#603E41" stroke="#603E41" stroke-width="0.25" stroke-miterlimit="10" stroke-linecap="round" stroke-linejoin="round"/>
<path d="M97.5053 58.411H66.1133V97.145H97.5053V58.411Z" fill="#E6C7B9" stroke="#603E41" stroke-width="0.25" stroke-miterlimit="10"/>
<path d="M66.1133 61.892H97.5053" stroke="#603E41" stroke-width="0.25" stroke-miterlimit="10"/>
<path d="M66.1133 62.652H97.5053" stroke="#603E41" stroke-width="0.25" stroke-miterlimit="10"/>
<path d="M71.9993 95.3729H66.1133V97.1449H71.9993V95.3729Z" fill="#603E41" stroke="#603E41" stroke-width="0.25" stroke-miterlimit="10" stroke-linecap="round" stroke-linejoin="round"/>
<path d="M97.5052 95.3729H91.6191V97.1449H97.5052V95.3729Z" fill="#603E41" stroke="#603E41" stroke-width="0.25" stroke-miterlimit="10" stroke-linecap="round" stroke-linejoin="round"/>
<path d="M82.5155 69.838C82.5155 69.837 82.5155 69.837 82.5155 69.838ZM82.5155 69.838C82.5255 69.837 83.1455 70.738 86.8055 72.814C91.3505 75.391 91.6715 79.639 91.6825 79.819V68.032H71.9375V79.867C71.9505 79.639 72.2705 75.392 76.8155 72.814C80.5345 70.704 81.0955 69.802 81.1365 69.771C81.1365 69.771 81.6375 69.203 81.8105 68.934L82.5155 69.838Z" stroke="#603E41" stroke-width="0.25" stroke-miterlimit="10" stroke-linecap="round" stroke-linejoin="round"/>
<path d="M72.6973 97.145V79.867C72.6973 79.867 72.9503 75.88 77.1913 73.475C81.4323 71.07 81.8113 70.121 81.8113 70.121C81.8113 70.121 82.1913 71.07 86.4313 73.475C90.6713 75.88 90.9253 79.867 90.9253 79.867V97.145H72.6973Z" stroke="#603E41" stroke-width="0.25" stroke-miterlimit="10" stroke-linecap="round" stroke-linejoin="round"/>
<path d="M72.6973 84.1069H90.9253" stroke="#603E41" stroke-width="0.25" stroke-miterlimit="10" stroke-linecap="round" stroke-linejoin="round"/>
<path d="M79.248 81.322C79.248 79.906 80.396 78.759 81.811 78.759C83.227 78.759 84.374 79.907 84.374 81.322V84.107H79.248V81.322Z" fill="#603E41" stroke="#603E41" stroke-width="0.25" stroke-miterlimit="10" stroke-linecap="round" stroke-linejoin="round"/>
<path d="M79.2812 80.921H84.2912" stroke="#E6C7B9" stroke-width="0.25" stroke-miterlimit="10"/>
<path d="M79.2812 82.272H84.2912" stroke="#E6C7B9" stroke-width="0.25" stroke-miterlimit="10"/>
<path d="M81.1113 84.101V78.759" stroke="#E6C7B9" stroke-width="0.25" stroke-miterlimit="10"/>
<path d="M82.4609 84.101V78.759" stroke="#E6C7B9" stroke-width="0.25" stroke-miterlimit="10"/>
<path d="M79.248 92.428C79.248 91.012 80.396 89.865 81.811 89.865C83.227 89.865 84.374 91.013 84.374 92.428V97.145H79.248V92.428Z" fill="#603E41" stroke="#603E41" stroke-width="0.25" stroke-miterlimit="10" stroke-linecap="round" stroke-linejoin="round"/>
<path d="M79.2812 92.335H84.2912" stroke="#E6C7B9" stroke-width="0.25" stroke-miterlimit="10"/>
<path d="M79.2812 93.6851H84.2912" stroke="#E6C7B9" stroke-width="0.25" stroke-miterlimit="10"/>
<path d="M81.1113 97.145V89.865" stroke="#E6C7B9" stroke-width="0.25" stroke-miterlimit="10"/>
<path d="M82.4609 97.145V89.865" stroke="#E6C7B9" stroke-width="0.25" stroke-miterlimit="10"/>
<path d="M92.7273 64.361H70.8923H69.1523V67.13V93.505H70.8923V67.13H92.7273V93.505H94.4673V67.13V64.361H92.7273Z" fill="#603E41" stroke="#603E41" stroke-width="0.25" stroke-miterlimit="10"/>
<path d="M97.5053 55.437H66.1133V56.28H97.5053V55.437Z" fill="#603E41" stroke="#603E41" stroke-width="0.25" stroke-miterlimit="10"/>
<path d="M97.5053 56.28H66.1133V58.412H97.5053V56.28Z" fill="#603E41" stroke="#E6C7B9" stroke-width="0.25" stroke-miterlimit="10"/>
<path d="M66.7617 56.28V58.411" stroke="#E6C7B9" stroke-width="0.25" stroke-miterlimit="10"/>
<path d="M67.7285 56.28V58.411" stroke="#E6C7B9" stroke-width="0.25" stroke-miterlimit="10"/>
<path d="M68.6934 56.28V58.411" stroke="#E6C7B9" stroke-width="0.25" stroke-miterlimit="10"/>
<path d="M69.6602 56.28V58.411" stroke="#E6C7B9" stroke-width="0.25" stroke-miterlimit="10"/>
<path d="M70.627 56.28V58.411" stroke="#E6C7B9" stroke-width="0.25" stroke-miterlimit="10"/>
<path d="M71.5918 56.28V58.411" stroke="#E6C7B9" stroke-width="0.25" stroke-miterlimit="10"/>
<path d="M72.5586 56.28V58.411" stroke="#E6C7B9" stroke-width="0.25" stroke-miterlimit="10"/>
<path d="M73.5254 56.28V58.411" stroke="#E6C7B9" stroke-width="0.25" stroke-miterlimit="10"/>
<path d="M74.4922 56.28V58.411" stroke="#E6C7B9" stroke-width="0.25" stroke-miterlimit="10"/>
<path d="M75.457 56.28V58.411" stroke="#E6C7B9" stroke-width="0.25" stroke-miterlimit="10"/>
<path d="M76.4238 56.28V58.411" stroke="#E6C7B9" stroke-width="0.25" stroke-miterlimit="10"/>
<path d="M77.3906 56.28V58.411" stroke="#E6C7B9" stroke-width="0.25" stroke-miterlimit="10"/>
<path d="M78.3555 56.28V58.411" stroke="#E6C7B9" stroke-width="0.25" stroke-miterlimit="10"/>
<path d="M79.3223 56.28V58.411" stroke="#E6C7B9" stroke-width="0.25" stroke-miterlimit="10"/>
<path d="M80.2891 56.28V58.411" stroke="#E6C7B9" stroke-width="0.25" stroke-miterlimit="10"/>
<path d="M81.2539 56.28V58.411" stroke="#E6C7B9" stroke-width="0.25" stroke-miterlimit="10"/>
<path d="M82.2207 56.28V58.411" stroke="#E6C7B9" stroke-width="0.25" stroke-miterlimit="10"/>
<path d="M83.1875 56.28V58.411" stroke="#E6C7B9" stroke-width="0.25" stroke-miterlimit="10"/>
<path d="M84.1543 56.28V58.411" stroke="#E6C7B9" stroke-width="0.25" stroke-miterlimit="10"/>
<path d="M85.1191 56.28V58.411" stroke="#E6C7B9" stroke-width="0.25" stroke-miterlimit="10"/>
<path d="M86.0859 56.28V58.411" stroke="#E6C7B9" stroke-width="0.25" stroke-miterlimit="10"/>
<path d="M87.0508 56.28V58.411" stroke="#E6C7B9" stroke-width="0.25" stroke-miterlimit="10"/>
<path d="M88.0176 56.28V58.411" stroke="#E6C7B9" stroke-width="0.25" stroke-miterlimit="10"/>
<path d="M88.9844 56.28V58.411" stroke="#E6C7B9" stroke-width="0.25" stroke-miterlimit="10"/>
<path d="M89.9512 56.28V58.411" stroke="#E6C7B9" stroke-width="0.25" stroke-miterlimit="10"/>
<path d="M90.916 56.28V58.411" stroke="#E6C7B9" stroke-width="0.25" stroke-miterlimit="10"/>
<path d="M91.8828 56.28V58.411" stroke="#E6C7B9" stroke-width="0.25" stroke-miterlimit="10"/>
<path d="M92.8496 56.28V58.411" stroke="#E6C7B9" stroke-width="0.25" stroke-miterlimit="10"/>
<path d="M93.8164 56.28V58.411" stroke="#E6C7B9" stroke-width="0.25" stroke-miterlimit="10"/>
<path d="M94.7812 56.28V58.411" stroke="#E6C7B9" stroke-width="0.25" stroke-miterlimit="10"/>
<path d="M95.748 56.28V58.411" stroke="#E6C7B9" stroke-width="0.25" stroke-miterlimit="10"/>
<path d="M96.7129 56.28V58.411" stroke="#E6C7B9" stroke-width="0.25" stroke-miterlimit="10"/>
<path d="M66.0811 55.4371C66.0811 55.4371 61.4831 48.5381 71.6591 40.8171C81.8351 33.0961 81.6821 30.6271 81.6821 30.6271H81.7861C81.7861 30.6271 81.6331 33.0951 91.8091 40.8171C101.985 48.5381 97.3871 55.4371 97.3871 55.4371H66.0811Z" fill="#E6C7B9" stroke="#603E41" stroke-width="0.25" stroke-miterlimit="10"/>
<path d="M75.8574 37.4471H87.6494C85.4964 35.6381 83.5104 33.4691 83.5104 33.4691H79.9604C79.9604 33.4691 78.7814 34.8691 75.8574 37.4471Z" fill="#603E41" stroke="#603E41" stroke-width="0.25" stroke-miterlimit="10"/>
<path d="M81.7344 33.4691V37.4471" stroke="#E6C7B9" stroke-width="0.25" stroke-miterlimit="10"/>
<path d="M81.0592 33.4691C81.0592 33.4691 80.9692 35.2491 79.9082 37.4471" stroke="#E6C7B9" stroke-width="0.25" stroke-miterlimit="10"/>
<path d="M80.4839 33.4691C80.4839 33.4691 79.2599 36.0401 77.8359 37.4471" stroke="#E6C7B9" stroke-width="0.25" stroke-miterlimit="10"/>
<path d="M82.4121 33.4691C82.4121 33.4691 82.5021 35.2491 83.5621 37.4471" stroke="#E6C7B9" stroke-width="0.25" stroke-miterlimit="10"/>
<path d="M82.9863 33.4691C82.9863 33.4691 84.2103 36.0401 85.6343 37.4471" stroke="#E6C7B9" stroke-width="0.25" stroke-miterlimit="10"/>
<path d="M81.7852 27.697V24.519" stroke="#603E41" stroke-width="0.25" stroke-miterlimit="10" stroke-linecap="round" stroke-linejoin="round"/>
<path d="M80.8887 24.6901C80.8887 25.1671 81.2757 25.5541 81.7527 25.5541C82.2297 25.5541 82.6167 25.1671 82.6167 24.6901" stroke="#603E41" stroke-width="0.25" stroke-miterlimit="10" stroke-linecap="round" stroke-linejoin="round"/>
<path d="M82.4614 30.6271C82.4614 30.2531 82.1584 29.951 81.7844 29.951C81.4104 29.951 81.1074 30.2541 81.1074 30.6271C81.1074 31.0011 81.4104 31.3041 81.7844 31.3041C82.1584 31.3041 82.4614 31.0011 82.4614 30.6271Z" fill="#E6C7B9" stroke="#603E41" stroke-width="0.25" stroke-miterlimit="10"/>
<path d="M81.7844 27.697C82.1583 27.697 82.4614 27.3939 82.4614 27.02C82.4614 26.6461 82.1583 26.343 81.7844 26.343C81.4105 26.343 81.1074 26.6461 81.1074 27.02C81.1074 27.3939 81.4105 27.697 81.7844 27.697Z" fill="#603E41" stroke="#603E41" stroke-width="0.25" stroke-miterlimit="10"/>
<path d="M81.7852 29.951C82.4076 29.951 82.9122 29.4464 82.9122 28.824C82.9122 28.2016 82.4076 27.697 81.7852 27.697C81.1628 27.697 80.6582 28.2016 80.6582 28.824C80.6582 29.4464 81.1628 29.951 81.7852 29.951Z" fill="#E6C7B9" stroke="#603E41" stroke-width="0.25" stroke-miterlimit="10"/>
<path d="M142.096 97.145H21.377V100.672H142.096V97.145Z" fill="#603E41" stroke="#E6C7B9" stroke-width="0.25" stroke-miterlimit="10"/>
<path d="M144.681 100.672H18.793V102.435H144.681V100.672Z" fill="#603E41" stroke="#E6C7B9" stroke-width="0.25" stroke-miterlimit="10"/>
<mask id="mask0_134_9" style="mask-type:luminance" maskUnits="userSpaceOnUse" x="0" y="0" width="165" height="120">
<path d="M164.483 5.5V0H160.845C160.875 0.141 160.892 0.286996 160.892 0.436996C160.892 1.594 159.954 2.532 158.797 2.532C157.64 2.532 156.702 1.594 156.702 0.436996C156.702 0.286996 156.719 0.141 156.749 0H153.554C153.584 0.141 153.601 0.286996 153.601 0.436996C153.601 1.594 152.663 2.532 151.506 2.532C150.349 2.532 149.411 1.594 149.411 0.436996C149.411 0.286996 149.428 0.141 149.458 0H146.263C146.293 0.141 146.31 0.286996 146.31 0.436996C146.31 1.594 145.372 2.532 144.215 2.532C143.058 2.532 142.12 1.594 142.12 0.436996C142.12 0.286996 142.137 0.141 142.167 0H138.972C139.002 0.141 139.019 0.286996 139.019 0.436996C139.019 1.594 138.081 2.532 136.924 2.532C135.767 2.532 134.829 1.594 134.829 0.436996C134.829 0.286996 134.846 0.141 134.876 0H131.681C131.711 0.141 131.728 0.286996 131.728 0.436996C131.728 1.594 130.79 2.532 129.633 2.532C128.476 2.532 127.538 1.594 127.538 0.436996C127.538 0.286996 127.555 0.141 127.585 0H124.39C124.42 0.141 124.437 0.286996 124.437 0.436996C124.437 1.594 123.499 2.532 122.342 2.532C121.185 2.532 120.247 1.594 120.247 0.436996C120.247 0.286996 120.264 0.141 120.294 0H117.099C117.129 0.141 117.146 0.286996 117.146 0.436996C117.146 1.594 116.208 2.532 115.051 2.532C113.894 2.532 112.956 1.594 112.956 0.436996C112.956 0.286996 112.973 0.141 113.003 0H109.808C109.838 0.141 109.855 0.286996 109.855 0.436996C109.855 1.594 108.917 2.532 107.76 2.532C106.603 2.532 105.665 1.594 105.665 0.436996C105.665 0.286996 105.682 0.141 105.712 0H102.517C102.547 0.141 102.564 0.286996 102.564 0.436996C102.564 1.594 101.626 2.532 100.469 2.532C99.312 2.532 98.374 1.594 98.374 0.436996C98.374 0.286996 98.391 0.141 98.421 0H95.226C95.256 0.141 95.273 0.286996 95.273 0.436996C95.273 1.594 94.335 2.532 93.178 2.532C92.021 2.532 91.083 1.594 91.083 0.436996C91.083 0.286996 91.1 0.141 91.13 0H87.935C87.965 0.141 87.982 0.286996 87.982 0.436996C87.982 1.594 87.044 2.532 85.887 2.532C84.73 2.532 83.792 1.594 83.792 0.436996C83.792 0.286996 83.809 0.141 83.839 0H80.644C80.674 0.141 80.691 0.286996 80.691 0.436996C80.691 1.594 79.753 2.532 78.596 2.532C77.439 2.532 76.501 1.594 76.501 0.436996C76.501 0.286996 76.518 0.141 76.548 0H73.353C73.383 0.141 73.4 0.286996 73.4 0.436996C73.4 1.594 72.462 2.532 71.305 2.532C70.148 2.532 69.21 1.594 69.21 0.436996C69.21 0.286996 69.227 0.141 69.257 0H66.062C66.092 0.141 66.109 0.286996 66.109 0.436996C66.109 1.594 65.171 2.532 64.014 2.532C62.857 2.532 61.919 1.594 61.919 0.436996C61.919 0.286996 61.936 0.141 61.966 0H58.771C58.801 0.141 58.818 0.286996 58.818 0.436996C58.818 1.594 57.88 2.532 56.723 2.532C55.566 2.532 54.628 1.594 54.628 0.436996C54.628 0.286996 54.645 0.141 54.675 0H51.48C51.51 0.141 51.527 0.286996 51.527 0.436996C51.527 1.594 50.589 2.532 49.432 2.532C48.275 2.532 47.337 1.594 47.337 0.436996C47.337 0.286996 47.354 0.141 47.384 0H44.189C44.219 0.141 44.236 0.286996 44.236 0.436996C44.236 1.594 43.298 2.532 42.141 2.532C40.984 2.532 40.046 1.594 40.046 0.436996C40.046 0.286996 40.063 0.141 40.093 0H36.898C36.928 0.141 36.945 0.286996 36.945 0.436996C36.945 1.594 36.007 2.532 34.85 2.532C33.693 2.532 32.755 1.594 32.755 0.436996C32.755 0.286996 32.772 0.141 32.802 0H29.607C29.637 0.141 29.654 0.286996 29.654 0.436996C29.654 1.594 28.716 2.532 27.559 2.532C26.402 2.532 25.464 1.594 25.464 0.436996C25.464 0.286996 25.481 0.141 25.511 0H22.316C22.346 0.141 22.363 0.286996 22.363 0.436996C22.363 1.594 21.425 2.532 20.268 2.532C19.111 2.532 18.173 1.594 18.173 0.436996C18.173 0.286996 18.19 0.141 18.22 0H15.025C15.055 0.141 15.072 0.286996 15.072 0.436996C15.072 1.594 14.134 2.532 12.977 2.532C11.82 2.532 10.882 1.594 10.882 0.436996C10.882 0.286996 10.899 0.141 10.929 0H7.73401C7.76401 0.141 7.78101 0.286996 7.78101 0.436996C7.78101 1.594 6.843 2.532 5.686 2.532C4.529 2.532 3.591 1.594 3.591 0.436996C3.591 0.286996 3.608 0.141 3.638 0H0V5.615C0.207 5.546 0.424999 5.5 0.654999 5.5C1.812 5.5 2.75 6.43799 2.75 7.59499C2.75 8.75199 1.812 9.68999 0.654999 9.68999C0.424999 9.68999 0.207 9.644 0 9.575V13.141C0.207 13.073 0.424999 13.026 0.654999 13.026C1.812 13.026 2.75 13.964 2.75 15.121C2.75 16.278 1.812 17.216 0.654999 17.216C0.424999 17.216 0.207 17.17 0 17.101V20.667C0.207 20.599 0.424999 20.552 0.654999 20.552C1.812 20.552 2.75 21.49 2.75 22.647C2.75 23.804 1.812 24.742 0.654999 24.742C0.424999 24.742 0.207 24.696 0 24.627V28.193C0.207 28.125 0.424999 28.078 0.654999 28.078C1.812 28.078 2.75 29.016 2.75 30.173C2.75 31.33 1.812 32.268 0.654999 32.268C0.424999 32.268 0.207 32.222 0 32.153V35.719C0.207 35.65 0.424999 35.604 0.654999 35.604C1.812 35.604 2.75 36.542 2.75 37.699C2.75 38.856 1.812 39.794 0.654999 39.794C0.424999 39.794 0.207 39.748 0 39.679V43.245C0.207 43.177 0.424999 43.13 0.654999 43.13C1.812 43.13 2.75 44.068 2.75 45.225C2.75 46.382 1.812 47.32 0.654999 47.32C0.424999 47.32 0.207 47.274 0 47.205V50.771C0.207 50.703 0.424999 50.656 0.654999 50.656C1.812 50.656 2.75 51.594 2.75 52.751C2.75 53.908 1.812 54.846 0.654999 54.846C0.424999 54.846 0.207 54.8 0 54.731V58.297C0.207 58.228 0.424999 58.182 0.654999 58.182C1.812 58.182 2.75 59.12 2.75 60.277C2.75 61.434 1.812 62.372 0.654999 62.372C0.424999 62.372 0.207 62.326 0 62.257V65.823C0.207 65.755 0.424999 65.708 0.654999 65.708C1.812 65.708 2.75 66.646 2.75 67.803C2.75 68.96 1.812 69.898 0.654999 69.898C0.424999 69.898 0.207 69.852 0 69.783V73.349C0.207 73.281 0.424999 73.234 0.654999 73.234C1.812 73.234 2.75 74.172 2.75 75.329C2.75 76.486 1.812 77.424 0.654999 77.424C0.424999 77.424 0.207 77.378 0 77.309V80.875C0.207 80.806 0.424999 80.76 0.654999 80.76C1.812 80.76 2.75 81.698 2.75 82.855C2.75 84.012 1.812 84.95 0.654999 84.95C0.424999 84.95 0.207 84.904 0 84.835V88.401C0.207 88.332 0.424999 88.286 0.654999 88.286C1.812 88.286 2.75 89.224 2.75 90.381C2.75 91.538 1.812 92.476 0.654999 92.476C0.424999 92.476 0.207 92.43 0 92.361V95.927C0.207 95.859 0.424999 95.812 0.654999 95.812C1.812 95.812 2.75 96.75 2.75 97.907C2.75 99.064 1.812 100.002 0.654999 100.002C0.424999 100.002 0.207 99.956 0 99.887V103.453C0.207 103.385 0.424999 103.338 0.654999 103.338C1.812 103.338 2.75 104.276 2.75 105.433C2.75 106.59 1.812 107.528 0.654999 107.528C0.424999 107.528 0.207 107.482 0 107.413V110.979C0.207 110.91 0.424999 110.864 0.654999 110.864C1.812 110.864 2.75 111.802 2.75 112.959C2.75 114.116 1.812 115.054 0.654999 115.054C0.424999 115.054 0.207 115.008 0 114.939V119.418H3.591C3.591 118.261 4.529 117.323 5.686 117.323C6.843 117.323 7.78101 118.261 7.78101 119.418H10.881C10.881 118.261 11.819 117.323 12.976 117.323C14.133 117.323 15.071 118.261 15.071 119.418H18.171C18.171 118.261 19.109 117.323 20.266 117.323C21.423 117.323 22.361 118.261 22.361 119.418H25.462C25.462 118.261 26.4 117.323 27.557 117.323C28.714 117.323 29.652 118.261 29.652 119.418H32.752C32.752 118.261 33.69 117.323 34.847 117.323C36.004 117.323 36.942 118.261 36.942 119.418H40.042C40.042 118.261 40.98 117.323 42.137 117.323C43.294 117.323 44.232 118.261 44.232 119.418H47.332C47.332 118.261 48.27 117.323 49.427 117.323C50.584 117.323 51.522 118.261 51.522 119.418H54.622C54.622 118.261 55.56 117.323 56.717 117.323C57.874 117.323 58.812 118.261 58.812 119.418H61.912C61.912 118.261 62.85 117.323 64.007 117.323C65.164 117.323 66.102 118.261 66.102 119.418H69.203C69.203 118.261 70.141 117.323 71.298 117.323C72.455 117.323 73.393 118.261 73.393 119.418H76.493C76.493 118.261 77.431 117.323 78.588 117.323C79.745 117.323 80.683 118.261 80.683 119.418H83.783C83.783 118.261 84.721 117.323 85.878 117.323C87.035 117.323 87.973 118.261 87.973 119.418H91.074C91.074 118.261 92.012 117.323 93.169 117.323C94.326 117.323 95.264 118.261 95.264 119.418H98.364C98.364 118.261 99.302 117.323 100.459 117.323C101.616 117.323 102.554 118.261 102.554 119.418H105.654C105.654 118.261 106.592 117.323 107.749 117.323C108.906 117.323 109.844 118.261 109.844 119.418H112.944C112.944 118.261 113.882 117.323 115.039 117.323C116.196 117.323 117.134 118.261 117.134 119.418H120.234C120.234 118.261 121.172 117.323 122.329 117.323C123.486 117.323 124.424 118.261 124.424 119.418H127.524C127.524 118.261 128.462 117.323 129.619 117.323C130.776 117.323 131.714 118.261 131.714 119.418H134.814C134.814 118.261 135.752 117.323 136.909 117.323C138.066 117.323 139.004 118.261 139.004 119.418H142.105C142.105 118.261 143.043 117.323 144.2 117.323C145.357 117.323 146.295 118.261 146.295 119.418H149.395C149.395 118.261 150.333 117.323 151.49 117.323C152.647 117.323 153.585 118.261 153.585 119.418H156.685C156.685 118.261 157.623 117.323 158.78 117.323C159.937 117.323 160.875 118.261 160.875 119.418H164.466V115.054C163.309 115.054 162.371 114.116 162.371 112.959C162.371 111.802 163.309 110.864 164.466 110.864V107.527C163.309 107.527 162.371 106.589 162.371 105.432C162.371 104.275 163.309 103.337 164.466 103.337V100.001C163.309 100.001 162.371 99.063 162.371 97.906C162.371 96.749 163.309 95.811 164.466 95.811V92.474C163.309 92.474 162.371 91.536 162.371 90.379C162.371 89.222 163.309 88.284 164.466 88.284V84.947C163.309 84.947 162.371 84.009 162.371 82.852C162.371 81.695 163.309 80.757 164.466 80.757V77.42C163.309 77.42 162.371 76.482 162.371 75.325C162.371 74.168 163.309 73.23 164.466 73.23V69.894C163.309 69.894 162.371 68.956 162.371 67.799C162.371 66.642 163.309 65.704 164.466 65.704V62.367C163.309 62.367 162.371 61.429 162.371 60.272C162.371 59.115 163.309 58.177 164.466 58.177V54.84C163.309 54.84 162.371 53.902 162.371 52.745C162.371 51.588 163.309 50.65 164.466 50.65V47.313C163.309 47.313 162.371 46.375 162.371 45.218C162.371 44.061 163.309 43.123 164.466 43.123V39.786C163.309 39.786 162.371 38.848 162.371 37.691C162.371 36.534 163.309 35.596 164.466 35.596V32.26C163.309 32.26 162.371 31.322 162.371 30.165C162.371 29.008 163.309 28.07 164.466 28.07V24.734C163.309 24.734 162.371 23.796 162.371 22.639C162.371 21.482 163.309 20.544 164.466 20.544V17.208C163.309 17.208 162.371 16.27 162.371 15.113C162.371 13.956 163.309 13.018 164.466 13.018V9.681C163.309 9.681 162.371 8.743 162.371 7.586C162.387 6.439 163.326 5.5 164.483 5.5Z" fill="white"/>
</mask>
<g mask="url(#mask0_134_9)">
<path d="M146.161 103.694C145.201 105.988 144.368 108.363 143.672 110.815C143.117 112.769 142.662 114.727 142.303 116.684" stroke="#333333" stroke-miterlimit="10"/>
<path d="M257.934 179.603C287.162 150.376 287.162 102.989 257.934 73.7616C228.707 44.5343 181.32 44.5343 152.093 73.7616C122.865 102.989 122.865 150.376 152.093 179.603C181.32 208.83 228.707 208.83 257.934 179.603Z" stroke="#333333" stroke-miterlimit="10"/>
<path d="M238.84 160.509C257.522 141.827 257.522 111.538 238.84 92.8561C220.158 74.1744 189.869 74.1744 171.188 92.8561C152.506 111.538 152.506 141.827 171.188 160.509C189.869 179.19 220.158 179.19 238.84 160.509Z" stroke="#333333" stroke-miterlimit="10"/>
</g>
</svg>
