<svg width="100%" height="100%" viewBox="0 0 131 165" preserveAspectRatio="xMidYMid meet" fill="none" xmlns="http://www.w3.org/2000/svg">
<path d="M130.034 3.591V0H125.67C125.67 1.157 124.732 2.095 123.575 2.095C122.418 2.095 121.48 1.157 121.48 0H118.143C118.143 1.157 117.205 2.095 116.048 2.095C114.891 2.095 113.953 1.157 113.953 0H110.616C110.616 1.157 109.678 2.095 108.521 2.095C107.364 2.095 106.426 1.157 106.426 0H103.09C103.09 1.157 102.152 2.095 100.995 2.095C99.8385 2.095 98.9005 1.157 98.9005 0H95.5635C95.5635 1.157 94.6255 2.095 93.4685 2.095C92.3115 2.095 91.3735 1.157 91.3735 0H88.0365C88.0365 1.157 87.0985 2.095 85.9415 2.095C84.7845 2.095 83.8465 1.157 83.8465 0H80.5105C80.5105 1.157 79.5725 2.095 78.4155 2.095C77.2585 2.095 76.3205 1.157 76.3205 0H72.9835C72.9835 1.157 72.0455 2.095 70.8885 2.095C69.7315 2.095 68.7935 1.157 68.7935 0H65.4565C65.4565 1.157 64.5185 2.095 63.3615 2.095C62.2045 2.095 61.2665 1.157 61.2665 0H57.9295C57.9295 1.157 56.9915 2.095 55.8345 2.095C54.6775 2.095 53.7395 1.157 53.7395 0H50.4035C50.4035 1.157 49.4655 2.095 48.3085 2.095C47.1515 2.095 46.2135 1.157 46.2135 0H42.8765C42.8765 1.157 41.9385 2.095 40.7815 2.095C39.6245 2.095 38.6865 1.157 38.6865 0H35.3495C35.3495 1.157 34.4115 2.095 33.2545 2.095C32.0975 2.095 31.1595 1.157 31.1595 0H27.8225C27.8225 1.157 26.8845 2.095 25.7275 2.095C24.5705 2.095 23.6325 1.157 23.6325 0H20.2955C20.2955 1.157 19.3575 2.095 18.2005 2.095C17.0435 2.095 16.1055 1.157 16.1055 0H10.6055V3.638C10.7465 3.608 10.8925 3.591 11.0425 3.591C12.1995 3.591 13.1375 4.529 13.1375 5.686C13.1375 6.843 12.1995 7.781 11.0425 7.781C10.8925 7.781 10.7465 7.764 10.6055 7.734V10.929C10.7465 10.899 10.8925 10.882 11.0425 10.882C12.1995 10.882 13.1375 11.82 13.1375 12.977C13.1375 14.134 12.1995 15.072 11.0425 15.072C10.8925 15.072 10.7465 15.055 10.6055 15.025V18.22C10.7465 18.19 10.8925 18.173 11.0425 18.173C12.1995 18.173 13.1375 19.111 13.1375 20.268C13.1375 21.425 12.1995 22.363 11.0425 22.363C10.8925 22.363 10.7465 22.346 10.6055 22.316V25.511C10.7465 25.481 10.8925 25.464 11.0425 25.464C12.1995 25.464 13.1375 26.402 13.1375 27.559C13.1375 28.716 12.1995 29.654 11.0425 29.654C10.8925 29.654 10.7465 29.637 10.6055 29.607V32.802C10.7465 32.772 10.8925 32.755 11.0425 32.755C12.1995 32.755 13.1375 33.693 13.1375 34.85C13.1375 36.007 12.1995 36.945 11.0425 36.945C10.8925 36.945 10.7465 36.928 10.6055 36.898V40.093C10.7465 40.063 10.8925 40.046 11.0425 40.046C12.1995 40.046 13.1375 40.984 13.1375 42.141C13.1375 43.298 12.1995 44.236 11.0425 44.236C10.8925 44.236 10.7465 44.219 10.6055 44.189V47.384C10.7465 47.354 10.8925 47.337 11.0425 47.337C12.1995 47.337 13.1375 48.275 13.1375 49.432C13.1375 50.589 12.1995 51.527 11.0425 51.527C10.8925 51.527 10.7465 51.51 10.6055 51.48V54.675C10.7465 54.645 10.8925 54.628 11.0425 54.628C12.1995 54.628 13.1375 55.566 13.1375 56.723C13.1375 57.88 12.1995 58.818 11.0425 58.818C10.8925 58.818 10.7465 58.801 10.6055 58.771V61.966C10.7465 61.936 10.8925 61.919 11.0425 61.919C12.1995 61.919 13.1375 62.857 13.1375 64.014C13.1375 65.171 12.1995 66.109 11.0425 66.109C10.8925 66.109 10.7465 66.092 10.6055 66.062V69.257C10.7465 69.227 10.8925 69.21 11.0425 69.21C12.1995 69.21 13.1375 70.148 13.1375 71.305C13.1375 72.462 12.1995 73.4 11.0425 73.4C10.8925 73.4 10.7465 73.383 10.6055 73.353V76.548C10.7465 76.518 10.8925 76.501 11.0425 76.501C12.1995 76.501 13.1375 77.439 13.1375 78.596C13.1375 79.753 12.1995 80.691 11.0425 80.691C10.8925 80.691 10.7465 80.674 10.6055 80.644V83.839C10.7465 83.809 10.8925 83.792 11.0425 83.792C12.1995 83.792 13.1375 84.73 13.1375 85.887C13.1375 87.044 12.1995 87.982 11.0425 87.982C10.8925 87.982 10.7465 87.965 10.6055 87.935V91.13C10.7465 91.1 10.8925 91.083 11.0425 91.083C12.1995 91.083 13.1375 92.021 13.1375 93.178C13.1375 94.335 12.1995 95.273 11.0425 95.273C10.8925 95.273 10.7465 95.256 10.6055 95.226V98.421C10.7465 98.391 10.8925 98.374 11.0425 98.374C12.1995 98.374 13.1375 99.312 13.1375 100.469C13.1375 101.626 12.1995 102.564 11.0425 102.564C10.8925 102.564 10.7465 102.547 10.6055 102.517V105.712C10.7465 105.682 10.8925 105.665 11.0425 105.665C12.1995 105.665 13.1375 106.603 13.1375 107.76C13.1375 108.917 12.1995 109.855 11.0425 109.855C10.8925 109.855 10.7465 109.838 10.6055 109.808V113.003C10.7465 112.973 10.8925 112.956 11.0425 112.956C12.1995 112.956 13.1375 113.894 13.1375 115.051C13.1375 116.208 12.1995 117.146 11.0425 117.146C10.8925 117.146 10.7465 117.129 10.6055 117.099V120.294C10.7465 120.264 10.8925 120.247 11.0425 120.247C12.1995 120.247 13.1375 121.185 13.1375 122.342C13.1375 123.499 12.1995 124.437 11.0425 124.437C10.8925 124.437 10.7465 124.42 10.6055 124.39V127.585C10.7465 127.555 10.8925 127.538 11.0425 127.538C12.1995 127.538 13.1375 128.476 13.1375 129.633C13.1375 130.79 12.1995 131.728 11.0425 131.728C10.8925 131.728 10.7465 131.711 10.6055 131.681V134.876C10.7465 134.846 10.8925 134.829 11.0425 134.829C12.1995 134.829 13.1375 135.767 13.1375 136.924C13.1375 138.081 12.1995 139.019 11.0425 139.019C10.8925 139.019 10.7465 139.002 10.6055 138.972V142.167C10.7465 142.137 10.8925 142.12 11.0425 142.12C12.1995 142.12 13.1375 143.058 13.1375 144.215C13.1375 145.372 12.1995 146.31 11.0425 146.31C10.8925 146.31 10.7465 146.293 10.6055 146.263V149.458C10.7465 149.428 10.8925 149.411 11.0425 149.411C12.1995 149.411 13.1375 150.349 13.1375 151.506C13.1375 152.663 12.1995 153.601 11.0425 153.601C10.8925 153.601 10.7465 153.584 10.6055 153.554V156.749C10.7465 156.719 10.8925 156.702 11.0425 156.702C12.1995 156.702 13.1375 157.64 13.1375 158.797C13.1375 159.954 12.1995 160.892 11.0425 160.892C10.8925 160.892 10.7465 160.875 10.6055 160.845V164.483H16.2205C16.1515 164.276 16.1055 164.058 16.1055 163.828C16.1055 162.671 17.0435 161.733 18.2005 161.733C19.3575 161.733 20.2955 162.671 20.2955 163.828C20.2955 164.058 20.2495 164.276 20.1805 164.483H23.7465C23.6785 164.276 23.6315 164.058 23.6315 163.828C23.6315 162.671 24.5695 161.733 25.7265 161.733C26.8835 161.733 27.8215 162.671 27.8215 163.828C27.8215 164.058 27.7755 164.276 27.7065 164.483H31.2725C31.2035 164.276 31.1575 164.058 31.1575 163.828C31.1575 162.671 32.0955 161.733 33.2525 161.733C34.4095 161.733 35.3475 162.671 35.3475 163.828C35.3475 164.058 35.3015 164.276 35.2325 164.483H38.7985C38.7295 164.276 38.6835 164.058 38.6835 163.828C38.6835 162.671 39.6215 161.733 40.7785 161.733C41.9355 161.733 42.8735 162.671 42.8735 163.828C42.8735 164.058 42.8275 164.276 42.7585 164.483H46.3245C46.2555 164.276 46.2095 164.058 46.2095 163.828C46.2095 162.671 47.1475 161.733 48.3045 161.733C49.4615 161.733 50.3995 162.671 50.3995 163.828C50.3995 164.058 50.3535 164.276 50.2845 164.483H53.8505C53.7825 164.276 53.7355 164.058 53.7355 163.828C53.7355 162.671 54.6735 161.733 55.8305 161.733C56.9875 161.733 57.9255 162.671 57.9255 163.828C57.9255 164.058 57.8795 164.276 57.8105 164.483H61.3765C61.3075 164.276 61.2615 164.058 61.2615 163.828C61.2615 162.671 62.1995 161.733 63.3565 161.733C64.5135 161.733 65.4515 162.671 65.4515 163.828C65.4515 164.058 65.4055 164.276 65.3365 164.483H68.9025C68.8335 164.276 68.7875 164.058 68.7875 163.828C68.7875 162.671 69.7255 161.733 70.8825 161.733C72.0395 161.733 72.9775 162.671 72.9775 163.828C72.9775 164.058 72.9315 164.276 72.8625 164.483H76.4285C76.3605 164.276 76.3135 164.058 76.3135 163.828C76.3135 162.671 77.2515 161.733 78.4085 161.733C79.5655 161.733 80.5035 162.671 80.5035 163.828C80.5035 164.058 80.4575 164.276 80.3885 164.483H83.9545C83.8855 164.276 83.8395 164.058 83.8395 163.828C83.8395 162.671 84.7775 161.733 85.9345 161.733C87.0915 161.733 88.0295 162.671 88.0295 163.828C88.0295 164.058 87.9835 164.276 87.9145 164.483H91.4805C91.4115 164.276 91.3655 164.058 91.3655 163.828C91.3655 162.671 92.3035 161.733 93.4605 161.733C94.6175 161.733 95.5555 162.671 95.5555 163.828C95.5555 164.058 95.5095 164.276 95.4405 164.483H99.0065C98.9385 164.276 98.8915 164.058 98.8915 163.828C98.8915 162.671 99.8295 161.733 100.986 161.733C102.143 161.733 103.081 162.671 103.081 163.828C103.081 164.058 103.035 164.276 102.966 164.483H106.532C106.464 164.276 106.417 164.058 106.417 163.828C106.417 162.671 107.355 161.733 108.512 161.733C109.669 161.733 110.607 162.671 110.607 163.828C110.607 164.058 110.561 164.276 110.492 164.483H114.058C113.989 164.276 113.943 164.058 113.943 163.828C113.943 162.671 114.881 161.733 116.038 161.733C117.195 161.733 118.133 162.671 118.133 163.828C118.133 164.058 118.087 164.276 118.018 164.483H121.584C121.516 164.276 121.469 164.058 121.469 163.828C121.469 162.671 122.407 161.733 123.564 161.733C124.721 161.733 125.659 162.671 125.659 163.828C125.659 164.058 125.613 164.276 125.544 164.483H130.023V160.892C128.866 160.892 127.928 159.954 127.928 158.797C127.928 157.64 128.866 156.702 130.023 156.702V153.602C128.866 153.602 127.928 152.664 127.928 151.507C127.928 150.35 128.866 149.412 130.023 149.412V146.312C128.866 146.312 127.928 145.374 127.928 144.217C127.928 143.06 128.866 142.122 130.023 142.122V139.022C128.866 139.022 127.928 138.084 127.928 136.927C127.928 135.77 128.866 134.832 130.023 134.832V131.732C128.866 131.732 127.928 130.794 127.928 129.637C127.928 128.48 128.866 127.542 130.023 127.542V124.442C128.866 124.442 127.928 123.504 127.928 122.347C127.928 121.19 128.866 120.252 130.023 120.252V117.151C128.866 117.151 127.928 116.213 127.928 115.056C127.928 113.899 128.866 112.961 130.023 112.961V109.861C128.866 109.861 127.928 108.923 127.928 107.766C127.928 106.609 128.866 105.671 130.023 105.671V102.571C128.866 102.571 127.928 101.633 127.928 100.476C127.928 99.319 128.866 98.381 130.023 98.381V95.281C128.866 95.281 127.928 94.343 127.928 93.186C127.928 92.029 128.866 91.091 130.023 91.091V87.991C128.866 87.991 127.928 87.053 127.928 85.896C127.928 84.739 128.866 83.801 130.023 83.801V80.701C128.866 80.701 127.928 79.763 127.928 78.606C127.928 77.449 128.866 76.511 130.023 76.511V73.411C128.866 73.411 127.928 72.473 127.928 71.316C127.928 70.159 128.866 69.221 130.023 69.221V66.12C128.866 66.12 127.928 65.182 127.928 64.025C127.928 62.868 128.866 61.93 130.023 61.93V58.83C128.866 58.83 127.928 57.892 127.928 56.735C127.928 55.578 128.866 54.64 130.023 54.64V51.54C128.866 51.54 127.928 50.602 127.928 49.445C127.928 48.288 128.866 47.35 130.023 47.35V44.25C128.866 44.25 127.928 43.312 127.928 42.155C127.928 40.998 128.866 40.06 130.023 40.06V36.96C128.866 36.96 127.928 36.022 127.928 34.865C127.928 33.708 128.866 32.77 130.023 32.77V29.67C128.866 29.67 127.928 28.732 127.928 27.575C127.928 26.418 128.866 25.48 130.023 25.48V22.38C128.866 22.38 127.928 21.442 127.928 20.285C127.928 19.128 128.866 18.19 130.023 18.19V15.09C128.866 15.09 127.928 14.152 127.928 12.995C127.928 11.838 128.866 10.9 130.023 10.9V7.8C128.866 7.8 127.928 6.862 127.928 5.705C127.938 4.529 128.877 3.591 130.034 3.591Z" fill="#F5EDD5"/>
<path d="M117.962 10.762H22.6699V153.724H117.962V10.762Z" fill="#F5EDD5"/>
<path d="M117.462 11.262V153.225H23.1699V11.262H117.462ZM118.462 10.262H117.462H23.1699H22.1699V11.262V153.225V154.225H23.1699H117.462H118.462V153.225V11.262V10.262Z" fill="#603E41"/>
<path d="M115.891 151.653L115.891 12.8339L24.7416 12.8339L24.7416 151.653L115.891 151.653Z" fill="#E6C7B9" stroke="#603E41" stroke-width="0.75" stroke-miterlimit="10"/>
<path d="M69.0176 31.4069L69.1846 29.2439C69.1846 29.2439 72.0366 27.3109 79.7826 27.8209C87.5276 28.3299 90.7036 31.1169 90.7036 31.1169L90.4626 34.0199C90.4626 34.0199 87.4226 31.1849 79.7436 30.5879C72.0656 29.9889 69.0176 31.4069 69.0176 31.4069Z" fill="#E6C7B9" stroke="#603E41" stroke-width="0.1759" stroke-miterlimit="10"/>
<path d="M80.1523 29.7989L80.3043 27.9659" stroke="#603E41" stroke-width="0.1759" stroke-miterlimit="10"/>
<path d="M83.6445 30.256L83.7955 28.423" stroke="#603E41" stroke-width="0.1759" stroke-miterlimit="10"/>
<path d="M76.3633 29.653L76.5153 27.819" stroke="#603E41" stroke-width="0.1759" stroke-miterlimit="10"/>
<path d="M86.5547 31.0509L86.7067 29.2169" stroke="#603E41" stroke-width="0.1759" stroke-miterlimit="10"/>
<path d="M73.2285 29.9469L73.3805 28.1129" stroke="#603E41" stroke-width="0.1759" stroke-miterlimit="10"/>
<path d="M88.8594 32.001L89.0114 30.167" stroke="#603E41" stroke-width="0.1759" stroke-miterlimit="10"/>
<path d="M70.7598 30.638L70.9278 28.604" stroke="#603E41" stroke-width="0.1759" stroke-miterlimit="10"/>
<path d="M85.7541 134.452L87.3141 117.915L88.2771 106.289L89.2471 94.5689L90.2181 82.8489L91.1891 71.1289L92.2051 58.8709L93.1731 47.1519C93.1731 47.1519 92.2401 46.3669 89.3121 45.5129L89.6911 45.5439L90.7141 33.1919C90.7141 33.1919 87.8851 30.5439 80.1591 29.9039C72.4351 29.2639 69.2081 31.4109 69.2081 31.4109L68.1891 43.7159C64.9781 44.0709 63.8731 44.7229 63.8731 44.7229L62.9031 56.4429L61.8881 68.7019L60.9621 79.8839L59.9471 92.1429H59.9481L58.9761 103.864L58.9771 103.863L58.0061 115.583L56.2871 134.044L85.7541 134.452Z" fill="#603E41"/>
<path d="M63.1894 103.999C62.7794 103.965 62.3974 104.515 62.3374 105.228L61.6914 113.045C62.1444 112.987 62.6464 112.935 63.2024 112.892L63.8274 105.352C63.8874 104.638 63.6004 104.032 63.1894 103.999Z" stroke="#603E41" stroke-width="0.5862" stroke-miterlimit="10"/>
<path d="M68.7062 103.382C68.0492 103.328 67.4682 103.861 67.4092 104.574L66.7422 112.629L69.1352 112.715L69.7922 104.771C69.8512 104.059 69.3662 103.437 68.7062 103.382Z" stroke="#603E41" stroke-width="0.5862" stroke-miterlimit="10"/>
<path d="M65.5693 103.66C65.0253 103.614 64.5383 104.156 64.4783 104.868L63.8203 112.812L64.0843 112.833C64.6173 112.804 65.1883 112.783 65.8063 112.772L66.4483 105.03C66.5073 104.319 66.1143 103.704 65.5693 103.66Z" stroke="#603E41" stroke-width="0.5862" stroke-miterlimit="10"/>
<path d="M86.6476 115.944L87.2766 108.366C87.3356 107.653 87.2156 107.063 87.0106 107.044C86.8046 107.027 86.5906 107.591 86.5316 108.304L85.9316 115.563C86.2276 115.704 86.4656 115.833 86.6476 115.944Z" stroke="#603E41" stroke-width="0.5862" stroke-miterlimit="10"/>
<path d="M71.9013 103.647C71.2433 103.592 70.6613 104.127 70.6023 104.84L69.9453 112.783L72.3273 112.981L72.9853 105.038C73.0453 104.324 72.5593 103.702 71.9013 103.647Z" stroke="#603E41" stroke-width="0.5862" stroke-miterlimit="10"/>
<path d="M59.8424 104.793C59.6374 104.777 59.4224 105.342 59.3634 106.053L58.7344 113.655C58.9414 113.587 59.1954 113.512 59.5014 113.436L60.1074 106.113C60.1674 105.402 60.0484 104.811 59.8424 104.793Z" stroke="#603E41" stroke-width="0.5862" stroke-miterlimit="10"/>
<path d="M69.2207 116.248C67.8707 116.137 66.6827 117.178 66.5677 118.576L66.4467 120.021C66.4787 120.023 66.5097 120.023 66.5417 120.024C66.7657 120.025 66.9377 120.214 66.9317 120.436C66.9247 120.657 66.7397 120.831 66.5197 120.825C66.4717 120.824 66.4287 120.824 66.3797 120.822L65.3867 132.826L70.2737 133.23L71.2827 121.051C71.1907 121.045 71.0937 121.037 71.0027 121.031C70.9997 121.031 70.9977 121.03 70.9947 121.03C70.7777 121.012 70.6147 120.824 70.6277 120.604C70.6417 120.383 70.8327 120.216 71.0537 120.23C71.1507 120.237 71.2517 120.245 71.3487 120.252L71.4547 118.981C71.5717 117.583 70.5707 116.359 69.2207 116.248Z" stroke="#603E41" stroke-width="0.5862" stroke-miterlimit="10"/>
<path d="M75.7178 116.786C74.3668 116.674 73.1798 117.716 73.0648 119.113L72.9608 120.369C73.0388 120.375 73.1128 120.379 73.1898 120.385H73.1908C73.4118 120.403 73.5738 120.598 73.5578 120.817C73.5388 121.038 73.3458 121.202 73.1258 121.184C73.0468 121.177 72.9718 121.173 72.8948 121.167L71.8848 133.363L76.7738 133.768L77.7748 121.664C77.6708 121.651 77.5648 121.636 77.4608 121.623C77.2408 121.597 77.0848 121.397 77.1118 121.177C77.1388 120.957 77.3608 120.795 77.5588 120.828C77.6538 120.84 77.7478 120.853 77.8428 120.865L77.9528 119.518C78.0678 118.121 77.0668 116.897 75.7178 116.786Z" stroke="#603E41" stroke-width="0.5862" stroke-miterlimit="10"/>
<path d="M86.0605 107.729C86.1185 107.017 85.9495 106.42 85.6805 106.398C85.4115 106.376 85.1455 106.935 85.0865 107.648L84.4785 114.99C84.8385 115.112 85.1525 115.23 85.4295 115.343L86.0605 107.729Z" stroke="#603E41" stroke-width="0.5862" stroke-miterlimit="10"/>
<path d="M81.1502 117.638C80.1562 117.556 79.2572 118.594 79.1452 119.96L79.0572 121.024C79.1202 121.032 79.1832 121.039 79.2472 121.049C79.4662 121.079 79.6202 121.282 79.5892 121.5C79.5592 121.713 79.3702 121.863 79.1592 121.845C79.1512 121.844 79.1442 121.844 79.1362 121.844C79.0872 121.837 79.0392 121.831 78.9892 121.824L77.9922 133.871L81.5932 134.169L82.5682 122.389C82.4912 122.376 82.4132 122.36 82.3352 122.346C82.1162 122.308 81.9712 122.099 82.0102 121.882C82.0482 121.664 82.2582 121.523 82.4742 121.557C82.5282 121.567 82.5822 121.577 82.6342 121.586L82.7452 120.259C82.8582 118.893 82.1442 117.719 81.1502 117.638Z" stroke="#603E41" stroke-width="0.5862" stroke-miterlimit="10"/>
<path d="M61.2612 104.375C60.9932 104.353 60.7263 104.912 60.6673 105.625L60.0312 113.317C60.3262 113.254 60.6553 113.194 61.0273 113.136L61.6422 105.705C61.7002 104.994 61.5312 104.398 61.2612 104.375Z" stroke="#603E41" stroke-width="0.5862" stroke-miterlimit="10"/>
<path d="M60.8131 93.0739C60.6081 93.0569 60.3941 93.6209 60.3351 94.3339L59.7051 101.936C59.9131 101.868 60.1671 101.793 60.4721 101.718L61.0791 94.3959C61.1371 93.6819 61.0201 93.0899 60.8131 93.0739Z" stroke="#603E41" stroke-width="0.5862" stroke-miterlimit="10"/>
<path d="M66.541 91.9399C65.997 91.8949 65.509 92.4359 65.449 93.1499L64.791 101.092L65.055 101.114C65.588 101.085 66.159 101.063 66.778 101.053L67.418 93.3119C67.479 92.5989 67.085 91.9849 66.541 91.9399Z" stroke="#603E41" stroke-width="0.5862" stroke-miterlimit="10"/>
<path d="M64.1611 92.2779C63.7501 92.2439 63.3671 92.7949 63.3101 93.5079L62.6621 101.326C63.1151 101.267 63.6191 101.216 64.1751 101.173L64.7991 93.6309C64.8571 92.9189 64.5721 92.3119 64.1611 92.2779Z" stroke="#603E41" stroke-width="0.5862" stroke-miterlimit="10"/>
<path d="M69.6779 91.662C69.0209 91.608 68.4399 92.141 68.3809 92.855L67.7129 100.909L70.1059 100.995L70.7639 93.052C70.8219 92.34 70.3369 91.717 69.6779 91.662Z" stroke="#603E41" stroke-width="0.5862" stroke-miterlimit="10"/>
<path d="M87.6194 104.224L88.2454 96.6459C88.3054 95.9329 88.1864 95.3419 87.9804 95.3239C87.7754 95.3079 87.5604 95.8709 87.5014 96.5839L86.9004 103.843C87.1984 103.982 87.4354 104.112 87.6194 104.224Z" stroke="#603E41" stroke-width="0.5862" stroke-miterlimit="10"/>
<path d="M72.872 91.9269C72.214 91.8729 71.632 92.4069 71.574 93.1189L70.916 101.063L73.299 101.26L73.957 93.3169C74.016 92.6039 73.53 91.9809 72.872 91.9269Z" stroke="#603E41" stroke-width="0.5862" stroke-miterlimit="10"/>
<path d="M75.6261 113.253L76.2841 105.31C76.3431 104.598 75.8571 103.975 75.1991 103.921C74.5421 103.867 73.9611 104.401 73.9011 105.112L73.2441 113.056L75.6261 113.253Z" stroke="#603E41" stroke-width="0.5862" stroke-miterlimit="10"/>
<path d="M82.4263 106.355C82.4853 105.642 82.0913 105.027 81.5473 104.983C81.0033 104.937 80.5133 105.478 80.4543 106.191L79.8184 113.867C80.5354 113.993 81.1833 114.122 81.7713 114.254L82.4263 106.355Z" stroke="#603E41" stroke-width="0.5862" stroke-miterlimit="10"/>
<path d="M79.584 105.583C79.643 104.869 79.159 104.248 78.5 104.195C77.843 104.14 77.261 104.674 77.201 105.386L76.543 113.329L78.916 113.638L79.584 105.583Z" stroke="#603E41" stroke-width="0.5862" stroke-miterlimit="10"/>
<path d="M63.7537 116.198C62.7597 116.116 61.8617 117.154 61.7477 118.519L61.6287 119.974C61.6707 119.974 61.7087 119.973 61.7517 119.974C61.9747 119.976 62.1547 120.15 62.1557 120.372C62.1567 120.593 61.9787 120.774 61.7567 120.776C61.6897 120.777 61.6267 120.777 61.5607 120.778L60.5957 132.43L64.1977 132.728L65.1857 120.796C65.1567 120.795 65.1267 120.795 65.0967 120.793C65.0887 120.793 65.0797 120.792 65.0707 120.792C64.8617 120.775 64.6997 120.597 64.7027 120.387C64.7067 120.164 64.8897 119.988 65.1107 119.992C65.1567 119.993 65.2057 119.993 65.2507 119.995L65.3487 118.816C65.4637 117.452 64.7487 116.279 63.7537 116.198Z" stroke="#603E41" stroke-width="0.5862" stroke-miterlimit="10"/>
<path d="M62.232 92.6549C61.964 92.6329 61.698 93.1919 61.637 93.9049L61 101.597C61.295 101.535 61.624 101.474 61.996 101.416L62.611 93.9859C62.67 93.2729 62.502 92.6779 62.232 92.6549Z" stroke="#603E41" stroke-width="0.5862" stroke-miterlimit="10"/>
<path d="M87.0312 96.0079C87.0902 95.2949 86.9192 94.6989 86.6512 94.6769C86.3822 94.6549 86.1152 95.2149 86.0572 95.9279L85.4492 103.269C85.8102 103.392 86.1232 103.51 86.4002 103.623L87.0312 96.0079Z" stroke="#603E41" stroke-width="0.5862" stroke-miterlimit="10"/>
<path d="M84.4781 107.061C84.5371 106.348 84.2511 105.742 83.8401 105.709C83.4281 105.674 83.0471 106.225 82.9881 106.938L82.3711 114.393C82.9171 114.525 83.4031 114.657 83.8381 114.787L84.4781 107.061Z" stroke="#603E41" stroke-width="0.5862" stroke-miterlimit="10"/>
<path d="M70.1692 32.5029C69.1942 32.7229 69.3792 33.9679 69.3792 33.9679L71.5112 33.4879C71.5112 33.4879 71.1452 32.2829 70.1692 32.5029Z" stroke="#603E41" stroke-width="0.5862" stroke-miterlimit="10"/>
<path d="M74.481 33.0609C74.481 33.0609 74.223 31.6549 73.094 31.7769C71.965 31.8979 72.014 33.3269 72.014 33.3269L74.481 33.0609Z" stroke="#603E41" stroke-width="0.5862" stroke-miterlimit="10"/>
<path d="M59.7214 116.803C59.1004 116.751 58.5094 117.752 58.4034 119.038L58.3204 120.045L58.3814 120.043C58.6024 120.04 58.7894 120.208 58.7954 120.431C58.8034 120.651 58.6314 120.838 58.4094 120.844L58.2534 120.85L57.3164 132.158L59.5684 132.344L60.5254 120.79C60.4884 120.79 60.4524 120.791 60.4154 120.792C60.4024 120.792 60.3884 120.792 60.3754 120.79C60.1724 120.773 60.0124 120.605 60.0084 120.397C60.0034 120.175 60.1804 119.993 60.4014 119.99C60.4634 119.988 60.5274 119.988 60.5914 119.987L60.6534 119.224C60.7614 117.938 60.3434 116.853 59.7214 116.803Z" stroke="#603E41" stroke-width="0.5862" stroke-miterlimit="10"/>
<path d="M71.9784 35.7359C71.0344 35.6569 70.1764 36.7219 70.0624 38.1119L69.6934 42.5619C70.6814 42.4919 71.8254 42.4509 73.1424 42.4559L73.4784 38.3949C73.5934 37.0049 72.9224 35.8149 71.9784 35.7359Z" stroke="#603E41" stroke-width="0.5862" stroke-miterlimit="10"/>
<path d="M76.3806 31.5089C75.2456 31.5089 75.1406 32.9349 75.1406 32.9349L77.6226 32.9339C77.6226 32.9339 77.5156 31.5089 76.3806 31.5089Z" stroke="#603E41" stroke-width="0.5862" stroke-miterlimit="10"/>
<path d="M91.5013 57.3439L92.1283 49.7649C92.1873 49.0529 92.0683 48.4609 91.8643 48.4429C91.6583 48.4259 91.4423 48.9899 91.3833 49.7029L90.7812 56.9619C91.0802 57.1019 91.3183 57.2319 91.5013 57.3439Z" stroke="#603E41" stroke-width="0.5862" stroke-miterlimit="10"/>
<path d="M86.9327 36.975C85.9897 36.897 85.1317 37.961 85.0177 39.351L84.6797 43.416C85.9807 43.63 87.1027 43.859 88.0657 44.091L88.4347 39.634C88.5487 38.244 87.8777 37.053 86.9327 36.975Z" stroke="#603E41" stroke-width="0.5862" stroke-miterlimit="10"/>
<path d="M86.3446 32.8729C85.2516 32.5679 84.7656 33.9119 84.7656 33.9119L87.1546 34.5799C87.1546 34.5799 87.4386 33.1789 86.3446 32.8729Z" stroke="#603E41" stroke-width="0.5862" stroke-miterlimit="10"/>
<path d="M83.1475 32.069C82.0265 31.882 81.6895 33.271 81.6895 33.271L84.1365 33.6799C84.1365 33.6799 84.2665 32.256 83.1475 32.069Z" stroke="#603E41" stroke-width="0.5862" stroke-miterlimit="10"/>
<path d="M76.5918 42.5639C77.3248 42.6049 78.0938 42.6559 78.9078 42.7239C79.7208 42.7919 80.4878 42.867 81.2188 42.947L81.6298 37.9719C81.7438 36.5809 80.8038 35.3679 79.5258 35.2619C78.2488 35.1559 77.1188 36.1979 77.0028 37.5879L76.5918 42.5639Z" stroke="#603E41" stroke-width="0.5862" stroke-miterlimit="10"/>
<path d="M79.8266 31.6109C78.6946 31.5169 78.4727 32.9289 78.4727 32.9289L80.9456 33.1339C80.9456 33.1339 80.9576 31.7039 79.8266 31.6109Z" stroke="#603E41" stroke-width="0.5862" stroke-miterlimit="10"/>
<path d="M90.912 49.1279C90.972 48.4149 90.801 47.8189 90.532 47.7969C90.263 47.7749 89.998 48.3349 89.938 49.0469L89.332 56.3889C89.692 56.5109 90.006 56.6289 90.282 56.7419L90.912 49.1279Z" stroke="#603E41" stroke-width="0.5862" stroke-miterlimit="10"/>
<path d="M70.4248 45.0589C69.8808 45.0139 69.3908 45.5549 69.3318 46.2679L68.6738 54.2109L68.9388 54.2329C69.4708 54.2049 70.0428 54.1839 70.6598 54.1729L71.3018 46.4319C71.3618 45.7189 70.9678 45.1029 70.4248 45.0589Z" stroke="#603E41" stroke-width="0.5862" stroke-miterlimit="10"/>
<path d="M68.042 45.3979C67.63 45.3629 67.25 45.9139 67.191 46.6269L66.543 54.4439C66.997 54.3859 67.499 54.3339 68.056 54.2909L68.681 46.7499C68.74 46.0379 68.454 45.4319 68.042 45.3979Z" stroke="#603E41" stroke-width="0.5862" stroke-miterlimit="10"/>
<path d="M74.6438 46.1709C74.7028 45.4589 74.2178 44.8358 73.5588 44.7818C72.9018 44.7278 72.3208 45.2608 72.2608 45.9738L71.5938 54.0288L73.9858 54.1149L74.6438 46.1709Z" stroke="#603E41" stroke-width="0.5862" stroke-miterlimit="10"/>
<path d="M85.674 123.005C85.458 122.958 85.321 122.744 85.369 122.528C85.418 122.312 85.63 122.173 85.848 122.223L85.887 122.231L85.963 121.322C86.069 120.035 85.652 118.949 85.03 118.898C84.409 118.848 83.818 119.848 83.712 121.135L83.658 121.773C83.71 121.783 83.759 121.792 83.81 121.802C84.027 121.843 84.17 122.054 84.127 122.271C84.088 122.475 83.902 122.613 83.701 122.595C83.686 122.594 83.672 122.593 83.657 122.59C83.635 122.585 83.613 122.581 83.591 122.577L82.625 134.255L84.877 134.441L85.82 123.039L85.674 123.005Z" stroke="#603E41" stroke-width="0.5862" stroke-miterlimit="10"/>
<path d="M66.1148 45.7739C65.8468 45.7519 65.5808 46.3119 65.5208 47.0239L64.8828 54.7159C65.1788 54.6549 65.5078 54.5939 65.8788 54.5359L66.4938 47.1049C66.5538 46.3919 66.3848 45.7969 66.1148 45.7739Z" stroke="#603E41" stroke-width="0.5862" stroke-miterlimit="10"/>
<path d="M84.4365 46.9819C84.4935 46.2689 84.0095 45.6469 83.3525 45.5919C82.6945 45.5389 82.1115 46.0709 82.0535 46.7849L81.3945 54.7279L83.7665 55.0369L84.4365 46.9819Z" stroke="#603E41" stroke-width="0.5862" stroke-miterlimit="10"/>
<path d="M87.2789 47.7539C87.3379 47.0409 86.9439 46.4269 86.4019 46.3819C85.8569 46.3359 85.3669 46.8779 85.3079 47.5909L84.6719 55.2659C85.3889 55.3909 86.0359 55.5209 86.6239 55.6509L87.2789 47.7539Z" stroke="#603E41" stroke-width="0.5862" stroke-miterlimit="10"/>
<path d="M64.6949 46.1929C64.4909 46.1759 64.2769 46.7399 64.2169 47.4529L63.5879 55.0559C63.7959 54.9869 64.0489 54.9119 64.3549 54.8369L64.9609 47.5149C65.0199 46.8019 64.9019 46.2099 64.6949 46.1929Z" stroke="#603E41" stroke-width="0.5862" stroke-miterlimit="10"/>
<path d="M89.3306 48.46C89.3896 47.748 89.1046 47.141 88.6926 47.107C88.2806 47.073 87.8996 47.624 87.8416 48.337L87.2246 55.79C87.7706 55.923 88.2576 56.056 88.6906 56.186L89.3306 48.46Z" stroke="#603E41" stroke-width="0.5862" stroke-miterlimit="10"/>
<path d="M77.8398 46.4349C77.8978 45.7229 77.4118 45.0999 76.7548 45.0459C76.0978 44.9909 75.5158 45.5249 75.4578 46.2379L74.7988 54.1809L77.1828 54.3779L77.8398 46.4349Z" stroke="#603E41" stroke-width="0.5862" stroke-miterlimit="10"/>
<path d="M81.1387 46.7089C81.1977 45.9969 80.7107 45.3739 80.0547 45.3189C79.3967 45.2649 78.8157 45.7989 78.7557 46.5109L78.0977 54.4539L80.4797 54.6519L81.1387 46.7089Z" stroke="#603E41" stroke-width="0.5862" stroke-miterlimit="10"/>
<path d="M89.11 34.072C88.184 33.695 87.625 34.823 87.625 34.823L89.65 35.647C89.65 35.647 90.037 34.449 89.11 34.072Z" stroke="#603E41" stroke-width="0.5862" stroke-miterlimit="10"/>
<path d="M82.4961 70.4229C82.5551 69.7099 82.0691 69.0879 81.4121 69.0329C80.7541 68.9789 80.1731 69.5119 80.1131 70.2259L79.4551 78.1689L81.8291 78.4769L82.4961 70.4229Z" stroke="#603E41" stroke-width="0.5862" stroke-miterlimit="10"/>
<path d="M65.1441 57.4939C64.8761 57.4719 64.6101 58.0319 64.5511 58.7449L63.9141 66.4359C64.2081 66.3749 64.5371 66.3129 64.9091 66.2559L65.5251 58.8239C65.5831 58.1129 65.4131 57.5169 65.1441 57.4939Z" stroke="#603E41" stroke-width="0.5862" stroke-miterlimit="10"/>
<path d="M87.3882 71.9009C87.4472 71.1879 87.1622 70.5829 86.7512 70.5479C86.3402 70.5139 85.9592 71.0639 85.9012 71.7779L85.2832 79.2309C85.8292 79.3629 86.3152 79.4959 86.7492 79.6259L87.3882 71.9009Z" stroke="#603E41" stroke-width="0.5862" stroke-miterlimit="10"/>
<path d="M78.5382 78.0929L79.1962 70.1499C79.2542 69.4369 78.7692 68.8159 78.1122 68.7599C77.4552 68.7049 76.8742 69.2389 76.8142 69.9529L76.1562 77.8959L78.5382 78.0929Z" stroke="#603E41" stroke-width="0.5862" stroke-miterlimit="10"/>
<path d="M88.9716 72.5679C89.0306 71.8549 88.8596 71.259 88.5916 71.237C88.3226 71.215 88.0566 71.775 87.9976 72.487L87.3906 79.828C87.7506 79.95 88.0646 80.0679 88.3396 80.1819L88.9716 72.5679Z" stroke="#603E41" stroke-width="0.5862" stroke-miterlimit="10"/>
<path d="M63.7242 57.9129C63.5192 57.8959 63.3042 58.4599 63.2442 59.1729L62.6152 66.7748C62.8232 66.7068 63.0772 66.6318 63.3832 66.5568L63.9902 59.2349C64.0492 58.5229 63.9312 57.9309 63.7242 57.9129Z" stroke="#603E41" stroke-width="0.5862" stroke-miterlimit="10"/>
<path d="M85.3384 71.1939C85.3974 70.4809 85.0034 69.867 84.4604 69.822C83.9174 69.777 83.4274 70.318 83.3684 71.031L82.7324 78.7059C83.4484 78.8309 84.0964 78.9609 84.6844 79.0919L85.3384 71.1939Z" stroke="#603E41" stroke-width="0.5862" stroke-miterlimit="10"/>
<path d="M68.4825 68.499C67.9385 68.454 67.4475 68.995 67.3885 69.708L66.7305 77.652L66.9945 77.674C67.5275 77.645 68.0985 77.624 68.7175 77.613L69.3575 69.872C69.4185 69.159 69.0265 68.544 68.4825 68.499Z" stroke="#603E41" stroke-width="0.5862" stroke-miterlimit="10"/>
<path d="M66.1006 68.8379C65.6906 68.8039 65.3086 69.3549 65.2496 70.0669L64.6016 77.8839C65.0556 77.8259 65.5576 77.7739 66.1136 77.7299L66.7376 70.1889C66.7976 69.4779 66.5116 68.8719 66.1006 68.8379Z" stroke="#603E41" stroke-width="0.5862" stroke-miterlimit="10"/>
<path d="M74.8134 68.4869C74.1554 68.4319 73.5734 68.9659 73.5144 69.6789L72.8574 77.6229L75.2394 77.8199L75.8984 69.8769C75.9584 69.1629 75.4714 68.5409 74.8134 68.4869Z" stroke="#603E41" stroke-width="0.5862" stroke-miterlimit="10"/>
<path d="M71.6183 68.2219C70.9613 68.1669 70.3803 68.7009 70.3203 69.4139L69.6543 77.4689L72.0453 77.5549L72.7033 69.6109C72.7623 68.8989 72.2773 68.2769 71.6183 68.2219Z" stroke="#603E41" stroke-width="0.5862" stroke-miterlimit="10"/>
<path d="M89.5618 80.783L90.1897 73.2049C90.2487 72.4919 90.1298 71.9009 89.9258 71.8829C89.7188 71.8659 89.5047 72.4299 89.4447 73.1419L88.8438 80.4009C89.1407 80.5429 89.3778 80.672 89.5618 80.783Z" stroke="#603E41" stroke-width="0.5862" stroke-miterlimit="10"/>
<path d="M90.8955 60.163C90.6895 60.146 90.4735 60.711 90.4145 61.422L89.8145 68.682C90.1125 68.822 90.3475 68.951 90.5315 69.063L91.1595 61.484C91.2185 60.773 91.0995 60.18 90.8955 60.163Z" stroke="#603E41" stroke-width="0.5862" stroke-miterlimit="10"/>
<path d="M85.4292 58.102C84.8862 58.057 84.3962 58.598 84.3372 59.311L83.7012 66.987C84.4182 67.112 85.0642 67.241 85.6542 67.373L86.3072 59.475C86.3662 58.761 85.9732 58.147 85.4292 58.102Z" stroke="#603E41" stroke-width="0.5862" stroke-miterlimit="10"/>
<path d="M89.5614 59.516C89.2924 59.495 89.0274 60.054 88.9684 60.766L88.3594 68.108C88.7204 68.23 89.0344 68.348 89.3104 68.463L89.9414 60.847C90.0014 60.135 89.8294 59.539 89.5614 59.516Z" stroke="#603E41" stroke-width="0.5862" stroke-miterlimit="10"/>
<path d="M87.7229 58.8289C87.3109 58.7949 86.9299 59.3449 86.8719 60.0579L86.2539 67.5119C86.8009 67.6439 87.2859 67.7759 87.7199 67.9069L88.3589 60.1799C88.4189 59.4679 88.1329 58.8619 87.7229 58.8289Z" stroke="#603E41" stroke-width="0.5862" stroke-miterlimit="10"/>
<path d="M64.1734 69.2149C63.9044 69.1929 63.6384 69.7519 63.5794 70.4649L62.9414 78.1569C63.2374 78.0949 63.5654 78.0349 63.9374 77.9759L64.5524 70.5459C64.6124 69.8329 64.4434 69.2369 64.1734 69.2149Z" stroke="#603E41" stroke-width="0.5862" stroke-miterlimit="10"/>
<path d="M67.0713 57.118C66.6603 57.084 66.2793 57.634 66.2203 58.347L65.5723 66.1629C66.0253 66.1059 66.5283 66.0529 67.0843 66.0099L67.7083 58.47C67.7683 57.758 67.4823 57.152 67.0713 57.118Z" stroke="#603E41" stroke-width="0.5862" stroke-miterlimit="10"/>
<path d="M72.591 56.5019C71.934 56.4479 71.352 56.9819 71.292 57.6949L70.625 65.7489L73.017 65.8349L73.675 57.8919C73.733 57.1789 73.249 56.5569 72.591 56.5019Z" stroke="#603E41" stroke-width="0.5862" stroke-miterlimit="10"/>
<path d="M69.4531 56.7779C68.9091 56.7329 68.4201 57.2749 68.3611 57.9879L67.7031 65.9309L67.9681 65.9529C68.5001 65.9239 69.0721 65.9029 69.6911 65.8919L70.3321 58.1499C70.3901 57.4389 69.9971 56.8239 69.4531 56.7779Z" stroke="#603E41" stroke-width="0.5862" stroke-miterlimit="10"/>
<path d="M75.7851 56.7669C75.1271 56.7129 74.5461 57.246 74.4861 57.959L73.8301 65.9019L76.2121 66.099L76.8691 58.156C76.9281 57.444 76.4421 56.8209 75.7851 56.7669Z" stroke="#603E41" stroke-width="0.5862" stroke-miterlimit="10"/>
<path d="M82.3818 57.3128C81.7238 57.2588 81.1428 57.7918 81.0838 58.5048L80.4258 66.4478L82.7988 66.7558L83.4658 58.7018C83.5238 57.9888 83.0388 57.3668 82.3818 57.3128Z" stroke="#603E41" stroke-width="0.5862" stroke-miterlimit="10"/>
<path d="M79.082 57.0399C78.425 56.9859 77.843 57.5189 77.785 58.2319L77.127 66.1749L79.5099 66.3729L80.166 58.4299C80.226 57.7159 79.741 57.0939 79.082 57.0399Z" stroke="#603E41" stroke-width="0.5862" stroke-miterlimit="10"/>
<path d="M73.8447 80.2069C73.1867 80.1529 72.6047 80.6869 72.5457 81.3989L71.8887 89.3419L74.2707 89.5399L74.9287 81.5969C74.9857 80.8839 74.5017 80.2609 73.8447 80.2069Z" stroke="#603E41" stroke-width="0.5862" stroke-miterlimit="10"/>
<path d="M88.5901 92.5039L89.2171 84.9249C89.2761 84.2119 89.1581 83.6199 88.9521 83.6039C88.7471 83.5869 88.5311 84.1509 88.4731 84.8629L87.8711 92.1229C88.1701 92.2619 88.4071 92.3909 88.5901 92.5039Z" stroke="#603E41" stroke-width="0.5862" stroke-miterlimit="10"/>
<path d="M63.2027 80.935C62.9337 80.913 62.6677 81.473 62.6087 82.186L61.9727 89.877C62.2677 89.815 62.5966 89.755 62.9686 89.696L63.5847 82.265C63.6417 81.553 63.4717 80.957 63.2027 80.935Z" stroke="#603E41" stroke-width="0.5862" stroke-miterlimit="10"/>
<path d="M84.3667 82.9139C84.4267 82.2009 84.0327 81.5869 83.4887 81.5419C82.9447 81.4969 82.4557 82.0389 82.3977 82.7519L81.7617 90.4269C82.4767 90.5529 83.1257 90.6819 83.7137 90.8129L84.3667 82.9139Z" stroke="#603E41" stroke-width="0.5862" stroke-miterlimit="10"/>
<path d="M88.0009 84.2889C88.0609 83.5759 87.8899 82.9789 87.6229 82.9569C87.3529 82.9349 87.0869 83.4949 87.0289 84.2079L86.4199 91.5489C86.7809 91.6709 87.0949 91.7899 87.3709 91.9029L88.0009 84.2889Z" stroke="#603E41" stroke-width="0.5862" stroke-miterlimit="10"/>
<path d="M61.7848 81.3539C61.5788 81.3369 61.3638 81.9019 61.3058 82.6139L60.6758 90.2159C60.8838 90.1469 61.1378 90.0729 61.4438 89.9969L62.0498 82.6749C62.1088 81.9629 61.9898 81.3719 61.7848 81.3539Z" stroke="#603E41" stroke-width="0.5862" stroke-miterlimit="10"/>
<path d="M65.1298 80.5579C64.7198 80.5249 64.3388 81.0749 64.2798 81.7869L63.6328 89.6049C64.0858 89.5459 64.5888 89.4949 65.1438 89.4519L65.7688 81.9109C65.8278 81.1979 65.5418 80.5929 65.1298 80.5579Z" stroke="#603E41" stroke-width="0.5862" stroke-miterlimit="10"/>
<path d="M85.4488 95.34C85.5078 94.628 85.2218 94.0209 84.8108 93.9879C84.3988 93.9539 84.0178 94.5039 83.9588 95.2169L83.3418 102.671C83.8888 102.802 84.3748 102.934 84.8078 103.065L85.4488 95.34Z" stroke="#603E41" stroke-width="0.5862" stroke-miterlimit="10"/>
<path d="M67.5097 80.2189C66.9667 80.1739 66.4777 80.7149 66.4197 81.4279L65.7617 89.3709L66.0267 89.3929C66.5587 89.3629 67.1307 89.3429 67.7497 89.3319L68.3897 81.5899C68.4487 80.8789 68.0557 80.2649 67.5097 80.2189Z" stroke="#603E41" stroke-width="0.5862" stroke-miterlimit="10"/>
<path d="M70.6486 79.943C69.9916 79.889 69.4096 80.423 69.3496 81.135L68.6836 89.189L71.0756 89.275L71.7326 81.332C71.7916 80.619 71.3066 79.997 70.6486 79.943Z" stroke="#603E41" stroke-width="0.5862" stroke-miterlimit="10"/>
<path d="M86.4195 83.621C86.4775 82.908 86.1925 82.303 85.7815 82.269C85.3695 82.235 84.9895 82.785 84.9305 83.498L84.3125 90.952C84.8595 91.083 85.3455 91.216 85.7795 91.347L86.4195 83.621Z" stroke="#603E41" stroke-width="0.5862" stroke-miterlimit="10"/>
<path d="M81.5254 82.1429C81.5844 81.4299 81.0984 80.8079 80.4404 80.7539C79.7834 80.6989 79.2024 81.2319 79.1424 81.9459L78.4844 89.8889L80.8574 90.1959L81.5254 82.1429Z" stroke="#603E41" stroke-width="0.5862" stroke-miterlimit="10"/>
<path d="M76.5959 101.533L77.2549 93.5899C77.3129 92.8769 76.8279 92.2549 76.1709 92.1999C75.5119 92.1459 74.9308 92.6799 74.8718 93.3929L74.2148 101.336L76.5959 101.533Z" stroke="#603E41" stroke-width="0.5862" stroke-miterlimit="10"/>
<path d="M62.7535 69.6339C62.5485 69.6169 62.3345 70.1809 62.2755 70.8939L61.6465 78.4969C61.8535 78.4289 62.1075 78.3539 62.4135 78.2779L63.0205 70.9559C63.0785 70.2429 62.9595 69.6509 62.7535 69.6339Z" stroke="#603E41" stroke-width="0.5862" stroke-miterlimit="10"/>
<path d="M83.398 94.6349C83.457 93.9219 83.063 93.3079 82.52 93.2629C81.975 93.2179 81.486 93.7589 81.427 94.4709L80.791 102.147C81.508 102.272 82.155 102.401 82.744 102.533L83.398 94.6349Z" stroke="#603E41" stroke-width="0.5862" stroke-miterlimit="10"/>
<path d="M80.5546 93.8629C80.6136 93.1509 80.1296 92.5279 79.4706 92.4729C78.8126 92.4189 78.2316 92.9529 78.1736 93.6639L77.5156 101.608L79.8876 101.916L80.5546 93.8629Z" stroke="#603E41" stroke-width="0.5862" stroke-miterlimit="10"/>
<path d="M77.5676 89.8128L78.2255 81.8698C78.2845 81.1568 77.7985 80.5338 77.1405 80.4798C76.4835 80.4258 75.9025 80.9588 75.8425 81.6718L75.1855 89.6149L77.5676 89.8128Z" stroke="#603E41" stroke-width="0.5862" stroke-miterlimit="10"/>
<path d="M58.7845 103.859L57.8125 115.579L57.8205 115.486C57.8205 115.486 61.0645 113.562 72.6515 114.521C84.2215 115.48 87.1125 117.905 87.1205 117.912L88.0835 106.286C88.0815 106.284 85.1965 103.854 73.6145 102.895C62.0735 101.94 58.8105 103.844 58.7845 103.859ZM60.1075 106.114L59.5015 113.437C59.1955 113.513 58.9415 113.588 58.7345 113.656L59.3635 106.054C59.4225 105.342 59.6375 104.777 59.8425 104.794C60.0475 104.811 60.1665 105.402 60.1075 106.114ZM61.6405 105.706L61.0255 113.137C60.6535 113.195 60.3245 113.256 60.0295 113.318L60.6655 105.626C60.7255 104.913 60.9925 104.353 61.2595 104.376C61.5305 104.398 61.6995 104.994 61.6405 105.706ZM63.8265 105.352L63.2015 112.892C62.6455 112.934 62.1435 112.987 61.6905 113.045L62.3365 105.228C62.3965 104.515 62.7775 103.965 63.1885 103.999C63.5995 104.032 63.8865 104.638 63.8265 105.352ZM65.8065 112.773C65.1875 112.784 64.6165 112.805 64.0845 112.834L63.8205 112.813L64.4785 104.869C64.5385 104.157 65.0255 103.615 65.5695 103.661C66.1145 103.705 66.5075 104.32 66.4485 105.033L65.8065 112.773ZM69.1345 112.716L66.7415 112.63L67.4085 104.575C67.4675 103.862 68.0485 103.328 68.7055 103.383C69.3645 103.438 69.8505 104.06 69.7915 104.773L69.1345 112.716ZM72.3275 112.98L69.9455 112.782L70.6025 104.839C70.6615 104.126 71.2435 103.591 71.9015 103.646C72.5595 103.701 73.0455 104.323 72.9855 105.036L72.3275 112.98ZM87.0105 107.044C87.2155 107.062 87.3355 107.653 87.2765 108.366L86.6475 115.944C86.4655 115.833 86.2285 115.704 85.9315 115.563L86.5315 108.304C86.5905 107.591 86.8045 107.027 87.0105 107.044ZM85.0855 107.648C85.1445 106.935 85.4105 106.375 85.6795 106.398C85.9485 106.42 86.1175 107.017 86.0595 107.729L85.4285 115.343C85.1525 115.23 84.8385 115.112 84.4775 114.99L85.0855 107.648ZM82.9885 106.938C83.0475 106.225 83.4285 105.674 83.8405 105.709C84.2515 105.742 84.5375 106.348 84.4785 107.061L83.8385 114.787C83.4035 114.657 82.9175 114.525 82.3715 114.393L82.9885 106.938ZM80.4545 106.191C80.5135 105.479 81.0035 104.937 81.5475 104.983C82.0915 105.027 82.4845 105.641 82.4265 106.355L81.7725 114.253C81.1845 114.121 80.5365 113.992 79.8195 113.866L80.4545 106.191ZM77.1995 105.385C77.2595 104.673 77.8405 104.138 78.4985 104.194C79.1565 104.248 79.6415 104.868 79.5825 105.582L78.9155 113.637L76.5425 113.328L77.1995 105.385ZM75.1995 103.92C75.8575 103.974 76.3435 104.597 76.2845 105.309L75.6265 113.252L73.2455 113.055L73.9025 105.111C73.9615 104.4 74.5425 103.866 75.1995 103.92Z" fill="#E6C7B9" stroke="#603E41" stroke-width="0.1759" stroke-miterlimit="10"/>
<path d="M73.6602 102.357C62.0722 101.398 58.8302 103.321 58.8302 103.321L58.7852 103.859C58.8112 103.844 62.0731 101.94 73.6161 102.896C85.1972 103.855 88.0822 106.285 88.0852 106.287L88.1302 105.749C88.1302 105.749 85.2462 103.316 73.6602 102.357Z" fill="#E6C7B9" stroke="#603E41" stroke-width="0.1759" stroke-miterlimit="10"/>
<path d="M59.7561 92.1389L58.7852 103.86L58.7861 103.859L58.8311 103.321C58.8311 103.321 62.0731 101.398 73.6611 102.357C85.2471 103.316 88.1302 105.748 88.1302 105.748L88.0852 106.286L89.0552 94.5659C89.0532 94.5639 86.1682 92.1349 74.5862 91.1759C63.0182 90.2169 59.7671 92.1319 59.7561 92.1389ZM61.0782 94.3949L60.4712 101.717C60.1662 101.793 59.9121 101.867 59.7041 101.935L60.3342 94.3329C60.3932 93.6199 60.6071 93.0569 60.8121 93.0729C61.0191 93.0899 61.1362 93.6819 61.0782 94.3949ZM62.6122 93.9859L61.9971 101.416C61.6251 101.474 61.2972 101.535 61.0012 101.597L61.6382 93.9049C61.6982 93.1919 61.9642 92.6329 62.2332 92.6549C62.5022 92.6779 62.6702 93.2729 62.6122 93.9859ZM64.7982 93.6309L64.1741 101.173C63.6181 101.216 63.1141 101.267 62.6611 101.326L63.3092 93.5079C63.3662 92.7949 63.7482 92.2439 64.1602 92.2779C64.5712 92.3119 64.8562 92.9189 64.7982 93.6309ZM66.7792 101.053C66.1602 101.063 65.5892 101.086 65.0562 101.114L64.7922 101.092L65.4501 93.1499C65.5091 92.4359 65.9972 91.8949 66.5422 91.9399C67.0872 91.9859 67.4802 92.5999 67.4202 93.3119L66.7792 101.053ZM70.1051 100.995L67.7122 100.909L68.3802 92.8549C68.4392 92.1409 69.0202 91.6079 69.6772 91.6619C70.3352 91.7169 70.8212 92.3399 70.7632 93.0519L70.1051 100.995ZM73.2991 101.26L70.9162 101.063L71.5742 93.1189C71.6322 92.4069 72.2141 91.8729 72.8721 91.9269C73.5291 91.9809 74.0162 92.6029 73.9572 93.3159L73.2991 101.26ZM87.9812 95.3239C88.1872 95.3419 88.3062 95.9329 88.2462 96.6459L87.6201 104.224C87.4361 104.112 87.1992 103.982 86.9012 103.843L87.5022 96.5839C87.5612 95.8709 87.7762 95.3079 87.9812 95.3239ZM86.0572 95.9279C86.1152 95.2149 86.3822 94.6559 86.6512 94.6769C86.9182 94.6999 87.0902 95.2949 87.0312 96.0079L86.4001 103.623C86.1231 103.509 85.8112 103.391 85.4492 103.269L86.0572 95.9279ZM83.9592 95.2179C84.0182 94.5049 84.3992 93.9549 84.8112 93.9889C85.2222 94.0219 85.5082 94.6279 85.4492 95.3409L84.8092 103.066C84.3752 102.935 83.8892 102.803 83.3432 102.672L83.9592 95.2179ZM81.4261 94.4709C81.4851 93.7589 81.9741 93.2169 82.5191 93.2629C83.0621 93.3079 83.4552 93.9219 83.3972 94.6349L82.7431 102.534C82.1541 102.402 81.5072 102.273 80.7902 102.148L81.4261 94.4709ZM78.1721 93.6649C78.2311 92.9529 78.8121 92.4189 79.4691 92.4739C80.1281 92.5289 80.6121 93.1509 80.5531 93.8639L79.8862 101.918L77.5142 101.61L78.1721 93.6649ZM76.1721 92.1999C76.8291 92.2549 77.3141 92.8769 77.2561 93.5899L76.5972 101.533L74.2162 101.336L74.8732 93.3929C74.9322 92.6799 75.5131 92.1459 76.1721 92.1999Z" fill="#E6C7B9" stroke="#603E41" stroke-width="0.1759" stroke-miterlimit="10"/>
<path d="M74.6309 90.6369C63.0439 89.6779 59.8009 91.6009 59.8009 91.6009L59.7559 92.1389C59.7669 92.1319 63.0189 90.2169 74.5859 91.1759C86.1689 92.1349 89.0529 94.5639 89.0549 94.5659L89.0999 94.0269C89.0999 94.0269 86.2189 91.5959 74.6309 90.6369Z" fill="#E6C7B9" stroke="#603E41" stroke-width="0.1759" stroke-miterlimit="10"/>
<path d="M91.9673 59.406C91.9673 59.406 89.0843 56.9739 77.4973 56.0149C65.9103 55.0559 62.6663 56.979 62.6663 56.979L62.7103 56.4409L61.6953 68.6999L61.6963 68.699L61.7413 68.1609C61.7413 68.1609 64.9843 66.238 76.5713 67.197C88.1573 68.157 91.0403 70.5879 91.0403 70.5879L90.9963 71.1259L92.0123 58.867L91.9673 59.406ZM63.9893 59.235L63.3823 66.5569C63.0763 66.6329 62.8223 66.7069 62.6143 66.7749L63.2433 59.173C63.3023 58.46 63.5183 57.8959 63.7233 57.9129C63.9303 57.9309 64.0483 58.523 63.9893 59.235ZM65.5223 58.8249L64.9063 66.257C64.5353 66.314 64.2063 66.3759 63.9113 66.4369L64.5483 58.746C64.6073 58.033 64.8733 57.4729 65.1413 57.4949C65.4123 57.5169 65.5823 58.1129 65.5223 58.8249ZM67.7093 58.4709L67.0853 66.011C66.5283 66.054 66.0263 66.107 65.5733 66.164L66.2213 58.3479C66.2803 57.6349 66.6613 57.085 67.0723 57.119C67.4823 57.152 67.7683 57.7579 67.7093 58.4709ZM69.6903 65.893C69.0723 65.903 68.4993 65.9239 67.9673 65.9539L67.7023 65.9319L68.3603 57.9889C68.4183 57.2759 68.9083 56.7339 69.4523 56.7789C69.9963 56.8239 70.3903 57.439 70.3313 58.151L69.6903 65.893ZM73.0153 65.8349L70.6233 65.7489L71.2903 57.6949C71.3503 56.9819 71.9323 56.4489 72.5893 56.5019C73.2473 56.5569 73.7323 57.1789 73.6733 57.8919L73.0153 65.8349ZM76.2103 66.0989L73.8283 65.9019L74.4843 57.9589C74.5443 57.2459 75.1253 56.7129 75.7833 56.7669C76.4413 56.8209 76.9263 57.4439 76.8673 58.1569L76.2103 66.0989ZM79.5093 66.373L77.1263 66.175L77.7843 58.2319C77.8433 57.5189 78.4243 56.9859 79.0813 57.0399C79.7403 57.0939 80.2253 57.716 80.1653 58.429L79.5093 66.373ZM82.7973 66.7559L80.4243 66.4479L81.0823 58.505C81.1413 57.793 81.7223 57.259 82.3803 57.313C83.0373 57.367 83.5233 57.989 83.4633 58.703L82.7973 66.7559ZM85.6543 67.373C85.0643 67.241 84.4183 67.1119 83.7013 66.9869L84.3373 59.311C84.3963 58.598 84.8863 58.057 85.4293 58.102C85.9733 58.147 86.3663 58.762 86.3073 59.475L85.6543 67.373ZM88.3583 60.1799L87.7193 67.9069C87.2853 67.7759 86.7993 67.6429 86.2533 67.5119L86.8713 60.0579C86.9293 59.3449 87.3103 58.7949 87.7223 58.8289C88.1323 58.8619 88.4183 59.4679 88.3583 60.1799ZM88.3603 68.1089L88.9693 60.7669C89.0273 60.0549 89.2923 59.4959 89.5623 59.5169C89.8303 59.5399 90.0013 60.1349 89.9433 60.8479L89.3123 68.464C89.0353 68.348 88.7203 68.2309 88.3603 68.1089ZM91.1583 61.485L90.5303 69.0639C90.3463 68.9509 90.1113 68.8229 89.8133 68.6829L90.4133 61.423C90.4733 60.711 90.6883 60.146 90.8943 60.164C91.0983 60.18 91.2173 60.773 91.1583 61.485Z" fill="#E6C7B9" stroke="#603E41" stroke-width="0.1759" stroke-miterlimit="10"/>
<path d="M60.7259 80.4199L60.7709 79.8809L59.7559 92.1399H59.7569L59.8019 91.6019C59.8019 91.6019 63.0449 89.6789 74.6319 90.6379C86.2199 91.5969 89.1009 94.0279 89.1009 94.0279L89.0559 94.5669L90.0259 82.8469C90.0219 82.8439 87.1349 80.4149 75.5559 79.4569C63.9699 78.4959 60.7259 80.4199 60.7259 80.4199ZM62.0489 82.6759L61.4429 89.9979C61.1369 90.0739 60.8829 90.1479 60.6749 90.2169L61.3049 82.6149C61.3629 81.9029 61.5789 81.3379 61.7839 81.3549C61.9889 81.3719 62.1079 81.9629 62.0489 82.6759ZM63.5829 82.2659L62.9669 89.6969C62.5949 89.7559 62.2659 89.8159 61.9709 89.8779L62.6069 82.1869C62.6659 81.4739 62.9329 80.9139 63.2009 80.9359C63.4719 80.9569 63.6419 81.5529 63.5829 82.2659ZM65.7689 81.9109L65.1439 89.4519C64.5889 89.4949 64.0859 89.5469 63.6329 89.6049L64.2799 81.7869C64.3389 81.0749 64.7199 80.5249 65.1299 80.5579C65.5419 80.5929 65.8279 81.1979 65.7689 81.9109ZM67.7489 89.3329C67.1299 89.3439 66.5579 89.3649 66.0259 89.3939L65.7609 89.3719L66.4189 81.4289C66.4779 80.7159 66.9669 80.1739 67.5089 80.2199C68.0539 80.2649 68.4469 80.8799 68.3879 81.5919L67.7489 89.3329ZM71.0749 89.2749L68.6829 89.1889L69.3489 81.1349C69.4079 80.4229 69.9909 79.8889 70.6479 79.9429C71.3059 79.9969 71.7909 80.6199 71.7329 81.3319L71.0749 89.2749ZM74.2689 89.5399L71.8869 89.3419L72.5439 81.3989C72.6029 80.6869 73.1849 80.1529 73.8429 80.2069C74.4999 80.2619 74.9849 80.8839 74.9269 81.5969L74.2689 89.5399ZM88.9519 83.6039C89.1579 83.6199 89.2759 84.2119 89.2169 84.9249L88.5899 92.5039C88.4069 92.3909 88.1689 92.2619 87.8709 92.1229L88.4729 84.8629C88.5309 84.1509 88.7469 83.5869 88.9519 83.6039ZM87.0279 84.2079C87.0859 83.4949 87.3519 82.9349 87.6219 82.9569C87.8889 82.9789 88.0599 83.5759 87.9999 84.2889L87.3699 91.9029C87.0939 91.7899 86.7799 91.6709 86.4189 91.5489L87.0279 84.2079ZM84.9299 83.4979C84.9899 82.7849 85.3689 82.2349 85.7809 82.2689C86.1919 82.3029 86.4779 82.9079 86.4189 83.6209L85.7779 91.3469C85.3439 91.2159 84.8589 91.0839 84.3109 90.9519L84.9299 83.4979ZM82.3969 82.7519C82.4549 82.0389 82.9439 81.4969 83.4879 81.5419C84.0319 81.5879 84.4259 82.2009 84.3659 82.9139L83.7119 90.8119C83.1239 90.6809 82.4759 90.5529 81.7599 90.4259L82.3969 82.7519ZM79.1419 81.9459C79.2019 81.2319 79.7829 80.6989 80.4399 80.7539C81.0979 80.8079 81.5839 81.4299 81.5249 82.1429L80.8579 90.1959L78.4849 89.8889L79.1419 81.9459ZM77.1409 80.4799C77.7989 80.5339 78.2839 81.1569 78.2259 81.8699L77.5679 89.8129L75.1859 89.6159L75.8429 81.6729C75.9029 80.9589 76.4839 80.4259 77.1409 80.4799Z" fill="#E6C7B9" stroke="#603E41" stroke-width="0.1759" stroke-miterlimit="10"/>
<path d="M77.498 56.0149C89.085 56.9749 91.968 59.4059 91.968 59.4059L92.013 58.8659C92.003 58.8569 89.108 56.4339 77.543 55.4759C65.958 54.5169 62.712 56.4399 62.712 56.4399L62.668 56.9779C62.668 56.9779 65.911 55.0559 77.498 56.0149Z" fill="#E6C7B9" stroke="#603E41" stroke-width="0.1759" stroke-miterlimit="10"/>
<path d="M75.6016 78.9159C64.0216 77.9579 60.7746 79.8779 60.7696 79.8799L60.7246 80.4189C60.7246 80.4189 63.9686 78.4949 75.5556 79.4549C87.1346 80.4129 90.0216 82.8419 90.0256 82.8449L90.0706 82.3059C90.0706 82.3059 87.1886 79.8759 75.6016 78.9159Z" fill="#E6C7B9" stroke="#603E41" stroke-width="0.1759" stroke-miterlimit="10"/>
<path d="M57.8225 115.486L57.8145 115.579C57.8145 115.579 61.0585 113.656 72.6455 114.615C84.2325 115.575 87.1145 118.005 87.1145 118.005L87.1225 117.912C87.1145 117.905 84.2225 115.48 72.6535 114.521C61.0655 113.562 57.8225 115.486 57.8225 115.486Z" fill="#EFDEC3" stroke="#603E41" stroke-width="0.1759" stroke-miterlimit="10"/>
<path d="M72.6452 114.615C61.0582 113.656 57.8141 115.579 57.8141 115.579L56.2852 134.043L84.8752 134.44L82.6212 134.409L83.5901 122.576C83.6121 122.58 83.6352 122.585 83.6562 122.589C83.6712 122.592 83.6851 122.593 83.7001 122.594C83.9011 122.612 84.0872 122.474 84.1262 122.27C84.1692 122.053 84.0262 121.842 83.8092 121.801C83.7582 121.792 83.7092 121.783 83.6572 121.772L83.7112 121.134C83.8172 119.847 84.4082 118.847 85.0292 118.897C85.6502 118.948 86.0682 120.034 85.9622 121.321L85.8862 122.23L85.8472 122.222C85.6302 122.172 85.4171 122.311 85.3681 122.527C85.3201 122.743 85.4572 122.958 85.6732 123.004L85.8192 123.037L84.8762 134.439L85.7532 134.451L87.1232 117.911L87.1152 118.004C87.1142 118.005 84.2322 115.575 72.6452 114.615ZM60.6532 119.224L60.5912 119.987C60.5272 119.988 60.4632 119.989 60.4012 119.99C60.1792 119.993 60.0031 120.175 60.0081 120.397C60.0111 120.605 60.1722 120.773 60.3752 120.79C60.3882 120.791 60.4022 120.791 60.4152 120.792C60.4512 120.792 60.4881 120.79 60.5251 120.79L59.4792 134.086L57.1602 134.054L58.2542 120.85L58.4102 120.844C58.6322 120.837 58.8042 120.65 58.7962 120.431C58.7902 120.209 58.6032 120.04 58.3822 120.043L58.3212 120.045L58.4042 119.038C58.5112 117.751 59.1012 116.751 59.7222 116.803C60.3432 116.853 60.7612 117.938 60.6532 119.224ZM65.2512 119.995C65.2062 119.993 65.1572 119.992 65.1112 119.992C64.8902 119.988 64.7072 120.164 64.7032 120.387C64.7002 120.597 64.8612 120.775 65.0712 120.792C65.0802 120.793 65.0892 120.793 65.0972 120.793C65.1272 120.794 65.1572 120.794 65.1862 120.796L64.0592 134.152L60.4582 134.102L61.5612 120.778C61.6272 120.777 61.6902 120.777 61.7572 120.776C61.9792 120.773 62.1562 120.593 62.1562 120.372C62.1552 120.15 61.9752 119.976 61.7522 119.974C61.7092 119.974 61.6712 119.974 61.6292 119.974L61.7482 118.519C61.8622 117.154 62.7602 116.116 63.7542 116.198C64.7492 116.279 65.4642 117.452 65.3502 118.816L65.2512 119.995ZM71.3502 120.252C71.2542 120.245 71.1532 120.237 71.0552 120.23C70.8342 120.216 70.6432 120.384 70.6292 120.604C70.6152 120.824 70.7792 121.012 70.9962 121.03C70.9982 121.03 71.0012 121.031 71.0042 121.031C71.0962 121.037 71.1921 121.045 71.2841 121.051L70.2012 134.235L65.2492 134.166L66.3811 120.821C66.4301 120.822 66.4731 120.823 66.5211 120.824C66.7411 120.83 66.9262 120.656 66.9332 120.435C66.9392 120.214 66.7662 120.024 66.5432 120.023C66.5102 120.022 66.4802 120.022 66.4482 120.02L66.5692 118.575C66.6842 117.178 67.8722 116.136 69.2222 116.247C70.5722 116.358 71.5732 117.582 71.4572 118.979L71.3502 120.252ZM77.8412 120.865C77.7452 120.853 77.6512 120.84 77.5572 120.828C77.3592 120.795 77.1372 120.957 77.1102 121.177C77.0832 121.397 77.2392 121.597 77.4592 121.623C77.5632 121.636 77.6691 121.651 77.7731 121.664L76.7442 134.326L71.8062 134.257L72.8932 121.167C72.9702 121.173 73.0452 121.177 73.1242 121.184C73.3442 121.202 73.5372 121.038 73.5562 120.817C73.5732 120.598 73.4101 120.403 73.1891 120.385C73.1131 120.378 73.0372 120.375 72.9592 120.369L73.0632 119.113C73.1782 117.716 74.3662 116.674 75.7162 116.786C77.0652 116.897 78.0661 118.121 77.9501 119.518L77.8412 120.865ZM82.6362 121.583C82.5832 121.574 82.5302 121.564 82.4762 121.554C82.2612 121.52 82.0502 121.661 82.0122 121.879C81.9732 122.096 82.1182 122.306 82.3372 122.343C82.4142 122.357 82.4932 122.373 82.5702 122.386L81.5852 134.38L77.9352 134.342L78.9911 121.822C79.0411 121.829 79.0902 121.835 79.1382 121.842C79.1452 121.842 79.1521 121.843 79.1611 121.843C79.3711 121.861 79.5612 121.711 79.5912 121.498C79.6222 121.28 79.4682 121.077 79.2492 121.047C79.1852 121.037 79.1222 121.03 79.0592 121.022L79.1472 119.958C79.2592 118.592 80.1582 117.554 81.1522 117.636C82.1462 117.718 82.8602 118.891 82.7482 120.255L82.6362 121.583Z" fill="#E6C7B9" stroke="#603E41" stroke-width="0.1759" stroke-miterlimit="10"/>
<path d="M78.5131 43.7569C83.5171 44.1709 86.895 44.8599 89.121 45.5089L89.5001 45.5399L90.5231 33.1879C90.5231 33.1879 87.694 30.5399 79.968 29.8999C72.244 29.2599 69.0171 31.4069 69.0171 31.4069L67.998 43.7129C70.299 43.4579 73.6781 43.3559 78.5131 43.7569ZM88.4351 39.6339L88.0661 44.0909C87.1041 43.8579 85.9821 43.6289 84.6801 43.4159L85.0181 39.3509C85.1331 37.9609 85.9901 36.8969 86.9331 36.9749C87.8791 37.0529 88.5501 38.2439 88.4351 39.6339ZM89.1101 34.0719C90.0361 34.4489 89.649 35.6469 89.649 35.6469L87.6241 34.8229C87.6241 34.8229 88.1851 33.6949 89.1101 34.0719ZM86.345 32.8729C87.438 33.1789 87.1551 34.5799 87.1551 34.5799L84.7661 33.9119C84.7661 33.9119 85.252 32.5679 86.345 32.8729ZM83.1481 32.0689C84.2671 32.2559 84.1371 33.6789 84.1371 33.6789L81.69 33.2699C81.69 33.2699 82.0281 31.8819 83.1481 32.0689ZM79.828 31.6109C80.958 31.7049 80.9471 33.1339 80.9471 33.1339L78.4741 32.9289C78.4741 32.9289 78.696 31.5169 79.828 31.6109ZM79.526 35.2619C80.804 35.3679 81.7441 36.5809 81.6301 37.9719L81.2191 42.9469C80.4881 42.8669 79.7211 42.7919 78.9081 42.7239C78.0941 42.6559 77.3251 42.6049 76.5921 42.5639L77.0031 37.5879C77.1191 36.1979 78.249 35.1559 79.526 35.2619ZM76.3811 31.5089C77.5161 31.5079 77.623 32.9329 77.623 32.9329L75.1411 32.9339C75.1411 32.9339 75.2471 31.5089 76.3811 31.5089ZM73.0961 31.7769C74.2241 31.6549 74.483 33.0609 74.483 33.0609L72.0161 33.3279C72.0161 33.3279 71.9671 31.8979 73.0961 31.7769ZM70.1701 32.5029C71.1461 32.2829 71.5131 33.4889 71.5131 33.4889L69.3811 33.9689C69.3811 33.9689 69.1961 32.7229 70.1701 32.5029ZM73.4801 38.3959L73.1441 42.4569C71.8271 42.4519 70.6821 42.4929 69.6951 42.5629L70.0641 38.1129C70.1781 36.7219 71.0351 35.6579 71.9801 35.7369C72.9241 35.8149 73.5951 37.0049 73.4801 38.3959Z" fill="#E6C7B9" stroke="#603E41" stroke-width="0.1759" stroke-miterlimit="10"/>
<path d="M74.6641 43.5269L75.5411 32.9409" stroke="#603E41" stroke-width="0.1759" stroke-miterlimit="10"/>
<path d="M83.0078 44.4379L83.8848 33.8519" stroke="#603E41" stroke-width="0.1759" stroke-miterlimit="10"/>
<path d="M90.3556 34.6249C90.3556 34.6249 87.5266 31.9769 79.8006 31.3369C72.0766 30.6969 68.8496 32.8439 68.8496 32.8439" stroke="#603E41" stroke-width="0.1759" stroke-miterlimit="10"/>
<path d="M76.5723 67.197C64.9853 66.238 61.7423 68.1609 61.7423 68.1609L61.6973 68.699C61.7143 68.689 64.9703 66.778 76.5273 67.735C88.1113 68.694 90.9953 71.1239 90.9973 71.1259L91.0413 70.5879C91.0413 70.5879 88.1583 68.156 76.5723 67.197Z" fill="#E6C7B9" stroke="#603E41" stroke-width="0.1759" stroke-miterlimit="10"/>
<path d="M78.9069 43.7899C72.0259 43.1219 67.9999 43.7129 67.9999 43.7129C64.7889 44.0679 63.6839 44.7199 63.6839 44.7199L62.7129 56.4399C62.7129 56.4399 65.9589 54.5159 77.5439 55.4759C89.1089 56.4339 92.0039 58.8579 92.0139 58.8659L92.9839 47.1469C92.9839 47.1469 92.0509 46.3619 89.1229 45.5089C89.1229 45.5089 85.7879 44.4579 78.9069 43.7899ZM91.8659 48.4429C92.0699 48.4599 92.1899 49.0519 92.1299 49.7649L91.5029 57.3439C91.3189 57.2319 91.0809 57.1029 90.7829 56.9629L91.3849 49.7039C91.4439 48.9899 91.6599 48.4259 91.8659 48.4429ZM89.9399 49.0469C89.9999 48.3349 90.2649 47.7739 90.5339 47.7969C90.8029 47.8189 90.9739 48.4149 90.9139 49.1279L90.2839 56.7419C90.0079 56.6289 89.6939 56.5109 89.3339 56.3889L89.9399 49.0469ZM87.8429 48.3369C87.9009 47.6239 88.2829 47.0739 88.6939 47.1069C89.1059 47.1409 89.3899 47.7479 89.3319 48.4599L88.6919 56.1859C88.2589 56.0559 87.7719 55.9229 87.2259 55.7899L87.8429 48.3369ZM85.3089 47.5909C85.3679 46.8789 85.8579 46.3359 86.4029 46.3819C86.9449 46.4269 87.3389 47.0409 87.2799 47.7539L86.6259 55.6509C86.0379 55.5199 85.3909 55.3909 84.6739 55.2659L85.3089 47.5909ZM82.0549 46.7849C82.1129 46.0709 82.6959 45.5389 83.3539 45.5919C84.0109 45.6459 84.4949 46.2689 84.4379 46.9819L83.7689 55.0369L81.3969 54.7279L82.0549 46.7849ZM78.7559 46.5119C78.8149 45.7999 79.3959 45.2659 80.0549 45.3199C80.7119 45.3739 81.1979 45.9979 81.1389 46.7099L80.4799 54.6539L78.0979 54.4559L78.7559 46.5119ZM75.4579 46.2389C75.5159 45.5259 76.0979 44.9919 76.7549 45.0469C77.4119 45.1009 77.8989 45.7239 77.8399 46.4359L77.1819 54.3799L74.7979 54.1829L75.4579 46.2389ZM64.9609 47.5149L64.3549 54.8369C64.0489 54.9129 63.7959 54.9879 63.5879 55.0559L64.2169 47.4529C64.2769 46.7399 64.4919 46.1759 64.6949 46.1929C64.9019 46.2099 65.0199 46.8019 64.9609 47.5149ZM66.4939 47.1049L65.8789 54.5359C65.5079 54.5939 65.1799 54.6559 64.8829 54.7159L65.5209 47.0239C65.5809 46.3119 65.8469 45.7519 66.1149 45.7739C66.3849 45.7969 66.5539 46.3919 66.4939 47.1049ZM68.6819 46.7499L68.0569 54.2909C67.4999 54.3339 66.9979 54.3859 66.5439 54.4439L67.1919 46.6269C67.2509 45.9139 67.6309 45.3629 68.0429 45.3979C68.4549 45.4319 68.7409 46.0379 68.6819 46.7499ZM70.6609 54.1719C70.0429 54.1829 69.4719 54.2039 68.9399 54.2319L68.6749 54.2099L69.3329 46.2669C69.3919 45.5539 69.8819 45.0129 70.4259 45.0579C70.9689 45.1029 71.3629 45.7179 71.3039 46.4299L70.6609 54.1719ZM72.2629 45.9739C72.3229 45.2609 72.9029 44.7279 73.5609 44.7819C74.2199 44.8359 74.7049 45.4589 74.6459 46.1709L73.9889 54.1139L71.5969 54.0279L72.2629 45.9739Z" fill="#E6C7B9" stroke="#603E41" stroke-width="0.1759" stroke-miterlimit="10"/>
<path d="M61.6965 68.6989L60.7695 79.8809C60.7735 79.8779 64.0215 77.9589 75.6015 78.9169C87.1885 79.8769 90.0695 82.3069 90.0695 82.3069L90.0245 82.8459L90.9955 71.1249C90.9935 71.1239 88.1095 68.6929 76.5255 67.7339C64.9695 66.7779 61.7135 68.6889 61.6965 68.6989ZM63.0185 70.9549L62.4115 78.2769C62.1055 78.3529 61.8515 78.4279 61.6445 78.4959L62.2735 70.8929C62.3325 70.1799 62.5465 69.6159 62.7515 69.6329C62.9585 69.6509 63.0775 70.2429 63.0185 70.9549ZM64.5515 70.5459L63.9365 77.9759C63.5645 78.0349 63.2365 78.0949 62.9405 78.1569L63.5785 70.4649C63.6375 69.7519 63.9035 69.1929 64.1725 69.2149C64.4425 69.2369 64.6115 69.8329 64.5515 70.5459ZM66.7385 70.1909L66.1145 77.7319C65.5585 77.7759 65.0565 77.8269 64.6025 77.8859L65.2505 70.0689C65.3095 69.3559 65.6905 68.8059 66.1015 68.8399C66.5115 68.8719 66.7975 69.4779 66.7385 70.1909ZM68.7195 77.6129C68.1005 77.6239 67.5285 77.6449 66.9965 77.6739L66.7325 77.6519L67.3905 69.7079C67.4495 68.9949 67.9395 68.4539 68.4845 68.4989C69.0285 68.5439 69.4205 69.1589 69.3615 69.8719L68.7195 77.6129ZM72.0445 77.5549L69.6535 77.4689L70.3195 69.4139C70.3785 68.7009 70.9605 68.1679 71.6175 68.2219C72.2765 68.2759 72.7615 68.8989 72.7025 69.6109L72.0445 77.5549ZM75.2395 77.8199L72.8575 77.6229L73.5145 69.6789C73.5735 68.9659 74.1555 68.4329 74.8135 68.4869C75.4715 68.5409 75.9575 69.1629 75.8985 69.8759L75.2395 77.8199ZM89.9235 71.8839C90.1275 71.9019 90.2465 72.4929 90.1875 73.2059L89.5595 80.7839C89.3755 80.6719 89.1385 80.5429 88.8415 80.4029L89.4425 73.1439C89.5025 72.4309 89.7165 71.8669 89.9235 71.8839ZM87.9975 72.4879C88.0565 71.7759 88.3225 71.2149 88.5915 71.2379C88.8595 71.2599 89.0305 71.8559 88.9715 72.5689L88.3395 80.1839C88.0635 80.0699 87.7505 79.9519 87.3905 79.8299L87.9975 72.4879ZM85.9005 71.7779C85.9585 71.0649 86.3395 70.5139 86.7505 70.5479C87.1615 70.5819 87.4465 71.1879 87.3875 71.9009L86.7485 79.6259C86.3135 79.4969 85.8275 79.3629 85.2825 79.2309L85.9005 71.7779ZM83.3665 71.0309C83.4255 70.3179 83.9155 69.7769 84.4585 69.8219C85.0025 69.8679 85.3955 70.4819 85.3365 71.1939L84.6825 79.0919C84.0945 78.9609 83.4465 78.8309 82.7305 78.7059L83.3665 71.0309ZM80.1115 70.2249C80.1715 69.5119 80.7525 68.9779 81.4105 69.0319C82.0675 69.0869 82.5545 69.7089 82.4945 70.4219L81.8275 78.4759L79.4535 78.1679L80.1115 70.2249ZM78.1115 68.7599C78.7695 68.8149 79.2545 69.4359 79.1955 70.1499L78.5375 78.0929L76.1565 77.8949L76.8145 69.9519C76.8735 69.2389 77.4545 68.7059 78.1115 68.7599Z" fill="#E6C7B9" stroke="#603E41" stroke-width="0.1759" stroke-miterlimit="10"/>
<path d="M92.9904 46.4719C92.9904 46.4719 92.0574 45.6869 89.1294 44.8339C89.1294 44.8339 85.7954 43.7839 78.9144 43.1159C72.0334 42.4479 68.0074 43.0389 68.0074 43.0389C64.7964 43.3939 63.6914 44.0459 63.6914 44.0459" stroke="#603E41" stroke-width="0.1759" stroke-miterlimit="10"/>
<path d="M92.9772 47.5369L93.1972 45.3989C93.1972 45.3989 92.2642 44.6139 89.3362 43.7609C89.3362 43.7609 86.0022 42.7109 79.1212 42.0429C72.2402 41.3749 68.2142 41.9659 68.2142 41.9659C65.0032 42.3209 63.8412 42.9869 63.8412 42.9869L63.6582 45.0269" stroke="#603E41" stroke-width="0.1759" stroke-miterlimit="10"/>
<path d="M28.7997 20.1437V15.572H29.3533V19.6526H31.4784V20.1437H28.7997ZM32.8117 20.1437H32.2313L33.9099 15.572H34.4814L36.1601 20.1437H35.5797L34.2135 16.2952H34.1778L32.8117 20.1437ZM33.026 18.3579H35.3654V18.849H33.026V18.3579ZM38.3901 16.0631V15.572H41.8189V16.0631H40.3813V20.1437H39.8277V16.0631H38.3901ZM46.3404 17.8578C46.3404 18.34 46.2533 18.7567 46.0792 19.1079C45.9051 19.4591 45.6662 19.73 45.3627 19.9204C45.0591 20.1109 44.7123 20.2062 44.3224 20.2062C43.9325 20.2062 43.5858 20.1109 43.2822 19.9204C42.9786 19.73 42.7397 19.4591 42.5656 19.1079C42.3915 18.7567 42.3044 18.34 42.3044 17.8578C42.3044 17.3756 42.3915 16.959 42.5656 16.6077C42.7397 16.2565 42.9786 15.9857 43.2822 15.7952C43.5858 15.6047 43.9325 15.5095 44.3224 15.5095C44.7123 15.5095 45.0591 15.6047 45.3627 15.7952C45.6662 15.9857 45.9051 16.2565 46.0792 16.6077C46.2533 16.959 46.3404 17.3756 46.3404 17.8578ZM45.8046 17.8578C45.8046 17.462 45.7384 17.1279 45.606 16.8555C45.475 16.5832 45.2972 16.3771 45.0725 16.2372C44.8492 16.0973 44.5992 16.0274 44.3224 16.0274C44.0456 16.0274 43.7949 16.0973 43.5701 16.2372C43.3469 16.3771 43.1691 16.5832 43.0366 16.8555C42.9057 17.1279 42.8402 17.462 42.8402 17.8578C42.8402 18.2537 42.9057 18.5878 43.0366 18.8601C43.1691 19.1325 43.3469 19.3386 43.5701 19.4785C43.7949 19.6183 44.0456 19.6883 44.3224 19.6883C44.5992 19.6883 44.8492 19.6183 45.0725 19.4785C45.2972 19.3386 45.475 19.1325 45.606 18.8601C45.7384 18.5878 45.8046 18.2537 45.8046 17.8578ZM47.2713 20.1437V15.572H48.816C49.1732 15.572 49.4663 15.633 49.6955 15.755C49.9247 15.8756 50.0943 16.0415 50.2045 16.2528C50.3146 16.4641 50.3697 16.7045 50.3697 16.9738C50.3697 17.2432 50.3146 17.4821 50.2045 17.6904C50.0943 17.8987 49.9254 18.0624 49.6977 18.1815C49.4701 18.2991 49.1791 18.3579 48.8249 18.3579H47.5748V17.8578H48.8071C49.0511 17.8578 49.2476 17.8221 49.3964 17.7507C49.5467 17.6792 49.6553 17.578 49.7223 17.4471C49.7908 17.3146 49.825 17.1569 49.825 16.9738C49.825 16.7908 49.7908 16.6308 49.7223 16.4939C49.6538 16.357 49.5445 16.2513 49.3942 16.1769C49.2438 16.101 49.0452 16.0631 48.7981 16.0631H47.8249V20.1437H47.2713ZM49.4232 18.09L50.5482 20.1437H49.9053L48.7981 18.09H49.4232ZM51.2921 20.1437V15.572H52.8369C53.1941 15.572 53.4872 15.633 53.7164 15.755C53.9456 15.8756 54.1152 16.0415 54.2254 16.2528C54.3355 16.4641 54.3906 16.7045 54.3906 16.9738C54.3906 17.2432 54.3355 17.4821 54.2254 17.6904C54.1152 17.8987 53.9463 18.0624 53.7186 18.1815C53.4909 18.2991 53.2 18.3579 52.8458 18.3579H51.5957V17.8578H52.828C53.072 17.8578 53.2685 17.8221 53.4173 17.7507C53.5676 17.6792 53.6762 17.578 53.7432 17.4471C53.8116 17.3146 53.8459 17.1569 53.8459 16.9738C53.8459 16.7908 53.8116 16.6308 53.7432 16.4939C53.6747 16.357 53.5654 16.2513 53.415 16.1769C53.2647 16.101 53.0661 16.0631 52.819 16.0631H51.8458V20.1437H51.2921ZM53.4441 18.09L54.5691 20.1437H53.9262L52.819 18.09H53.4441ZM55.313 20.1437V15.572H58.0721V16.0631H55.8667V17.6078H57.9293V18.0989H55.8667V19.6526H58.1079V20.1437H55.313ZM62.2487 20.1437H60.8379V15.572H62.3112C62.7547 15.572 63.1342 15.6635 63.4497 15.8465C63.7652 16.0281 64.007 16.2893 64.1752 16.6301C64.3434 16.9694 64.4274 17.3756 64.4274 17.8489C64.4274 18.3251 64.3426 18.7351 64.173 19.0789C64.0033 19.4212 63.7563 19.6846 63.4318 19.8691C63.1074 20.0522 62.7131 20.1437 62.2487 20.1437ZM61.3915 19.6526H62.213C62.591 19.6526 62.9043 19.5797 63.1528 19.4338C63.4013 19.288 63.5866 19.0804 63.7086 18.811C63.8307 18.5416 63.8917 18.2209 63.8917 17.8489C63.8917 17.4798 63.8314 17.1621 63.7109 16.8957C63.5903 16.6278 63.4103 16.4225 63.1707 16.2796C62.9311 16.1352 62.6327 16.0631 62.2755 16.0631H61.3915V19.6526ZM65.9097 15.572V20.1437H65.3561V15.572H65.9097ZM68.7876 20.1437V15.572H70.3324C70.691 15.572 70.9842 15.6367 71.2119 15.7662C71.4411 15.8942 71.6107 16.0675 71.7209 16.2863C71.831 16.5051 71.886 16.7491 71.886 17.0185C71.886 17.2878 71.831 17.5327 71.7209 17.7529C71.6122 17.9732 71.4441 18.1488 71.2164 18.2797C70.9887 18.4092 70.697 18.4739 70.3413 18.4739H69.2341V17.9828H70.3235C70.569 17.9828 70.7662 17.9404 70.915 17.8556C71.0638 17.7708 71.1717 17.6562 71.2387 17.5118C71.3071 17.366 71.3414 17.2015 71.3414 17.0185C71.3414 16.8354 71.3071 16.6717 71.2387 16.5274C71.1717 16.383 71.0631 16.2699 70.9128 16.1881C70.7625 16.1047 70.5631 16.0631 70.3145 16.0631H69.3413V20.1437H68.7876ZM73.3315 15.572V20.1437H72.7778V15.572H73.3315ZM76.9416 16.7149C76.9148 16.4887 76.8062 16.3131 76.6157 16.1881C76.4252 16.0631 76.1916 16.0006 75.9148 16.0006C75.7124 16.0006 75.5353 16.0333 75.3835 16.0988C75.2332 16.1643 75.1156 16.2543 75.0308 16.3689C74.9474 16.4835 74.9058 16.6137 74.9058 16.7595C74.9058 16.8816 74.9348 16.9865 74.9928 17.0743C75.0524 17.1606 75.1282 17.2328 75.2205 17.2908C75.3128 17.3474 75.4095 17.3943 75.5107 17.4315C75.6119 17.4672 75.7049 17.4962 75.7897 17.5185L76.2541 17.6435C76.3731 17.6748 76.5056 17.7179 76.6514 17.773C76.7987 17.8281 76.9394 17.9032 77.0733 17.9985C77.2087 18.0922 77.3203 18.2128 77.4081 18.3601C77.496 18.5074 77.5399 18.6882 77.5399 18.9025C77.5399 19.1496 77.4751 19.3728 77.3456 19.5722C77.2177 19.7716 77.0301 19.9301 76.7831 20.0477C76.5376 20.1653 76.2392 20.224 75.888 20.224C75.5606 20.224 75.2771 20.1712 75.0375 20.0655C74.7994 19.9599 74.6118 19.8126 74.4749 19.6236C74.3395 19.4346 74.2629 19.215 74.245 18.965H74.8165C74.8314 19.1377 74.8894 19.2805 74.9906 19.3936C75.0933 19.5052 75.2227 19.5886 75.379 19.6436C75.5368 19.6972 75.7064 19.724 75.888 19.724C76.0993 19.724 76.289 19.6898 76.4572 19.6213C76.6254 19.5514 76.7586 19.4546 76.8568 19.3311C76.955 19.2061 77.0041 19.0603 77.0041 18.8936C77.0041 18.7418 76.9617 18.6183 76.8769 18.523C76.792 18.4278 76.6804 18.3504 76.542 18.2909C76.4036 18.2314 76.2541 18.1793 76.0933 18.1346L75.5308 17.9739C75.1736 17.8712 74.8909 17.7246 74.6825 17.5341C74.4742 17.3437 74.37 17.0944 74.37 16.7863C74.37 16.5304 74.4392 16.3071 74.5776 16.1166C74.7175 15.9247 74.905 15.7758 75.1402 15.6702C75.3768 15.563 75.6409 15.5095 75.9326 15.5095C76.2273 15.5095 76.4892 15.5623 76.7184 15.668C76.9476 15.7721 77.1291 15.915 77.2631 16.0966C77.3985 16.2781 77.4699 16.4842 77.4774 16.7149H76.9416ZM78.6376 20.1437H78.0572L79.7359 15.572H80.3073L81.986 20.1437H81.4056L80.0395 16.2952H80.0037L78.6376 20.1437ZM78.8519 18.3579H81.1913V18.849H78.8519V18.3579Z" fill="#603E41"/>
<path d="M115.889 131.223H24.7402V151.653H115.889V131.223Z" fill="#F5EDD5" stroke="#603E41" stroke-width="0.75" stroke-miterlimit="10"/>
<path d="M31.1967 134.639V146.83H29.7204V134.639H31.1967ZM33.49 135.948V134.639H42.6335V135.948H38.7999V146.83H37.3236V135.948H33.49ZM43.9877 146.83H42.44L46.9165 134.639H48.4404L52.9169 146.83H51.3692L47.7261 136.567H47.6308L43.9877 146.83ZM44.5592 142.068H50.7977V143.377H44.5592V142.068ZM54.8158 146.83V134.639H56.2921V145.52H61.9591V146.83H54.8158ZM65.7213 134.639V146.83H64.245V134.639H65.7213ZM69.1813 146.83H67.6336L72.1101 134.639H73.634L78.1105 146.83H76.5628L72.9197 136.567H72.8244L69.1813 146.83ZM69.7528 142.068H75.9913V143.377H69.7528V142.068Z" fill="#603E41"/>
<path d="M88.1719 149.703V141.783H89.1309V148.852H92.8123V149.703H88.1719ZM95.1601 149.778C94.9285 149.778 94.7297 149.695 94.5638 149.529C94.3979 149.363 94.3149 149.164 94.3149 148.933C94.3149 148.701 94.3979 148.502 94.5638 148.336C94.7297 148.171 94.9285 148.088 95.1601 148.088C95.3918 148.088 95.5906 148.171 95.7565 148.336C95.9224 148.502 96.0054 148.701 96.0054 148.933C96.0054 149.086 95.9662 149.227 95.888 149.355C95.8128 149.484 95.7111 149.587 95.5827 149.665C95.4575 149.74 95.3167 149.778 95.1601 149.778ZM100.787 149.834C100.236 149.834 99.7396 149.725 99.2982 149.506C98.8568 149.287 98.503 148.986 98.237 148.604C97.9709 148.222 97.8253 147.787 97.8003 147.299H98.9272C98.971 147.734 99.1683 148.094 99.5189 148.379C99.8726 148.66 100.295 148.801 100.787 148.801C101.181 148.801 101.532 148.709 101.839 148.524C102.148 148.34 102.391 148.086 102.566 147.764C102.745 147.438 102.834 147.07 102.834 146.66C102.834 146.241 102.742 145.867 102.557 145.538C102.375 145.206 102.125 144.945 101.806 144.754C101.486 144.563 101.122 144.466 100.712 144.463C100.417 144.459 100.115 144.505 99.8053 144.599C99.4954 144.69 99.2403 144.807 99.0399 144.951L97.9505 144.819L98.5328 140.086H103.529V141.119H99.5095L99.1714 143.955H99.2277C99.4249 143.799 99.6723 143.669 99.9696 143.566C100.267 143.462 100.577 143.411 100.899 143.411C101.488 143.411 102.012 143.552 102.472 143.833C102.936 144.112 103.299 144.494 103.562 144.979C103.828 145.464 103.961 146.018 103.961 146.641C103.961 147.255 103.823 147.803 103.548 148.285C103.275 148.764 102.9 149.143 102.421 149.421C101.942 149.697 101.397 149.834 100.787 149.834ZM108.963 149.834C108.255 149.834 107.653 149.642 107.155 149.257C106.657 148.869 106.277 148.307 106.014 147.571C105.751 146.832 105.62 145.94 105.62 144.895C105.62 143.855 105.751 142.968 106.014 142.232C106.28 141.493 106.662 140.93 107.16 140.542C107.661 140.15 108.262 139.955 108.963 139.955C109.664 139.955 110.264 140.15 110.761 140.542C111.262 140.93 111.644 141.493 111.907 142.232C112.173 142.968 112.306 143.855 112.306 144.895C112.306 145.94 112.175 146.832 111.912 147.571C111.649 148.307 111.269 148.869 110.771 149.257C110.273 149.642 109.67 149.834 108.963 149.834ZM108.963 148.801C109.664 148.801 110.209 148.463 110.597 147.787C110.985 147.111 111.179 146.147 111.179 144.895C111.179 144.062 111.09 143.353 110.912 142.767C110.736 142.182 110.483 141.736 110.151 141.429C109.822 141.122 109.426 140.969 108.963 140.969C108.268 140.969 107.725 141.312 107.334 141.997C106.942 142.68 106.747 143.646 106.747 144.895C106.747 145.727 106.834 146.435 107.01 147.017C107.185 147.599 107.437 148.042 107.766 148.346C108.097 148.649 108.497 148.801 108.963 148.801Z" fill="#603E41"/>
<path d="M1.76367 26.695C6.98767 28.143 13.3067 29.222 22.0397 29.489C53.9847 30.467 54.3477 18.627 86.2927 19.605C90.8937 19.746 94.8257 20.112 98.2787 20.639" stroke="#333333" stroke-miterlimit="10"/>
<path d="M1.49219 35.5759C6.71619 37.0229 13.0352 38.1029 21.7692 38.3699C53.7142 39.3479 54.0772 27.5079 86.0222 28.4859C90.6242 28.6269 94.5552 28.9929 98.0082 29.5199" stroke="#333333" stroke-miterlimit="10"/>
<path d="M1.2207 44.4559C6.4447 45.9039 12.7637 46.983 21.4967 47.25C53.4417 48.228 53.8047 36.3879 85.7497 37.3659C90.3517 37.5069 94.2827 37.8729 97.7367 38.3999" stroke="#333333" stroke-miterlimit="10"/>
<path d="M0.947266 53.3369C6.17127 54.7849 12.4903 55.8639 21.2233 56.1309C53.1683 57.1089 53.5313 45.2689 85.4763 46.2469C90.0783 46.3879 94.0093 46.7539 97.4623 47.2809" stroke="#333333" stroke-miterlimit="10"/>
<path d="M0.675781 62.218C5.89978 63.665 12.2188 64.745 20.9528 65.012C52.8978 65.99 53.2608 54.15 85.2058 55.128C89.8078 55.269 93.7388 55.635 97.1928 56.162" stroke="#333333" stroke-miterlimit="10"/>
<path d="M0.404297 71.0979C5.6283 72.5459 11.9473 73.6249 20.6803 73.8919C52.6253 74.8699 52.9883 63.0299 84.9333 64.0079C89.5353 64.1489 93.4663 64.5149 96.9193 65.0419" stroke="#333333" stroke-miterlimit="10"/>
<path d="M0.132812 79.979C5.35681 81.426 11.6758 82.506 20.4098 82.773C52.3548 83.751 52.7178 71.911 84.6628 72.889C89.2638 73.03 93.1958 73.396 96.6498 73.923" stroke="#333333" stroke-miterlimit="10"/>
</svg>
