<svg width="100%" height="100%" viewBox="0 0 159 136" preserveAspectRatio="xMidYMid meet" fill="none" xmlns="http://www.w3.org/2000/svg">
<path d="M0.00700378 113.007C0.148004 112.977 0.294 112.96 0.444 112.96C1.601 112.96 2.539 113.898 2.539 115.055C2.539 116.212 1.601 117.15 0.444 117.15C0.294 117.15 0.148004 117.133 0.00700378 117.103V120.298C0.148004 120.268 0.294 120.251 0.444 120.251C1.601 120.251 2.539 121.189 2.539 122.346C2.539 123.503 1.601 124.441 0.444 124.441C0.294 124.441 0.148004 124.424 0.00700378 124.394V127.589C0.148004 127.559 0.294 127.542 0.444 127.542C1.601 127.542 2.539 128.48 2.539 129.637C2.539 130.794 1.601 131.732 0.444 131.732C0.294 131.732 0.148004 131.715 0.00700378 131.685V135.323H5.62199C5.55299 135.116 5.507 134.898 5.507 134.668C5.507 133.511 6.44501 132.573 7.60201 132.573C8.759 132.573 9.69701 133.511 9.69701 134.668C9.69701 134.898 9.651 135.116 9.582 135.323H13.148C13.08 135.116 13.033 134.898 13.033 134.668C13.033 133.511 13.971 132.573 15.128 132.573C16.285 132.573 17.223 133.511 17.223 134.668C17.223 134.898 17.177 135.116 17.108 135.323H20.674C20.605 135.116 20.559 134.898 20.559 134.668C20.559 133.511 21.497 132.573 22.654 132.573C23.811 132.573 24.749 133.511 24.749 134.668C24.749 134.898 24.703 135.116 24.634 135.323H28.2C28.131 135.116 28.085 134.898 28.085 134.668C28.085 133.511 29.023 132.573 30.18 132.573C31.337 132.573 32.275 133.511 32.275 134.668C32.275 134.898 32.229 135.116 32.16 135.323H35.726C35.657 135.116 35.611 134.898 35.611 134.668C35.611 133.511 36.549 132.573 37.706 132.573C38.863 132.573 39.801 133.511 39.801 134.668C39.801 134.898 39.755 135.116 39.686 135.323H43.252C43.183 135.116 43.137 134.898 43.137 134.668C43.137 133.511 44.075 132.573 45.232 132.573C46.389 132.573 47.327 133.511 47.327 134.668C47.327 134.898 47.281 135.116 47.212 135.323H50.778C50.709 135.116 50.663 134.898 50.663 134.668C50.663 133.511 51.601 132.573 52.758 132.573C53.915 132.573 54.853 133.511 54.853 134.668C54.853 134.898 54.807 135.116 54.738 135.323H58.304C58.235 135.116 58.189 134.898 58.189 134.668C58.189 133.511 59.127 132.573 60.284 132.573C61.441 132.573 62.379 133.511 62.379 134.668C62.379 134.898 62.333 135.116 62.264 135.323H65.83C65.761 135.116 65.715 134.898 65.715 134.668C65.715 133.511 66.653 132.573 67.81 132.573C68.967 132.573 69.905 133.511 69.905 134.668C69.905 134.898 69.859 135.116 69.79 135.323H73.356C73.288 135.116 73.241 134.898 73.241 134.668C73.241 133.511 74.179 132.573 75.336 132.573C76.493 132.573 77.431 133.511 77.431 134.668C77.431 134.898 77.385 135.116 77.316 135.323H80.882C80.813 135.116 80.767 134.898 80.767 134.668C80.767 133.511 81.705 132.573 82.862 132.573C84.019 132.573 84.957 133.511 84.957 134.668C84.957 134.898 84.911 135.116 84.842 135.323H88.408C88.34 135.116 88.293 134.898 88.293 134.668C88.293 133.511 89.231 132.573 90.388 132.573C91.545 132.573 92.483 133.511 92.483 134.668C92.483 134.898 92.437 135.116 92.368 135.323H95.934C95.865 135.116 95.819 134.898 95.819 134.668C95.819 133.511 96.757 132.573 97.914 132.573C99.071 132.573 100.009 133.511 100.009 134.668C100.009 134.898 99.963 135.116 99.894 135.323H103.46C103.391 135.116 103.345 134.898 103.345 134.668C103.345 133.511 104.283 132.573 105.44 132.573C106.597 132.573 107.535 133.511 107.535 134.668C107.535 134.898 107.489 135.116 107.42 135.323H110.986C110.917 135.116 110.871 134.898 110.871 134.668C110.871 133.511 111.809 132.573 112.966 132.573C114.123 132.573 115.061 133.511 115.061 134.668C115.061 134.898 115.015 135.116 114.946 135.323H119.425V131.732C118.268 131.732 117.33 130.794 117.33 129.637C117.33 128.48 118.268 127.542 119.425 127.542V124.442C118.268 124.442 117.33 123.504 117.33 122.347C117.33 121.19 118.268 120.252 119.425 120.252V117.152C118.268 117.152 117.33 116.214 117.33 115.057C117.33 113.9 118.268 112.962 119.425 112.962V112.941V109.841C118.268 109.841 117.33 108.903 117.33 107.746C117.33 106.589 118.268 105.651 119.425 105.651V102.551C118.268 102.551 117.33 101.613 117.33 100.456C117.33 99.299 118.268 98.361 119.425 98.361V95.261C118.268 95.261 117.33 94.323 117.33 93.166C117.33 92.009 118.268 91.071 119.425 91.071V87.971C118.268 87.971 117.33 87.033 117.33 85.876C117.33 84.719 118.268 83.781 119.425 83.781V80.681C118.268 80.681 117.33 79.743 117.33 78.586C117.33 77.429 118.268 76.491 119.425 76.491V73.391C118.268 73.391 117.33 72.453 117.33 71.296C117.33 70.139 118.268 69.201 119.425 69.201V66.101C118.268 66.101 117.33 65.163 117.33 64.006C117.33 62.849 118.268 61.911 119.425 61.911V58.811C118.268 58.811 117.33 57.873 117.33 56.716C117.33 55.559 118.268 54.621 119.425 54.621V51.521C118.268 51.521 117.33 50.583 117.33 49.426C117.33 48.269 118.268 47.331 119.425 47.331V44.231C118.268 44.231 117.33 43.293 117.33 42.136C117.33 40.979 118.268 40.041 119.425 40.041V36.941C118.268 36.941 117.33 36.003 117.33 34.846C117.33 33.689 118.268 32.751 119.425 32.751V29.651C118.268 29.651 117.33 28.713 117.33 27.556C117.33 26.399 118.268 25.461 119.425 25.461V22.361C118.268 22.361 117.33 21.423 117.33 20.266C117.33 19.109 118.268 18.171 119.425 18.171V15.071C118.268 15.071 117.33 14.133 117.33 12.976C117.33 11.819 118.268 10.881 119.425 10.881V7.78101C118.268 7.78101 117.33 6.843 117.33 5.686C117.33 4.529 118.268 3.591 119.425 3.591V0H115.061C115.061 1.157 114.123 2.095 112.966 2.095C111.809 2.095 110.871 1.157 110.871 0H107.535C107.535 1.157 106.597 2.095 105.44 2.095C104.283 2.095 103.345 1.157 103.345 0H100.008C100.008 1.157 99.07 2.095 97.913 2.095C96.756 2.095 95.818 1.157 95.818 0H92.481C92.481 1.157 91.543 2.095 90.386 2.095C89.229 2.095 88.291 1.157 88.291 0H84.954C84.954 1.157 84.016 2.095 82.859 2.095C81.702 2.095 80.764 1.157 80.764 0H77.428C77.428 1.157 76.49 2.095 75.333 2.095C74.176 2.095 73.238 1.157 73.238 0H69.902C69.902 1.157 68.964 2.095 67.807 2.095C66.65 2.095 65.712 1.157 65.712 0H62.375C62.375 1.157 61.437 2.095 60.28 2.095C59.123 2.095 58.185 1.157 58.185 0H54.849C54.849 1.157 53.911 2.095 52.754 2.095C51.597 2.095 50.659 1.157 50.659 0H47.323C47.323 1.157 46.385 2.095 45.228 2.095C44.071 2.095 43.133 1.157 43.133 0H39.797C39.797 1.157 38.859 2.095 37.702 2.095C36.545 2.095 35.607 1.157 35.607 0H32.27C32.27 1.157 31.332 2.095 30.175 2.095C29.018 2.095 28.08 1.157 28.08 0H24.743C24.743 1.157 23.805 2.095 22.648 2.095C21.491 2.095 20.553 1.157 20.553 0H17.217C17.217 1.157 16.279 2.095 15.122 2.095C13.965 2.095 13.027 1.157 13.027 0H9.69C9.69 1.157 8.752 2.095 7.595 2.095C6.438 2.095 5.5 1.157 5.5 0H0V3.638C0.141 3.608 0.286996 3.591 0.436996 3.591C1.594 3.591 2.532 4.529 2.532 5.686C2.532 6.843 1.594 7.78101 0.436996 7.78101C0.286996 7.78101 0.141 7.76399 0 7.73399V10.929C0.141 10.899 0.286996 10.882 0.436996 10.882C1.594 10.882 2.532 11.82 2.532 12.977C2.532 14.134 1.594 15.072 0.436996 15.072C0.286996 15.072 0.141 15.055 0 15.025V18.22C0.141 18.19 0.286996 18.173 0.436996 18.173C1.594 18.173 2.532 19.111 2.532 20.268C2.532 21.425 1.594 22.363 0.436996 22.363C0.286996 22.363 0.141 22.346 0 22.316V25.511C0.141 25.481 0.286996 25.464 0.436996 25.464C1.594 25.464 2.532 26.402 2.532 27.559C2.532 28.716 1.594 29.654 0.436996 29.654C0.286996 29.654 0.141 29.637 0 29.607V32.802C0.141 32.772 0.286996 32.755 0.436996 32.755C1.594 32.755 2.532 33.693 2.532 34.85C2.532 36.007 1.594 36.945 0.436996 36.945C0.286996 36.945 0.141 36.928 0 36.898V40.093C0.141 40.063 0.286996 40.046 0.436996 40.046C1.594 40.046 2.532 40.984 2.532 42.141C2.532 43.298 1.594 44.236 0.436996 44.236C0.286996 44.236 0.141 44.219 0 44.189V47.384C0.141 47.354 0.286996 47.337 0.436996 47.337C1.594 47.337 2.532 48.275 2.532 49.432C2.532 50.589 1.594 51.527 0.436996 51.527C0.286996 51.527 0.141 51.51 0 51.48V54.675C0.141 54.645 0.286996 54.628 0.436996 54.628C1.594 54.628 2.532 55.566 2.532 56.723C2.532 57.88 1.594 58.818 0.436996 58.818C0.286996 58.818 0.141 58.801 0 58.771V61.966C0.141 61.936 0.286996 61.919 0.436996 61.919C1.594 61.919 2.532 62.857 2.532 64.014C2.532 65.171 1.594 66.109 0.436996 66.109C0.286996 66.109 0.141 66.092 0 66.062V69.257C0.141 69.227 0.286996 69.21 0.436996 69.21C1.594 69.21 2.532 70.148 2.532 71.305C2.532 72.462 1.594 73.4 0.436996 73.4C0.286996 73.4 0.141 73.383 0 73.353V76.548C0.141 76.518 0.286996 76.501 0.436996 76.501C1.594 76.501 2.532 77.439 2.532 78.596C2.532 79.753 1.594 80.691 0.436996 80.691C0.286996 80.691 0.141 80.674 0 80.644V83.839C0.141 83.809 0.286996 83.792 0.436996 83.792C1.594 83.792 2.532 84.73 2.532 85.887C2.532 87.044 1.594 87.982 0.436996 87.982C0.286996 87.982 0.141 87.965 0 87.935V91.13C0.141 91.1 0.286996 91.083 0.436996 91.083C1.594 91.083 2.532 92.021 2.532 93.178C2.532 94.335 1.594 95.273 0.436996 95.273C0.286996 95.273 0.141 95.256 0 95.226V98.421C0.141 98.391 0.286996 98.374 0.436996 98.374C1.594 98.374 2.532 99.312 2.532 100.469C2.532 101.626 1.594 102.564 0.436996 102.564C0.286996 102.564 0.141 102.547 0 102.517V105.712C0.141 105.682 0.286996 105.665 0.436996 105.665C1.594 105.665 2.532 106.603 2.532 107.76C2.532 108.917 1.594 109.855 0.436996 109.855C0.286996 109.855 0.141 109.838 0 109.808V113.003C0.141 112.973 0.286996 112.956 0.436996 112.956" fill="#F5EDD5"/>
<path d="M13.3887 12.4753L13.3887 113.645H106.711V12.4753H13.3887Z" fill="#F5EDD5" stroke="#603E41" stroke-width="0.75" stroke-miterlimit="10"/>
<path d="M13.6133 89.241L106.61 89.239V113.553L13.6303 113.554L13.6133 89.241Z" fill="#E6C7B9" stroke="#603E41" stroke-width="0.5" stroke-miterlimit="10"/>
<path d="M66.8523 80.3791C81.6303 76.9331 90.8166 62.1596 87.3706 47.3817C83.9246 32.6037 69.1511 23.4173 54.3731 26.8633C39.5952 30.3094 30.4088 45.0828 33.8548 59.8608C37.3008 74.6388 52.0743 83.8251 66.8523 80.3791Z" fill="#603E41"/>
<path d="M66.959 93.1411H92.355" stroke="#603E41" stroke-width="0.5" stroke-miterlimit="10"/>
<path d="M69.1172 94.2201H88.0392" stroke="#603E41" stroke-width="0.5" stroke-miterlimit="10"/>
<path d="M72.3535 95.2991H84.8035" stroke="#603E41" stroke-width="0.5" stroke-miterlimit="10"/>
<path d="M76.6699 96.3782H80.4879" stroke="#603E41" stroke-width="0.5" stroke-miterlimit="10"/>
<path d="M53.4546 93.1411H28.0586" stroke="#603E41" stroke-width="0.5" stroke-miterlimit="10"/>
<path d="M51.297 94.2201H32.375" stroke="#603E41" stroke-width="0.5" stroke-miterlimit="10"/>
<path d="M48.0613 95.2991H35.6113" stroke="#603E41" stroke-width="0.5" stroke-miterlimit="10"/>
<path d="M43.7438 96.3782H39.9258" stroke="#603E41" stroke-width="0.5" stroke-miterlimit="10"/>
<path d="M87.2079 67.6962H73.7969V70.9572H87.2079V67.6962Z" fill="#E6C7B9" stroke="#603E41" stroke-width="0.5" stroke-miterlimit="10"/>
<path d="M87.2137 80.8271H73.8027V84.0881H87.2137V80.8271Z" fill="#E6C7B9" stroke="#603E41" stroke-width="0.5" stroke-miterlimit="10"/>
<path d="M73.8004 65.3411H70.4824V93.1031H73.8004V65.3411Z" fill="#E6C7B9" stroke="#603E41" stroke-width="0.5" stroke-miterlimit="10"/>
<path d="M74.9093 63.6971H69.3613V65.3411H74.9093V63.6971Z" fill="#E6C7B9" stroke="#603E41" stroke-width="0.5" stroke-miterlimit="10"/>
<path d="M68.418 63.6991L75.884 63.6961L72.133 62.3951L68.418 63.6991Z" fill="#E6C7B9" stroke="#603E41" stroke-width="0.5" stroke-miterlimit="10" stroke-linecap="round" stroke-linejoin="round"/>
<path d="M86.5074 64.0332H83.1895V93.0982H86.5074V64.0332Z" fill="#E6C7B9" stroke="#603E41" stroke-width="0.5" stroke-miterlimit="10"/>
<path d="M87.6164 62.3892H82.0684V64.0332H87.6164V62.3892Z" fill="#E6C7B9" stroke="#603E41" stroke-width="0.5" stroke-miterlimit="10"/>
<path d="M81.125 62.3912L88.592 62.3872L84.841 61.0862L81.125 62.3912Z" fill="#E6C7B9" stroke="#603E41" stroke-width="0.5" stroke-miterlimit="10" stroke-linecap="round" stroke-linejoin="round"/>
<path d="M46.3622 67.7141H32.9512V70.9751H46.3622V67.7141Z" fill="#E6C7B9" stroke="#603E41" stroke-width="0.5" stroke-miterlimit="10"/>
<path d="M46.368 80.8451H32.957V84.1061H46.368V80.8451Z" fill="#E6C7B9" stroke="#603E41" stroke-width="0.5" stroke-miterlimit="10"/>
<path d="M49.6852 65.3522H46.3672V93.1142H49.6852V65.3522Z" fill="#E6C7B9" stroke="#603E41" stroke-width="0.5" stroke-miterlimit="10"/>
<path d="M50.7941 63.7081H45.2461V65.3521H50.7941V63.7081Z" fill="#E6C7B9" stroke="#603E41" stroke-width="0.5" stroke-miterlimit="10"/>
<path d="M44.3027 63.7101L51.7687 63.7061L48.0187 62.4052L44.3027 63.7101Z" fill="#E6C7B9" stroke="#603E41" stroke-width="0.5" stroke-miterlimit="10" stroke-linecap="round" stroke-linejoin="round"/>
<path d="M36.9879 64.0552H33.6699V93.1202H36.9879V64.0552Z" fill="#E6C7B9" stroke="#603E41" stroke-width="0.5" stroke-miterlimit="10"/>
<path d="M38.0968 62.4111H32.5488V64.0551H38.0968V62.4111Z" fill="#E6C7B9" stroke="#603E41" stroke-width="0.5" stroke-miterlimit="10"/>
<path d="M31.6055 62.4122L39.0724 62.4092L35.3215 61.1082L31.6055 62.4122Z" fill="#E6C7B9" stroke="#603E41" stroke-width="0.5" stroke-miterlimit="10" stroke-linecap="round" stroke-linejoin="round"/>
<path d="M38.7344 51.2252L48.0304 51.2212L43.3614 49.6012L38.7344 51.2252Z" fill="#E6C7B9" stroke="#603E41" stroke-width="0.5" stroke-miterlimit="10"/>
<path d="M72.1465 51.2102L81.4425 51.2062L76.7735 49.5862L72.1465 51.2102Z" fill="#E6C7B9" stroke="#603E41" stroke-width="0.5" stroke-miterlimit="10"/>
<path d="M63.7513 45.7632H57.4863V51.0562H63.7513V45.7632Z" fill="#E6C7B9" stroke="#603E41" stroke-width="0.5" stroke-miterlimit="10"/>
<path d="M45.0485 46.2372H41.7305V93.1162H45.0485V46.2372Z" fill="#E6C7B9" stroke="#603E41" stroke-width="0.5" stroke-miterlimit="10"/>
<path d="M46.1535 45.4152H40.6055V47.0592H46.1535V45.4152Z" fill="#E6C7B9" stroke="#603E41" stroke-width="0.5" stroke-miterlimit="10"/>
<path d="M78.4606 46.2222H75.1426V93.1012H78.4606V46.2222Z" fill="#E6C7B9" stroke="#603E41" stroke-width="0.5" stroke-miterlimit="10"/>
<path d="M79.5656 45.4001H74.0176V47.0441H79.5656V45.4001Z" fill="#E6C7B9" stroke="#603E41" stroke-width="0.5" stroke-miterlimit="10"/>
<path d="M92.5945 39.1011L89.2845 39.5341L89.2895 39.4981L31.9385 39.5621L28.6055 39.1281L28.8765 40.9711L32.1785 41.3841L32.6275 44.8031C56.1985 47.1101 88.6055 44.7781 88.6055 44.7781L89.0495 41.3561L92.3265 40.9431L92.5945 39.1011Z" fill="#E6C7B9" stroke="#603E41" stroke-width="0.5" stroke-miterlimit="10"/>
<path d="M99.9411 33.5501C59.1391 40.3571 25.3531 34.5771 20.2241 33.6121C19.9771 33.5661 19.7991 33.8421 19.9411 34.0501L21.1091 35.7481C21.1521 35.8101 21.2141 35.8521 21.2881 35.8651C28.9411 37.2131 60.5941 42.0741 98.9701 35.7701C99.0501 35.7571 99.1211 35.7101 99.1641 35.6421L100.226 33.9771C100.358 33.7711 100.182 33.5101 99.9411 33.5501Z" fill="#E6C7B9" stroke="#603E41" stroke-width="0.5" stroke-miterlimit="10"/>
<path d="M60.4577 38.9201C41.6947 39.2211 23.9297 36.2491 23.9297 36.2491L26.2887 38.7981C38.6467 40.6221 50.2357 41.3111 60.4587 41.3711C70.6817 41.3021 82.2697 40.6031 94.6267 38.7681L97.2967 36.0381C97.2967 36.0381 78.8787 39.0761 60.4577 38.9201Z" fill="#E6C7B9" stroke="#603E41" stroke-width="0.5" stroke-miterlimit="10"/>
<path d="M90.7431 51.0562H30.4961V54.4891H90.7431V51.0562Z" fill="#E6C7B9" stroke="#603E41" stroke-width="0.5" stroke-miterlimit="10"/>
<path d="M18.824 15.8414V20.4131H18.2704V15.8414H18.824ZM19.684 16.3325V15.8414H23.1128V16.3325H21.6752V20.4131H21.1216V16.3325H19.684ZM26.4673 16.9843C26.4405 16.7581 26.3319 16.5825 26.1414 16.4575C25.9509 16.3325 25.7173 16.27 25.4405 16.27C25.2381 16.27 25.061 16.3027 24.9092 16.3682C24.7589 16.4337 24.6413 16.5237 24.5565 16.6383C24.4732 16.7529 24.4315 16.8831 24.4315 17.0289C24.4315 17.151 24.4605 17.2559 24.5186 17.3437C24.5781 17.43 24.654 17.5022 24.7462 17.5602C24.8385 17.6168 24.9352 17.6637 25.0364 17.7009C25.1376 17.7366 25.2307 17.7656 25.3155 17.7879L25.7798 17.9129C25.8988 17.9442 26.0313 17.9873 26.1771 18.0424C26.3245 18.0975 26.4651 18.1726 26.599 18.2679C26.7345 18.3616 26.8461 18.4822 26.9339 18.6295C27.0217 18.7768 27.0656 18.9576 27.0656 19.1719C27.0656 19.419 27.0008 19.6422 26.8714 19.8416C26.7434 20.041 26.5559 20.1995 26.3088 20.3171C26.0633 20.4347 25.7649 20.4934 25.4137 20.4934C25.0863 20.4934 24.8028 20.4406 24.5632 20.335C24.3251 20.2293 24.1376 20.082 24.0007 19.893C23.8652 19.704 23.7886 19.4845 23.7707 19.2344H24.3422C24.3571 19.4071 24.4151 19.5499 24.5163 19.663C24.619 19.7747 24.7485 19.858 24.9047 19.9131C25.0625 19.9666 25.2321 19.9934 25.4137 19.9934C25.625 19.9934 25.8148 19.9592 25.9829 19.8907C26.1511 19.8208 26.2843 19.7241 26.3825 19.6005C26.4807 19.4755 26.5298 19.3297 26.5298 19.163C26.5298 19.0112 26.4874 18.8877 26.4026 18.7925C26.3178 18.6972 26.2062 18.6198 26.0678 18.5603C25.9294 18.5008 25.7798 18.4487 25.6191 18.404L25.0565 18.2433C24.6994 18.1406 24.4166 17.994 24.2083 17.8036C23.9999 17.6131 23.8957 17.3638 23.8957 17.0557C23.8957 16.7998 23.9649 16.5765 24.1033 16.3861C24.2432 16.1941 24.4308 16.0453 24.6659 15.9396C24.9025 15.8324 25.1667 15.7789 25.4583 15.7789C25.753 15.7789 26.0149 15.8317 26.2441 15.9374C26.4733 16.0415 26.6548 16.1844 26.7888 16.366C26.9242 16.5475 26.9956 16.7536 27.0031 16.9843H26.4673ZM27.9758 20.4131V15.8414H28.5294V17.8772H30.9671V15.8414H31.5207V20.4131H30.9671V18.3683H28.5294V20.4131H27.9758ZM35.6292 15.8414H36.1828V18.8683C36.1828 19.1809 36.1091 19.4599 35.9618 19.7055C35.8159 19.9495 35.6098 20.1422 35.3434 20.2836C35.0771 20.4235 34.7645 20.4934 34.4059 20.4934C34.0472 20.4934 33.7347 20.4235 33.4683 20.2836C33.2019 20.1422 32.9951 19.9495 32.8477 19.7055C32.7019 19.4599 32.629 19.1809 32.629 18.8683V15.8414H33.1826V18.8237C33.1826 19.0469 33.2317 19.2456 33.3299 19.4197C33.4281 19.5924 33.568 19.7285 33.7496 19.8282C33.9326 19.9264 34.1514 19.9756 34.4059 19.9756C34.6604 19.9756 34.8791 19.9264 35.0622 19.8282C35.2452 19.7285 35.3851 19.5924 35.4818 19.4197C35.5801 19.2456 35.6292 19.0469 35.6292 18.8237V15.8414ZM37.2883 20.4131V15.8414H37.8419V18.1094H37.8955L39.9492 15.8414H40.6724L38.7527 17.904L40.6724 20.4131H40.0028L38.4134 18.288L37.8419 18.9309V20.4131H37.2883ZM44.3892 15.8414H44.9428V18.8683C44.9428 19.1809 44.8691 19.4599 44.7218 19.7055C44.576 19.9495 44.3698 20.1422 44.1035 20.2836C43.8371 20.4235 43.5246 20.4934 43.1659 20.4934C42.8073 20.4934 42.4947 20.4235 42.2283 20.2836C41.962 20.1422 41.7551 19.9495 41.6078 19.7055C41.4619 19.4599 41.389 19.1809 41.389 18.8683V15.8414H41.9426V18.8237C41.9426 19.0469 41.9917 19.2456 42.0899 19.4197C42.1882 19.5924 42.3281 19.7285 42.5096 19.8282C42.6927 19.9264 42.9114 19.9756 43.1659 19.9756C43.4204 19.9756 43.6391 19.9264 43.8222 19.8282C44.0052 19.7285 44.1451 19.5924 44.2419 19.4197C44.3401 19.2456 44.3892 19.0469 44.3892 18.8237V15.8414ZM48.5485 16.9843C48.5217 16.7581 48.4131 16.5825 48.2226 16.4575C48.0321 16.3325 47.7984 16.27 47.5216 16.27C47.3192 16.27 47.1422 16.3027 46.9904 16.3682C46.84 16.4337 46.7225 16.5237 46.6377 16.6383C46.5543 16.7529 46.5126 16.8831 46.5126 17.0289C46.5126 17.151 46.5417 17.2559 46.5997 17.3437C46.6592 17.43 46.7351 17.5022 46.8274 17.5602C46.9197 17.6168 47.0164 17.6637 47.1176 17.7009C47.2188 17.7366 47.3118 17.7656 47.3966 17.7879L47.8609 17.9129C47.98 17.9442 48.1124 17.9873 48.2583 18.0424C48.4056 18.0975 48.5463 18.1726 48.6802 18.2679C48.8156 18.3616 48.9272 18.4822 49.015 18.6295C49.1028 18.7768 49.1467 18.9576 49.1467 19.1719C49.1467 19.419 49.082 19.6422 48.9525 19.8416C48.8245 20.041 48.637 20.1995 48.39 20.3171C48.1444 20.4347 47.8461 20.4934 47.4949 20.4934C47.1674 20.4934 46.884 20.4406 46.6444 20.335C46.4062 20.2293 46.2187 20.082 46.0818 19.893C45.9464 19.704 45.8698 19.4845 45.8519 19.2344H46.4234C46.4382 19.4071 46.4963 19.5499 46.5975 19.663C46.7002 19.7747 46.8296 19.858 46.9859 19.9131C47.1436 19.9666 47.3133 19.9934 47.4949 19.9934C47.7062 19.9934 47.8959 19.9592 48.0641 19.8907C48.2322 19.8208 48.3654 19.7241 48.4637 19.6005C48.5619 19.4755 48.611 19.3297 48.611 19.163C48.611 19.0112 48.5686 18.8877 48.4838 18.7925C48.3989 18.6972 48.2873 18.6198 48.1489 18.5603C48.0105 18.5008 47.8609 18.4487 47.7002 18.404L47.1377 18.2433C46.7805 18.1406 46.4978 17.994 46.2894 17.8036C46.0811 17.6131 45.9769 17.3638 45.9769 17.0557C45.9769 16.7998 46.0461 16.5765 46.1845 16.3861C46.3244 16.1941 46.5119 16.0453 46.747 15.9396C46.9837 15.8324 47.2478 15.7789 47.5395 15.7789C47.8342 15.7789 48.0961 15.8317 48.3253 15.9374C48.5544 16.0415 48.736 16.1844 48.8699 16.366C49.0054 16.5475 49.0768 16.7536 49.0842 16.9843H48.5485ZM50.057 20.4131V15.8414H50.6106V17.8772H53.0482V15.8414H53.6018V20.4131H53.0482V18.3683H50.6106V20.4131H50.057ZM55.2637 15.8414V20.4131H54.7101V15.8414H55.2637ZM56.3737 15.8414H57.0345L58.5882 19.6363H58.6417L60.1954 15.8414H60.8562V20.4131H60.3383V16.9397H60.2936L58.865 20.4131H58.3649L56.9363 16.9397H56.8916V20.4131H56.3737V15.8414ZM62.1537 20.4131H61.5733L63.252 15.8414H63.8234L65.5021 20.4131H64.9217L63.5555 16.5646H63.5198L62.1537 20.4131ZM62.368 18.6273H64.7074V19.1184H62.368V18.6273ZM70.4823 16.9843C70.4555 16.7581 70.3469 16.5825 70.1564 16.4575C69.9659 16.3325 69.7323 16.27 69.4555 16.27C69.2531 16.27 69.076 16.3027 68.9242 16.3682C68.7739 16.4337 68.6563 16.5237 68.5715 16.6383C68.4881 16.7529 68.4465 16.8831 68.4465 17.0289C68.4465 17.151 68.4755 17.2559 68.5335 17.3437C68.5931 17.43 68.669 17.5022 68.7612 17.5602C68.8535 17.6168 68.9502 17.6637 69.0514 17.7009C69.1526 17.7366 69.2456 17.7656 69.3305 17.7879L69.7948 17.9129C69.9138 17.9442 70.0463 17.9873 70.1921 18.0424C70.3394 18.0975 70.4801 18.1726 70.614 18.2679C70.7494 18.3616 70.8611 18.4822 70.9489 18.6295C71.0367 18.7768 71.0806 18.9576 71.0806 19.1719C71.0806 19.419 71.0158 19.6422 70.8864 19.8416C70.7584 20.041 70.5709 20.1995 70.3238 20.3171C70.0783 20.4347 69.7799 20.4934 69.4287 20.4934C69.1013 20.4934 68.8178 20.4406 68.5782 20.335C68.3401 20.2293 68.1526 20.082 68.0156 19.893C67.8802 19.704 67.8036 19.4845 67.7857 19.2344H68.3572C68.3721 19.4071 68.4301 19.5499 68.5313 19.663C68.634 19.7747 68.7635 19.858 68.9197 19.9131C69.0775 19.9666 69.2471 19.9934 69.4287 19.9934C69.64 19.9934 69.8297 19.9592 69.9979 19.8907C70.1661 19.8208 70.2993 19.7241 70.3975 19.6005C70.4957 19.4755 70.5448 19.3297 70.5448 19.163C70.5448 19.0112 70.5024 18.8877 70.4176 18.7925C70.3327 18.6972 70.2211 18.6198 70.0827 18.5603C69.9443 18.5008 69.7948 18.4487 69.634 18.404L69.0715 18.2433C68.7143 18.1406 68.4316 17.994 68.2232 17.8036C68.0149 17.6131 67.9107 17.3638 67.9107 17.0557C67.9107 16.7998 67.9799 16.5765 68.1183 16.3861C68.2582 16.1941 68.4457 16.0453 68.6809 15.9396C68.9175 15.8324 69.1816 15.7789 69.4733 15.7789C69.768 15.7789 70.0299 15.8317 70.2591 15.9374C70.4883 16.0415 70.6698 16.1844 70.8038 16.366C70.9392 16.5475 71.0106 16.7536 71.0181 16.9843H70.4823ZM71.9908 20.4131V15.8414H72.5444V17.8772H74.982V15.8414H75.5356V20.4131H74.982V18.3683H72.5444V20.4131H71.9908ZM76.644 20.4131V15.8414H78.1887C78.5459 15.8414 78.839 15.9024 79.0682 16.0244C79.2974 16.145 79.4671 16.3109 79.5772 16.5222C79.6873 16.7335 79.7424 16.9739 79.7424 17.2432C79.7424 17.5126 79.6873 17.7515 79.5772 17.9598C79.4671 18.1682 79.2981 18.3319 79.0704 18.4509C78.8428 18.5685 78.5518 18.6273 78.1976 18.6273H76.9476V18.1272H78.1798C78.4238 18.1272 78.6203 18.0915 78.7691 18.0201C78.9194 17.9486 79.028 17.8475 79.095 17.7165C79.1635 17.584 79.1977 17.4263 79.1977 17.2432C79.1977 17.0602 79.1635 16.9002 79.095 16.7633C79.0265 16.6264 78.9172 16.5207 78.7669 16.4463C78.6166 16.3704 78.4179 16.3325 78.1708 16.3325H77.1976V20.4131H76.644ZM78.7959 18.3594L79.9209 20.4131H79.2781L78.1708 18.3594H78.7959ZM81.2185 15.8414V20.4131H80.6649V15.8414H81.2185ZM85.9537 15.8414V20.4131H85.4179L82.9267 16.8236H82.8821V20.4131H82.3285V15.8414H82.8642L85.3644 19.4398H85.409V15.8414H85.9537ZM87.0615 20.4131V15.8414H89.8206V16.3325H87.6151V17.8772H89.6777V18.3683H87.6151V19.922H89.8563V20.4131H87.0615Z" fill="#603E41"/>
<path d="M13.8954 117.189V122.628H13.2368V117.189H13.8954ZM19.5293 117.189V122.628H18.8919L15.9279 118.358H15.8748V122.628H15.2161V117.189H15.8535L18.8281 121.47H18.8812V117.189H19.5293ZM20.5498 117.773V117.189H24.6292V117.773H22.9189V122.628H22.2602V117.773H20.5498ZM25.6458 122.628V117.189H28.9285V117.773H26.3045V119.611H28.7585V120.196H26.3045V122.044H28.971V122.628H25.6458ZM30.1157 122.628V117.189H31.9535C32.3785 117.189 32.7273 117.262 33 117.407C33.2726 117.55 33.4745 117.748 33.6055 117.999C33.7365 118.251 33.802 118.537 33.802 118.857C33.802 119.178 33.7365 119.462 33.6055 119.71C33.4745 119.957 33.2735 120.152 33.0026 120.294C32.7317 120.434 32.3856 120.504 31.9642 120.504H30.4769V119.909H31.9429C32.2333 119.909 32.467 119.866 32.6441 119.781C32.8229 119.696 32.9522 119.576 33.0318 119.42C33.1133 119.263 33.154 119.075 33.154 118.857C33.154 118.639 33.1133 118.449 33.0318 118.286C32.9504 118.123 32.8202 117.997 32.6414 117.909C32.4626 117.819 32.2262 117.773 31.9323 117.773H30.7743V122.628H30.1157ZM32.6759 120.185L34.0145 122.628H33.2496L31.9323 120.185H32.6759ZM39.2128 117.189V122.628H38.5754L35.6114 118.358H35.5583V122.628H34.8996V117.189H35.537L38.5116 121.47H38.5647V117.189H39.2128ZM40.7539 122.628H40.0633L42.0606 117.189H42.7405L44.7377 122.628H44.0472L42.4218 118.05H42.3793L40.7539 122.628ZM41.0088 120.504H43.7922V121.088H41.0088V120.504ZM44.652 117.773V117.189H48.7315V117.773H47.0211V122.628H46.3624V117.773H44.652ZM50.4067 117.189V122.628H49.748V117.189H50.4067ZM56.3167 119.909C56.3167 120.482 56.2132 120.978 56.006 121.396C55.7988 121.814 55.5147 122.136 55.1535 122.363C54.7922 122.589 54.3797 122.703 53.9158 122.703C53.4519 122.703 53.0394 122.589 52.6782 122.363C52.317 122.136 52.0328 121.814 51.8256 121.396C51.6185 120.978 51.5149 120.482 51.5149 119.909C51.5149 119.335 51.6185 118.839 51.8256 118.421C52.0328 118.004 52.317 117.681 52.6782 117.455C53.0394 117.228 53.4519 117.115 53.9158 117.115C54.3797 117.115 54.7922 117.228 55.1535 117.455C55.5147 117.681 55.7988 118.004 56.006 118.421C56.2132 118.839 56.3167 119.335 56.3167 119.909ZM55.6793 119.909C55.6793 119.438 55.6005 119.04 55.4429 118.716C55.2871 118.392 55.0755 118.147 54.8082 117.981C54.5426 117.814 54.2451 117.731 53.9158 117.731C53.5865 117.731 53.2881 117.814 53.0208 117.981C52.7552 118.147 52.5436 118.392 52.386 118.716C52.2302 119.04 52.1523 119.438 52.1523 119.909C52.1523 120.38 52.2302 120.777 52.386 121.101C52.5436 121.425 52.7552 121.671 53.0208 121.837C53.2881 122.003 53.5865 122.087 53.9158 122.087C54.2451 122.087 54.5426 122.003 54.8082 121.837C55.0755 121.671 55.2871 121.425 55.4429 121.101C55.6005 120.777 55.6793 120.38 55.6793 119.909ZM61.7374 117.189V122.628H61.1L58.136 118.358H58.0829V122.628H57.4242V117.189H58.0617L61.0363 121.47H61.0894V117.189H61.7374ZM63.2785 122.628H62.588L64.5852 117.189H65.2651L67.2623 122.628H66.5718L64.9464 118.05H64.9039L63.2785 122.628ZM63.5335 120.504H66.3168V121.088H63.5335V120.504ZM68.1096 122.628V117.189H68.7682V122.044H71.2966V122.628H68.1096ZM74.42 122.628V117.189H75.0786V122.044H77.6071V122.628H74.42ZM78.6269 122.628V117.189H81.9096V117.773H79.2856V119.611H81.7396V120.196H79.2856V122.044H81.9521V122.628H78.6269ZM82.7993 117.773V117.189H86.8788V117.773H85.1684V122.628H84.5097V117.773H82.7993ZM87.5979 117.773V117.189H91.6773V117.773H89.9669V122.628H89.3083V117.773H87.5979ZM92.6939 122.628V117.189H95.9766V117.773H93.3525V119.611H95.8066V120.196H93.3525V122.044H96.019V122.628H92.6939ZM97.1637 122.628V117.189H99.0016C99.4266 117.189 99.7754 117.262 100.048 117.407C100.321 117.55 100.523 117.748 100.654 117.999C100.785 118.251 100.85 118.537 100.85 118.857C100.85 119.178 100.785 119.462 100.654 119.71C100.523 119.957 100.322 120.152 100.051 120.294C99.7798 120.434 99.4336 120.504 99.0122 120.504H97.5249V119.909H98.991C99.2814 119.909 99.5151 119.866 99.6921 119.781C99.871 119.696 100 119.576 100.08 119.42C100.161 119.263 100.202 119.075 100.202 118.857C100.202 118.639 100.161 118.449 100.08 118.286C99.9985 118.123 99.8683 117.997 99.6895 117.909C99.5107 117.819 99.2743 117.773 98.9804 117.773H97.8224V122.628H97.1637ZM99.724 120.185L101.063 122.628H100.298L98.9804 120.185H99.724ZM105.039 122.628L103.552 117.189H104.221L105.358 121.619H105.411L106.569 117.189H107.313L108.471 121.619H108.524L109.66 117.189H110.33L108.842 122.628H108.162L106.962 118.294H106.919L105.719 122.628H105.039ZM111.15 122.628V117.189H112.988C113.413 117.189 113.762 117.262 114.035 117.407C114.307 117.55 114.509 117.748 114.64 117.999C114.771 118.251 114.837 118.537 114.837 118.857C114.837 119.178 114.771 119.462 114.64 119.71C114.509 119.957 114.308 120.152 114.037 120.294C113.766 120.434 113.42 120.504 112.999 120.504H111.512V119.909H112.978C113.268 119.909 113.502 119.866 113.679 119.781C113.858 119.696 113.987 119.576 114.067 119.42C114.148 119.263 114.189 119.075 114.189 118.857C114.189 118.639 114.148 118.449 114.067 118.286C113.985 118.123 113.855 117.997 113.676 117.909C113.497 117.819 113.261 117.773 112.967 117.773H111.809V122.628H111.15ZM113.711 120.185L115.049 122.628H114.284L112.967 120.185H113.711ZM116.593 117.189V122.628H115.934V117.189H116.593ZM117.616 117.773V117.189H121.696V117.773H119.985V122.628H119.327V117.773H117.616ZM123.371 117.189V122.628H122.712V117.189H123.371ZM129.005 117.189V122.628H128.367L125.403 118.358H125.35V122.628H124.691V117.189H125.329L128.303 121.47H128.357V117.189H129.005ZM134.041 118.889C133.982 118.71 133.905 118.55 133.81 118.408C133.716 118.265 133.603 118.143 133.472 118.042C133.343 117.941 133.196 117.864 133.032 117.811C132.867 117.758 132.686 117.731 132.49 117.731C132.168 117.731 131.875 117.814 131.611 117.981C131.347 118.147 131.137 118.392 130.981 118.716C130.825 119.04 130.748 119.438 130.748 119.909C130.748 120.38 130.826 120.777 130.984 121.101C131.141 121.425 131.355 121.671 131.624 121.837C131.893 122.003 132.196 122.087 132.532 122.087C132.844 122.087 133.118 122.02 133.356 121.887C133.595 121.753 133.781 121.563 133.913 121.319C134.048 121.073 134.115 120.783 134.115 120.451L134.317 120.493H132.681V119.909H134.753V120.493C134.753 120.941 134.657 121.331 134.466 121.662C134.276 121.993 134.014 122.25 133.68 122.432C133.347 122.612 132.964 122.703 132.532 122.703C132.051 122.703 131.628 122.589 131.263 122.363C130.9 122.136 130.616 121.814 130.413 121.396C130.211 120.978 130.11 120.482 130.11 119.909C130.11 119.479 130.168 119.092 130.283 118.748C130.4 118.403 130.564 118.109 130.777 117.866C130.989 117.624 131.241 117.438 131.531 117.309C131.821 117.179 132.141 117.115 132.49 117.115C132.777 117.115 133.044 117.158 133.292 117.245C133.542 117.33 133.764 117.451 133.958 117.609C134.155 117.765 134.319 117.951 134.45 118.169C134.581 118.385 134.671 118.625 134.721 118.889H134.041ZM138.972 122.628L137.485 117.189H138.154L139.291 121.619H139.344L140.502 117.189H141.246L142.404 121.619H142.457L143.593 117.189H144.263L142.775 122.628H142.095L140.895 118.294H140.853L139.652 122.628H138.972ZM145.083 122.628V117.189H148.366V117.773H145.742V119.611H148.196V120.196H145.742V122.044H148.409V122.628H145.083ZM149.553 122.628V117.189H152.836V117.773H150.212V119.611H152.666V120.196H150.212V122.044H152.878V122.628H149.553ZM154.023 122.628V117.189H154.682V119.888H154.746L157.189 117.189H158.049L155.765 119.643L158.049 122.628H157.253L155.362 120.1L154.682 120.865V122.628H154.023Z" fill="#603E41"/>
<path d="M19.7347 109.776C19.1235 109.776 18.5731 109.654 18.0835 109.411C17.5939 109.168 17.2015 108.835 16.9064 108.411C16.6112 107.988 16.4497 107.505 16.422 106.963H17.672C17.7207 107.446 17.9394 107.845 18.3283 108.161C18.7207 108.474 19.1895 108.63 19.7347 108.63C20.1722 108.63 20.5611 108.528 20.9014 108.323C21.2452 108.118 21.5143 107.837 21.7088 107.479C21.9067 107.118 22.0057 106.71 22.0057 106.255C22.0057 105.79 21.9032 105.375 21.6984 105.01C21.497 104.642 21.2192 104.352 20.865 104.14C20.5108 103.928 20.1062 103.821 19.6513 103.817C19.3249 103.814 18.9898 103.864 18.6461 103.968C18.3023 104.069 18.0193 104.199 17.7971 104.359L16.5886 104.213L17.2345 98.9627H22.7766V100.109H18.3179L17.9429 103.255H18.0054C18.2242 103.081 18.4985 102.937 18.8284 102.822C19.1583 102.708 19.502 102.65 19.8597 102.65C20.5125 102.65 21.0942 102.807 21.6046 103.119C22.1185 103.428 22.5213 103.852 22.813 104.39C23.1082 104.928 23.2558 105.543 23.2558 106.234C23.2558 106.915 23.103 107.522 22.7974 108.057C22.4953 108.588 22.0786 109.009 21.5473 109.318C21.016 109.623 20.4118 109.776 19.7347 109.776ZM28.8043 109.776C28.0196 109.776 27.3511 109.562 26.799 109.135C26.2469 108.705 25.825 108.081 25.5333 107.265C25.2416 106.446 25.0957 105.456 25.0957 104.296C25.0957 103.144 25.2416 102.159 25.5333 101.343C25.8284 100.524 26.2521 99.8985 26.8042 99.468C27.3598 99.0339 28.0265 98.8169 28.8043 98.8169C29.5822 98.8169 30.2471 99.0339 30.7993 99.468C31.3549 99.8985 31.7785 100.524 32.0702 101.343C32.3654 102.159 32.5129 103.144 32.5129 104.296C32.5129 105.456 32.3671 106.446 32.0754 107.265C31.7837 108.081 31.3618 108.705 30.8097 109.135C30.2576 109.562 29.5891 109.776 28.8043 109.776ZM28.8043 108.63C29.5822 108.63 30.1864 108.255 30.617 107.505C31.0476 106.755 31.2628 105.685 31.2628 104.296C31.2628 103.373 31.1639 102.586 30.9659 101.937C30.7715 101.288 30.4902 100.793 30.1221 100.452C29.7575 100.112 29.3183 99.9419 28.8043 99.9419C28.0334 99.9419 27.431 100.322 26.9969 101.083C26.5629 101.84 26.3458 102.911 26.3458 104.296C26.3458 105.22 26.4431 106.005 26.6375 106.651C26.832 107.297 27.1115 107.788 27.4761 108.125C27.8442 108.462 28.2869 108.63 28.8043 108.63Z" fill="#603E41"/>
<path d="M37.1195 104.118H37.7832V108.036C37.7832 108.386 37.719 108.683 37.5905 108.927C37.4621 109.172 37.281 109.357 37.0472 109.484C36.8135 109.61 36.5378 109.674 36.2202 109.674C35.9205 109.674 35.6537 109.619 35.42 109.511C35.1862 109.4 35.0024 109.243 34.8686 109.04C34.7348 108.836 34.6679 108.594 34.6679 108.314H35.3209C35.3209 108.469 35.3593 108.605 35.436 108.721C35.5145 108.835 35.6216 108.924 35.7572 108.989C35.8928 109.053 36.0471 109.085 36.2202 109.085C36.4111 109.085 36.5735 109.045 36.7073 108.965C36.8411 108.884 36.9428 108.767 37.0124 108.611C37.0838 108.454 37.1195 108.262 37.1195 108.036V104.118ZM39.3382 109.599H38.6424L40.655 104.118H41.3402L43.3529 109.599H42.657L41.019 104.985H40.9762L39.3382 109.599ZM39.5952 107.458H42.4001V108.047H39.5952V107.458ZM44.2066 109.599V104.118H46.0587C46.4887 104.118 46.8402 104.195 47.1132 104.35C47.388 104.504 47.5914 104.712 47.7235 104.974C47.8555 105.236 47.9215 105.529 47.9215 105.852C47.9215 106.175 47.8555 106.468 47.7235 106.732C47.5932 106.997 47.3916 107.207 47.1186 107.364C46.8456 107.519 46.4959 107.597 46.0694 107.597H44.7419V107.008H46.048C46.3424 107.008 46.5788 106.957 46.7573 106.856C46.9357 106.754 47.0651 106.616 47.1454 106.443C47.2274 106.269 47.2685 106.071 47.2685 105.852C47.2685 105.632 47.2274 105.436 47.1454 105.263C47.0651 105.09 46.9348 104.954 46.7546 104.856C46.5744 104.756 46.3353 104.706 46.0373 104.706H44.8704V109.599H44.2066ZM48.6562 109.599H47.9603L49.973 104.118H50.6582L52.6708 109.599H51.975L50.337 104.985H50.2942L48.6562 109.599ZM48.9131 107.458H51.718V108.047H48.9131V107.458ZM57.8711 104.118V109.599H57.2288L54.2419 105.295H54.1884V109.599H53.5246V104.118H54.1669L57.1645 108.432H57.2181V104.118H57.8711Z" fill="#603E41"/>
<path d="M37.6711 103.591H37.4098L35.259 100.373H35.2466C35.2499 100.462 35.2524 100.554 35.2541 100.647C35.2574 100.738 35.2599 100.833 35.2615 100.93C35.2648 101.027 35.2665 101.126 35.2665 101.229V103.591H35.0226V99.9521H35.2864L37.4297 103.161H37.4421C37.4405 103.088 37.438 103.003 37.4346 102.907C37.433 102.811 37.4305 102.712 37.4272 102.611C37.4255 102.509 37.4247 102.414 37.4247 102.324V99.9521H37.6711V103.591ZM38.7017 103.591V99.9521H38.9581V103.591H38.7017ZM40.8798 99.9521C41.3129 99.9521 41.6373 100.035 41.8531 100.201C42.0688 100.367 42.1767 100.625 42.1767 100.975C42.1767 101.154 42.1476 101.314 42.0896 101.453C42.0331 101.591 41.9477 101.707 41.8332 101.802C41.7187 101.896 41.5751 101.968 41.4025 102.016C41.2316 102.064 41.0316 102.088 40.8026 102.088H40.2425V103.591H39.9861V99.9521H40.8798ZM40.8524 100.179H40.2425V101.861H40.7777C41.0134 101.861 41.2158 101.835 41.3851 101.782C41.5544 101.727 41.6846 101.636 41.7759 101.508C41.8672 101.38 41.9128 101.206 41.9128 100.985C41.9128 100.705 41.8265 100.501 41.6539 100.373C41.4813 100.243 41.2142 100.179 40.8524 100.179ZM43.8619 99.9521C44.295 99.9521 44.6195 100.035 44.8352 100.201C45.0509 100.367 45.1588 100.625 45.1588 100.975C45.1588 101.154 45.1298 101.314 45.0717 101.453C45.0153 101.591 44.9298 101.707 44.8153 101.802C44.7008 101.896 44.5572 101.968 44.3847 102.016C44.2137 102.064 44.0138 102.088 43.7847 102.088H43.2247V103.591H42.9683V99.9521H43.8619ZM43.8345 100.179H43.2247V101.861H43.7598C43.9955 101.861 44.198 101.835 44.3672 101.782C44.5365 101.727 44.6668 101.636 44.758 101.508C44.8493 101.38 44.8949 101.206 44.8949 100.985C44.8949 100.705 44.8087 100.501 44.6361 100.373C44.4635 100.243 44.1963 100.179 43.8345 100.179ZM49.0122 101.767C49.0122 102.044 48.9782 102.297 48.9101 102.526C48.8421 102.755 48.74 102.953 48.6039 103.118C48.4679 103.284 48.2978 103.413 48.0936 103.504C47.8912 103.596 47.6547 103.641 47.3842 103.641C47.112 103.641 46.8739 103.596 46.6698 103.504C46.4657 103.413 46.2956 103.284 46.1595 103.118C46.0251 102.951 45.9238 102.753 45.8558 102.524C45.7878 102.293 45.7537 102.039 45.7537 101.762C45.7537 101.393 45.816 101.069 45.9404 100.789C46.0666 100.508 46.2516 100.289 46.4955 100.131C46.7411 99.9737 47.044 99.8949 47.4041 99.8949C47.7493 99.8949 48.0414 99.9704 48.2803 100.121C48.521 100.271 48.7027 100.486 48.8255 100.766C48.95 101.045 49.0122 101.378 49.0122 101.767ZM46.0226 101.764C46.0226 102.09 46.0715 102.377 46.1694 102.626C46.2674 102.873 46.4175 103.066 46.62 103.206C46.8225 103.345 47.078 103.415 47.3867 103.415C47.6987 103.415 47.9551 103.346 48.1559 103.208C48.3567 103.07 48.5052 102.878 48.6015 102.631C48.6977 102.383 48.7458 102.095 48.7458 101.767C48.7458 101.247 48.6322 100.844 48.4048 100.557C48.1791 100.27 47.8455 100.126 47.4041 100.126C47.0938 100.126 46.8357 100.195 46.63 100.333C46.4258 100.471 46.2732 100.662 46.1719 100.908C46.0724 101.154 46.0226 101.439 46.0226 101.764ZM52.4971 103.591H52.2358L50.0851 100.373H50.0726C50.0759 100.462 50.0784 100.554 50.0801 100.647C50.0834 100.738 50.0859 100.833 50.0875 100.93C50.0909 101.027 50.0925 101.126 50.0925 101.229V103.591H49.8486V99.9521H50.1124L52.2557 103.161H52.2681C52.2665 103.088 52.264 103.003 52.2607 102.907C52.259 102.811 52.2565 102.712 52.2532 102.611C52.2515 102.509 52.2507 102.414 52.2507 102.324V99.9521H52.4971V103.591Z" fill="#603E41"/>
<mask id="mask0_134_331" style="mask-type:luminance" maskUnits="userSpaceOnUse" x="0" y="0" width="120" height="136">
<path d="M0.00700378 113.007C0.148004 112.977 0.294 112.96 0.444 112.96C1.601 112.96 2.539 113.898 2.539 115.055C2.539 116.212 1.601 117.15 0.444 117.15C0.294 117.15 0.148004 117.133 0.00700378 117.103V120.298C0.148004 120.268 0.294 120.251 0.444 120.251C1.601 120.251 2.539 121.189 2.539 122.346C2.539 123.503 1.601 124.441 0.444 124.441C0.294 124.441 0.148004 124.424 0.00700378 124.394V127.589C0.148004 127.559 0.294 127.542 0.444 127.542C1.601 127.542 2.539 128.48 2.539 129.637C2.539 130.794 1.601 131.732 0.444 131.732C0.294 131.732 0.148004 131.715 0.00700378 131.685V135.323H5.62199C5.55299 135.116 5.507 134.898 5.507 134.668C5.507 133.511 6.44501 132.573 7.60201 132.573C8.759 132.573 9.69701 133.511 9.69701 134.668C9.69701 134.898 9.651 135.116 9.582 135.323H13.148C13.08 135.116 13.033 134.898 13.033 134.668C13.033 133.511 13.971 132.573 15.128 132.573C16.285 132.573 17.223 133.511 17.223 134.668C17.223 134.898 17.177 135.116 17.108 135.323H20.674C20.605 135.116 20.559 134.898 20.559 134.668C20.559 133.511 21.497 132.573 22.654 132.573C23.811 132.573 24.749 133.511 24.749 134.668C24.749 134.898 24.703 135.116 24.634 135.323H28.2C28.131 135.116 28.085 134.898 28.085 134.668C28.085 133.511 29.023 132.573 30.18 132.573C31.337 132.573 32.275 133.511 32.275 134.668C32.275 134.898 32.229 135.116 32.16 135.323H35.726C35.657 135.116 35.611 134.898 35.611 134.668C35.611 133.511 36.549 132.573 37.706 132.573C38.863 132.573 39.801 133.511 39.801 134.668C39.801 134.898 39.755 135.116 39.686 135.323H43.252C43.183 135.116 43.137 134.898 43.137 134.668C43.137 133.511 44.075 132.573 45.232 132.573C46.389 132.573 47.327 133.511 47.327 134.668C47.327 134.898 47.281 135.116 47.212 135.323H50.778C50.709 135.116 50.663 134.898 50.663 134.668C50.663 133.511 51.601 132.573 52.758 132.573C53.915 132.573 54.853 133.511 54.853 134.668C54.853 134.898 54.807 135.116 54.738 135.323H58.304C58.235 135.116 58.189 134.898 58.189 134.668C58.189 133.511 59.127 132.573 60.284 132.573C61.441 132.573 62.379 133.511 62.379 134.668C62.379 134.898 62.333 135.116 62.264 135.323H65.83C65.761 135.116 65.715 134.898 65.715 134.668C65.715 133.511 66.653 132.573 67.81 132.573C68.967 132.573 69.905 133.511 69.905 134.668C69.905 134.898 69.859 135.116 69.79 135.323H73.356C73.288 135.116 73.241 134.898 73.241 134.668C73.241 133.511 74.179 132.573 75.336 132.573C76.493 132.573 77.431 133.511 77.431 134.668C77.431 134.898 77.385 135.116 77.316 135.323H80.882C80.813 135.116 80.767 134.898 80.767 134.668C80.767 133.511 81.705 132.573 82.862 132.573C84.019 132.573 84.957 133.511 84.957 134.668C84.957 134.898 84.911 135.116 84.842 135.323H88.408C88.34 135.116 88.293 134.898 88.293 134.668C88.293 133.511 89.231 132.573 90.388 132.573C91.545 132.573 92.483 133.511 92.483 134.668C92.483 134.898 92.437 135.116 92.368 135.323H95.934C95.865 135.116 95.819 134.898 95.819 134.668C95.819 133.511 96.757 132.573 97.914 132.573C99.071 132.573 100.009 133.511 100.009 134.668C100.009 134.898 99.963 135.116 99.894 135.323H103.46C103.391 135.116 103.345 134.898 103.345 134.668C103.345 133.511 104.283 132.573 105.44 132.573C106.597 132.573 107.535 133.511 107.535 134.668C107.535 134.898 107.489 135.116 107.42 135.323H110.986C110.917 135.116 110.871 134.898 110.871 134.668C110.871 133.511 111.809 132.573 112.966 132.573C114.123 132.573 115.061 133.511 115.061 134.668C115.061 134.898 115.015 135.116 114.946 135.323H119.425V131.732C118.268 131.732 117.33 130.794 117.33 129.637C117.33 128.48 118.268 127.542 119.425 127.542V124.442C118.268 124.442 117.33 123.504 117.33 122.347C117.33 121.19 118.268 120.252 119.425 120.252V117.152C118.268 117.152 117.33 116.214 117.33 115.057C117.33 113.9 118.268 112.962 119.425 112.962V112.941V109.841C118.268 109.841 117.33 108.903 117.33 107.746C117.33 106.589 118.268 105.651 119.425 105.651V102.551C118.268 102.551 117.33 101.613 117.33 100.456C117.33 99.299 118.268 98.361 119.425 98.361V95.261C118.268 95.261 117.33 94.323 117.33 93.166C117.33 92.009 118.268 91.071 119.425 91.071V87.971C118.268 87.971 117.33 87.033 117.33 85.876C117.33 84.719 118.268 83.781 119.425 83.781V80.681C118.268 80.681 117.33 79.743 117.33 78.586C117.33 77.429 118.268 76.491 119.425 76.491V73.391C118.268 73.391 117.33 72.453 117.33 71.296C117.33 70.139 118.268 69.201 119.425 69.201V66.101C118.268 66.101 117.33 65.163 117.33 64.006C117.33 62.849 118.268 61.911 119.425 61.911V58.811C118.268 58.811 117.33 57.873 117.33 56.716C117.33 55.559 118.268 54.621 119.425 54.621V51.521C118.268 51.521 117.33 50.583 117.33 49.426C117.33 48.269 118.268 47.331 119.425 47.331V44.231C118.268 44.231 117.33 43.293 117.33 42.136C117.33 40.979 118.268 40.041 119.425 40.041V36.941C118.268 36.941 117.33 36.003 117.33 34.846C117.33 33.689 118.268 32.751 119.425 32.751V29.651C118.268 29.651 117.33 28.713 117.33 27.556C117.33 26.399 118.268 25.461 119.425 25.461V22.361C118.268 22.361 117.33 21.423 117.33 20.266C117.33 19.109 118.268 18.171 119.425 18.171V15.071C118.268 15.071 117.33 14.133 117.33 12.976C117.33 11.819 118.268 10.881 119.425 10.881V7.78101C118.268 7.78101 117.33 6.843 117.33 5.686C117.33 4.529 118.268 3.591 119.425 3.591V0H115.061C115.061 1.157 114.123 2.095 112.966 2.095C111.809 2.095 110.871 1.157 110.871 0H107.535C107.535 1.157 106.597 2.095 105.44 2.095C104.283 2.095 103.345 1.157 103.345 0H100.008C100.008 1.157 99.07 2.095 97.913 2.095C96.756 2.095 95.818 1.157 95.818 0H92.481C92.481 1.157 91.543 2.095 90.386 2.095C89.229 2.095 88.291 1.157 88.291 0H84.954C84.954 1.157 84.016 2.095 82.859 2.095C81.702 2.095 80.764 1.157 80.764 0H77.428C77.428 1.157 76.49 2.095 75.333 2.095C74.176 2.095 73.238 1.157 73.238 0H69.902C69.902 1.157 68.964 2.095 67.807 2.095C66.65 2.095 65.712 1.157 65.712 0H62.375C62.375 1.157 61.437 2.095 60.28 2.095C59.123 2.095 58.185 1.157 58.185 0H54.849C54.849 1.157 53.911 2.095 52.754 2.095C51.597 2.095 50.659 1.157 50.659 0H47.323C47.323 1.157 46.385 2.095 45.228 2.095C44.071 2.095 43.133 1.157 43.133 0H39.797C39.797 1.157 38.859 2.095 37.702 2.095C36.545 2.095 35.607 1.157 35.607 0H32.27C32.27 1.157 31.332 2.095 30.175 2.095C29.018 2.095 28.08 1.157 28.08 0H24.743C24.743 1.157 23.805 2.095 22.648 2.095C21.491 2.095 20.553 1.157 20.553 0H17.217C17.217 1.157 16.279 2.095 15.122 2.095C13.965 2.095 13.027 1.157 13.027 0H9.69C9.69 1.157 8.752 2.095 7.595 2.095C6.438 2.095 5.5 1.157 5.5 0H0V3.638C0.141 3.608 0.286996 3.591 0.436996 3.591C1.594 3.591 2.532 4.529 2.532 5.686C2.532 6.843 1.594 7.78101 0.436996 7.78101C0.286996 7.78101 0.141 7.76399 0 7.73399V10.929C0.141 10.899 0.286996 10.882 0.436996 10.882C1.594 10.882 2.532 11.82 2.532 12.977C2.532 14.134 1.594 15.072 0.436996 15.072C0.286996 15.072 0.141 15.055 0 15.025V18.22C0.141 18.19 0.286996 18.173 0.436996 18.173C1.594 18.173 2.532 19.111 2.532 20.268C2.532 21.425 1.594 22.363 0.436996 22.363C0.286996 22.363 0.141 22.346 0 22.316V25.511C0.141 25.481 0.286996 25.464 0.436996 25.464C1.594 25.464 2.532 26.402 2.532 27.559C2.532 28.716 1.594 29.654 0.436996 29.654C0.286996 29.654 0.141 29.637 0 29.607V32.802C0.141 32.772 0.286996 32.755 0.436996 32.755C1.594 32.755 2.532 33.693 2.532 34.85C2.532 36.007 1.594 36.945 0.436996 36.945C0.286996 36.945 0.141 36.928 0 36.898V40.093C0.141 40.063 0.286996 40.046 0.436996 40.046C1.594 40.046 2.532 40.984 2.532 42.141C2.532 43.298 1.594 44.236 0.436996 44.236C0.286996 44.236 0.141 44.219 0 44.189V47.384C0.141 47.354 0.286996 47.337 0.436996 47.337C1.594 47.337 2.532 48.275 2.532 49.432C2.532 50.589 1.594 51.527 0.436996 51.527C0.286996 51.527 0.141 51.51 0 51.48V54.675C0.141 54.645 0.286996 54.628 0.436996 54.628C1.594 54.628 2.532 55.566 2.532 56.723C2.532 57.88 1.594 58.818 0.436996 58.818C0.286996 58.818 0.141 58.801 0 58.771V61.966C0.141 61.936 0.286996 61.919 0.436996 61.919C1.594 61.919 2.532 62.857 2.532 64.014C2.532 65.171 1.594 66.109 0.436996 66.109C0.286996 66.109 0.141 66.092 0 66.062V69.257C0.141 69.227 0.286996 69.21 0.436996 69.21C1.594 69.21 2.532 70.148 2.532 71.305C2.532 72.462 1.594 73.4 0.436996 73.4C0.286996 73.4 0.141 73.383 0 73.353V76.548C0.141 76.518 0.286996 76.501 0.436996 76.501C1.594 76.501 2.532 77.439 2.532 78.596C2.532 79.753 1.594 80.691 0.436996 80.691C0.286996 80.691 0.141 80.674 0 80.644V83.839C0.141 83.809 0.286996 83.792 0.436996 83.792C1.594 83.792 2.532 84.73 2.532 85.887C2.532 87.044 1.594 87.982 0.436996 87.982C0.286996 87.982 0.141 87.965 0 87.935V91.13C0.141 91.1 0.286996 91.083 0.436996 91.083C1.594 91.083 2.532 92.021 2.532 93.178C2.532 94.335 1.594 95.273 0.436996 95.273C0.286996 95.273 0.141 95.256 0 95.226V98.421C0.141 98.391 0.286996 98.374 0.436996 98.374C1.594 98.374 2.532 99.312 2.532 100.469C2.532 101.626 1.594 102.564 0.436996 102.564C0.286996 102.564 0.141 102.547 0 102.517V105.712C0.141 105.682 0.286996 105.665 0.436996 105.665C1.594 105.665 2.532 106.603 2.532 107.76C2.532 108.917 1.594 109.855 0.436996 109.855C0.286996 109.855 0.141 109.838 0 109.808V113.003C0.141 112.973 0.286996 112.956 0.436996 112.956" fill="white"/>
</mask>
<g mask="url(#mask0_134_331)">
<path d="M112.266 6.32397C114.607 6.19397 116.965 5.92297 119.332 5.50497C121.218 5.17197 123.066 4.75198 124.875 4.25098" stroke="#333333" stroke-miterlimit="10"/>
<path d="M158.96 -2.606C186.521 -30.1662 186.521 -74.8501 158.96 -102.41C131.4 -129.971 86.7163 -129.971 59.1561 -102.41C31.5959 -74.8501 31.5959 -30.1662 59.1561 -2.60601C86.7163 24.9542 131.4 24.9542 158.96 -2.606Z" stroke="#333333" stroke-miterlimit="10"/>
<path d="M126.694 -10.9769C149.629 -20.7079 160.333 -47.1889 150.602 -70.1238C140.871 -93.0587 114.39 -103.763 91.4551 -94.0316C68.5201 -84.3005 57.8163 -57.8196 67.5473 -34.8846C77.2783 -11.9497 103.759 -1.24584 126.694 -10.9769Z" stroke="#333333" stroke-miterlimit="10"/>
</g>
</svg>
